<svg xmlns="http://www.w3.org/2000/svg" preserveAspectRatio="none" viewBox="0 0 50 100">
  <path fill="#333" fill-opacity=".2" d="M25.15 21.3l-1.45.35-1.15-5.1q-.2-.45-.7-.7-.15429687-.07128906-.3-.1-.41914063-1.36875-1.35-2.75-.37265625 1.08046875-.15 3.35-.22011719.36347656-.3.95-.15.55-.05 1l.85 4.1-.5.15H20l1.3 5.1.35-.1.2.95q-.22089844.40429688-.35 1.05-.1.6-.15 1.15v3.6l-1.75-1.6q-.5-.45-1.1-.35-.65.15-.95.8l-.35.55q-1.55644531-1.15136719-3.8-1.65.61210938 1.31816406 3.1 3.4.0203125.26289062.05.5.1.8.6 1.25l4.8 4.35q.35.55.85 1.15l.2.3q.25.3.55.65.65.75 1.5 1.65l-.05 2h-.3l-3.2 64.8h12.95L31.5 47.3h-.4V45q.9-.9 1.5-1.7.05-.05.05-.1l.3-.4q.4-.45.7-1.6.15-.5.2-1l.05-.45v-10.7q-.6-1.25-2.35-.95-.35-.7-1.25-.7-.8-.05-1.65-.05l-.05-.15q0-.2-.2-.35-.3-.25-.55-.3h-.15q-.1-.05-.2-.05-.4-.05-.95-.05h-.4l.25-.05v-.05l.05.05-1.3-5.1z"/>
  <path fill="#3F0" d="M22.05 59.9v-.35l-.05.35h.05z"/>
  <path fill="#FCE9E6" d="M21.8 24.05q-.05.1-.05.2l-.75.1q-.9.2-1.35.4-.7.35-.95 1.6-.1.6-.15 1.15v3.6l-1.75-1.6q-.5-.45-1.1-.35-.65.15-.95.8l-.75 1.3q-.35.7-.25 1.5.1.8.6 1.25l4.8 4.35q.35.55.85 1.15l.2.3q.25.3.55.65.65.75 1.5 1.65l-.15 17.45v.05l-.05.3h6.25v-.35h.1l-.15-.3.05-17.45q.9-.9 1.5-1.7.05-.05.05-.1l.3-.4q.4-.45.7-1.6.15-.5.2-1l.05-.45v-10.7q-.6-1.25-2.35-.95-.35-.7-1.25-.7-.8-.05-1.65-.05L25.8 24q0-.2-.2-.35-.3-.25-.55-.3h-.15q-.1-.05-.2-.05-.4-.05-.95-.05-1 0-1.35.1-.25.05-.45.3-.1.15-.15.4z"/>
  <path fill="#CCCCA3" d="M15.05 31q-1.75-1.55-4.45-2.15.65 1.4 3.45 3.7 1.2.1 1-1.55z"/>
  <path fill="#FCE9E6" d="M19.05 12.65q-.65-.3-1.35.05-.6.3-.75 1.4-.15.55-.05 1l2.2 10.3h3.4l-2.75-12.05q-.2-.45-.7-.7z"/>
  <path fill="#CCCCA3" d="M19.05 14.35q-.10917969-2.25917969-1.65-4.55-.5 1.45.05 5.05.8.9 1.6-.5z"/>
  <path fill="#DA1A22" d="M22.34077148 18.08691406l-5.07734375 1.29064942 1.29064942 5.07734375 5.07734375-1.29064942-1.29064942-5.07734375z"/>
  <path fill="#F26254" d="M22.19777832 21.8265625l-.62536621-2.46015625-2.46015625.62536621.62536621 2.46015625 2.46015625-.62536621z"/>
  <path fill="#E68D78" d="M17.26176453 19.3710205l1.64622497.99558106 2.47981262-.62339706.95133362-1.65587464-5.07737121 1.28369065z"/>
  <path fill="#EC5044" d="M22.33910828 18.0803711l-.96264649 1.6935791.60343857 2.401297 1.67416992 1.02330627-1.314962-5.11818238z"/>
  <path fill="#F54B46" d="M18.9313881 20.38329239l-1.69546204-1.02485962 1.31662521 5.12472534.98072205-1.67727661-.60188523-2.42258911z"/>
  <g>
    <path fill="#600" d="M28.7 44.1h-6.8l-3.2 64.8h12.95L28.7 44.1z"/>
  </g>
</svg>
