<svg xmlns="http://www.w3.org/2000/svg" preserveAspectRatio="none" viewBox="0 0 50 100">
  <path fill="#0C0" d="M20.6 59.55l-.05.35h.05v-.35z"/>
  <path fill="#3F0" d="M20.6 59.9h.05v-.35l-.05.35z"/>
  <path fill="#333" fill-opacity=".2" d="M24.25 63.15l-.05.35h.05v-.35m-.1.35h.05v-.35l-.05.35m1.35-47.35q-.20957031.17480469-.4.45-.5.65-.5 1.5l.3 9.4q-.15 0-.25.05l-1.7-7.35q-.2-.8-.8-1.25-.34296875-.22851562-.7-.25-.57382813-1.22851562-1.55-2.4-.24570312 1.05273438.1 3.1-.17070313.20429688-.3.5-.3.75-.1 1.6l2.1 9.3q0 .1.05.2l.6 3.8-1.85-1.7q-.5-.45-1.1-.35-.65.15-.95.8l-.3.5q-1.55625-1.1125-3.75-1.6.60039062 1.29316406 3 3.35.01503906.27089844.05.55.1.8.6 1.25l4.8 4.35q.35.55.85 1.15l.2.3q.25.3.55.65.65.75 1.5 1.65l-.1 2h-.35l-3.2 64.8h12.95L32.3 47.7h-.25L32 45.4q.9-.9 1.5-1.7.05-.05.05-.1l.3-.4q.4-.45.7-1.6.15-.5.2-1l.05-.45v-8q.05-.15.05-.3l1.45-6.5q.2-.85-.15-1.6-.01445312-.03632812-.05-.1.45507812-1.96582031 0-4.2-.85253906.89121094-1.55 3.2-.32167969.07226563-.6.3-.65.4-.8 1.25l-.75 3.55q-.2-.05-.4-.05l.9-7.65q.05-.85-.3-1.6.30664062-1.80390625-.1-3.8-.79570313.83183594-1.45 2.9-.54023438-.00976562-1 .45-.5.5-.65 1.35l-.9 8.2h-.1l-.25-9.6q-.05-.9-.55-1.5-.22773438-.27832031-.55-.45-.27460938-1.3328125-1-2.7-.465625.93105469-.55 2.85z"/>
  <path fill="#FCE9E6" d="M22.85 12.3h-.25q-.65.05-1.1.7-.5.65-.5 1.5l.3 9.4q-.15 0-.25.05l-1.7-7.35q-.2-.8-.8-1.25-.6-.4-1.25-.15l-.2.1q-.65.2-1 1-.3.75-.1 1.6l2.1 9.3q0 .1.05.2l.6 3.8-1.85-1.7q-.5-.45-1.1-.35-.65.15-.95.8l-.75 1.3q-.35.7-.25 1.5.1.8.6 1.25l4.8 4.35q.35.55.85 1.15l.2.3q.25.3.55.65.65.75 1.5 1.65l-.55 17.45v.05l-.05.3h7.05v-.35h.1l-.15-.3-.35-17.45q.9-.9 1.5-1.7.05-.05.05-.1l.3-.4q.4-.45.7-1.6.15-.5.2-1l.05-.45v-8q.05-.15.05-.3l1.45-6.5q.2-.85-.15-1.6-.3-.75-.95-1-.7-.25-1.25.2-.65.4-.8 1.25l-.75 3.55q-.2-.05-.4-.05l.9-7.65q.05-.85-.3-1.6-.45-.7-1.1-.8l-.25-.05q-.65-.15-1.2.4-.5.5-.65 1.35l-.9 8.2h-.1l-.25-9.6q-.05-.9-.55-1.5-.45-.55-1.15-.55z"/>
  <path fill="#CCCCA3" d="M15.25 31q-1.75-1.55-4.45-2.15.65 1.4 3.45 3.7 1.2.1 1-1.55m1.05-18.3q-.35 1.5.5 5 .9.85 1.7-.6-.45-2.3-2.2-4.4m14.25 7.85q.4 1.15 1.75.35.75-2.35.2-5.05-1.1 1.15-1.95 4.7M23.7 14.6q.05-2.45-1.25-4.9-.7 1.4-.5 5.05.7 1 1.75-.15m5 1.5q.75-2.35.2-5.05-1.1 1.15-1.95 4.7.4 1.15 1.75.35z"/>
  <path fill="#600" d="M28.7 44.1h-6.8l-3.2 64.8h12.95L28.7 44.1z"/>
  <path fill="#DA1A22" d="M21.07753906 20.14047852l-5.07497558 1.28828125 1.28828125 5.07497558 5.07497558-1.28828125-1.28828125-5.07497558z"/>
  <path fill="#F26254" d="M20.98125 23.83034668l-.62421875-2.45900879-2.45900879.62421875.62421875 2.45900879 2.45900879-.62421875z"/>
  <path fill="#E68D78" d="M16.00090332 21.42221985l1.64499512.9955719 2.47865371-.62224426.95135193-1.65465394-5.07500076 1.2813263z"/>
  <path fill="#EC5044" d="M21.0758789 20.1339386l-.9626709 1.69233398.6023224 2.40017472 1.67291564 1.02329101-1.31256713-5.11579971z"/>
  <g>
    <path fill="#F54B46" d="M17.66927872 22.43448105l-1.69419556-1.02485047 1.3142273 5.12233963.9807312-1.67603454-.60076294-2.42145462z"/>
  </g>
</svg>
