<svg xmlns="http://www.w3.org/2000/svg" preserveAspectRatio="none" viewBox="0 0 50 100">
  <path fill="#0C0" d="M20.6 59.55l-.05.35h.05v-.35z"/>
  <path fill="#333" fill-opacity=".2" d="M23.8 62.75l-.05.35h.05v-.35m2.75-39l-1.65-1.1h-2l-1.75 1.15.05.05 1.7 2.2h.15q-.1375.05-.25.1-.7.35-.95 1.6-.1.6-.15 1.15v1.3q-.65.05-1.05.8-.25.35-.3.7-.5 4 .8 7.4.15.45.35.9.6 1.4 2.5 3.65.65.75 1.5 1.65l-.05 2h-.35l-3.2 64.8h12.95L31.9 47.3h-.35V45q.95-.95 1.55-1.8l.3-.4q.4-.45.7-1.6.15-.5.2-1l.05-.45V30.2q0-1.05-.8-1.75-.2-.25-.5-.4-.15-.1-.25-.15-.75-.1-.95-.1l-.15-.65q-.15-.95-1.45-1.2-.6-.1-1.25-.05 0-.35-.05-.5 0-.2-.2-.35-.3-.25-.55-.3-.4-.1-1.3-.1h-.95l.7-.85-.1-.05z"/>
  <path fill="#FCE9E6" d="M21.9 21.85q-.1.15-.15.4-.05.1-.05.2l-.75.1q-.9.2-1.35.4-.7.35-.95 1.6-.1.6-.15 1.15V27q-.65.05-1.05.8-.25.35-.3.7-.5 4 .8 7.4.15.45.35.9.6 1.4 2.5 3.65.65.75 1.5 1.65l-.2 17.7 6.15.2.1-18.2q.95-.95 1.55-1.8l.3-.4q.4-.45.7-1.6.15-.5.2-1l.05-.45V27q0-1.05-.8-1.75-.2-.25-.5-.4-.15-.1-.25-.15-.75-.1-.95-.1l-.15-.65q-.15-.95-1.45-1.2-.6-.1-1.25-.05 0-.35-.05-.5 0-.2-.2-.35-.3-.25-.55-.3-.4-.1-1.3-.1-1 0-1.35.1-.25.05-.45.3z"/>
  <path fill="#600" d="M28.7 44.1h-6.8l-3.2 64.8h12.95L28.7 44.1z"/>
  <path fill="#C43C38" d="M23.35 20.5l-5.35.15 1.7 2.2 1-.05v.05h1l1.75-2.25-.1-.1z"/>
  <path fill="#F54B46" d="M21.7 19.45h-1v-.05l-1 .05-1.75 1.15.05.05 5.35-.15-1.65-1.05z"/>
  <g>
    <path stroke="#FFF" stroke-opacity=".49803922" stroke-width=".1" stroke-linejoin="round" stroke-linecap="round" fill="none" d="M18 20.65l5.35-.125"/>
  </g>
</svg>
