<svg xmlns="http://www.w3.org/2000/svg" preserveAspectRatio="none" viewBox="0 0 50 100">
  <path fill="#333" fill-opacity=".2" d="M33.35 27.5q-.4-.25-.75-.35-.8 0-1.15.1-.15 0-.15.05l-.1-1.15q-.2-.95-1.4-1.05-.6-.05-1.15.05l.75-6.55q0-.7-.15-1.05-.10117187-.26972656-.3-.5.18457031-1.46972656-.2-3.2-.721875.82519531-1.3 2.75-.42402344.12050781-.7.55-.25.35-.35.7L25.35 25l-.45-1.75-1 .25-1.15-5q-.2-.45-.7-.7-.10097656-.04648438-.2-.1-.40957031-1.35449219-1.35-2.75-.36152344 1.0484375-.2 3.2-.25410156.396875-.35 1.1-.15.55-.05 1l.85 4-.95.25h-.05l1.3 5.1.8-.2.25 1.15q-.65.1-1.05.8-.15.35-.25.7-.25 2.1 0 4.05.1 1.25.45 2.4.2.95.6 1.9.85 1.9 3.7 5.05l-.1 1.85h-.35l-3.2 64.8h12.95L31.9 47.3h-.4l-.05-2.3q2-1.95 2.35-3.45.1-.45.2-1l.05-.45V29.05q0-1-.7-1.55z"/>
  <path fill="#FCE9E6" d="M26.2 15.4q0-.7-.15-1.05-.3-.8-1.15-.95-.9-.15-1.35.55-.25.35-.35.7l-1.45 9.95-2.2-9.3q-.2-.45-.7-.7-.65-.3-1.35.05-.6.3-.75 1.4-.15.55-.05 1l2.2 10.3q-.65.1-1.05.8-.15.35-.25.7-.25 2.1 0 4.05.1 1.25.45 2.4.2.95.6 1.9.85 1.9 3.7 5.05l-.6 17.55 6.8.1-.3-18.1q2-1.95 2.35-3.45.1-.45.2-1l.05-.45V25.85q0-1-.7-1.55-.4-.25-.75-.35-.8 0-1.15.1-.15 0-.15.05l-.1-1.15q-.2-.95-1.4-1.05-.6-.05-1.15.05l.75-6.55z"/>
  <path fill="#600" d="M28.7 44.1h-6.8l-3.2 64.8h12.95L28.7 44.1z"/>
  <path fill="#CCCCA3" d="M18.95 16.3q-.10917969-2.25917969-1.65-4.55-.5 1.45.05 5.05.8.9 1.6-.5zM25.45 15.5q.7-2.15.1-4.85-1.05 1.2-1.75 4.75.4 1.15 1.65.1z"/>
  <path fill="#DA1A22" d="M21.69077148 20.03691406l-5.07734375 1.29064942 1.29064942 5.07734375 5.07734375-1.29064942-1.29064942-5.07734375z"/>
  <path fill="#F26254" d="M21.54777832 23.7765625l-.62536621-2.46015625-2.46015625.62536621.62536621 2.46015625 2.46015625-.62536621z"/>
  <path fill="#E68D78" d="M16.61176453 21.3210205l1.64622497.99558106 2.47981262-.62339706.95133362-1.65587464-5.07737121 1.28369065z"/>
  <path fill="#EC5044" d="M21.68910828 20.0303711l-.96264649 1.6935791.60343857 2.401297 1.67416992 1.02330627-1.314962-5.11818238z"/>
  <path fill="#F54B46" d="M18.2813881 22.33329239l-1.69546204-1.02485962 1.31662521 5.12472534.98072205-1.67727661-.60188523-2.42258911z"/>
</svg>
