<svg xmlns="http://www.w3.org/2000/svg" preserveAspectRatio="none" viewBox="0 0 50 100">
  <path fill="#0C0" d="M20.6 59.55l-.05.35h.05v-.35z"/>
  <path fill="#3F0" d="M20.6 59.9h.05v-.35l-.05.35z"/>
  <path fill="#C43C38" d="M18 22.55l1.7 2.2 1-.05v.05h1l1.75-2.25-.1-.1-5.35.15z"/>
  <path fill="#F54B46" d="M20.7 21.3l-1 .05-1.75 1.15.05.05 5.35-.15-1.65-1.05h-1v-.05z"/>
  <path stroke="#FFF" stroke-opacity=".49803922" stroke-width=".1" stroke-linejoin="round" stroke-linecap="round" fill="none" d="M18 22.55l5.35-.125"/>
  <path fill="#333" fill-opacity=".2" d="M24.2 63.1v-.35l-.05.35h.05m0 0h.05v-.35l-.05.35m1.25-35.6l-.75.1q-.9.2-1.35.4-.7.35-.95 1.6-.1.6-.15 1.15v3.6l-1.75-1.6q-.5-.45-1.1-.35-.65.15-.95.8l-.35.55q-1.55644531-1.15136719-3.8-1.65.61210937 1.31816406 3.1 3.4.0203125.26289062.05.5.1.8.6 1.25l4.8 4.35q.35.55.85 1.15l.2.3q.25.3.55.65.65.75 1.5 1.65l-.05 1.95h-.4l-3.2 64.8h12.95L32.3 47.3H32v-2.25q.9-.9 1.5-1.7.05-.05.05-.1l.3-.4q.4-.45.7-1.6.15-.5.2-1l.05-.45.05-8.3L36.3 25q.2-.85-.15-1.6l-.1-.25q.38847656-1.89707031-.05-4.05-.85644531.8953125-1.55 3.25-.26894531.0609375-.5.25-.65.4-.8 1.25l-1.05 4.6-.15-.1q-.25-.25-.55-.35-.25-.15-.6-.2-.6-.1-1.25-.05 0-.35-.05-.5 0-.2-.2-.35-.3-.25-.55-.3h-.15q-.1-.05-.2-.05-.4-.05-.95-.05-1 0-1.35.1-.25.05-.45.3-.1.15-.15.4-.05.1-.05.2z"/>
  <g>
    <path fill="#3F0" d="M21.75 59.95v-.35l-.05.35h.05z"/>
    <path fill="#FCE9E6" d="M25.15 23.4H25q-.1-.05-.2-.05-.4-.05-.95-.05-1 0-1.35.1-.25.05-.45.3-.1.15-.15.4-.05.1-.05.2l-.75.1q-.9.2-1.35.4-.7.35-.95 1.6-.1.6-.15 1.15v3.6l-1.75-1.6q-.5-.45-1.1-.35-.65.15-.95.8l-.75 1.3q-.35.7-.25 1.5.1.8.6 1.25l4.8 4.35q.35.55.85 1.15l.2.3q.25.3.55.65.65.75 1.5 1.65L21.8 59.6v.05l-.05.3h6.85v-.35h.1l-.15-.3-.15-17.45q.9-.9 1.5-1.7.05-.05.05-.1l.3-.4q.4-.45.7-1.6.15-.5.2-1l.05-.45.05-8.3 1.45-6.5q.2-.85-.15-1.6-.3-.75-.95-1-.7-.25-1.25.2-.65.4-.8 1.25l-1.05 4.6-.15-.1q-.25-.25-.55-.35-.25-.15-.6-.2-.6-.1-1.25-.05 0-.35-.05-.5 0-.2-.2-.35-.3-.25-.55-.3z"/>
  </g>
  <g>
    <path fill="#CCCCA3" d="M15.15 31.05Q13.4 29.5 10.7 28.9q.65 1.4 3.45 3.7 1.2.1 1-1.55m17.05-10.1q.75-2.35.2-5.05-1.1 1.15-1.95 4.7.4 1.15 1.75.35z"/>
  </g>
  <g>
    <path fill="#600" d="M28.7 44.1h-6.8l-3.2 64.8h12.95L28.7 44.1z"/>
  </g>
</svg>
