<svg xmlns="http://www.w3.org/2000/svg" preserveAspectRatio="none" viewBox="0 0 50 100">
  <defs>
    <filter id="a" x="-20%" y="-20%" width="140%" height="140%" color-interpolation-filters="sRGB">
      <feColorMatrix in="SourceGraphic" values="1 0 0 0 0 0 1 0 0 0 0 0 1 0 0 0 0 0 0.2 0" result="result1"/>
    </filter>
  </defs>
  <path fill="#333" d="M21.4 10q-.05-.2-.1-.45-.4-1.35-2.15-1.5-.95-.1-1.25.2 0-1.25-2.4-1.1-2.45.1-2.75 1.65-.4-.8-.85-.95l.05-.05-.6-2.35q-.25-.85-.85-1.05l-.25-.85q.1-.25.05-.65-.15-.95-.7-2Q9-.15 8.15 0 7.3.1 7.1.2q-1.05.55-1.4.9l-.45.7q-.15.5-.15.95 0 .45.7 2.45.3.95.6 1.3l-.1.1q.6 2.95.85 3.8.2.7.7.1L8 11q-.2.2-.35.4.3 1.3.55 1.95-1.2.25-1.35 1.25-.15.6-.2 1.2-.15 0-.3.05-.15-.1-.25-.15.25-.5-.1-.75-.6-.45-2.05-.8-1.5-.35-2.4.25-.95.6-1.2 1.25-.25.6-.3 1.15l-.05.85q.15.45.4.85.2.35 1.85 1.7 1 .8 1.4.85-.05.15-.05.35 2.8 1.9 3.65 2.45.5.35.65 0l.7.5q.2.4.6 1 .85 1.25 1.4 1.35v.8q-.5.3-.45.65.05 1.3.05 1.45-.05.15.2 3.2h.2v1.75l-.15.25q-.4.9-.45 1.85v1.05l.5 2.5q-.2.4-.3.85l-.2 1 .35 2.9q-.15.2-.15.45.05 1.45.1 2.7v.2q.1 1.5.15 3.05.05 1.55 0 1.85 0 .1.15.2v.45q-.6.3-.65 1.35-.05 1.55.1 3.1.15 1.5.15 1.8.05.25.4.2v.65q-.1 0-.25.05-.15 2.2.25 3.25v.45q-.5.3-.45.65.05 1.3.05 1.45-.05.15.2 3.2h.2v1.75l-.15.25q-.4.9-.45 1.85v1.05l.5 2.5q-.2.4-.3.85l-.2 1 .3 2.4q-.15.15-.15.35.05 1.3.05 1.45-.05.1.1 2-.25.75-.3 1.5V88l.2 1v.45q-.05.15.2 3.2l7.8-1.25q1.05-.05 2.3-.1h1.3q1.35.05 1.5.65l.05.3q-.04785156-.32285156.1-1.85.1-1.55.15-3.45 0-.15-.05-.3.1-.95 0-2.25h-.1q.1-1.2.15-2.6v-.95q-.00136719-.41523437-.05-.95h-.05q-.05-.3-.2-.45v-.25q.25.05.3-.2 0-.3.15-1.8.15-1.55.1-3.1-.05-.95-.55-1.3v-.55q.05-.1.05-.15-.05-.3 0-1.85t.15-3.05V67q.05-1.25.1-2.7 0-.3-.15-.55l.05-.4q.0015625-.05.05-.05l-.05-.05.3-2.9-.2-1q-.1-.45-.25-.85l.45-2.5v-1.05q-.05-.95-.45-1.85l-.05-.1v-1.9h.1q.25-3.05.2-3.2 0-.15.05-1.45 0-.3-.3-.55.35-1.1.2-3.2-.15-.05-.25-.05V42q.25.05.3-.2 0-.3.15-1.8.15-1.55.1-3.1-.05-.95-.55-1.3v-.55q.05-.1.05-.15-.05-.3 0-1.85T23.5 30v-.2q.05-1.25.1-2.7 0-.4-.3-.65.85-.6 1.3-1.4 0-.05.05-.05 1.15-3.1.3-5.95v-.45q.55-.65.4-2.7-.25-2.4-.35-2.9 0-.05-.05-.1v-1.1q0-.25-.05-.45-.05-.15-.1-.25-.05-.05-.05-.1-.25-.45-.8-.75-.5-.25-1-.35-1.1 0-1.55.1z" filter="url(#a)" transform="translate(14.3 11.85)"/>
  <path fill="#CBCBBA" d="M23.85 18.25L22.8 20.4l-3-9.3q-.25-.45-.95-.7-.9-.3-1.85.05-.85.3-1.05 1.4-.15.55-.05 1l4.85 16.35q.05.6.1 1.4.25 3.4.05 5.25v65.3h12.7V36q.8-.35 1.3-1.85.15-.45.25-1l.1-.45V21.65q0-.25-.05-.45-.2-.7-.95-1.1-.5-.25-1-.35-1.1 0-1.55.1-.2 0-.2.05l-.3-.7q-.35-.7-1.25-.7-.95-.05-2.6-.25-1.7-.25-3.5 0z"/>
  <path fill="#CBCBBA" d="M24.55 29.1H21.2l-.7-.2-.1-.1-1.2-.95 1.05 1-3.6-3.15q-.65-.45-1.45-.35-.8.15-1.25.8l-.95 1.3q-.45.7-.3 1.5.1.8.75 1.25l6.9 5.05 1.25.7 2.95-.6V29.1z"/>
  <path fill="#ECECE2" d="M18.95 29.6q.8203125-1.98964844 1.1-2.1l-2.25-1.75q-1.51308594-.53515625-2.55 1.3-1.03691406 1.88515625-1.35 4.2 2.78125 1.878125 3.6 2.45.86035156.56054688.75-.75-.11621094-1.31015625.7-3.35z"/>
  <path fill="#ECECE2" d="M16.25 24.8q-.55976563-.46464844-2.05-.8-1.44355469-.33847656-2.4.25-.89765625.58769531-1.15 1.2-.25859375.66113281-.3 1.2l-.05.85q.15.45.4.85.2.35 1.85 1.7 1.65 1.3 1.7.55.05-.75-.25-.8-.35-.05.2-1.2.55078125-1.30292969 1.6-2.35 1.05136719-.98886719.45-1.45z"/>
  <path fill="#E5E5D7" d="M19.45 23.1q-2.1-.05-2.3 1.35-.3 1.35-.4 2.5-.1 1.15.1 2.05.2.85.5.9.25.05.8-.05t3.2.35q1.9.3 12.15 6.15 2.2-1.4 1.75-4.5-3.65-2.7-6-4.35-4.5-3.15-5.15-3.4-2.6-1-4.65-1zM33.8 39.85q.05-1.55-1.85-1.25-1.9.3-4.5 1.25-2.65 1-3.95 1.9-1.4 1-2.35 2.2l-.4.7q-.4.9-.45 1.85v1.05l.8 4.15q.05.35.15.15.2-.1.55-.65.54824219-.80214844 2.15-3.1 1.6546875-2.24375 4.55-2.7 2.94511719-.40644531 4.05-.4 1.1015625.05195312 1.1-.25-.05-.3 0-1.85t.15-3.05zM24.7 51.4l-4.05 3.45q6.97070312 1.50449219 12.8 1.25.58339844-1.01230469.4-3.55-2.615625-.55097656-2.9-.6-1.45-.25-6.25-.55z"/>
  <path fill="#ECECE2" d="M22.7 24.35q-.06542969.96699219.1.9.17128906-.06425781 3-1.25 2.82167969-1.18691406 5.6-1.75 2.78203125-.56210938 3.4-.5.61289063.06484375.25-.8-.30332031-.86972656-2.5-1.05-2.20664063-.19414062-9.85 4.45z"/>
  <path fill="#ECECE2" d="M31.6 19.4q-.4-1.35-2.15-1.5-1.75-.15-1.35.85-3.17734375 4.26582031-8.15 5.5 2.9.7 3.1.95.2.3 2.35-.5 2.15-.75 3.95-2.2 1.75-1.5 2.2-1.6.4-.1.05-1.5z"/>
  <path fill="#ECECE2" d="M23.1 18.85q-.65839844-1.4890625-1.55-1.2-.89746094.34609375-3.6 3.6.5 2.05.7 2.4.16367187.30019531 1.15.3 1.021875.04960938 2.95-1.15 1.98359375-1.19570313 1.5-1.85-.4390625-.60664062-1.15-2.1zM19.9 10.75q-.6-1.05-1.45-.9-.85.1-1.05.2-1.05.55-1.4.9l-.45.7q-.15.5-.15.95-.00507813.45390625.65 2.4.71523437 1.98828125 1.1 1.4.44003906-.57949219.2-.8-.18554688-.1765625.9-1 1.08886719-.77167969 1.75-.9.70117188-.07558594.55-1-.10019531-.89433594-.65-1.95z"/>
  <path fill="#ECECE2" d="M20.5 18.4q1.70644531-.84492188 1.75-.75l-.6-2.4q-.44863281-1.43105469-1.9-1-1.44902344.43144531-3.15 2.2.62207031 2.95410156.8 3.75.23710937.840625.8-.05.60371094-.89492187 2.3-1.75zM27.95 20.1q-.1453125-.24257813.15-1.75.346875-1.50898438-2.3-1.4-2.65332031.15625-2.8 1.9-.13691406 1.80058594.5 2.5.67480469.69140625 1.4.5.73691406-.18320313 2-.85 1.24980469-.60585937 1.05-.9zM35.05 28.6q.8-.5.6-2.85-.25-2.4-.35-2.9-.09492187-.4953125-1.65-.35-1.515625.18574219-3.85.45-2.33457031.2640625-4.45 1-2.10527344.79511719-4.4 2.25-.3.2-3.15 2.15-1.15.8-.4 2.85.35 1.05.95 1.95 6.5-.8 11.2-2.4 4.7-1.65 5.5-2.15z"/>
  <path fill="#E5E5D7" d="M26.1 32.4q-3.58242188.66679688-5.1.6-1.47285156-.07753906-1.95-.05-.41855469.07558594-.55.3-.08984375.24042969 1 1.9 1.09472656 1.70195313 1.75 1.35 5.75.51699219 8.9-.2 3.14941406-.70664062 4.8-1.45 1.21542969-3.29082031.2-6.3-5.46503906 3.24335938-9.05 3.85z"/>
  <path fill="#ECECE2" d="M20.7 42.65l7.8-1.25q1.41660156-.08398437 3.15-.15 1.73691406-.01503906 1.95.65l.05.3q-.03828125-.26484375.05-1.8.13867188-1.53027344.15-3.45.06074219-1.91933594-6.75-1.1-6.76835938.86269531-6.7 2.15.11914062 1.29570313.05 1.45-.01230469.14746094.25 3.2zM21.35 55.4q.39726562-.29785156 1.45-.95 4.6953125-2.94453125 7.4-2.9 2.7140625.08359375 3.15.2.48457031.17773438.5-.1.05878906-.29003906.2-1.85.13300781-1.50996094.1-3.05-.03125-1.53535156-1.35-1.55-1.31132813.02636719-4.05.45-2.73574219.47910156-4.25 1.2-1.51015625.71796875-2.7 1.7l-.5.6q-.6.85-.8 1.75l-.2 1 .45 4q.22441406-.21953125.6-.5z"/>
  <path fill="#E5E5D7" d="M20.6 58.15q-.05-1.55 1.85-1.25 1.9.3 4.5 1.25 2.65 1 3.95 1.9 1.4 1 2.35 2.2l.4.7q.4.9.45 1.85v1.05L33.3 70q-.05.35-.15.15-.2-.1-.55-.65-.54824219-.80214844-2.15-3.1-1.6546875-2.24375-4.55-2.7-2.94511719-.40644531-4.05-.4-1.1015625.05195313-1.1-.25.05-.3 0-1.85t-.15-3.05zM29.8 69.7l4.05 3.45q-6.97070313 1.50449219-12.8 1.25-.58339844-1.01230469-.4-3.55 2.615625-.55097656 2.9-.6Q25 70 29.8 69.7z"/>
  <path fill="#ECECE2" d="M33.7 60.95l-7.8-1.25q-1.41660156-.08398438-3.15-.15-1.73691406-.01503906-1.95.65l-.05.3q.03828125-.26484375-.05-1.8-.13867188-1.53027344-.15-3.45-.06074219-1.91933594 6.75-1.1 6.76835937.86269531 6.7 2.15-.11914063 1.29570313-.05 1.45.01230469.14746094-.25 3.2zM33.05 73.7q-.39726563-.29785156-1.45-.95-4.6953125-2.94453125-7.4-2.9-2.7140625.08359375-3.15.2-.48457031.17773438-.5-.1-.05878906-.29003906-.2-1.85-.13300781-1.50996094-.1-3.05.03125-1.53535156 1.35-1.55 1.31132812.02636719 4.05.45 2.73574219.47910156 4.25 1.2 1.51015625.71796875 2.7 1.7l.5.6q.6.85.8 1.75l.2 1-.45 4q-.22441406-.21953125-.6-.5z"/>
  <path fill="#E5E5D7" d="M33.8 77.05q.05-1.55-1.85-1.25-1.9.3-4.5 1.25-2.65 1-3.95 1.9-1.4 1-2.35 2.2l-.4.7q-.4.9-.45 1.85v1.05l.8 4.15q.05.35.15.15.2-.1.55-.65.54824219-.80214844 2.15-3.1 1.6546875-2.24375 4.55-2.7 2.94511719-.40644531 4.05-.4 1.1015625.05195313 1.1-.25-.05-.3 0-1.85t.15-3.05zM24.7 88.6l-4.05 3.45q6.97070312 1.50449219 12.8 1.25.58339844-1.01230469.4-3.55-2.615625-.55097656-2.9-.6-1.45-.25-6.25-.55z"/>
  <path fill="#ECECE2" d="M20.7 79.85l7.8-1.25q1.41660156-.08398437 3.15-.15 1.73691406-.01503906 1.95.65l.05.3q-.03828125-.26484375.05-1.8.13867188-1.53027344.15-3.45.06074219-1.91933594-6.75-1.1-6.76835938.86269531-6.7 2.15.11914062 1.29570313.05 1.45-.01230469.14746094.25 3.2zM21.35 92.6q.39726562-.29785156 1.45-.95 4.6953125-2.94453125 7.4-2.9 2.7140625.08359375 3.15.2.48457031.17773438.5-.1.05878906-.29003906.2-1.85.13300781-1.50996094.1-3.05-.03125-1.53535156-1.35-1.55-1.31132813.02636719-4.05.45-2.73574219.47910156-4.25 1.2-1.51015625.71796875-2.7 1.7l-.5.6q-.6.85-.8 1.75l-.2 1 .45 4q.22441406-.21953125.6-.5z"/>
  <path fill="#E5E5D7" d="M24.7 93.1l-4.05 3.45q6.97070312 1.50449219 12.8 1.25.58339844-1.01230469.4-3.55-2.615625-.55097656-2.9-.6-1.45-.25-6.25-.55z"/>
  <path fill="#ECECE2" d="M20.7 102.5l7.8-1.25q1.41660156-.08398438 3.15-.15 1.73691406-.01503906 1.95.65l.05.3q-.03828125-.26484375.05-1.8.13867188-1.53027344.15-3.45.06074219-1.91933594-6.75-1.1-6.76835938.86269531-6.7 2.15.11914062 1.29570313.05 1.45-.01230469.14746094.25 3.2z"/>
  <path fill="#ECECE2" d="M20.7 96.5l7.8-1.25q1.41660156-.08398438 3.15-.15 1.73691406-.01503906 1.95.65l.05.3q-.03828125-.26484375.05-1.8.13867188-1.53027344.15-3.45.06074219-1.91933594-6.75-1.1-6.76835938.86269531-6.7 2.15.11914062 1.29570313.05 1.45-.01230469.14746094.25 3.2z"/>
  <path fill="#E5E5D7" d="M33.8 90.15q.05-1.55-1.85-1.25-1.9.3-4.5 1.25-2.65 1-3.95 1.9-1.4 1-2.35 2.2l-.4.7q-.4.9-.45 1.85v1.05l.8 4.15q.05.35.15.15.2-.1.55-.65.54824219-.80214844 2.15-3.1 1.6546875-2.24375 4.55-2.7 2.94511719-.40644531 4.05-.4 1.1015625.05195313 1.1-.25-.05-.3 0-1.85t.15-3.05z"/>
</svg>
