<svg xmlns="http://www.w3.org/2000/svg" preserveAspectRatio="none" viewBox="0 0 50 100">
  <defs>
    <filter id="a" x="-20%" y="-20%" width="140%" height="140%" color-interpolation-filters="sRGB">
      <feColorMatrix in="SourceGraphic" values="1 0 0 0 0 0 1 0 0 0 0 0 1 0 0 0 0 0 0.2 0" result="result1"/>
    </filter>
  </defs>
  <path fill="#333" d="M20.35 6.1q.35-.1.5-.65.25-1 0-2.15-.3-1.2-1.05-1.45t-.95-.3q-1.05 0-1.5.1l-.6.35q-.4.3-.6.65-.2.35-.55 2.2-.25 1.3-.05 1.55-.2.35-.55 2.4-.15-.2-.35-.3l-.05-.45h.05q.35-.8.3-2.8 0-1-.5-1.4v-.6q.35-.5.15-2.25-.65-.85-1.65-.95-2.45-.3-3.5 1.45-.05 2.1.25 3.1.1.4.25.6H9.9q-.4 2.4-.1 3.2.15.4.3.5v.15q-.15.3-.15.65v.4q-.3-.35-.65-.35L8.65 6.7q-.15-.15-.4-.2l-.2-.7q.25-.25.2-.7-.1-.8-.9-1.85-.85-1.05-1.7-.9-.85.1-1.05.2-1.05.55-1.4.9l-.45.7q-.15.5-.15.95 0 .45.7 2.45.3.95.6 1.3.5 2.35.95 3.65.3.95.65.6v.05l-.2.2q.5 2.05.7 2.4.05.1.25.2v.35H6.2q.05.3.1.55.05 1 .4 2.05-.1 0-.2.05l-.35-.25q.15-.45-.15-.7-.6-.45-2.05-.8-1.5-.35-2.4.25-.95.6-1.2 1.25-.25.6-.3 1.15L0 20.7q.15.45.4.85.2.35 1.85 1.7 1 .8 1.45.85l-.1.4q2.8 1.9 3.65 2.45.35.2.55.15.3.4.6.6 0 .35.25.85h.15v.15q-.5.3-.45.65.05 1.3.05 1.45-.05.15.2 3.2h.2v1.75l-.15.25q-.4.9-.45 1.85v1.05l.5 2.5q-.2.4-.3.85l-.2 1 .35 2.9q-.15.2-.15.45.05 1.45.1 2.7v.2q.1 1.5.15 3.05.05 1.55 0 1.85 0 .1.15.2v.45q-.6.3-.65 1.35-.05 1.55.1 3.1.15 1.5.15 1.8.05.25.4.2v.65q-.1 0-.25.05-.15 2.2.25 3.25v.45q-.5.3-.45.65.05 1.3.05 1.45-.05.15.2 3.2h.2v1.75l-.15.25q-.4.9-.45 1.85v1.05l.5 2.5q-.2.4-.3.85l-.2 1 .3 2.4q-.15.15-.15.35.05 1.3.05 1.45-.05.1.1 2-.25.75-.3 1.5v1.05l.2 1v.45q-.05.15.2 3.2l7.8-1.25q1.05-.05 2.3-.1H20q1.35.05 1.5.65l.05.3q-.04785156-.32285156.1-1.85.1-1.55.15-3.45 0-.15-.05-.3.1-.95 0-2.25h-.1q.1-1.2.15-2.6v-.9q0-.45-.05-1h-.05q-.05-.3-.2-.45v-.25q.25.05.3-.2 0-.3.15-1.8.15-1.55.1-3.1-.05-.95-.55-1.3v-.55q.05-.1.05-.15-.05-.3 0-1.85t.15-3.05v-.2q.05-1.25.1-2.7 0-.3-.15-.55l.05-.4q0-.05.05-.05l-.05-.05.3-2.9-.2-1q-.1-.45-.25-.85l.45-2.5v-1.05q-.05-.95-.45-1.85l-.05-.05V52.3h.1q.25-3.05.2-3.2 0-.15.05-1.45 0-.3-.3-.55.35-1.1.2-3.2-.15-.05-.25-.05v-.65q.25.05.3-.2 0-.3.15-1.8.15-1.55.1-3.1-.05-.95-.55-1.3v-.55q.05-.1.05-.15-.05-.3 0-1.85t.15-3.05V31q.05-.75.1-1.55V28.3q0-.2-.05-.3.65-.55 1-1.2 0-.05.05-.05 1.2-3.3.2-6.3.35-.5.25-1.55-.2-1.3-.25-2.3.2-.05.2-.5l.25-.9v.1q.75-.9 1.1-2.8.1-.6-.05-1.05l.2-.65q.3-.1.45-.65.3-1.05.1-2-.25-1.05-.9-1.25-.65-.25-.8-.25-.9 0-1.3.05l-.5.3q-.35.25-.6.5-.25.2-.65 1.7-.35 1.1-.1 1.3l-.05.2q-.5.7-.85 1.2h-.05l.1-.7q.3-.2.55-1.15.4-1.85.5-2.7.05-.55-.35-.85l.1-.4z" filter="url(#a)" transform="translate(16.1 10.65)"/>
  <path fill="#ECECE2" d="M30.4 95.5q-.79882813.08691406-1.85.25-2.95.4-4.55 2.7-1.34140625 1.82910156-1.95 2.7-.14707031.20039062-.25.35-.35.55-.55.65-.1.2-.15-.15l-.65-3.2q.05.42011719.05.5-.05.15.2 3.2l7.8-1.25q1.05-.075 2.3-.1h1.3q1.32675781.04375 1.5.65l.05.3q-.04785156-.32285156.1-1.85.1-1.55.15-3.45 0-.17480469-.05-.35-.07597656-.17402344-.25-.35-.72792969-.64667969-3.2-.6m3.5-4.75q-.00917969-.22011719-.15-.4-.05332031 1.40214844-.1 2.85-.05 1.55 0 1.85 0 .06328125-.05.1-.115625.12988281-.5.15.41035156.18613281.5.5l.05.3q-.04785156-.32285156.1-1.85v-.05q.07753906-1.15664063.1-2.55.05449219-.39082031.05-.85v-.05m-1.1-8.3q-1.3 0-4.05.45-1.609375.26328125-2.8.6-.82792969.25957031-1.45.55-1.5.7-2.7 1.7l-.5.6q-.22675781.32128906-.4.65-.06640625.12382813-.15.25-.15449219.42050781-.25.85l-.2 1 .25 2.35q-.11464844.21035156-.1.4.05 1.3.05 1.45-.0390625.11738281.1 2 .07070312-.17167969.15-.35l.4-.7q.95-1.2 2.35-2.2 1.3-.9 3.95-1.9.95605469-.34941406 1.8-.6-.94199219.05410156-2.1.2-.61835937.07285156-1.2.15 1.65292969-.75664063 2.95-1 .69609375-.12246094 1.3-.1 1.23652344.02285156 2 .05.59140625.05292969.9.1.2015625.02050781.3.05.1125.0375.2.05.2625.025.3-.2 0-.3.15-1.8.15-1.55.1-3.1-.03125-.96796875-.55-1.3-.31191406-.21875-.8-.2m-11.9-18.8q-.61582031.34257813-.65 1.4-.05 1.55.1 3.1.15 1.5.15 1.8.04414063.26484375.4.15.04726563.01757813.1 0 .5-.15 3.2-.2.61796875-.02285156 1.35.1 2.42597656.47519531 6.05 2.75.11503906.07128906.2.15-1.64472656-.17851563-4.65.2-4.57578125.53828125-6.05 1.3-.09882813.065625-.2.1-.47695312.34921875-.45.7.05 1.3.05 1.45-.05.15.2 3.2l.2-.05 1.85-.3 5.75-.9q1.4-.1 3.15-.1 1.75-.05 1.95.65l.05.3q-.04785156-.32285156.1-1.85.02441406-.37890625.05-.8.06230469-1.21445312.1-2.65 0-.30820313-.2-.55l.05-.45v-.1l.35-2.85-.2-1q-.09550781-.42949219-.3-.85.01289062-.02597656 0-.05-.20429688-.43105469-.5-.85l-.5-.6q-1.2-1-2.7-1.7-.621875-.29023438-1.45-.55-1.19023437-.33652344-2.8-.6-2.75-.45-4.05-.45-.41308594-.01582031-.7.1m.9-15.1l-.5.6q-.31464844.44589844-.55.9-.15488281.42207031-.25.85l-.2 1 .3 2.85q-.1.24199219-.1.5.03769531 1.43398438.1 2.65.02539063.41972656.05.8.14765625 1.52617187.1 1.85l.05-.3q.03125-.10917969.1-.2.37304688-.4921875 1.85-.45 1.75 0 3.15.1l5.75.9 1.95.3.1.05q.25-3.05.2-3.2 0-.15.05-1.45.02304687-.30019531-.35-.6-1.11992188-.88476563-6.35-1.5-2.14433594-.27011719-3.6-.3 3.08613281-1.79492188 5.25-2.2.69472656-.12246094 1.3-.1 2.7.05 3.2.2.1125.0375.2.05.2625.025.3-.2 0-.3.15-1.8.15-1.55.1-3.1-.03125-.96796875-.55-1.3-.31191406-.21875-.8-.2-1.3 0-4.05.45-1.609375.26328125-2.8.6-.82792969.25957031-1.45.55-1.5.7-2.7 1.7m10.5-12.8q-1.23769531-.215625-3.5-.05-.76738281.08886719-1.65.2-2.71132812.31894531-4.35.7-1.315625.3515625-1.9.7-.47695312.34863281-.45.7.05 1.3.05 1.45-.05.15.2 3.2l.2-.05 1.85-.3 5.75-.9q1.4-.1 3.15-.1 1.75-.05 1.95.65l.05.3q-.04785156-.32285156.1-1.85.02441406-.378125.05-.8.03652344-.70332031.05-1.5.034375-.55820312.05-1.15 0-.39921875-.3-.7-.33574219-.2953125-1.05-.45-.11328125-.03007812-.25-.05z"/>
  <path fill="#CBCBBA" d="M31.95 88.9q.13574219-.02148438.25-.05-.76347656-.02714844-2-.05-.60390625-.02246094-1.3.1 1.23574219.1203125 1.9.2.60507813-.11386719 1.15-.2m1.65.4v-.25q-.0875-.0125-.2-.05-.0984375-.02949219-.3-.05.33183594.10644531.5.35m-10.85-9.8l-1.85.3v1.8l.25-.45q.68652344-.8671875 1.6-1.65m-1.85-5q.10117188-.034375.2-.1-.01347656.0015625-.05 0-.08261719-.13769531-.15-.3v.4m11.65 7.75q-1.1-.05-4 .4-1.4609375.19804687-2.6.85 1.190625-.33671875 2.8-.6 2.75-.45 4.05-.45.48808594-.01875.8.2v-.6q-.18398438.2-1.05.2M21 70.1q-.05273438.01757813-.1 0v.7q2.36484375-.50253906 2.65-.55.65429688-.11289063 2-.25-.73203125-.12285156-1.35-.1-2.7.05-3.2.2m.85-6.75q-.69394531 0-.95-.15v.45q.28691406-.11582031.7-.1 1.3 0 4.05.45 1.60976563.26347656 2.8.6-1.13886719-.65195312-2.6-.85-2.9-.45-4-.4M33.6 60.9l-1.95-.3q.91347656.7828125 1.6 1.65l.35.6V60.9m0-8.4v-.65q-.0875-.0125-.2-.05-.5-.15-3.2-.2-.60527344-.02246094-1.3.1 1.37890625.134375 2.05.25.28535156.04746094 2.65.55m-4.85-6.8q2.75-.45 4.05-.45.48808594-.01875.8.2v-.6q-.18398438.2-1.05.2-1.1-.05-4 .4-1.4609375.19804687-2.6.85 1.190625-.33671875 2.8-.6m-6-3.4l-1.85.3v1.8l.25-.45q.68339844-.86328125 1.6-1.65m-1.5-5.8q-.16113281.08671875-.35.05v.75q.584375-.3484375 1.9-.7-.73652344-.02929688-1.55-.1m11.05-.75q.13671875.01992188.25.05-.06757812-.04101563-.15-.1-.02734375.04023437-.1.05z"/>
  <path fill="#E5E5D7" d="M27.45 90.15q-2.65 1-3.95 1.9-1.4 1-2.35 2.2l-.4.7q-.07929688.17832031-.15.35-.25996094.73828125-.3 1.5v1.05l.15.95.65 3.2q.05.35.15.15.2-.1.55-.65.10292969-.14960937.25-.35.60859375-.87089844 1.95-2.7 1.6-2.3 4.55-2.7 1.05117187-.16308594 1.85-.25 2.47207031-.04667969 3.2.6.17402344.17597656.25.35.10351563-.88066406 0-2.2-.04980469-.01054688-.1-.05v.05q-.14785156 1.52714844-.1 1.85l-.05-.3q-.08964844-.31386719-.5-.5.384375-.02011719.5-.15.05-.03671875.05-.1-.05-.3 0-1.85.04667969-1.44785156.1-2.85.14082031.17988281.15.4-.00761719-.46113281-.05-1-.0390625-.00820312-.1-.05-.0234375-.22714844-.15-.4-.16816406-.24355469-.5-.35-.30859375-.04707031-.9-.1-.11425781.02851563-.25.05-.54492187.08613281-1.15.2-.66425781-.0796875-1.9-.2-1.29707031.24335937-2.95 1 .58164063-.07714844 1.2-.15 1.15800781-.14589844 2.1-.2-.84394531.25058594-1.8.6m6.35-13.1q.00390625-.11992188 0-.25-.02558594.42109375-.05.8-.14785156 1.52714844-.1 1.85l-.05-.3q-.2-.7-1.95-.65-1.75 0-3.15.1l-5.75.9q-.91347656.7828125-1.6 1.65l-.25.45-.15.25q-.4.9-.45 1.85v1.05l.45 2.5q.08359375-.12617187.15-.25.17324219-.32871094.4-.65l.5-.6q1.2-1 2.7-1.7.62207031-.29042969 1.45-.55 1.1390625-.65195313 2.6-.85 2.9-.45 4-.4.86601563 0 1.05-.2.05-.03613281.05-.1-.05-.3 0-1.85t.15-3.05m.05-3.9l-.1-.1v.1q.05722656.00917969.1 0M20.9 70.8q-.12207031.02285156-.25.05-.17246094 2.19902344.25 3.25.06738281.16230469.15.3.03652344.0015625.05 0 1.47421875-.76171875 6.05-1.3 3.00527344-.37851562 4.65-.2-.08496094-.07871094-.2-.15-3.62402344-2.27480469-6.05-2.75-1.34570313.13710937-2 .25-.28515625.04746094-2.65.55m0-10.75q-.06875.09082031-.1.2l-.05.3q.04765625-.32382812-.1-1.85-.02460937-.38027344-.05-.8-.00390625.12871094 0 .25.1 1.5.15 3.05.05 1.55 0 1.85 0 .11074219.15.15.25605469.15.95.15 1.1-.05 4 .4 1.46113281.19804688 2.6.85.828125.25976563 1.45.55 1.5.7 2.7 1.7l.5.6q.29570312.41894531.5.85.01289062.02402344 0 .05l.5-2.5V64.8q-.05-.95-.45-1.85l-.05-.1-.35-.6q-.68652344-.8671875-1.6-1.65l-5.75-.9q-1.4-.1-3.15-.1-1.47695313-.0421875-1.85.45m12.95-7.5q-.12773438-.02695312-.25-.05-2.36464844-.50253906-2.65-.55-.67109375-.115625-2.05-.25-2.16386719.40507812-5.25 2.2 1.45566406.02988281 3.6.3 5.23007812.61523438 6.35 1.5.41660156-1.02636719.25-3.15m-13.1-7.9q-.4.9-.45 1.85v1.05l.45 2.5q.23535156-.45410156.55-.9l.5-.6q1.2-1 2.7-1.7.62207031-.29042969 1.45-.55 1.1390625-.65195312 2.6-.85 2.9-.45 4-.4.86601563 0 1.05-.2.05-.03613281.05-.1-.05-.3 0-1.85t.15-3.05q.00390625-.11933594 0-.25-.02558594.421875-.05.8-.14785156 1.52714844-.1 1.85l-.05-.3q-.2-.7-1.95-.65-1.75 0-3.15.1l-5.75.9q-.91660156.78671875-1.6 1.65l-.25.45-.15.25m8.05-8.95q2.26230469-.165625 3.5.05.07265625-.00976563.1-.05.08242188.05898437.15.1.71425781.1546875 1.05.45.66953125-.80488281.9-1.4.16835938-.28808594.25-.55l-15.6.4q.17597656.23125.35.5.82734375 1.24082031 1.4 1.35.18886719.03671875.35-.05.81347656.07070313 1.55.1 1.63867188-.38105469 4.35-.7.88261719-.11113281 1.65-.2z"/>
  <g>
    <path fill="#ECECE2" d="M30.4 95.5q-.79882813.08691406-1.85.25-2.95.4-4.55 2.7-1.34140625 1.82910156-1.95 2.7-.14707031.20039062-.25.35-.35.55-.55.65-.1.2-.15-.15l-.65-3.2q.05.42011719.05.5-.05.15.2 3.2l7.8-1.25q1.05-.075 2.3-.1h1.3q1.32675781.04375 1.5.65l.05.3q-.04785156-.32285156.1-1.85.1-1.55.15-3.45 0-.17480469-.05-.35-.07597656-.17402344-.25-.35-.72792969-.64667969-3.2-.6m3.5-4.7v-.05q-.00917969-.22011719-.15-.4-.05332031 1.40214844-.1 2.85-.05 1.55 0 1.85 0 .06328125-.05.1-.115625.12988281-.5.15.41035156.18613281.5.5l.05.3q-.04785156-.32285156.1-1.85v-.05q.07753906-1.15664063.1-2.55.05449219-.39082031.05-.85m-1.1-8.35q-1.3 0-4.05.45-1.609375.26328125-2.8.6-.82792969.25957031-1.45.55-1.5.7-2.7 1.7l-.5.6q-.22675781.32128906-.4.65-.06640625.12382813-.15.25-.15449219.42050781-.25.85l-.2 1 .25 2.35q-.11464844.21035156-.1.4.05 1.3.05 1.45-.0390625.11738281.1 2 .07070312-.17167969.15-.35l.4-.7q.95-1.2 2.35-2.2 1.3-.9 3.95-1.9.95605469-.34941406 1.8-.6-.94199219.05410156-2.1.2-.61835937.07285156-1.2.15 1.65292969-.75664063 2.95-1 .69609375-.12246094 1.3-.1 1.23652344.02285156 2 .05.59140625.05292969.9.1.2015625.02050781.3.05.1125.0375.2.05.2625.025.3-.2 0-.3.15-1.8.15-1.55.1-3.1-.03125-.96796875-.55-1.3-.31191406-.21875-.8-.2m-11.9-18.8q-.61582031.34257813-.65 1.4-.05 1.55.1 3.1.15 1.5.15 1.8.04414063.26484375.4.15.04726563.01757813.1 0 .5-.15 3.2-.2.61796875-.02285156 1.35.1 2.42597656.47519531 6.05 2.75.11503906.07128906.2.15-1.64472656-.17851563-4.65.2-4.57578125.53828125-6.05 1.3-.09882813.065625-.2.1-.47695312.34921875-.45.7.05 1.3.05 1.45-.05.15.2 3.2l.2-.05 1.85-.3 5.75-.9q1.4-.1 3.15-.1 1.75-.05 1.95.65l.05.3q-.04785156-.32285156.1-1.85.02441406-.37890625.05-.8.06230469-1.21445312.1-2.65 0-.30820313-.2-.55l.05-.45v-.1l.35-2.85-.2-1q-.09550781-.42949219-.3-.85.01289062-.02597656 0-.05-.20429688-.43105469-.5-.85l-.5-.6q-1.2-1-2.7-1.7-.621875-.29023438-1.45-.55-1.19023437-.33652344-2.8-.6-2.75-.45-4.05-.45-.41308594-.01582031-.7.1m.9-15.1l-.5.6q-.31464844.44589844-.55.9-.15488281.42207031-.25.85l-.2 1 .3 2.85q-.1.24199219-.1.5.03769531 1.43398438.1 2.65.02539063.41972656.05.8.14765625 1.52617187.1 1.85l.05-.3q.03125-.10917969.1-.2.37304688-.4921875 1.85-.45 1.75 0 3.15.1l5.75.9 1.95.3.1.05q.25-3.05.2-3.2 0-.15.05-1.45.02304687-.30019531-.35-.6-1.11992188-.88476563-6.35-1.5-2.14433594-.27011719-3.6-.3 3.08613281-1.79492188 5.25-2.2.69472656-.12246094 1.3-.1 2.7.05 3.2.2.1125.0375.2.05.2625.025.3-.2 0-.3.15-1.8.15-1.55.1-3.1-.03125-.96796875-.55-1.3-.31191406-.21875-.8-.2-1.3 0-4.05.45-1.609375.26328125-2.8.6-.82792969.25957031-1.45.55-1.5.7-2.7 1.7m10.5-12.8q-1.23769531-.215625-3.5-.05-.76738281.08886719-1.65.2-2.71132812.31894531-4.35.7-1.315625.3515625-1.9.7-.47695312.34863281-.45.7.05 1.3.05 1.45-.05.15.2 3.2l.2-.05 1.85-.3 5.75-.9q1.4-.1 3.15-.1 1.75-.05 1.95.65l.05.3q-.04785156-.32285156.1-1.85.02441406-.378125.05-.8.03652344-.70332031.05-1.5.034375-.55820312.05-1.15 0-.39921875-.3-.7-.33574219-.2953125-1.05-.45-.11328125-.03007812-.25-.05z"/>
    <path fill="#CBCBBA" d="M31.95 88.9q.13574219-.02148438.25-.05-.76347656-.02714844-2-.05-.60390625-.02246094-1.3.1 1.23574219.1203125 1.9.2.60507813-.11386719 1.15-.2m1.65.4v-.25q-.0875-.0125-.2-.05-.0984375-.02949219-.3-.05.33183594.10644531.5.35m-10.85-9.8l-1.85.3v1.8l.25-.45q.68652344-.8671875 1.6-1.65m-1.85-5q.10117188-.034375.2-.1-.01347656.0015625-.05 0-.08261719-.13769531-.15-.3v.4m11.65 7.75q-1.1-.05-4 .4-1.4609375.19804687-2.6.85 1.190625-.33671875 2.8-.6 2.75-.45 4.05-.45.48808594-.01875.8.2v-.6q-.18398438.2-1.05.2M20.9 70.1v.7q2.36484375-.50253906 2.65-.55.65429688-.11289063 2-.25-.73203125-.12285156-1.35-.1-2.7.05-3.2.2-.05273438.01757813-.1 0m.95-6.75q-.69394531 0-.95-.15v.45q.28691406-.11582031.7-.1 1.3 0 4.05.45 1.60976563.26347656 2.8.6-1.13886719-.65195312-2.6-.85-2.9-.45-4-.4M33.6 60.9l-1.95-.3q.91347656.7828125 1.6 1.65l.35.6V60.9m0-8.4v-.65q-.0875-.0125-.2-.05-.5-.15-3.2-.2-.60527344-.02246094-1.3.1 1.37890625.134375 2.05.25.28535156.04746094 2.65.55m-1.05-7.45q-1.1-.05-4 .4-1.4609375.19804687-2.6.85 1.190625-.33671875 2.8-.6 2.75-.45 4.05-.45.48808594-.01875.8.2v-.6q-.18398438.2-1.05.2m-9.8-2.75l-1.85.3v1.8l.25-.45q.68339844-.86328125 1.6-1.65m-1.5-5.8q-.16113281.08671875-.35.05v.75q.584375-.3484375 1.9-.7-.73652344-.02929688-1.55-.1m11.05-.75q.13671875.01992188.25.05-.06757812-.04101563-.15-.1-.02734375.04023437-.1.05z"/>
    <path fill="#E5E5D7" d="M27.45 90.15q-2.65 1-3.95 1.9-1.4 1-2.35 2.2l-.4.7q-.07929688.17832031-.15.35-.25996094.73828125-.3 1.5v1.05l.15.95.65 3.2q.05.35.15.15.2-.1.55-.65.10292969-.14960937.25-.35.60859375-.87089844 1.95-2.7 1.6-2.3 4.55-2.7 1.05117187-.16308594 1.85-.25 2.47207031-.04667969 3.2.6.17402344.17597656.25.35.10351563-.88066406 0-2.2-.04980469-.01054688-.1-.05v.05q-.14785156 1.52714844-.1 1.85l-.05-.3q-.08964844-.31386719-.5-.5.384375-.02011719.5-.15.05-.03671875.05-.1-.05-.3 0-1.85.04667969-1.44785156.1-2.85.14082031.17988281.15.4-.00761719-.46113281-.05-1-.0390625-.00820312-.1-.05-.0234375-.22714844-.15-.4-.16816406-.24355469-.5-.35-.30859375-.04707031-.9-.1-.11425781.02851563-.25.05-.54492187.08613281-1.15.2-.66425781-.0796875-1.9-.2-1.29707031.24335937-2.95 1 .58164063-.07714844 1.2-.15 1.15800781-.14589844 2.1-.2-.84394531.25058594-1.8.6M33.8 76.8q-.02558594.42109375-.05.8-.14785156 1.52714844-.1 1.85l-.05-.3q-.2-.7-1.95-.65-1.75 0-3.15.1l-5.75.9q-.91347656.7828125-1.6 1.65l-.25.45-.15.25q-.4.9-.45 1.85v1.05l.45 2.5q.08359375-.12617187.15-.25.17324219-.32871094.4-.65l.5-.6q1.2-1 2.7-1.7.62207031-.29042969 1.45-.55 1.1390625-.65195313 2.6-.85 2.9-.45 4-.4.86601563 0 1.05-.2.05-.03613281.05-.1-.05-.3 0-1.85t.15-3.05q.00390625-.11992188 0-.25m.05-3.65l-.1-.1v.1q.05722656.00917969.1 0M20.9 70.8q-.12207031.02285156-.25.05-.17246094 2.19902344.25 3.25.06738281.16230469.15.3.03652344.0015625.05 0 1.47421875-.76171875 6.05-1.3 3.00527344-.37851562 4.65-.2-.08496094-.07871094-.2-.15-3.62402344-2.27480469-6.05-2.75-1.34570313.13710937-2 .25-.28515625.04746094-2.65.55m0-10.75q-.06875.09082031-.1.2l-.05.3q.04765625-.32382812-.1-1.85-.02460937-.38027344-.05-.8-.00390625.12871094 0 .25.1 1.5.15 3.05.05 1.55 0 1.85 0 .11074219.15.15.25605469.15.95.15 1.1-.05 4 .4 1.46113281.19804688 2.6.85.828125.25976563 1.45.55 1.5.7 2.7 1.7l.5.6q.29570312.41894531.5.85.01289062.02402344 0 .05l.5-2.5V64.8q-.05-.95-.45-1.85l-.05-.1-.35-.6q-.68652344-.8671875-1.6-1.65l-5.75-.9q-1.4-.1-3.15-.1-1.47695313-.0421875-1.85.45m12.95-7.5q-.12773438-.02695312-.25-.05-2.36464844-.50253906-2.65-.55-.67109375-.115625-2.05-.25-2.16386719.40507812-5.25 2.2 1.45566406.02988281 3.6.3 5.23007812.61523438 6.35 1.5.41660156-1.02636719.25-3.15M20.3 46.5v1.05l.45 2.5q.23535156-.45410156.55-.9l.5-.6q1.2-1 2.7-1.7.62207031-.29042969 1.45-.55 1.1390625-.65195312 2.6-.85 2.9-.45 4-.4.86601563 0 1.05-.2.05-.03613281.05-.1-.05-.3 0-1.85t.15-3.05q.00390625-.11933594 0-.25-.02558594.421875-.05.8-.14785156 1.52714844-.1 1.85l-.05-.3q-.2-.7-1.95-.65-1.75 0-3.15.1l-5.75.9q-.91660156.78671875-1.6 1.65l-.25.45-.15.25q-.4.9-.45 1.85m8.5-10.8q2.26230469-.165625 3.5.05.07265625-.00976563.1-.05.08242188.05898437.15.1.71425781.1546875 1.05.45.66953125-.80488281.9-1.4.16835938-.28808594.25-.55l-15.6.4q.17597656.23125.35.5.82734375 1.24082031 1.4 1.35.18886719.03671875.35-.05.81347656.07070313 1.55.1 1.63867188-.38105469 4.35-.7.88261719-.11113281 1.65-.2z"/>
  </g>
  <g>
    <path fill="#ECECE2" d="M32.45 36.35q-.09707031-.0484375-.15-.05-1.7-.3-5.2.15-2.73789063.33046875-4.35.75H33.8q-.071875-.2015625-.25-.35-.35-.35-1.1-.5m.5-24.4q-.3-1.2-1.05-1.45t-.95-.3q-1.05 0-1.5.1l-.6.35q-.4.3-.6.65-.2.35-.55 2.2-.25 1.3-.05 1.55-.2.35-.55 2.4-.15-.2-.35-.3-.65-.4-1.9-.5-1.5-.1-2.15.4.25-.25.8-.45.9-.4 3.2.1h.05q.35-.8.3-2.8 0-1-.5-1.4-.5-.45-1.55-.2-.7.15-1.25.35 1.35-.85 2.3-.6.3.05.5-.15.35-.5.15-2.25-.65-.85-1.65-.95-2.45-.3-3.5 1.45-.05 2.1.25 3.1.1.4.25.6H22q-.4 2.4-.1 3.2.15.4.3.5h.05q-.04765625.04765625-.05.15-.15.3-.15.65v.4q-.3-.35-.65-.35l-.65-3.05q-.15-.15-.4-.2-.5-.1-1.4.2-1 .35-2.2 1.15.15-.25.8-.7 1.1-.8 2-1 .4-.1.6-.35.25-.25.2-.7-.1-.8-.9-1.85-.85-1.05-1.7-.9-.85.1-1.05.2-1.05.55-1.4.9l-.45.7q-.15.5-.15.95 0 .45.7 2.45.3.95.6 1.3.5 2.35.95 3.65.3.95.65.6.1-.15.2-.5.4-1.25 1.95-2 .2-.1.35-.15-.95.8-2.5 2.7l-.2.2q.5 2.05.7 2.4.05.1.25.2.3.1.95.15h.15q-.55.15-1 .2H18.3q.05.3.1.55.15 1.3.55 1.85.05.1.2.2-.1-.05-.15 0-.1-.05-.2 0-.1 0-.2.05-.9.2-1.55 1.4-.7 1.25-1.1 2.75-.05-.1-.15-.1-.35-.05.2-1.2.55-1.3 1.6-2.3.45-.45.65-.8.15-.45-.15-.7-.6-.45-2.05-.8-1.5-.35-2.4.25-.95.6-1.2 1.25-.25.6-.3 1.15l-.05.85q.15.45.4.85.2.35 1.85 1.7 1 .8 1.45.85l-.1.4q2.8 1.9 3.65 2.45.55.35.7-.1l.5.5q0-.1.1-.2.05 0 .1-.05 3.45-2.05 4.65-2.55.14667969-.08144531.3-.2.29667969-.13144531.6-.3 1.8-.9 3.55-1.5 1.45-.5 2.5-.85l1.95-.75q.35-.25.75-.45l.05-.05q.35-.5.25-1.55-.2-1.3-.25-2.3.2-.05.2-.5-.05-.5-.35-1.45-.15-.45-.35-.8.75.5.95 1.35v.1q.75-.9 1.1-2.8.1-.6-.05-1.05-.2-.45-.75-.75-.9-.5-2.4-.55.25-.05 1-.05 1 0 1.75.55.3.2.6.15.3-.1.45-.65.3-1.05.1-2-.25-1.05-.9-1.25-.65-.25-.8-.25-.9 0-1.3.05l-.5.3q-.35.25-.6.5-.25.2-.65 1.7-.35 1.1-.1 1.3h.05l-.1.2q-.5.7-.85 1.2h-.05q-.3-.05-.5.05-.05-.1-.05-.15-.3-1.05-1.4-1.35.8-.1 1.4.55.35.4.65.2.3-.2.55-1.15.4-1.85.5-2.7.05-.55-.35-.85-.2-.15-.5-.25-.95-.3-1.65-.4-.7-.1-1.7-.1.2-.15 1.1-.15 1.2-.05 2.15.35.4.2.7.15.35-.1.5-.65.25-1 0-2.15M20.7 24.4q.65-.3 1.55-.85 1.3-.8 1.55-1.35.2.05.45 0 .3-.1.7-.2-2.25 1.65-4.25 2.4m6.3.25q1.35-.8 2.25-1.35-1.6 1.75-4.05 2.8-2.05.9-4.7 1.3.8-.25 2.05-.6 1-.35 2.1-.85 1.1-.55 2.35-1.3M20.05 34.9v-.05q-.1-1.3.7-3.3.5-1.2.8-1.7.05-.15.15-.2l.4-.05q-.2.15-.4.35-.05 0-.1.05l-1.55 4.9z"/>
    <path fill="#E5E5D7" d="M35.1 29.1l-.05.05q-.4.2-.75.45-.9.45-1.7.9-.15-.1-.25-.15-1.05.35-2.5.85-1.75.6-3.55 1.5.1.1.25.2-.25 0-.45.05-.15 0-.25.05h-.15q-.15332031.11855469-.3.2-1.2.5-4.65 2.55-.05.05-.1.05-.1.1-.1.2-.2.35.2 1.2h2q1.61210937-.41953125 4.35-.75 3.5-.45 5.2-.15h.05q.05 0 .1.05.75.15 1.1.5.85-.6 1.3-1.4 0-.05.05-.05 1.2-3.3.2-6.3M19 27.55q.05-.05.15 0-.15-.1-.2-.2-.4-.55-.55-1.85.05 1 .4 2.05.1-.05.2 0m.45-2.8h-.15q-.65-.05-.95-.15v.35h.1q.45-.05 1-.2m2.1 5.1q.05 0 .15.1.2-.2.4-.35l-.4.05q-.1.05-.15.2m3.65-3.75q-.25-.1-.55-.15-1.1.5-2.1.85-1.25.35-2.05.6 2.65-.4 4.7-1.3z"/>
    <path fill="#CBCBBA" d="M26.55 32.9q-.15-.1-.25-.2-.30332031.16855469-.6.3h.15q.1-.05.25-.05.2-.05.45-.05m5.75 3.4q.05292969.0015625.15.05-.05-.05-.1-.05h-.05m.05-5.95q.1.05.25.15.8-.45 1.7-.9l-1.95.75M18.6 27.6l-.35-.25q-.2.35-.65.8-1.05 1-1.6 2.3-.55 1.15-.2 1.2.1 0 .15.1.4-1.5 1.1-2.75.65-1.2 1.55-1.4m1.15-8.35q-1.55.75-1.95 2-.1.35-.2.5v.05q1.55-1.9 2.5-2.7-.15.05-.35.15m.4-4.8q-.2.25-.6.35-.9.2-2 1-.65.45-.8.7 1.2-.8 2.2-1.15.9-.3 1.4-.2l-.2-.7M34.6 22.5q.2.35.35.8.3.95.35 1.45l.25-.9q-.2-.85-.95-1.35M31 20.45q0 .05.05.15.2-.1.5-.05l.1-.7q-.3.2-.65-.2-.6-.65-1.4-.55 1.1.3 1.4 1.35m1.45-1.1l.1-.2h-.05l-.05.2m2-.6q-.75 0-1 .05 1.5.05 2.4.55.55.3.75.75l.2-.65q-.3.05-.6-.15-.75-.55-1.75-.55M22.2 17.7q.00234375-.10234375.05-.15h-.05v.15m4.55-.55l-.05-.45q-2.3-.5-3.2-.1-.55.2-.8.45.65-.5 2.15-.4 1.25.1 1.9.5m1.75-2.75q1 0 1.7.1t1.65.4q.3.1.5.25l.1-.4q-.3.05-.7-.15-.95-.4-2.15-.35-.9 0-1.1.15m-1.95-2.5q-.2.2-.5.15-.95-.25-2.3.6.55-.2 1.25-.35 1.05-.25 1.55.2v-.6m-6.5 22.95v.05L21.6 30q.05-.05.1-.05-.1-.1-.15-.1-.3.5-.8 1.7-.8 2-.7 3.3m9.2-11.55q-.9.55-2.25 1.35-1.25.75-2.35 1.3.3.05.55.15 2.45-1.05 4.05-2.8m-7 .25q-.9.55-1.55.85 2-.75 4.25-2.4-.4.1-.7.2-.25.05-.45 0-.25.55-1.55 1.35z"/>
  </g>
</svg>
