<svg xmlns="http://www.w3.org/2000/svg" preserveAspectRatio="none" viewBox="0 0 50 100">
  <defs>
    <filter id="a" x="-20%" y="-20%" width="140%" height="140%" color-interpolation-filters="sRGB">
      <feColorMatrix in="SourceGraphic" values="1 0 0 0 0 0 1 0 0 0 0 0 1 0 0 0 0 0 0.2 0" result="result1"/>
    </filter>
  </defs>
  <path fill="#333" d="M24.25.25Q23.6 0 23.45 0q-.9 0-1.3.05l-.5.3q-.35.25-.6.5-.25.2-.65 1.7-.4 1.2-.05 1.3-.2.3-.35.55-.55-1-2.25-1.1-.95-.05-1.35.1-.1-1.15-2.7-1-2.85.1-2.85 1.75-.75-.75-2-.35-1.75.5-2.45 1.9L6 8.85l.15.05q-.05.15-.1.35l.1.3v.1H6.1q.05.25.05.55.1 1.05.5 2.1L6.2 12q0-.3-.2-.45-.4-.3-1.25-.55l-.1-.1q-.65-.45-1.45-.35-.15.05-.25.1-.85-.05-1.4.35-.95.6-1.2 1.25-.25.6-.3 1.15l-.05.85q.15.45.4.85.2.35 1.85 1.7 1 .8 1.4.85-.05.15-.05.35 2.8 1.9 3.65 2.45.35.25.55.15.25.3.5.45 0 .35.25.85H8.7v.15q-.5.3-.45.65.05 1.3.05 1.45-.05.15.2 3.2h.2v1.75l-.15.25q-.4.9-.45 1.85v1.05l.5 2.5q-.2.4-.3.85l-.2 1 .35 2.9q-.15.2-.15.45.05 1.45.1 2.7v.2q.1 1.5.15 3.05.05 1.55 0 1.85 0 .1.15.2v.45q-.6.3-.65 1.35-.05 1.55.1 3.1.15 1.5.15 1.8.05.25.4.2v.65q-.1 0-.25.05-.15 2.2.25 3.25v.45q-.5.3-.45.65.05 1.3.05 1.45-.05.15.2 3.2h.2v1.75l-.15.25q-.4.9-.45 1.85v1.05l.5 2.5q-.2.4-.3.85l-.2 1 .3 2.4q-.15.15-.15.35.05 1.3.05 1.45-.05.1.1 2-.25.75-.3 1.5v1.05l.2 1V84q-.05.15.2 3.2l7.8-1.25q1.05-.05 2.3-.1h1.3q1.35.05 1.5.65l.05.3q-.04785156-.32285156.1-1.85.1-1.55.15-3.45 0-.15-.05-.3.1-.95 0-2.25h-.1q.1-1.2.15-2.6v-.9q0-.45-.05-1h-.05q-.05-.3-.2-.45v-.25q.25.05.3-.2 0-.3.15-1.8.15-1.55.1-3.1-.05-.95-.55-1.3v-.55q.05-.1.05-.15-.05-.3 0-1.85t.15-3.05v-.2q.05-1.25.1-2.7 0-.3-.15-.55l.05-.4q0-.05.05-.05l-.05-.05.3-2.9-.2-1q-.1-.45-.25-.85l.45-2.5V49.5q-.05-.95-.45-1.85l-.05-.05v-1.95h.1q.25-3.05.2-3.2 0-.15.05-1.45 0-.3-.3-.55.35-1.1.2-3.2-.15-.05-.25-.05v-.65q.25.05.3-.2 0-.3.15-1.8.15-1.55.1-3.1-.05-.95-.55-1.3v-.55q.05-.1.05-.15-.05-.3 0-1.85t.15-3.05v-.2q.05-.75.1-1.55v-1.15q0-.15-.05-.3.6-.55 1-1.2 0-.05.05-.05 1.05-2.9.4-5.6v-1.15q.1-.45.05-1.1-.05-.2-.05-.35V9.95l.1-.3.4-1.3q.55-.9.85-2.5.1-.4.05-.7L24.8 4q.15-.2.25-.5.3-1.05.1-2-.25-1.05-.9-1.25z" filter="url(#a)" transform="translate(16.2 17.3)"/>
  <path fill="#ECECE2" d="M30.4 95.5q-.79882813.08691406-1.85.25-2.95.4-4.55 2.7-1.34140625 1.82910156-1.95 2.7-.14707031.20039062-.25.35-.35.55-.55.65-.1.2-.15-.15l-.65-3.2q.05.42011719.05.5-.05.15.2 3.2l7.8-1.25q1.05-.075 2.3-.1h1.3q1.32675781.04375 1.5.65l.05.3q-.04785156-.32285156.1-1.85.1-1.55.15-3.45 0-.17480469-.05-.35-.07597656-.17402344-.25-.35-.72792969-.64667969-3.2-.6m3.5-4.75q-.00917969-.22011719-.15-.4-.05332031 1.40214844-.1 2.85-.05 1.55 0 1.85 0 .06328125-.05.1-.115625.12988281-.5.15.41035156.18613281.5.5l.05.3q-.04785156-.32285156.1-1.85v-.05q.07753906-1.15664063.1-2.55.05449219-.39082031.05-.85v-.05m-1.1-8.3q-1.3 0-4.05.45-1.609375.26328125-2.8.6-.82792969.25957031-1.45.55-1.5.7-2.7 1.7l-.5.6q-.22675781.32128906-.4.65-.06640625.12382813-.15.25-.15449219.42050781-.25.85l-.2 1 .25 2.35q-.11464844.21035156-.1.4.05 1.3.05 1.45-.0390625.11738281.1 2 .07070312-.17167969.15-.35l.4-.7q.95-1.2 2.35-2.2 1.3-.9 3.95-1.9.95605469-.34941406 1.8-.6-.94199219.05410156-2.1.2-.61835937.07285156-1.2.15 1.65292969-.75664063 2.95-1 .69609375-.12246094 1.3-.1 1.23652344.02285156 2 .05.59140625.05292969.9.1.2015625.02050781.3.05.1125.0375.2.05.2625.025.3-.2 0-.3.15-1.8.15-1.55.1-3.1-.03125-.96796875-.55-1.3-.31191406-.21875-.8-.2m-11.9-18.8q-.61582031.34257813-.65 1.4-.05 1.55.1 3.1.15 1.5.15 1.8.04414063.26484375.4.15.04726563.01757813.1 0 .5-.15 3.2-.2.61796875-.02285156 1.35.1 2.42597656.47519531 6.05 2.75.11503906.07128906.2.15-1.64472656-.17851563-4.65.2-4.57578125.53828125-6.05 1.3-.09882813.065625-.2.1-.47695312.34921875-.45.7.05 1.3.05 1.45-.05.15.2 3.2l.2-.05 1.85-.3 5.75-.9q1.4-.1 3.15-.1 1.75-.05 1.95.65l.05.3q-.04785156-.32285156.1-1.85.02441406-.37890625.05-.8.06230469-1.21445312.1-2.65 0-.30820313-.2-.55l.05-.45v-.1l.35-2.85-.2-1q-.09550781-.42949219-.3-.85.01289062-.02597656 0-.05-.20429688-.43105469-.5-.85l-.5-.6q-1.2-1-2.7-1.7-.621875-.29023438-1.45-.55-1.19023437-.33652344-2.8-.6-2.75-.45-4.05-.45-.41308594-.01582031-.7.1m.9-15.1l-.5.6q-.31464844.44589844-.55.9-.15488281.42207031-.25.85l-.2 1 .3 2.85q-.1.24199219-.1.5.03769531 1.43398438.1 2.65.02539063.41972656.05.8.14765625 1.52617187.1 1.85l.05-.3q.03125-.10917969.1-.2.37304688-.4921875 1.85-.45 1.75 0 3.15.1l5.75.9 1.95.3.1.05q.25-3.05.2-3.2 0-.15.05-1.45.02304687-.30019531-.35-.6-1.11992188-.88476563-6.35-1.5-2.14433594-.27011719-3.6-.3 3.08613281-1.79492188 5.25-2.2.69472656-.12246094 1.3-.1 2.7.05 3.2.2.1125.0375.2.05.2625.025.3-.2 0-.3.15-1.8.15-1.55.1-3.1-.03125-.96796875-.55-1.3-.31191406-.21875-.8-.2-1.3 0-4.05.45-1.609375.26328125-2.8.6-.82792969.25957031-1.45.55-1.5.7-2.7 1.7m10.5-12.8q-1.23769531-.215625-3.5-.05-.76738281.08886719-1.65.2-2.71132812.31894531-4.35.7-1.315625.3515625-1.9.7-.47695312.34863281-.45.7.05 1.3.05 1.45-.05.15.2 3.2l.2-.05 1.85-.3 5.75-.9q1.4-.1 3.15-.1 1.75-.05 1.95.65l.05.3q-.04785156-.32285156.1-1.85.02441406-.378125.05-.8.03652344-.70332031.05-1.5.034375-.55820312.05-1.15 0-.39921875-.3-.7-.33574219-.2953125-1.05-.45-.11328125-.03007812-.25-.05z"/>
  <path fill="#CBCBBA" d="M31.95 88.9q.13574219-.02148438.25-.05-.76347656-.02714844-2-.05-.60390625-.02246094-1.3.1 1.23574219.1203125 1.9.2.60507813-.11386719 1.15-.2m1.65.4v-.25q-.0875-.0125-.2-.05-.0984375-.02949219-.3-.05.33183594.10644531.5.35m-10.85-9.8l-1.85.3v1.8l.25-.45q.68652344-.8671875 1.6-1.65m-1.85-5q.10117188-.034375.2-.1-.01347656.0015625-.05 0-.08261719-.13769531-.15-.3v.4m11.65 7.75q-1.1-.05-4 .4-1.4609375.19804687-2.6.85 1.190625-.33671875 2.8-.6 2.75-.45 4.05-.45.48808594-.01875.8.2v-.6q-.18398438.2-1.05.2M21 70.1q-.05273438.01757813-.1 0v.7q2.36484375-.50253906 2.65-.55.65429688-.11289063 2-.25-.73203125-.12285156-1.35-.1-2.7.05-3.2.2m.85-6.75q-.69394531 0-.95-.15v.45q.28691406-.11582031.7-.1 1.3 0 4.05.45 1.60976563.26347656 2.8.6-1.13886719-.65195312-2.6-.85-2.9-.45-4-.4M33.6 60.9l-1.95-.3q.91347656.7828125 1.6 1.65l.35.6V60.9m0-8.4v-.65q-.0875-.0125-.2-.05-.5-.15-3.2-.2-.60527344-.02246094-1.3.1 1.37890625.134375 2.05.25.28535156.04746094 2.65.55m-4.85-6.8q2.75-.45 4.05-.45.48808594-.01875.8.2v-.6q-.18398438.2-1.05.2-1.1-.05-4 .4-1.4609375.19804687-2.6.85 1.190625-.33671875 2.8-.6m-6-3.4l-1.85.3v1.8l.25-.45q.68339844-.86328125 1.6-1.65m-1.5-5.8q-.16113281.08671875-.35.05v.75q.584375-.3484375 1.9-.7-.73652344-.02929688-1.55-.1m11.05-.75q.13671875.01992188.25.05-.06757812-.04101563-.15-.1-.02734375.04023437-.1.05z"/>
  <path fill="#E5E5D7" d="M27.45 90.15q-2.65 1-3.95 1.9-1.4 1-2.35 2.2l-.4.7q-.07929688.17832031-.15.35-.25996094.73828125-.3 1.5v1.05l.15.95.65 3.2q.05.35.15.15.2-.1.55-.65.10292969-.14960937.25-.35.60859375-.87089844 1.95-2.7 1.6-2.3 4.55-2.7 1.05117187-.16308594 1.85-.25 2.47207031-.04667969 3.2.6.17402344.17597656.25.35.10351563-.88066406 0-2.2-.04980469-.01054688-.1-.05v.05q-.14785156 1.52714844-.1 1.85l-.05-.3q-.08964844-.31386719-.5-.5.384375-.02011719.5-.15.05-.03671875.05-.1-.05-.3 0-1.85.04667969-1.44785156.1-2.85.14082031.17988281.15.4-.00761719-.46113281-.05-1-.0390625-.00820312-.1-.05-.0234375-.22714844-.15-.4-.16816406-.24355469-.5-.35-.30859375-.04707031-.9-.1-.11425781.02851563-.25.05-.54492187.08613281-1.15.2-.66425781-.0796875-1.9-.2-1.29707031.24335937-2.95 1 .58164063-.07714844 1.2-.15 1.15800781-.14589844 2.1-.2-.84394531.25058594-1.8.6m6.35-13.1q.00390625-.11992188 0-.25-.02558594.42109375-.05.8-.14785156 1.52714844-.1 1.85l-.05-.3q-.2-.7-1.95-.65-1.75 0-3.15.1l-5.75.9q-.91347656.7828125-1.6 1.65l-.25.45-.15.25q-.4.9-.45 1.85v1.05l.45 2.5q.08359375-.12617187.15-.25.17324219-.32871094.4-.65l.5-.6q1.2-1 2.7-1.7.62207031-.29042969 1.45-.55 1.1390625-.65195313 2.6-.85 2.9-.45 4-.4.86601563 0 1.05-.2.05-.03613281.05-.1-.05-.3 0-1.85t.15-3.05m.05-3.9l-.1-.1v.1q.05722656.00917969.1 0M20.9 70.8q-.12207031.02285156-.25.05-.17246094 2.19902344.25 3.25.06738281.16230469.15.3.03652344.0015625.05 0 1.47421875-.76171875 6.05-1.3 3.00527344-.37851562 4.65-.2-.08496094-.07871094-.2-.15-3.62402344-2.27480469-6.05-2.75-1.34570313.13710937-2 .25-.28515625.04746094-2.65.55m0-10.75q-.06875.09082031-.1.2l-.05.3q.04765625-.32382812-.1-1.85-.02460937-.38027344-.05-.8-.00390625.12871094 0 .25.1 1.5.15 3.05.05 1.55 0 1.85 0 .11074219.15.15.25605469.15.95.15 1.1-.05 4 .4 1.46113281.19804688 2.6.85.828125.25976563 1.45.55 1.5.7 2.7 1.7l.5.6q.29570312.41894531.5.85.01289062.02402344 0 .05l.5-2.5V64.8q-.05-.95-.45-1.85l-.05-.1-.35-.6q-.68652344-.8671875-1.6-1.65l-5.75-.9q-1.4-.1-3.15-.1-1.47695313-.0421875-1.85.45m12.95-7.5q-.12773438-.02695312-.25-.05-2.36464844-.50253906-2.65-.55-.67109375-.115625-2.05-.25-2.16386719.40507812-5.25 2.2 1.45566406.02988281 3.6.3 5.23007812.61523438 6.35 1.5.41660156-1.02636719.25-3.15M20.3 46.5v1.05l.45 2.5q.23535156-.45410156.55-.9l.5-.6q1.2-1 2.7-1.7.62207031-.29042969 1.45-.55 1.1390625-.65195312 2.6-.85 2.9-.45 4-.4.86601563 0 1.05-.2.05-.03613281.05-.1-.05-.3 0-1.85t.15-3.05q.00390625-.11933594 0-.25-.02558594.421875-.05.8-.14785156 1.52714844-.1 1.85l-.05-.3q-.2-.7-1.95-.65-1.75 0-3.15.1l-5.75.9q-.91660156.78671875-1.6 1.65l-.25.45-.15.25q-.4.9-.45 1.85m8.5-10.8q2.26230469-.165625 3.5.05.07265625-.00976563.1-.05.08242188.05898437.15.1.71425781.1546875 1.05.45.66953125-.80488281.9-1.4.16835938-.28808594.25-.55l-15.6.4q.17597656.23125.35.5.82734375 1.24082031 1.4 1.35.18886719.03671875.35-.05.81347656.07070313 1.55.1 1.63867188-.38105469 4.35-.7.88261719-.11113281 1.65-.2z"/>
  <g>
    <path fill="#CBCBBA" d="M22 37.4q.25175781-.07890625.55-.15-.75-.05-1.6-.05v.2H22m11.55-.55l.1.1v-.15q-.05 0-.1.05m-6.95-4q-.15-.05-.3-.15-.30332031.16855469-.6.3h.15q.1-.05.25-.05l.5-.1m8.7-3.05v-1.15q-.1.3-.25.5l.05-.05.2.7m-2.95.55q.1.05.25.15.85-.45 1.75-.95-.7.3-2 .8m-15.4-4.05l-.1-.1q-.65-.45-1.45-.35-.15.05-.25.1.45-.05 1 .1.45.1.8.25m1.9 1.4q-.05-.05-.05-.1h.05l-.45-.3q-.05.35-.6.95.5-.5 1.05-.55m.9-3q-.1-.05-.15-.05l-1.25-.45q-.05.15-.1.35l.1.3v-.25q.55.1 1.15.15.1 0 .25-.05m14.7-5.95q-.75 0-1 .05 1.5.05 2.4.55.7.35.85 1.1l.3-1.15q-.3.35-.8 0-.75-.55-1.75-.55m.15 3.75q.2.35.35.8.55 1.85.15 1.95.05.85.2 1.95v-1.95l.1-.3.4-1.3q-.15.15-.25.3-.15-.95-.95-1.45m-13 7.6q-.3.5-.75 1.6-.7 1.75-.7 2.95l1.45-4.55m3.05-4.15q.3.05.55.15 2-.85 3.45-2.2-1.3.85-2.8 1.4-.6.35-1.2.65m-6.95 2.4q-1.05 1-1.6 2.3-.55 1.15-.2 1.2.1 0 .15.1.35-1.5 1.1-2.8.25-.5.55-.8z"/>
    <path fill="#ECECE2" d="M33.65 36.95l-.1-.1q-.35-.35-1.05-.5-.075-.0375-.15-.05h-.05q-1.7-.3-5.2.15-2.9.35-4.55.8-.29824219.07109375-.55.15h11.85q-.03378906-.2421875-.2-.45m-3.7-18.35q-.95-.05-1.35.1-.1-1.15-2.7-1-2.85.1-2.85 1.75-.75-.75-2-.35-1.75.5-2.45 1.9l-.4 3.15.15.05 1.25.45q.05 0 .15.05-.15.05-.25.05-.6.15-1.15.2h-.05q.05.25.05.55.25 1.7.8 2.1h-.35q0 .05.05.1-.55.05-1.05.55.55-.6.6-.95 0-.3-.2-.45-.4-.3-1.25-.55-.35-.15-.8-.25-.55-.15-1-.1-.85-.05-1.4.35-.95.6-1.2 1.25-.25.6-.3 1.15l-.05.85q.15.45.4.85.2.35 1.85 1.7 1 .8 1.4.85-.05.15-.05.35 2.8 1.9 3.65 2.45.55.4.7-.15l.4.4q.05-.15.2-.25h.05q3.4-2.1 4.6-2.55.14667969-.08144531.3-.2.29667969-.13144531.6-.3 1.8-.9 3.55-1.5 1.45-.5 2.5-.85 1.3-.5 2-.8l.7-.4q.15-.2.25-.5.1-.45.05-1.1-.05-.2-.05-.35-.15-1.1-.2-1.95.4-.1-.15-1.95-.15-.45-.35-.8.8.5.95 1.45.1-.15.25-.3.55-.9.85-2.5.1-.4.05-.7-.15-.75-.85-1.1-.9-.5-2.4-.55.25-.05 1-.05 1 0 1.75.55.5.35.8 0 .15-.2.25-.5.3-1.05.1-2-.25-1.05-.9-1.25-.65-.25-.8-.25-.9 0-1.3.05l-.5.3q-.35.25-.6.5-.25.2-.65 1.7-.4 1.2-.05 1.3-.2.3-.35.55-.55-1-2.25-1.1M16.1 30.65q.55-1.3 1.6-2.3-.3.3-.55.8-.75 1.3-1.1 2.8-.05-.1-.15-.1-.35-.05.2-1.2m4.4-3.25q.8-.25 2.05-.6 1-.35 2.1-.85.6-.3 1.2-.65 1.5-.55 2.8-1.4-1.45 1.35-3.45 2.2-2.05.9-4.7 1.3m.35 4.3q.45-1.1.75-1.6l-1.45 4.55q0-1.2.7-2.95z"/>
    <path fill="#E5E5D7" d="M32.6 30.5q-.15-.1-.25-.15-1.05.35-2.5.85-1.75.6-3.55 1.5.15.1.3.15l-.5.1q-.15 0-.25.05h-.15q-.15332031.11855469-.3.2-1.2.45-4.6 2.55h-.05q-.15.1-.2.25-.2.35.2 1.2h.2q.85 0 1.6.05 1.65-.45 4.55-.8 3.5-.45 5.2-.15h.05q.075.0125.15.05.7.15 1.05.5.05-.05.1-.05.75-.6 1.2-1.35 0-.05.05-.05 1.05-2.9.4-5.6l-.2-.7-.05.05-.7.4q-.9.5-1.75.95m-14.25-5q.1 1.05.5 2.1h.3q-.55-.4-.8-2.1m0-.65v.1q.55-.05 1.15-.2-.6-.05-1.15-.15v.25m4.2 1.95q-1.25.35-2.05.6 2.65-.4 4.7-1.3-.25-.1-.55-.15-1.1.5-2.1.85z"/>
  </g>
</svg>
