
<svg xmlns="http://www.w3.org/2000/svg" version="1.1" xmlns:xlink="http://www.w3.org/1999/xlink" preserveAspectRatio="none" x="0px" y="0px" width="70px" height="63px" viewBox="0 0 70 63">
<defs/>

<g id="Layer_1">
<g transform="matrix( 0.162933349609375, 0, 0, 0.162933349609375, -194.35,-130) ">
<g>
<g>
<path fill="#000000" stroke="none" d="
M 1612.8 955.7
Q 1603.7 924.6 1584.5 896.8 1565.85 869.8 1539.95 849 1514 828.2 1484.05 816.3 1453.25 804.05 1421.9 802.7 1387.55 801.25 1354.55 810.35 1322.25 819.2 1294.2 837.4 1266.15 855.55 1245.1 881.2 1223.55 907.45 1211.35 939.1 1187.75 1000.15 1209.7 1057.1 1220.35 1084.7 1240.2 1107.85 1259.55 1130.5 1286.1 1147 1340.7 1181 1409.85 1182.45 1421.05 1180.55 1443.55 1177.35 1463.65 1174.25 1476.95 1170.85 1514.25 1161.4 1544.75 1139.25 1574.1 1117.95 1593 1088 1611.85 1058.05 1617.2 1024.35 1622.7 989.45 1612.8 955.7
M 1482.8 833.8
Q 1509.65 845.65 1531.8 865.1
L 1518.7 896.95 1548.25 882.45
Q 1571.6 901.1 1585.45 928.75 1598.75 955.35 1601.15 985.7 1603.55 1016.1 1594.5 1044.3 1585.05 1073.8 1564.6 1095.7 1560.35 1100.25 1549.8 1103.25 1537.1 1106.2 1530.9 1108.4 1535.7 1117.55 1530.2 1124.9 1526.15 1130.3 1513.7 1137.15 1484.7 1153 1449.85 1158.85 1416 1164.55 1381.3 1160.2 1346.5 1155.75 1316.1 1141.85 1284.55 1127.4 1262.1 1104.65 1258.1 1100.6 1255 1090.45 1248.85 1070.35 1248.55 1069.5 1232.8 1065.4 1226.25 1054.8 1219 1043.05 1217.4 1015.6 1214.1 957.85 1241.7 913.15 1267.05 872.1 1318.75 841.75 1343.6 827.15 1372 821.4 1399.6 815.75 1428.1 818.95 1456.45 822.15 1482.8 833.8 Z"/>
</g>
</g>
</g>

<g transform="matrix( 0.162933349609375, 0, 0, 0.162933349609375, 102.1,-28.45) ">
<g>
<g>
<path fill="#FFFFFF" stroke="none" d="
M -251.65 278.4
Q -260.4373046875 267.776171875 -271.3 259.1
L -300.8 273.6 -287.7 241.75
Q -309.85 222.3 -336.7 210.45 -363.05 198.8 -391.4 195.6 -419.9 192.4 -447.5 198.05 -475.9 203.8 -500.75 218.4 -545.136328125 244.456640625 -570.1 278.4 -574.2138671875 283.99296875 -577.8 289.8 -605.4 334.5 -602.1 392.25 -600.5 419.7 -593.25 431.45 -586.7 442.05 -570.95 446.15 -570.65 447 -564.5 467.1 -561.4 477.25 -557.4 481.3 -534.95 504.05 -503.4 518.5 -473 532.4 -438.2 536.85 -403.5 541.2 -369.65 535.5 -334.8 529.65 -305.8 513.8 -293.35 506.95 -289.3 501.55 -283.8 494.2 -288.6 485.05 -282.4 482.85 -269.7 479.9 -259.15 476.9 -254.9 472.35 -234.45 450.45 -225 420.95 -215.95 392.7 -218.35 362.35 -220.75 332 -234.05 305.4 -241.48359375 290.6130859375 -251.65 278.4
M -265.35 351.55
Q -259.8 364.45 -260 378.35 -260.3 401.45 -274.2 414.9 -288.05 428.35 -311.65 428.4 -325.9 428.45 -339.05 422.9 -351.75 417.6 -361.6 407.95 -371.5 398.3 -376.85 385.9 -382.45 373 -382.35 359.15 -382.15 336.9 -367.85 323.1 -353.5 309.3 -330.4 309.1 -316.2 309 -303.05 314.5 -290.35 319.75 -280.55 329.45 -270.7 339.1 -265.35 351.55
M -515.8 313.95
Q -502.45 308.75 -488.35 309.2 -465.3 310 -451.7 324.15 -438.05 338.25 -438.45 361.1 -438.7 374.9 -444.6 387.55 -450.35 399.8 -460.45 409.2 -470.6 418.6 -483.45 423.55 -496.75 428.75 -510.95 428.35 -533.95 427.7 -547.55 413.6 -561.1 399.5 -560.8 376.45 -560.6 362.7 -554.65 350 -548.95 337.8 -538.75 328.35 -528.6 318.9 -515.8 313.95 Z"/>
</g>
</g>
</g>

<g transform="matrix( 0.162933349609375, 0, 0, 0.162933349609375, -194.35,-130) ">
<g>
<g>
<path fill="#000000" stroke="none" d="
M 1538.95 952.8
Q 1529.15 943.1 1516.45 937.85 1503.3 932.35 1489.1 932.45 1466 932.65 1451.65 946.45 1437.35 960.25 1437.15 982.5 1437.05 996.35 1442.65 1009.25 1448 1021.65 1457.9 1031.3 1467.75 1040.95 1480.45 1046.25 1493.6 1051.8 1507.85 1051.75 1531.45 1051.7 1545.3 1038.25 1559.2 1024.8 1559.5 1001.7 1559.7 987.8 1554.15 974.9 1548.8 962.45 1538.95 952.8 Z"/>
</g>
</g>
</g>

<g transform="matrix( 0.162933349609375, 0, 0, 0.162933349609375, -194.35,-130) ">
<g>
<g>
<path fill="#000000" stroke="none" d="
M 1331.15 932.55
Q 1317.05 932.1 1303.7 937.3 1290.9 942.25 1280.75 951.7 1270.55 961.15 1264.85 973.35 1258.9 986.05 1258.7 999.8 1258.4 1022.85 1271.95 1036.95 1285.55 1051.05 1308.55 1051.7 1322.75 1052.1 1336.05 1046.9 1348.9 1041.95 1359.05 1032.55 1369.15 1023.15 1374.9 1010.9 1380.8 998.25 1381.05 984.45 1381.45 961.6 1367.8 947.5 1354.2 933.35 1331.15 932.55 Z"/>
</g>
</g>
</g>
</g>
</svg>
