<svg xmlns="http://www.w3.org/2000/svg" preserveAspectRatio="none" viewBox="0 0 50 100">
  <defs>
    <linearGradient id="b" gradientUnits="userSpaceOnUse" x1="-11.05" y1="53.55" x2="39.75" y2="53.55">
      <stop offset="0%" stop-color="#FFF" stop-opacity=".29803922"/>
      <stop offset="49.41176471%" stop-color="#FFF" stop-opacity=".04705882"/>
      <stop offset="100%" stop-color="#FFF" stop-opacity=".29803922"/>
    </linearGradient>
    <filter id="a" x="-57.70232214%" y="-20.66314833%" width="215.40464427%" height="141.32629665%" color-interpolation-filters="sRGB">
      <feFlood flood-color="#FFF" flood-opacity="1" result="result1"/>
      <feGaussianBlur in="SourceGraphic" stdDeviation="2.6666666666666665,2.6666666666666665" result="result2"/>
      <feComposite in2="result2" in="result1" operator="in" result="result3"/>
      <feComposite in2="result3" in="SourceGraphic" result="result4"/>
      <feColorMatrix in="result4" values="1 0 0 0 0 0 1 0 0 0 0 0 1 0 0 0 0 0 0.3 0" result="result5"/>
    </filter>
  </defs>
  <g filter="url(#a)" transform="translate(10.8 7.3)">
    <path fill="url(#b)" d="M21.25 12.9q-.15-.05-.25-.1-.815625-.090625-1.05-.1-.35-1.35-1.8-1.6-.7-.05-1.35-.05 0-.3-.05-.4-.05-.2-.25-.3-.3-.2-.6-.25-.45-.1-1.5-.1t-1.45.1q-.3.05-.5.25-.15.1-.15.35-.05.05-.05.15l-.85.1q-.9.15-2.05.65l-2.2-7.3Q6.9 3.5 6.1 3.05q-.75-.4-1.6-.15l-.25.1q-.85.2-1.3 1-.4.75-.15 1.6l2.75 9.3q0 .1.05.2l.8 3.8L4 17.2q-.65-.45-1.45-.35-.8.15-1.25.8l-.95 1.3q-.45.7-.3 1.5.0375.29960937.15.55.19335938.41855469.6.7L8 26.75l.1.65v76.95h12.7V27.5q.8-.3 1.3-1.8.053125-.17734375.1-.35.08554688-.32734375.15-.65l.35-9.95q0-.30839844-.1-.6-.19121094-.50566406-.75-.9-.25-.2-.6-.35z"/>
    <path stroke="#FFF" stroke-opacity=".69803922" stroke-width="1.3" stroke-linejoin="round" stroke-linecap="round" fill="none" d="M8.1 104.35V27.4l-.1-.65L.8 21.7q-.40664063-.28144531-.6-.7-.1125-.25039063-.15-.55-.15-.8.3-1.5l.95-1.3q.45-.65 1.25-.8.8-.1 1.45.35l2.4 1.7-.8-3.8q-.05-.1-.05-.2L2.8 5.6q-.25-.85.15-1.6.45-.8 1.3-1l.25-.1q.85-.25 1.6.15.8.45 1.05 1.25l2.2 7.325q1.15-.525 2.05-.675l.85-.1q0-.1.05-.15 0-.25.15-.35.2-.2.5-.25.4-.1 1.45-.1 1.05 0 1.5.1.3.05.6.25.2.1.25.3.05.1.05.4.65 0 1.35.05 1.45.25 1.8 1.6.234375.009375 1.05.1.1.05.25.1.35.15.6.35.55878906.39433594.75.925.1.26660156.1.575l-.35 9.95q-.06445313.32265625-.15.65-.046875.17265625-.1.35-.5 1.5-1.3 1.8v76.85H8.1z"/>
  </g>
</svg>
