<svg xmlns="http://www.w3.org/2000/svg" preserveAspectRatio="none" viewBox="0 0 50 100">
  <defs>
    <linearGradient id="b" gradientUnits="userSpaceOnUse" x1="-14.5" y1="24" x2="42.2" y2="24">
      <stop offset="0%" stop-color="#FFF" stop-opacity=".29803922"/>
      <stop offset="49.41176471%" stop-color="#FFF" stop-opacity=".04705882"/>
      <stop offset="100%" stop-color="#FFF" stop-opacity=".29803922"/>
    </linearGradient>
    <filter id="a" x="-54.19766173%" y="-21.42841913%" width="208.39532347%" height="142.85683826%" color-interpolation-filters="sRGB">
      <feFlood flood-color="#FFF" flood-opacity="1" result="result1"/>
      <feGaussianBlur in="SourceGraphic" stdDeviation="2.6666666666666665,2.6666666666666665" result="result2"/>
      <feComposite in2="result2" in="result1" operator="in" result="result3"/>
      <feComposite in2="result3" in="SourceGraphic" result="result4"/>
      <feColorMatrix in="result4" values="1 0 0 0 0 0 1 0 0 0 0 0 1 0 0 0 0 0 0.3 0" result="result5"/>
    </filter>
  </defs>
  <g filter="url(#a)">
    <path fill="url(#b)" d="M22.35 24.7l.1-.45v-8l.1-.3 1.85-6.5q.25-.85-.2-1.6-.4-.75-1.25-1t-1.6.2q-.8.4-1 1.25l-1 3.55q-.25-.05-.5-.05L20 4.15q.1-.85-.4-1.6-.55-.7-1.4-.8l-.3-.05q-.85-.15-1.55.4-.7.5-.85 1.35l-1.2 8.2h-.1l-.35-9.6q-.05-.9-.7-1.5-.6-.55-1.5-.55h-.3Q10.5.05 9.9.7q-.6.65-.6 1.5l.35 9.4q-.15 0-.3.05L7.15 4.3Q6.9 3.5 6.1 3.05q-.75-.4-1.6-.15l-.25.1q-.85.2-1.3 1-.4.75-.15 1.6l2.75 9.3q0 .1.05.2l.8 3.8L4 17.2q-.65-.45-1.45-.35-.8.15-1.25.8l-.95 1.3q-.45.7-.3 1.5.1.8.75 1.25L8 26.75l.1.65v67.35h12.7V27.5q.8-.3 1.3-1.8.15-.5.25-1z" transform="translate(10.75 10.05)"/>
    <path stroke="#FFF" stroke-opacity=".69803922" stroke-width="1.3" stroke-linejoin="round" stroke-linecap="round" fill="none" d="M18.85 104.8V37.45l-.1-.65-7.2-5.05q-.65-.45-.75-1.25-.15-.8.3-1.5l.95-1.3q.45-.65 1.25-.8.8-.1 1.45.35l2.4 1.7-.8-3.8q-.05-.1-.05-.2l-2.75-9.3q-.25-.85.15-1.6.45-.8 1.3-1l.25-.1q.85-.25 1.6.15.8.45 1.05 1.25l2.2 7.35q.15-.05.3-.05l-.35-9.4q0-.85.6-1.5t1.45-.7h.3q.9 0 1.5.55.65.6.7 1.5l.35 9.6h.1l1.2-8.2q.15-.85.85-1.35.7-.55 1.55-.4l.3.05q.85.1 1.4.8.5.75.4 1.6l-1.15 7.65q.25 0 .5.05l1-3.55q.2-.85 1-1.25.75-.45 1.6-.2.85.25 1.25 1 .45.75.2 1.6L33.3 26l-.1.3v8l-.1.45q-.1.5-.25 1-.5 1.5-1.3 1.8v67.25h-12.7z"/>
  </g>
</svg>
