<svg xmlns="http://www.w3.org/2000/svg" preserveAspectRatio="none" viewBox="0 0 50 100">
  <defs>
    <linearGradient id="b" gradientUnits="userSpaceOnUse" x1="-10.2375" y1="19.25" x2="30.0375" y2="19.25">
      <stop offset="0%" stop-color="#FFF" stop-opacity=".29803922"/>
      <stop offset="49.41176471%" stop-color="#FFF" stop-opacity=".04705882"/>
      <stop offset="100%" stop-color="#FFF" stop-opacity=".29803922"/>
    </linearGradient>
    <filter id="a" x="-69.33384726%" y="-22.57657041%" width="238.66769452%" height="145.15314082%" color-interpolation-filters="sRGB">
      <feFlood flood-color="#FFF" flood-opacity="1" result="result1"/>
      <feGaussianBlur in="SourceGraphic" stdDeviation="2.6666666666666665,2.6666666666666665" result="result2"/>
      <feComposite in2="result2" in="result1" operator="in" result="result3"/>
      <feComposite in2="result3" in="SourceGraphic" result="result4"/>
      <feColorMatrix in="result4" values="1 0 0 0 0 0 1 0 0 0 0 0 1 0 0 0 0 0 0.3 0" result="result5"/>
    </filter>
  </defs>
  <g filter="url(#a)">
    <path fill="url(#b)" d="M18.25 5.55q0-1.05-1-1.75-.3-.25-.7-.4-.15-.1-.3-.15-1-.1-1.25-.1l-.15-.65q-.2-.95-1.9-1.2-.8-.1-1.6-.05 0-.35-.05-.5-.05-.2-.3-.35-.35-.25-.7-.3Q9.8 0 8.6 0 7.35 0 6.9.1q-.35.05-.6.3-.15.15-.2.4-.05.1-.05.2l-1 .1q-1.05761719.18398437-1.65.35-.05175781.03398437-.1.05-.85.35-1.2 1.6-.15.6-.2 1.15v1.3q-.12890625.00761719-.25 0-.67578125.16386719-1.1.8-.3.35-.4.7-.7 4.55 1.5 8.3 1.05 1.9 2.3 2.9V86.1h12.7V18.35q.75-.3 1.25-1.8.03007813-.075.05-.15.16503906-.425.25-.85l.05-.45V5.55z" transform="translate(14.95 18.25)"/>
    <path stroke="#FFF" stroke-opacity=".69803922" stroke-width="1.3" stroke-linejoin="round" stroke-linecap="round" fill="none" d="M18.9 104.35V36.5q-1.25-1-2.3-2.9-2.2-3.75-1.5-8.3.1-.35.4-.7.42421875-.63613281 1.1-.775.12109375-.01738281.25-.025v-1.3q.05-.55.2-1.15.35-1.25 1.2-1.6.04824219-.01601562.1-.025.59238281-.19101562 1.65-.375l1-.1q0-.1.05-.2.05-.25.2-.4.25-.25.6-.3.45-.1 1.7-.1 1.2 0 1.7.1.35.05.7.3.25.15.3.35.05.15.05.5.8-.05 1.6.05 1.7.25 1.9 1.2l.15.65q.25 0 1.25.1.15.05.3.15.4.15.7.4 1 .7 1 1.75v9.55l-.05.45q-.08496094.425-.25.85-.01992188.075-.05.15-.5 1.5-1.25 1.8v67.75H18.9z"/>
  </g>
</svg>
