<svg xmlns="http://www.w3.org/2000/svg" preserveAspectRatio="none" viewBox="0 0 50 100">
  <defs>
    <linearGradient id="b" gradientUnits="userSpaceOnUse" x1="-9.9" y1="23.45" x2="31.5" y2="23.45">
      <stop offset="0%" stop-color="#FFF" stop-opacity=".29803922"/>
      <stop offset="49.41176471%" stop-color="#FFF" stop-opacity=".04705882"/>
      <stop offset="100%" stop-color="#FFF" stop-opacity=".29803922"/>
    </linearGradient>
    <filter id="a" x="-65.81663466%" y="-21.51347913%" width="231.63326933%" height="143.02695827%" color-interpolation-filters="sRGB">
      <feFlood flood-color="#FFF" flood-opacity="1" result="result1"/>
      <feGaussianBlur in="SourceGraphic" stdDeviation="2.6666666666666665,2.6666666666666665" result="result2"/>
      <feComposite in2="result2" in="result1" operator="in" result="result3"/>
      <feComposite in2="result3" in="SourceGraphic" result="result4"/>
      <feColorMatrix in="result4" values="1 0 0 0 0 0 1 0 0 0 0 0 1 0 0 0 0 0 0.3 0" result="result5"/>
    </filter>
  </defs>
  <g filter="url(#a)">
    <path fill="url(#b)" d="M12.8 1q-.35-.8-1.55-.95Q10.05-.1 9.4.6q-.35.35-.45.7l-2 9.95-3-9.3Q3.7 1.5 3 1.25q-.9-.3-1.85.05Q.3 1.6.1 2.7q-.15.55-.05 1l3 10.3q-.85.1-1.4.8-.25.35-.35.7-.7 4.55 1.45 8.35 1.1 1.9 2.3 2.85v67.35h12.7v-67.2q.8-.35 1.3-1.85.15-.45.25-1l.1-.45V12.5q0-1-1-1.55-.5-.25-1-.35-1.1 0-1.55.1-.2 0-.2.05L15.5 9.6q-.25-.95-1.9-1.05-.85-.05-1.6.05l1-6.55q0-.7-.2-1.05z" transform="translate(13.9 9.95)"/>
    <path stroke="#FFF" stroke-opacity=".69803922" stroke-width="1.1" stroke-linejoin="round" stroke-linecap="round" fill="none" d="M18.95 104V36.65q-1.2-.95-2.3-2.85-2.15-3.8-1.45-8.35.1-.35.35-.7.55-.7 1.4-.8l-3-10.3q-.1-.45.05-1 .2-1.1 1.05-1.4.95-.35 1.85-.05.7.25.95.7l3 9.3 2-9.95q.1-.35.45-.7.65-.7 1.85-.55 1.2.15 1.55.95.2.35.2 1.05l-1 6.55q.75-.1 1.6-.05 1.65.1 1.9 1.05l.15 1.15q0-.05.2-.05.45-.1 1.55-.1.5.1 1 .35 1 .55 1 1.55V33.5l-.1.45q-.1.55-.25 1-.5 1.5-1.3 1.85V104h-12.7z"/>
  </g>
</svg>
