<svg xmlns="http://www.w3.org/2000/svg" preserveAspectRatio="none" viewBox="0 0 50 100">
  <defs>
    <linearGradient id="b" gradientUnits="userSpaceOnUse" x1="-10.7" y1="27" x2="40" y2="27">
      <stop offset="0%" stop-color="#FFF" stop-opacity=".29803922"/>
      <stop offset="49.41176471%" stop-color="#FFF" stop-opacity=".04705882"/>
      <stop offset="100%" stop-color="#FFF" stop-opacity=".29803922"/>
    </linearGradient>
    <filter id="a" x="-54.19766173%" y="-22.30503082%" width="208.39532347%" height="144.61006165%" color-interpolation-filters="sRGB">
      <feFlood flood-color="#FFF" flood-opacity="1" result="result1"/>
      <feGaussianBlur in="SourceGraphic" stdDeviation="2.6666666666666665,2.6666666666666665" result="result2"/>
      <feComposite in2="result2" in="result1" operator="in" result="result3"/>
      <feComposite in2="result3" in="SourceGraphic" result="result4"/>
      <feColorMatrix in="result4" values="1 0 0 0 0 0 1 0 0 0 0 0 1 0 0 0 0 0 0.3 0" result="result5"/>
    </filter>
  </defs>
  <g filter="url(#a)">
    <path fill="url(#b)" d="M21.35 7.05q-.8.4-1 1.25l-1.2 4.2-.05-.2q-.01074219-.05097656-.05-.1-.24121094-.86347656-1.85-1.1-.8-.1-1.6-.05 0-.35-.05-.5-.05-.2-.3-.35-.35-.25-.7-.3-.5-.1-1.7-.1-1.25 0-1.7.1-.35.05-.6.3-.15.15-.2.4-.05.1-.05.2l-1 .1q-1.15.2-1.75.4-.58144531.23945312-.95.9-.13945312.30507813-.25.7-.09511719.38046875-.15.75v5.1L4 17.2q-.65-.45-1.45-.35-.8.15-1.25.8l-.95 1.3q-.45.7-.3 1.5.1.8.75 1.25L8 26.75l.1.65v67.35h12.7V27.5q.8-.3 1.3-1.8.15-.5.25-1l.1-.45V21h.05v-4.9l.05-.15 1.85-6.5q.25-.85-.2-1.6-.4-.75-1.25-1t-1.6.2z" transform="translate(10.65 10)"/>
    <path stroke="#FFF" stroke-opacity=".69803922" stroke-width="1.3" stroke-linejoin="round" stroke-linecap="round" fill="none" d="M18.75 104.75V37.4l-.1-.65-7.2-5.05q-.65-.45-.75-1.25-.15-.8.3-1.5l.95-1.3q.45-.65 1.25-.8.8-.1 1.45.35l2.2 1.55v-5.1q.05488281-.36953125.15-.75.11054687-.39492187.275-.7.34355469-.66054688.925-.9.6-.2 1.75-.4l1-.1q0-.1.05-.2.05-.25.2-.4.25-.25.6-.3.45-.1 1.7-.1 1.2 0 1.7.1.35.05.7.3.25.15.3.35.05.15.05.5.8-.05 1.6.05 1.60878906.23652344 1.875 1.1.01425781.04902344.025.1l.05.225L31 18.3q.2-.85 1-1.25.75-.45 1.6-.2.85.25 1.25 1 .45.75.2 1.6l-1.85 6.5-.05.15V31h-.05v3.25l-.1.45q-.1.5-.25 1-.5 1.5-1.3 1.8v67.25h-12.7z"/>
  </g>
</svg>
