<svg xmlns="http://www.w3.org/2000/svg" viewBox="0 0 259.16 73.62"><defs><style>.cls-1{fill:#351721;}.cls-2{fill:#281303;}.cls-3{fill:#d5d1ad;}.cls-4{fill:#d1d3d4;}.cls-5{fill:#414042;}.cls-6{fill:#ee4b3a;}.cls-7{fill:#e6e7e8;}.cls-8{fill:#2d101a;}</style></defs><title>Asset 1</title><g id="Layer_2" data-name="Layer 2"><g id="OBJECTS"><path class="cls-1" d="M114.53,45.46c-.44,0-41.23-22.27-47.2-41.77C66-.7,44.45,1.19,27.07,9.46S0,34.59,0,34.59s15.15-6.46,23-2.83,14.58,9.58,15.24,8.83S46,36,57.25,38.72s17,8.79,17,8.79,7-2.72,21-.19,31.18,18.39,29.17,16.12S114.53,45.46,114.53,45.46Z"/><path class="cls-1" d="M145,45.19c.44,0,40.59-23,46-42.61,1.22-4.42,22.81-2.91,40.42,5s27.77,24.64,27.77,24.64-15.33-6.19-23.06-2.41-14.31,9.83-15,9.1S213.24,34.5,202,37.42s-16.78,9.09-16.78,9.09-7-2.6-21,.19-30.65,18.94-28.71,16.64S145,45.19,145,45.19Z"/><path class="cls-1" d="M162.09.15c-.76-.91-7.18,2.15-14,12.38A26.7,26.7,0,0,0,144.33,20a32.91,32.91,0,0,0-11.41-4.21,8.54,8.54,0,0,1,4.57-2c-.15,0-.43,0-.86,0-.89,0-1.82-.13-2.74-.15a6.88,6.88,0,0,0-3.32.55,8.38,8.38,0,0,0,.93-1.15,33,33,0,0,0-7.42,2.36,4.41,4.41,0,0,1,0-.73c.09-1.74-1.7.33-2.07,2.27-1.15.38-2.27.8-3.36,1.25a27,27,0,0,0-5.68,3.2c-.39-1.93-1.5-4.57-4.27-8.52C101.58,2.77,95.08-.17,94.34.76c-1.19,1.49,1,14.31,4.53,20.18a26.38,26.38,0,0,0,7.41,8.19l-.22.41c-1.57,3.09,4.25,9.65,4.25,9.65-1.63,2-3.92,7.22-4.37,13.63s10.33,14.09,10.35,14.7c0,1.51,3,6.7,3.66,6,1.5-1.53,2.66-5.09,2.66-5.09,5.25,1.55,9,1.49,14.92-.13,0,0,1.82,4.39,2.81,5,1.18.77,3.35-4.67,3.48-6.12.06-.61,10.57-8.47,9.94-14.88S150.69,40.81,149,38.84c0,0,5.64-6.66,4-9.73-.25-.45-.51-.91-.79-1.35a27.9,27.9,0,0,0,5.94-7.35C161.52,14.48,163.32,1.62,162.09.15Z"/><path class="cls-1" d="M137.49,13.81c.19,0,.17,0,0,0Z"/><path class="cls-2" d="M120.35,21.42c-4.77,0-8.64,3-8.92,6.78.39,3.75,4.33,6.67,9.11,6.63s8.65-3,8.93-6.79C129.08,24.3,125.13,21.37,120.35,21.42Z"/><ellipse class="cls-3" cx="120.4" cy="26.96" rx="9.05" ry="7.23"/><ellipse class="cls-4" cx="120.39" cy="26.44" rx="9.02" ry="6.71" transform="translate(-0.07 0.32) rotate(-0.15)"/><path class="cls-5" d="M122.36,26.94a1.78,1.78,0,0,1-1.94,1.59,1.82,1.82,0,0,1-2-1.55,2,2,0,0,1,3.93,0Z"/><path class="cls-2" d="M139.47,21.24c-4.78.05-8.65,3-8.93,6.79.39,3.75,4.34,6.67,9.11,6.63s8.65-3,8.93-6.79C148.19,24.13,144.24,21.2,139.47,21.24Z"/><ellipse class="cls-3" cx="139.51" cy="26.79" rx="9.05" ry="7.23"/><path class="cls-4" d="M139.41,19.56c-4.78,0-8.64,3-8.93,6.79.39,3.74,4.34,6.67,9.12,6.63s8.64-3,8.92-6.79C148.13,22.44,144.19,19.52,139.41,19.56Z"/><path class="cls-5" d="M141.48,26.77a2,2,0,0,1-3.93,0,1.78,1.78,0,0,1,1.94-1.59A1.83,1.83,0,0,1,141.48,26.77Z"/><path class="cls-6" d="M129.6,37.25a59.55,59.55,0,0,1-17.68-2.19c2.84,2.64,9.69,4.46,17.71,4.39s14.82-2,17.58-4.7A59.07,59.07,0,0,1,129.6,37.25Z"/><path class="cls-7" d="M122.17,37s-2,2.74-2.57,2.58a17,17,0,0,1-1-3Z"/><path class="cls-7" d="M136.57,36.88s2,2.7,2.64,2.53a16.61,16.61,0,0,0,.95-3Z"/><path class="cls-8" d="M124.64,68.15C119,67.14,113.39,61.56,111,58s-1.44-11.06.16-13.8c2.17-3.71,10.16-1,11.14-1S113.16,40,110,37.38s-3.73-8.22-3.73-8.22h0c-.07.13-.15.25-.21.38-1.57,3.09,4.25,9.65,4.25,9.65-1.63,2-3.92,7.22-4.37,13.63s10.33,14.09,10.35,14.7c0,1.51,3,6.7,3.66,6,1.5-1.53,2.66-5.09,2.66-5.09,5.25,1.55,9,1.49,14.92-.13,0,0,1.82,4.39,2.81,5,1.18.77,3.35-4.67,3.48-6.12A21.81,21.81,0,0,1,146.16,65C136.59,68.6,129.19,69,124.64,68.15Z"/></g></g></svg>