
<svg xmlns="http://www.w3.org/2000/svg" version="1.1" xmlns:xlink="http://www.w3.org/1999/xlink" preserveAspectRatio="none" x="0px" y="0px" width="100%" height="100%" viewBox="0 0 45 30">
<defs/>

<g id="Layer_1">
<g transform="matrix( 0.2499847412109375, 0, 0, 0.2499847412109375, -83.65,-222.05) ">
<g>
<g>
<path fill="#FFFFCC" stroke="none" d="
M 506.7 960.35
Q 507.8 959.05 507.35 956.8 506.65 953.3 503.15 950.7 499.3 947.95 495 948.6 491.6 949.05 487.1 952 481.5 956.5 481.1 956.5 476.25 956.35 459.75 956.5 446.7 956.6 438.45 955.9 435.8 955.75 434.3 955.55 431.6 955.2 430.6 954.45 429.8 953.9 429.8 952.9 429.95 951.65 429.95 951.05 430.05 948.15 428.45 946.7 427.05 945.4 423.85 944.45 420.7 943.5 417.8 943.45 410.6 943.1 408.7 947.05 407.7 949.15 407.8 952.4 407.45 953.2 405.5 955.3 403.9 956.95 403.9 958.65 404 959.9 404.2 960.55 404.65 962.4 405.95 964.05 407.3 965.75 409.25 966.85 413.2 969.1 417.7 968.15 419.9 967.65 424.35 964.7 428 962.25 431.5 962.55 437.35 962.95 455.95 963.6 466.85 964.05 473.7 964.75 477.15 965.15 479.1 967.8 482 971.85 482.6 972.3 486.05 975 497.7 973.5 501.35 973 502.85 971.95 504.6 970.7 503.1 968.15 500.9 964.4 500.85 964.05 500.8 963.4 501.35 963.15 505.45 961.85 506.7 960.35 Z"/>
</g>
</g>
</g>

<g transform="matrix( 0.2499847412109375, 0, 0, 0.2499847412109375, -83.65,-222.05) ">
<g>
<g>
<path fill="#E2E0BB" stroke="none" d="
M 507.15 960.4
Q 508.55 958.5 507.1 955.2 505.65 952.1 503.4 950.9 503.45 951.25 504.05 952.5 504.65 955.75 503.8 957.95 502.8 960.75 499.35 962.6 498.2 963.3 497.95 964.85 497.8 965.75 497.75 967.75 497.35 971.4 491.95 971.85 487.6 972.4 485.45 969.4 482.65 965.5 481.25 965 474.55 962.5 463.8 961.85 461.1 961.7 445.15 961.5 437.85 961.6 429.65 961.45 422.8 961.25 422.25 961.25 420.55 961.45 417.45 962.35 414.55 963.25 413.5 963.3 411.25 963.5 409.75 962.55 408.25 961.65 407.85 959.7 407.35 957.3 410.35 952.75 413.45 948.05 413 945.05
L 412.7 943.95
Q 409.15 944.9 408.3 948.25 407.85 950 407.8 952.4 407.45 953.2 405.5 955.3 403.9 956.95 403.9 958.65 404 959.9 404.2 960.55 404.65 962.4 405.95 964.05 407.3 965.75 409.25 966.85 413.2 969.1 417.7 968.15 419.9 967.65 424.35 964.7 428 962.25 431.5 962.55 437.35 962.95 455.95 963.6 466.85 964.05 473.7 964.75 477.15 965.15 479.1 967.8 482 971.85 482.6 972.3 484.75 973.95 488.9 974.65 492.8 975.3 496.75 974.8 498.35 974.6 500.05 973.95 501.9 973.3 502.65 972.5 503.9 971.2 503.95 969.6 504 968.45 503.65 966.45 503.5 965.75 503.8 965.05 503.85 964.95 504.45 963.7 504.9 962.75 505.7 961.95 506.8 960.85 507.15 960.4 Z"/>
</g>
</g>
</g>

<g transform="matrix( 0.2499847412109375, 0, 0, 0.2499847412109375, -83.65,-222.05) ">
<g>
<g>
<path fill="#FFFFCC" stroke="none" d="
M 402.6 980.35
Q 399.65 980.05 397.1 980.55 390.75 981.5 389.8 985.3 389.3 987.3 389.95 990.15 389.8 990.9 388.45 993.1 387.35 994.8 387.65 996.3 387.9 997.3 388.25 997.9 389.85 1001.25 393.8 1002.55 397.7 1003.8 401.4 1002.15 403.2 1001.35 406.6 998 409.35 995.2 412.45 994.85 417.7 994.15 434.05 991.45 443.9 989.85 449.8 989.3 452.9 989 455.05 991 458.4 994.1 458.95 994.35 462.35 996.05 472.35 992.7 475.4 991.65 476.55 990.45 477.9 989.05 476.15 987.05 473.55 984.2 473.45 983.9 473.25 983.35 473.7 983 477.05 981.1 477.9 979.6 478.6 978.3 477.85 976.4 476.6 973.45 473.05 971.8 469.25 970.05 465.6 971.4 462.55 972.45 459.25 975.75 455.2 980.7 454.8 980.75 450.45 981.5 436.15 984.5 424.7 986.9 417.4 987.75 414.15 988.15 413.7 988.2 411.3 988.4 410.25 987.9 409.5 987.55 409.3 986.65 409.2 985.6 409.1 985.05 408.75 982.5 407.05 981.5 405.55 980.6 402.6 980.35 Z"/>
</g>
</g>
</g>

<g transform="matrix( 0.2499847412109375, 0, 0, 0.2499847412109375, -83.65,-222.05) ">
<g>
<g>
<path fill="#E2E0BB" stroke="none" d="
M 393.2 982.8
L 392.75 981.9
Q 389.8 983.35 389.65 986.4 389.55 988.05 389.95 990.15 389.8 990.9 388.45 993.1 387.35 994.8 387.65 996.3 387.9 997.3 388.25 997.9 389.85 1001.25 393.8 1002.55 397.7 1003.8 401.4 1002.15 403.2 1001.35 406.6 998 409.35 995.2 412.45 994.85 417.7 994.15 434.05 991.45 443.9 989.85 449.8 989.3 452.9 989 455.05 991 458.4 994.1 458.95 994.35 461.1 995.4 464.85 995.25 468.35 995.15 471.75 994 473.1 993.55 474.5 992.7 476 991.75 476.5 990.95 477.3 989.5 477.1 988.2 476.9 986.95 476.3 985.5 476.05 984.9 476.2 984.25 476.2 984 476.5 982.95 476.75 982.05 477.35 981.2 478.05 980.1 478.3 979.55 479.2 977.65 477.35 975.05 475.55 972.55 473.35 971.95 473.45 972.25 474.2 973.2 475.3 975.9 474.95 978.05 474.55 980.65 471.9 982.85 471 983.65 471.05 985.1 471.1 985.9 471.4 987.65 471.65 990.95 467 992.3 463.3 993.5 460.9 991.25 457.75 988.35 456.45 988.15 450.15 987.2 440.6 988.5 437.8 988.9 424.25 991.5 418 992.85 410.7 994.2 404.65 995.25 404.15 995.35 402.65 995.85 400.15 997.2 397.75 998.45 396.9 998.7 392.75 999.8 391.3 996.5 390.45 994.55 392.25 990 394.15 985.35 393.2 982.8 Z"/>
</g>
</g>
</g>

<g transform="matrix( 0.2499847412109375, 0, 0, 0.2499847412109375, -83.65,-222.05) ">
<g>
<g>
<path fill="#FDF8C2" stroke="none" d="
M 378.6 919.2
Q 374.05 926.25 372.4 933.8 370.8 941.2 372.3 947.15 375.35 959 380.9 965.5 388.05 973.95 398.15 971.35 399.05 971.1 409 966.85 410.15 968.1 412.75 970.25 416 972.9 417.3 973.05 423.9 973.8 429.55 969.2 430.85 971.1 433.8 977.1 436.05 981.7 436.75 981.6 439.25 981.2 442.45 981.2 443.7 981.15 443.55 976.9
L 443.1 972.6 444.2 974.1
Q 445.7 975.9 448 977.45 450.25 978.95 452.9 976.85 455.45 974.2 456.2 973.7 457 973.15 455 969.35 452.95 965.5 453.2 965.3 453.6 964.95 455.65 966.8 456.2 967.3 458.8 969.9 459.85 971 462.25 969.4 464.2 968.1 465.5 966.3 466.05 965.5 464.15 961.8
L 462.15 958.25 463.95 960
Q 466.05 961.9 467.25 962.85 468.55 963.85 470.35 962.4 471.85 961.25 472.9 959.25 473.6 957.9 470.4 955.05 466.4 951.45 465.7 949.9 464.15 946.4 463.7 942.2 465.2 939.2 465.2 936.45 465.2 933.8 461.55 931.85 458 929.95 458 927.5 458.1 919.3 454.3 914.65 453.2 913.25 451.4 911.8 449.65 910.4 449.35 910 442.7 900.7 432.5 897.45 422.05 894.15 408.85 897.55 389.3 902.55 378.6 919.2 Z"/>
</g>
</g>
</g>

<g transform="matrix( 0.2499847412109375, 0, 0, 0.2499847412109375, -83.65,-222.05) ">
<g>
<g>
<path fill="#7E8083" stroke="none" d="
M 430.9 935.55
Q 428 930.15 422.6 928.15 417.2 926.1 412.5 928.65 407.75 931.15 406.5 936.8 405.2 942.4 408.1 947.8 411 953.25 416.4 955.25 421.75 957.3 426.5 954.75 431.25 952.2 432.55 946.6 433.8 941 430.9 935.55 Z"/>
</g>
</g>
</g>

<g transform="matrix( 0.2499847412109375, 0, 0, 0.2499847412109375, -83.65,-222.05) ">
<g>
<g>
<path fill="#351721" stroke="none" d="
M 453.9 921.95
Q 451.15 916.85 446.2 914.85 441.2 912.9 436.9 915.2 432.6 917.55 431.5 922.75 430.35 928 433.1 933.1 435.85 938.2 440.85 940.2 445.85 942.15 450.15 939.85 454.45 937.5 455.55 932.3 456.65 927.05 453.9 921.95 Z"/>
</g>
</g>
</g>

<g transform="matrix( 0.2499847412109375, 0, 0, 0.2499847412109375, -83.65,-222.05) ">
<g>
<g>
<path fill="#351721" stroke="none" d="
M 412.5 928.65
Q 407.75 931.15 406.5 936.8 405.2 942.4 408.1 947.8 410.4 952.1 414.45 954.35 418.45 956.55 422.6 956 423.4 955.75 424 955.4 428.7 952.85 430 947.25 431.3 941.6 428.4 936.2 426.1 931.9 422.05 929.65 418.05 927.45 413.85 928
L 412.5 928.65 Z"/>
</g>
</g>
</g>

<g transform="matrix( 0.2499847412109375, 0, 0, 0.2499847412109375, -83.65,-222.05) ">
<g>
<g>
<path fill="#7E8083" stroke="none" d="
M 455.55 932.3
Q 456.65 927.05 453.9 921.95 451.3 917.15 446.75 915.1 442.15 913.05 437.95 914.7 441.75 914.25 445.45 916.35 449.2 918.55 451.4 922.6 454.15 927.7 453.05 932.95 451.9 938.2 447.6 940.5
L 446.55 941
Q 448.35 940.8 450.15 939.85 454.45 937.5 455.55 932.3 Z"/>
</g>
</g>
</g>

<g transform="matrix( 0.2499847412109375, 0, 0, 0.2499847412109375, -83.65,-222.05) ">
<g>
<g>
<path fill="#7E8083" stroke="none" d="
M 442.95 944.55
L 439.3 943.75 440.45 951.65
Q 441.75 959.9 442.4 961.85 443.1 963.9 445.05 960.45 446.9 957.2 447 955.55 447.05 954.9 451.05 954.05 455.25 953.2 455.8 951.95 456.4 950.55 450.45 947.6 445.3 945.05 442.95 944.55 Z"/>
</g>
</g>
</g>

<g transform="matrix( 0.2499847412109375, 0, 0, 0.2499847412109375, -83.65,-222.05) ">
<g>
<g>
<path fill="#351721" stroke="none" d="
M 441.95 960.1
Q 443.6 957.15 443.7 955.65 443.7 954.95 447.75 954.15 451.95 953.25 452.5 952 453.1 950.6 447.15 947.65 441.9 945.05 439.65 944.65
L 439.4 944.6
Q 441.25 956.9 441.95 960.1 Z"/>
</g>
</g>
</g>

<g transform="matrix( 0.2499847412109375, 0, 0, 0.2499847412109375, -83.65,-222.05) ">
<g>
<g>
<path fill="#E2E0BB" stroke="none" d="
M 473 958.35
Q 470.35 960.5 468.5 961.4 467.05 962.05 465.8 961.65
L 467.25 962.85
Q 468.55 963.85 470.35 962.4 471.85 961.25 472.9 959.25 473.1 958.9 473 958.35 Z"/>
</g>
</g>
</g>

<g transform="matrix( 0.2499847412109375, 0, 0, 0.2499847412109375, -83.65,-222.05) ">
<g>
<g>
<path fill="#E2E0BB" stroke="none" d="
M 377.45 921.1
Q 373.55 927.8 372.2 934.8 370.9 941.6 372.3 947.15 375.35 959 380.9 965.5 388.05 973.95 398.15 971.35 399.05 971.1 409 966.85 410.15 968.1 412.75 970.25 416 972.9 417.3 973.05 423.9 973.8 429.55 969.2 430.85 971.1 433.8 977.1 436.05 981.7 436.75 981.6 439.25 981.2 442.45 981.2 443.7 981.15 443.55 976.9
L 443.1 972.6 444.2 974.1
Q 445.7 975.9 448 977.45 450.25 978.95 452.9 976.85 455.45 974.2 456.2 973.7 457 973.15 455 969.35 452.95 965.5 453.2 965.3 453.6 964.95 455.65 966.8 456.2 967.3 458.8 969.9 459.85 971 462.25 969.4 464.2 968.1 465.5 966.3 466.05 965.5 464.15 961.8
L 462.15 958.25 462.45 958.55
Q 461.45 956.5 461.3 956.25
L 462.35 959.75
Q 463.7 964.05 463.5 964.9 463.3 965.9 462.3 966.75 461.75 967.2 460.15 968.2 459.2 968.8 455.75 966 451.75 962.7 451.3 962.55 450.25 962.2 451.95 966.95 452.85 969.4 454.2 972.8 454.45 973.7 453 974.45 452.15 974.95 449.9 975.65 448.45 976.05 445.1 973.6 442.95 972.05 441.25 970.35 440.75 969.8 440.85 973.25 441 977.35 440.65 978 439.65 980 436.55 979.05 434.45 978.4 430.1 963.15
L 427.7 965.35
Q 424.3 967.85 420.1 968.45 415.85 969.1 412.5 965.5 410.25 963.1 409.75 961.2 409.7 961 405.35 963.75 400.2 967 397.15 967.45 393.05 968.05 388.7 963.5 384.05 958.55 379.8 948.25 377.55 942.75 377.05 934.85 376.65 928.3 377.45 921.1 Z"/>
</g>
</g>
</g>

<g transform="matrix( 0.2499847412109375, 0, 0, 0.2499847412109375, -83.65,-222.05) ">
<g>
<g>
<path fill="#FFFFCC" stroke="none" d="
M 353.8 974.75
Q 354.3 978.45 357.65 980.9 360.85 983.3 365 982.95 366.9 982.75 371.25 980.55 374.7 978.8 377.8 979.45 381.75 980.2 399.35 982.95 408.65 984.45 414.95 985.85 418 986.55 419.45 989.15 421.6 993 422.1 993.5 424.8 996.15 435.3 996.15 438.5 996.15 440.05 995.3 441.75 994.4 440.7 991.95 439.15 988.45 439.15 988.1 439.05 987.45 439.65 987.35 443.4 986.65 444.7 985.45 445.8 984.4 445.65 982.35 445.4 979.2 442.55 976.5 439.45 973.65 435.55 973.8 432.4 973.85 428.2 975.95 422.8 979.35 422.45 979.3 418.1 978.65 403.5 977 391.9 975.75 384.7 974.25 382 973.75 381.05 973.5 378.7 972.95 377.85 972.15 377.2 971.6 377.3 970.7 377.55 969.65 377.65 969.1 378.1 966.55 376.8 965.1 375.65 963.8 372.95 962.6 370.2 961.4 367.7 961.05 361.35 960 359.25 963.3 358.15 965.05 357.85 967.95 357.5 968.6 355.55 970.25 353.95 971.55 353.8 973.05 353.7 973.9 353.8 974.75 Z"/>
</g>
</g>
</g>

<g transform="matrix( 0.2499847412109375, 0, 0, 0.2499847412109375, -83.65,-222.05) ">
<g>
<g>
<path fill="#E2E0BB" stroke="none" d="
M 363.1 961
Q 359.85 961.45 358.75 964.35 358.15 965.85 357.85 967.95 357.5 968.6 355.55 970.25 353.95 971.55 353.8 973.05 353.7 973.9 353.8 974.75 354.3 978.45 357.65 980.9 360.85 983.3 365 982.95 366.9 982.75 371.25 980.55 374.7 978.8 377.8 979.45 381.75 980.2 399.35 982.95 408.65 984.45 414.95 985.85 418 986.55 419.45 989.15 421.6 993 422.1 993.5 423.8 995.15 427.4 996.2 430.8 997.2 434.35 997.2 435.85 997.15 437.35 996.8 439.1 996.4 439.85 995.75 441.05 994.65 441.25 993.35 441.45 992.4 441.35 990.55 441.3 989.95 441.65 989.3 441.75 989.05 442.35 988.2 442.9 987.4 443.65 986.75 444.85 985.8 445.1 985.55 446.55 984 445.6 980.95 444.65 978 442.75 976.75 442.75 977.05 443.15 978.2 443.35 981.15 442.4 983.05 441.2 985.35 437.95 986.65 436.85 987.1 436.5 988.5 436.25 989.3 436 991.05 435.25 994.3 430.4 994.1 426.5 994.1 424.9 991.2 422.85 987.45 421.65 986.85 415.95 983.95 406.5 982.25 404 981.8 390.05 979.95 383.6 979.3 376.3 978.25 370.25 977.35 369.75 977.3 368.2 977.3 365.35 977.8 362.7 978.25 361.8 978.2 359.75 978.15 358.55 977.15 357.3 976.2 357.15 974.4 356.95 972.25 360.1 968.5 363.35 964.65 363.25 961.95 363.25 961.45 363.1 961 Z"/>
</g>
</g>
</g>

<g transform="matrix( 0.2499847412109375, 0, 0, 0.2499847412109375, -83.65,-222.05) ">
<g>
<g>
<path fill="#FFFFCC" stroke="none" d="
M 363 981.45
Q 358.55 978.9 357.85 978.7 353.9 977.55 345.45 982.2 342.8 983.9 342.25 985.1 341.55 986.7 344.05 988.35 347.8 990.9 347.95 991.1 348.4 991.7 348 992 345.5 994.35 345.3 996 345.15 997.35 346.65 999.15 349.05 1001.9 353.2 1003 357.6 1004.15 360.65 1002.3 363 1000.95 365.05 997.1 365.7 995.4 366.2 994.1 367.15 991.6 367.35 991.55 371 990.3 384 985.15 394.1 981.15 400.95 979.25 403.65 978.45 404.4 978.3 406.65 977.75 407.85 978.05 408.8 978.3 409.35 979.15 409.65 979.65 410.15 980.75 411.55 983.15 413.6 983.95 415.4 984.6 418.4 984.45 421.4 984.3 423.65 983.45 429.45 981.55 428.85 977.7 428.65 976.5 427.75 974.85 426.8 973.1 426.75 972.95 426.6 972.2 427.05 969.85 427.4 968 426.5 966.55
L 425.3 965.05
Q 422.45 962 418 961.25 413.8 960.65 410.7 962.7 409.3 963.75 407.35 967.6 405.8 970.75 402.9 971.55 398.65 972.8 383.25 978 373.75 981.1 368.8 982.35 365.9 983.1 363 981.45 Z"/>
</g>
</g>
</g>

<g transform="matrix( 0.2499847412109375, 0, 0, 0.2499847412109375, -83.65,-222.05) ">
<g>
<g>
<path fill="#E2E0BB" stroke="none" d="
M 342.1 984.6
Q 341.85 986 342.6 987.4 343.5 988.85 344.5 989.95 344.95 990.5 345.15 991.15 345.2 991.4 345.3 992.45 345.45 993.4 345.25 994.3 344.95 995.5 344.95 996.05 344.8 998.05 347.75 1000.4 350.5 1002.6 352.85 1002.9 351.75 1002.05 351.5 1001.75 349.35 999.25 348.8 997.1 348.2 994.45 349.85 991.9 350.4 991 349.75 989.6 348.8 987.95 348.4 987.1 346.8 983.85 350.8 981.9 353.9 980.15 357.15 982 361.4 984.45 362.75 984.45 369.3 984.5 378.05 981.85 380.85 980.95 392.75 976.5 401.95 972.85 410.8 969.85 412.1 969.15 414 967.5 415.8 965.85 416.55 965.5 420.15 963.8 422.9 966.85 424.5 968.65 424.55 973.45 424.6 978.3 426.55 980.65 426.7 980.85 427.35 981.5 429.65 979.65 428.55 976.55 426.9 973.6 426.75 972.95 426.6 972.2 427.05 969.85 427.4 968 426.5 966.55
L 425.3 965.05
Q 422.45 962 418 961.25 413.8 960.65 410.7 962.7 409.3 963.75 407.35 967.6 405.8 970.75 402.9 971.55 398.65 972.8 383.25 978 373.75 981.1 368.8 982.35 365.9 983.1 363 981.45 358.55 978.9 357.85 978.7 355.3 977.95 351.75 978.65 348.35 979.25 345.5 980.85 344.35 981.5 343.35 982.55 342.25 983.7 342.1 984.6 Z"/>
</g>
</g>
</g>
</g>
</svg>
