
<svg xmlns="http://www.w3.org/2000/svg" version="1.1" xmlns:xlink="http://www.w3.org/1999/xlink" preserveAspectRatio="none" x="0px" y="0px" width="100%" height="100%" viewBox="0 0 65 30">
<defs/>

<g id="Layer_1">
<g transform="matrix( 0.114654541015625, 0, 0, 0.114654541015625, 122.65,-14.75) ">
<g>
<g>
<path fill="#EE97E1" stroke="none" d="
M -721.5 382.95
Q -715.8 381.8 -713.5 378.95 -717.15 380.55 -720.8 382.15 -721.3 382.35 -721.75 382.55 -721.6 383 -721.5 382.95 Z"/>

<path fill="#FDE848" stroke="none" d="
M -699.5 325.85
Q -694.2 321.55 -690.35 316.65 -690.55 316.2 -690.9 316 -699.1 311.9 -706.8 306.3 -708.35 315.45 -700.75 325.6 -700.55 325.95 -700.3 326.35 -699.8 326.15 -699.5 325.85 Z"/>

<path fill="#FEEC46" stroke="none" d="
M -664.15 304.15
Q -666 306.15 -669.2 307.5 -669.65 307.7 -670.15 307.9 -683.75 334.8 -719.25 353.1 -719.7 353.3 -720.15 353.5 -708.5 355.7 -694.6 352.15 -694.1 352.1 -693.65 351.85 -692.05 357.85 -689.4 364.15 -689.2 364.6 -688.95 365.1 -688.55 364.95 -688.15 364.7 -678.55 358.95 -674.35 351.1 -673.9 350.9 -673.4 350.95 -671.6 351.05 -668.85 348.7 -669.05 348.25 -668.9 348.15 -663.45 343.3 -660.55 337.55 -660.8 337.1 -661.15 336.8 -664.85 333.95 -668.25 329.95 -668.4 329.5 -668.25 329.15 -664.2 317.45 -664.15 304.15 Z"/>

<path fill="#FEFBFB" stroke="none" d="
M -742.85 351.4
Q -744.25 351.95 -745.25 353.5 -736.7 362.55 -721.05 353.9 -720.6 353.7 -720.15 353.5 -719.7 353.3 -719.25 353.1 -683.75 334.8 -670.15 307.9 -670.35 307.45 -670.25 307.2 -663.45 297.85 -670.05 290.4 -681.55 302.65 -689.7 316.05 -689.9 316.45 -690.35 316.65 -694.2 321.55 -699.5 325.85 -699.8 326.15 -700.3 326.35 -717.75 341.2 -742.85 351.4 Z"/>

<path fill="#E661A1" stroke="none" d="
M -797.55 360.9
Q -797.15 360.7 -796.7 360.6 -792.05 359.3 -790.65 356.8 -794.3 358.4 -797.75 360.45 -797.8 360.45 -797.55 360.9 Z"/>

<path fill="#FEEB45" stroke="none" d="
M -813.95 371.1
Q -814.3 371.35 -814.75 371.6 -800.35 376.5 -783.65 375.35 -783.2 375.35 -782.7 375.15 -782.5 384 -780.1 393.65 -779.95 394.1 -779.75 394.55 -779.3 394.35 -778.8 394.2 -773.65 394.65 -768.05 393.75 -767.55 393.65 -767.15 393.5 -767.35 393.05 -767.25 392.65 -765.85 387.15 -763.35 382.05 -762.9 381.9 -762.5 381.9 -749.95 385.55 -734.8 382.75 -734.95 382.25 -735.25 381.95 -745.4 372.3 -755.05 361 -754.6 360.8 -754.35 360.5 -746 348.65 -741.1 335.3
L -741.3 334.85
Q -756.6 340.9 -771.25 346.2 -771.45 345.75 -771.8 345.5 -782.5 336.15 -793.55 327.5 -794.3 341 -791 355.85 -790.85 356.35 -790.65 356.8 -792.05 359.3 -796.7 360.6 -797.15 360.7 -797.55 360.9 -807.4 365.35 -813.95 371.1
M -767.9 351.3
Q -767.5 351.15 -767.05 350.95 -753.95 357.95 -766.8 364.05 -769.25 365.25 -770.45 363.3 -777.35 355.95 -767.9 351.3
M -667 242.2
Q -667.45 242.4 -667.8 242.3 -683.85 237.8 -699.1 231.05 -699.3 230.6 -699.3 230.15 -701.2 216.55 -705.1 202 -705.55 202.25 -705.75 202.65 -714.2 215.15 -722.15 227.95 -722.65 228.15 -723 228.05 -736 224.5 -750.65 225.1 -750.5 225.55 -750.2 225.85 -739.25 239.35 -727 249.65 -727.45 249.85 -727.7 250.2 -738.95 263.95 -743.05 280.6 -742.55 280.4 -742.1 280.2 -727.9 273.55 -715.35 266.45 -715.15 266.9 -714.9 267.25 -705.65 279.2 -694 285.5 -693.55 285.3 -693.6 285.2 -694.25 270.55 -695.95 255.9 -695.5 255.65 -695.05 255.5 -679.15 251.2 -667 242.2 Z"/>

<path fill="#FEFDF0" stroke="none" d="
M -767.05 350.95
Q -767.5 351.15 -767.9 351.3 -777.35 355.95 -770.45 363.3 -769.25 365.25 -766.8 364.05 -753.95 357.95 -767.05 350.95 Z"/>

<path fill="#FEEC45" stroke="none" d="
M -901.3 340.4
Q -902.7 340.95 -904.05 341.6 -890.65 357.7 -874.9 367.95 -874.65 368.05 -874.2 367.85 -873.55 366.6 -871.8 366.65 -856.1 367.35 -836.6 369.05 -836.75 368.6 -837.1 368.2 -850.6 353.5 -859.9 337.75 -860.15 337.25 -860 337 -852.45 322.85 -849.3 307 -849.75 307.2 -850.15 307.4 -868.8 315.6 -881.95 322.25 -882.1 321.75 -882.45 321.4 -893.65 309.4 -906.3 301.2 -906.3 318.3 -899.5 339.45 -899.45 339.65 -901.3 340.4
M -912.85 192.8
Q -913.3 193 -913.8 193.2 -920.9 199.55 -921.1 208.55 -921.1 208.95 -920.9 209.4 -928.5 214.75 -929 222.85 -929.05 223.35 -928.9 223.8 -928.65 224.25 -928.45 224.2 -921.35 223.9 -915.05 225.4 -914.85 225.9 -914.9 226.3 -914.8 239.55 -908.05 251.75 -907.6 251.6 -907.45 251.25 -902.5 241.05 -898.8 230.4 -898.35 230.2 -898 230.25 -887.7 234.05 -874.65 230.75 -874.8 230.3 -875.15 230.05 -883.8 223.1 -891.1 212.85 -890.65 212.65 -890.45 212.3 -883.8 202.45 -879.65 191.5 -880.1 191.7 -880.6 191.85 -892.65 195.5 -905.2 200.45 -905.4 200 -905.75 199.7 -909.45 196.9 -912.85 192.8 Z"/>

<path fill="#F29ACF" stroke="none" d="
M -932.65 235.2
Q -943.8 228.9 -954.45 220.85 -965.2 212.9 -974.3 201.7 -1003.25 165.9 -1043.1 158.8 -1048.15 161 -1053.2 163.2 -1053.65 163.4 -1054.1 163.6 -1067.65 184.85 -1052.7 218.55 -1048.35 228.2 -1053.75 235.1 -1062.65 246.5 -1069.65 258.5 -1060.9 276.9 -1053.75 295.2 -1052.65 297.95 -1053.05 301.95 -1055.25 320.5 -1056.45 339.95 -1056.9 346.9 -1051.55 353.2 -1026 362.15 -1004.75 336.95 -987.9 317.2 -964.3 300.1 -953.15 292.05 -941.95 284.3 -936.55 280.55 -933.9 282.65 -933.4 282.4 -933.45 282.3 -938.55 256.45 -932.65 235.2
M -952.25 265.95
Q -952 265.95 -951.8 266.35 -960.6 272.75 -975.15 278.25 -984.75 281.9 -994.1 287 -998.1 289.25 -1001 288.8 -995.75 276 -974.45 269.6 -973.95 269.45 -973.5 269.25 -962.35 266.1 -952.25 265.95
M -966.75 257.7
Q -966.35 257.95 -966.15 258.4 -972.1 259.65 -980.95 258.95 -981.2 258.95 -981.4 258.45 -1000.4 266.2 -988.3 255.05 -987.9 254.75 -987.45 254.55 -975.15 251.35 -966.75 257.7 Z"/>

<path fill="#FEFEFE" stroke="none" d="
M -966.15 258.4
Q -966.35 257.95 -966.75 257.7 -975.15 251.35 -987.45 254.55 -987.9 254.75 -988.3 255.05 -1000.4 266.2 -981.4 258.45 -981.2 258.95 -980.95 258.95 -972.1 259.65 -966.15 258.4
M -951.8 266.35
Q -952 265.95 -952.25 265.95 -962.35 266.1 -973.5 269.25 -973.95 269.45 -974.45 269.6 -995.75 276 -1001 288.8 -998.1 289.25 -994.1 287 -984.75 281.9 -975.15 278.25 -960.6 272.75 -951.8 266.35
M -591.8 277.35
Q -589.45 284.55 -581.75 289.65 -573.7 294.9 -566.7 300.8 -551.2 313.75 -536.9 318.8
L -536.4 318.6
Q -562.35 294.9 -590.95 276.85 -591.85 277.25 -591.8 277.35
M -539.75 242.4
Q -537.05 234.4 -549.85 238.35 -554.9 240.15 -557.4 243.15 -558.2 244.2 -557.25 244.3 -549.1 245.15 -540.3 242.95 -539.8 242.75 -539.75 242.4 Z"/>

<path fill="#FEEF4B" stroke="none" d="
M -842.7 138.55
Q -843.15 138.75 -843.6 138.95 -839.9 143.55 -835.5 144.85 -834.15 145.25 -833.4 144.85 -830.15 143.3 -830.85 136.25 -830.85 135.6 -829.05 134.8
L -829.25 134.3
Q -834.45 136.8 -838.1 136.55 -840.4 137.55 -842.7 138.55 Z"/>

<path fill="#E79971" stroke="none" d="
M -787.8 174.7
Q -788.5 177.45 -786.4 181.7
L -786.85 181.9 -786.65 182.3
Q -784 179.95 -787.8 174.7 Z"/>

<path fill="#FEEC44" stroke="none" d="
M -771.4 129.45
Q -771.6 129 -771.85 128.95 -796.95 127.55 -824.4 132.85 -826.25 133.6 -828.1 134.4 -828.6 134.6 -829.05 134.8 -830.85 135.6 -830.85 136.25 -830.15 143.3 -833.4 144.85 -834.15 145.25 -835.5 144.85 -839.9 143.55 -843.6 138.95 -847.3 140.5 -850.95 142.1 -851.4 142.35 -851.85 142.55 -843 147 -834.3 152.1 -834.05 152.2 -833.6 152 -840.05 169.95 -842.15 189.55 -842.15 190.05 -841.95 190.5 -826.7 182.1 -816.8 167.8 -816.55 167.55 -816.05 167.35 -803.05 177.7 -787.7 182 -787.3 182.05 -786.85 181.9
L -786.4 181.7
Q -788.5 177.45 -787.8 174.7 -787.95 174.25 -788.15 173.8 -792.55 162.15 -797.2 150.45 -796.75 150.25 -796.3 149.95 -781.65 140.6 -771.4 129.45 Z"/>

<path fill="#FDEB46" stroke="none" d="
M -736.35 135
Q -736.8 135.15 -737.25 135.4 -731.05 143.75 -724.3 150.55 -724 150.85 -723.8 151.3 -733 161.75 -739 173.5 -739.15 173.75 -738.95 174.2 -729 173.15 -717 166.95 -716.55 166.75 -716.1 166.55 -709.15 176.7 -700.65 183.55 -700.5 183.7 -700.05 183.55 -700.25 170.95 -696.05 160 -695.15 157.8 -693.95 158.1 -692.4 158.45 -690.55 157.6 -690.75 157.15 -691.1 156.95 -712.55 143.1 -736.35 135 Z"/>

<path fill="#D528BE" stroke="none" d="
M -634.95 238.15
Q -635.15 237.65 -635.35 237.2 -652.55 181.35 -689.6 157.25 -690.1 157.45 -690.55 157.6 -692.4 158.45 -693.95 158.1 -695.15 157.8 -696.05 160 -700.25 170.95 -700.05 183.55 -700.5 183.7 -700.65 183.55 -709.15 176.7 -716.1 166.55 -716.55 166.75 -717 166.95 -729 173.15 -738.95 174.2 -739.15 173.75 -739 173.5 -733 161.75 -723.8 151.3 -724 150.85 -724.3 150.55 -731.05 143.75 -737.25 135.4 -737.45 134.9 -737.75 134.9 -753.55 131.45 -769.55 128.65 -770.05 128.8 -770.5 129.05 -770.95 129.25 -771.4 129.45 -781.65 140.6 -796.3 149.95 -796.75 150.25 -797.2 150.45 -792.55 162.15 -788.15 173.8 -787.95 174.25 -787.8 174.7 -784 179.95 -786.65 182.3
L -786.85 181.9
Q -787.3 182.05 -787.7 182 -803.05 177.7 -816.05 167.35 -816.55 167.55 -816.8 167.8 -826.7 182.1 -841.95 190.5 -842.15 190.05 -842.15 189.55 -840.05 169.95 -833.6 152 -834.05 152.2 -834.3 152.1 -843 147 -851.85 142.55 -895 162.7 -913.8 192.5 -913.95 192.8 -913.8 193.2 -913.3 193 -912.85 192.8 -909.45 196.9 -905.75 199.7 -905.4 200 -905.2 200.45 -892.65 195.5 -880.6 191.85 -880.1 191.7 -879.65 191.5 -883.8 202.45 -890.45 212.3 -890.65 212.65 -891.1 212.85 -883.8 223.1 -875.15 230.05 -874.8 230.3 -874.65 230.75 -887.7 234.05 -898 230.25 -898.35 230.2 -898.8 230.4 -902.5 241.05 -907.45 251.25 -907.6 251.6 -908.05 251.75 -914.8 239.55 -914.9 226.3 -914.85 225.9 -915.05 225.4 -921.35 223.9 -928.45 224.2 -928.65 224.25 -928.9 223.8 -931.3 228.85 -932.7 234.4 -932.85 234.75 -932.65 235.2 -938.55 256.45 -933.45 282.3 -933.4 282.4 -933.9 282.65 -926.2 317.35 -904.6 341.65 -904.5 341.8 -904.05 341.6 -902.7 340.95 -901.3 340.4 -899.45 339.65 -899.5 339.45 -906.3 318.3 -906.3 301.2 -893.65 309.4 -882.45 321.4 -882.1 321.75 -881.95 322.25 -868.8 315.6 -850.15 307.4 -849.75 307.2 -849.3 307 -852.45 322.85 -860 337 -860.15 337.25 -859.9 337.75 -850.6 353.5 -837.1 368.2 -836.75 368.6 -836.6 369.05 -856.1 367.35 -871.8 366.65 -873.55 366.6 -874.2 367.85 -832.85 395.25 -780.65 394.75 -780.2 394.75 -779.75 394.55 -779.95 394.1 -780.1 393.65 -782.5 384 -782.7 375.15 -783.2 375.35 -783.65 375.35 -800.35 376.5 -814.75 371.6 -814.3 371.35 -813.95 371.1 -807.4 365.35 -797.55 360.9 -797.8 360.45 -797.75 360.45 -794.3 358.4 -790.65 356.8 -790.85 356.35 -791 355.85 -794.3 341 -793.55 327.5 -782.5 336.15 -771.8 345.5 -771.45 345.75 -771.25 346.2 -756.6 340.9 -741.3 334.85
L -741.1 335.3
Q -746 348.65 -754.35 360.5 -754.6 360.8 -755.05 361 -745.4 372.3 -735.25 381.95 -734.95 382.25 -734.8 382.75 -749.95 385.55 -762.5 381.9 -762.9 381.9 -763.35 382.05 -765.85 387.15 -767.25 392.65 -767.35 393.05 -767.15 393.5 -746.85 393.05 -722.65 382.95 -722.2 382.75 -721.75 382.55 -721.3 382.35 -720.8 382.15 -717.15 380.55 -713.5 378.95 -713 378.8 -712.55 378.6 -698.4 372.8 -688.95 365.1 -689.2 364.6 -689.4 364.15 -692.05 357.85 -693.65 351.85 -694.1 352.1 -694.6 352.15 -708.5 355.7 -720.15 353.5 -720.6 353.7 -721.05 353.9 -736.7 362.55 -745.25 353.5 -744.25 351.95 -742.85 351.4 -717.75 341.2 -700.3 326.35 -700.55 325.95 -700.75 325.6 -708.35 315.45 -706.8 306.3 -699.1 311.9 -690.9 316 -690.55 316.2 -690.35 316.65 -689.9 316.45 -689.7 316.05 -681.55 302.65 -670.05 290.4 -663.45 297.85 -670.25 307.2 -670.35 307.45 -670.15 307.9 -669.65 307.7 -669.2 307.5 -666 306.15 -664.15 304.15 -664.2 317.45 -668.25 329.15 -668.4 329.5 -668.25 329.95 -664.85 333.95 -661.15 336.8 -660.8 337.1 -660.55 337.55 -660.15 337.35 -659.9 337 -640.65 313.15 -634.75 283.9 -634.95 283.45 -634.9 283 -630.6 262.3 -634.95 238.15
M -831.05 243.45
Q -831.25 243 -831.45 242.55 -836.5 234.45 -835.15 228.95 -826.65 233.3 -818.25 238.2 -817.95 238.4 -817.75 238.85 -808.9 233.25 -797.5 225.2
L -797.3 225.65
Q -798.4 236.55 -800.85 246.95 -801 247.35 -800.8 247.8 -791.8 256.75 -782.05 263.9 -781.75 264.1 -781.55 264.55 -793.8 267.75 -804.05 265.85 -804.45 265.8 -804.9 265.95 -808.65 278.6 -813.45 286.6
L -814.45 285.2
Q -815.95 283.3 -816.95 281 -817.4 281.2 -817.45 281.1 -821.4 275.1 -821.75 269.95 -821.95 269.5 -822.05 269.5 -834.05 270.3 -845.5 270.45 -845.7 269.95 -845.5 269.85 -838.8 260.95 -827.55 254 -827.75 253.55 -827.75 253 -827.85 248.9 -831.05 243.45
M -667.8 242.3
Q -667.45 242.4 -667 242.2 -679.15 251.2 -695.05 255.5 -695.5 255.65 -695.95 255.9 -694.25 270.55 -693.6 285.2 -693.55 285.3 -694 285.5 -705.65 279.2 -714.9 267.25 -715.15 266.9 -715.35 266.45 -727.9 273.55 -742.1 280.2 -742.55 280.4 -743.05 280.6 -738.95 263.95 -727.7 250.2 -727.45 249.85 -727 249.65 -739.25 239.35 -750.2 225.85 -750.5 225.55 -750.65 225.1 -736 224.5 -723 228.05 -722.65 228.15 -722.15 227.95 -714.2 215.15 -705.75 202.65 -705.55 202.25 -705.1 202 -701.2 216.55 -699.3 230.15 -699.3 230.6 -699.1 231.05 -683.85 237.8 -667.8 242.3
M -807.65 347.8
Q -795.4 354.95 -807.5 360.85 -809.85 362.1 -811 360.15 -819.75 353.75 -808.55 348.2 -808.1 348 -807.65 347.8 Z"/>

<path fill="#FDF7FC" stroke="none" d="
M -807.5 360.85
Q -795.4 354.95 -807.65 347.8 -808.1 348 -808.55 348.2 -819.75 353.75 -811 360.15 -809.85 362.1 -807.5 360.85 Z"/>

<path fill="#E55DA4" stroke="none" d="
M -816.95 281
Q -817.15 280.55 -817.35 280.05 -819.55 275.05 -821.75 269.95 -821.4 275.1 -817.45 281.1 -817.4 281.2 -816.95 281 Z"/>

<path fill="#E97494" stroke="none" d="
M -830.1 243.05
Q -830.55 243.25 -831.05 243.45 -827.85 248.9 -827.75 253 -827.75 253.55 -827.55 254 -827.1 253.8 -827.05 253.55 -826.7 249 -830.1 243.05 Z"/>

<path fill="#FEEA45" stroke="none" d="
M -831.45 242.55
Q -831.25 243 -831.05 243.45 -830.55 243.25 -830.1 243.05 -826.7 249 -827.05 253.55 -827.1 253.8 -827.55 254 -838.8 260.95 -845.5 269.85 -845.7 269.95 -845.5 270.45 -834.05 270.3 -822.05 269.5 -821.95 269.5 -821.75 269.95 -819.55 275.05 -817.35 280.05 -817.15 280.55 -816.95 281 -815.95 283.3 -814.45 285.2
L -813.45 286.6
Q -808.65 278.6 -804.9 265.95 -804.45 265.8 -804.05 265.85 -793.8 267.75 -781.55 264.55 -781.75 264.1 -782.05 263.9 -791.8 256.75 -800.8 247.8 -801 247.35 -800.85 246.95 -798.4 236.55 -797.3 225.65
L -797.5 225.2
Q -808.9 233.25 -817.75 238.85 -817.95 238.4 -818.25 238.2 -826.65 233.3 -835.15 228.95 -836.5 234.45 -831.45 242.55 Z"/>

<path fill="#F6A3D4" stroke="none" d="
M -518.55 164.9
Q -519 165.1 -519.25 164.95 -527.35 160.1 -538.1 162.5 -567.8 179.15 -585.2 200.55 -601.7 220.9 -631.85 235.35 -634.35 236.55 -634.95 238.15 -630.6 262.3 -634.9 283 -634.95 283.45 -634.75 283.9 -618.5 294.7 -603.15 307.45 -597.95 311.75 -594 316.85 -565.2 354.05 -524.75 359.35 -524.35 359.15 -523.9 359 -520.2 357.4 -516.55 355.8 -510.6 348.25 -509.3 339.05 -507.95 329.15 -512.8 318.2 -519.7 302.4 -516.9 291.5 -512.5 274.85 -499.65 261.35 -500.95 249.55 -508.7 240.95 -514 235.1 -514.55 229.9 -517.7 202.05 -512.1 177.3 -512.3 176.85 -512.4 176.4 -514.9 169.25 -518.55 164.9
M -549.85 238.35
Q -537.05 234.4 -539.75 242.4 -539.8 242.75 -540.3 242.95 -549.1 245.15 -557.25 244.3 -558.2 244.2 -557.4 243.15 -554.9 240.15 -549.85 238.35
M -544.8 266
Q -544.5 265.95 -544.25 266.45 -556.15 269.55 -569.55 268.2 -577.5 267.3 -573.15 262.6 -558.65 263.45 -544.8 266
M -581.75 289.65
Q -589.45 284.55 -591.8 277.35 -591.85 277.25 -590.95 276.85 -562.35 294.9 -536.4 318.6
L -536.9 318.8
Q -551.2 313.75 -566.7 300.8 -573.7 294.9 -581.75 289.65 Z"/>

<path fill="#FEFDFE" stroke="none" d="
M -544.25 266.45
Q -544.5 265.95 -544.8 266 -558.65 263.45 -573.15 262.6 -577.5 267.3 -569.55 268.2 -556.15 269.55 -544.25 266.45 Z"/>
</g>
</g>
</g>
</g>
</svg>
