<svg xmlns="http://www.w3.org/2000/svg" preserveAspectRatio="none" width="563" height="105">
  <defs>
    <linearGradient id="a" gradientUnits="userSpaceOnUse" x1="48.55" y1="14.4" x2="48.55" y2="116.8">
      <stop offset="0%" stop-color="#872D70"/>
      <stop offset="100%" stop-color="#C943A7"/>
    </linearGradient>
    <linearGradient id="d" gradientUnits="userSpaceOnUse" x1="43.65" y1="103.7" x2="43.65" y2="1.3">
      <stop offset="0%" stop-color="#872D70"/>
      <stop offset="100%" stop-color="#C943A7"/>
    </linearGradient>
  </defs>
  <path fill="url(#a)" d="M91.3 2.3H2.5v100.45h88.8V2.3z" transform="translate(.65 .55)"/>
  <path fill="#521B44" d="M52.05 20.15q0-1.1-.3-1.65-.55-1.25-2.4-1.45-1.85-.25-2.85.85-.55.5-.7 1.05L42.7 34.4l-4.65-14.45q-.4-.65-1.45-1.05-1.4-.5-2.9.05-1.3.5-1.6 2.2-.25.85-.1 1.55l4.65 15.95q-1.3.15-2.15 1.25-.4.5-.55 1.05Q32.85 48 36.2 53.9q1.7 2.95 3.55 4.4v30.75h19.7v-30.5q1.2-.55 2-2.85.25-.7.4-1.55l.15-.7V36.3q0-1.55-1.55-2.4-.8-.35-1.55-.55-1.7 0-2.4.2-.3 0-.3.05l-.25-1.8q-.4-1.45-2.95-1.6-1.3-.1-2.5.1l1.55-10.15z"/>
  <path fill="#732660" d="M5.80434723 71.32619781v29.34977189h83.52333984V71.3261978H5.80434723z"/>
  <g transform="translate(14 73.3)">
    <clipPath id="b">
      <path fill="#FFF" d="M-8.2-2h83.4v31H-8.2z"/>
    </clipPath>
    <text clip-path="url(#b)" writing-mode="lr">
      <tspan x="-.3" y="19.2" baseline-shift="0%" font-family="Griffy" font-size="20" fill="#FFA406">Scissors</tspan>
    </text>
  </g>
  <path stroke="#D87D2E" stroke-width="5" stroke-linejoin="round" stroke-linecap="round" fill="none" d="M2.5 2.5h88.8v122.45H2.5V2.5z" transform="matrix(1 0 0 .81642 .65 1)"/>
  <path fill="#FFF" fill-opacity=".04705882" d="M3.55 76.97776566q1.60253906-.24381026 3.15-.57149506l36-30.65662766q.43046875-1.01941068.85-2.08187484 1.00800781-.17205446 2-.36738968l46-39.18823242H3.95l-.4 72.86561966z"/>
  <path fill="url(#a)" d="M91.3 2.3H2.5v100.45h88.8V2.3z"/>
  <path fill="#521B44" d="M51.4 19.6q0-1.1-.3-1.65-.55-1.25-2.4-1.45-1.85-.25-2.85.85-.55.5-.7 1.05l-3.1 15.45L37.4 19.4q-.4-.65-1.45-1.05-1.4-.5-2.9.05-1.3.5-1.6 2.2-.25.85-.1 1.55L36 38.1q-1.3.15-2.15 1.25-.4.5-.55 1.05-1.1 7.05 2.25 12.95 1.7 2.95 3.55 4.4V88.5h19.7V58q1.2-.55 2-2.85.25-.7.4-1.55l.15-.7V35.75q0-1.55-1.55-2.4-.8-.35-1.55-.55-1.7 0-2.4.2-.3 0-.3.05l-.25-1.8q-.4-1.45-2.95-1.6-1.3-.1-2.5.1L51.4 19.6z"/>
  <path fill="#732660" d="M5.15434723 70.77619781v29.34977189h83.52333984V70.7761978H5.15434723z"/>
  <g transform="translate(13.35 72.75)">
    <clipPath id="c">
      <path fill="#FFF" d="M-8.2-2h83.4v31H-8.2z"/>
    </clipPath>
    <text clip-path="url(#c)" writing-mode="lr">
      <tspan x="-.3" y="19.2" baseline-shift="0%" font-family="Griffy" font-size="20" fill="#FFA406">Scissors</tspan>
    </text>
  </g>
  <path stroke="#D87D2E" stroke-width="5" stroke-linejoin="round" stroke-linecap="round" fill="none" d="M2.5 2.5h88.8v122.45H2.5V2.5z" transform="matrix(1 0 0 .81642 0 .45)"/>
  <path fill="#FFF" fill-opacity=".04705882" d="M2.9 76.42776566q1.60253906-.24381026 3.15-.57149506l36-30.65662766q.43046875-1.01941068.85-2.08187484 1.00800781-.17205446 2-.36738968L90.9 3.562146H3.3l-.4 72.86561966z"/>
  <path fill="url(#a)" d="M91.3 2.3H2.5v100.45h88.8V2.3z" transform="translate(94)"/>
  <path fill="url(#d)" d="M2.5 2.3v100.45h88.8V2.3H2.5z" transform="translate(94)"/>
  <path fill="#521B44" d="M145.4 19.6q0-1.1-.3-1.65-.55-1.25-2.4-1.45-1.85-.25-2.85.85-.55.5-.7 1.05l-3.1 15.45-4.65-14.45q-.4-.65-1.45-1.05-1.4-.5-2.9.05-1.3.5-1.6 2.2-.25.85-.1 1.55L130 38.1q-1.3.15-2.15 1.25-.4.5-.55 1.05-1.1 7.05 2.25 12.95 1.7 2.95 3.55 4.4V88.5h19.7V58q1.2-.55 2-2.85.25-.7.4-1.55l.15-.7V35.75q0-1.55-1.55-2.4-.8-.35-1.55-.55-1.7 0-2.4.2-.3 0-.3.05l-.25-1.8q-.4-1.45-2.95-1.6-1.3-.1-2.5.1l1.55-10.15z"/>
  <path fill="#F90" d="M136.6 17.35q-.55.5-.7 1.05l-3.1 15.45-4.65-14.45q-.4-.65-1.45-1.05-1.4-.5-2.9.05-1.3.5-1.6 2.2-.25.85-.1 1.55l4.65 15.95q-1.3.15-2.15 1.25-.4.5-.55 1.05-1.1 7.05 2.25 12.95 1.7 2.95 3.55 4.4V88.5h19.7V58q1.2-.55 2-2.85.25-.7.4-1.55l.15-.7V35.75q0-1.55-1.55-2.4-.8-.35-1.55-.55-1.7 0-2.4.2-.3 0-.3.05l-.25-1.8q-.4-1.45-2.95-1.6-1.3-.1-2.5.1l1.55-10.15q0-1.1-.3-1.65-.55-1.25-2.4-1.45-1.85-.25-2.85.85z"/>
  <path fill="#732660" d="M99.15434723 70.77619781v29.34977189h83.52333984V70.7761978H99.15434723z"/>
  <g transform="translate(107.35 72.75)">
    <clipPath id="e">
      <path fill="#FFF" d="M-8.2-2h83.4v31H-8.2z"/>
    </clipPath>
    <text clip-path="url(#e)" writing-mode="lr">
      <tspan x="-.3" y="19.2" baseline-shift="0%" font-family="Griffy" font-size="20" fill="#FFA406">Scissors</tspan>
    </text>
  </g>
  <path stroke="#D87D2E" stroke-width="5" stroke-linejoin="round" stroke-linecap="round" fill="none" d="M2.5 2.5h88.8v122.45H2.5V2.5z" transform="matrix(1 0 0 .81642 94 .45)"/>
  <path fill="#FFF" fill-opacity=".04705882" d="M96.9 76.42776566q1.60253906-.24381026 3.15-.57149506l36-30.65662766q.43046875-1.01941068.85-2.08187484 1.00800781-.17205446 2-.36738968l46-39.18823242H97.3l-.4 72.86561966z"/>
  <path fill="url(#a)" d="M91.3 2.3H2.5v100.45h88.8V2.3z" transform="translate(188)"/>
  <path fill="#521B44" d="M238.7 29.95q0-.55-.1-.8-.1-.3-.5-.55-.55-.4-1.1-.45-.8-.2-2.7-.2-2 0-2.7.2-.55.05-.95.45-.25.25-.3.65-.1.15-.1.3l-1.6.15q-1.8.35-2.75.65-1.35.55-1.9 2.55-.25.95-.35 1.8v2.1q-1.35.05-2.15 1.25-.45.55-.6 1.1v.25q-1.05 7.1 2.35 12.95 1.7 3 3.65 4.6V88.5h20.2V57.1q1.2-.45 2-2.85.3-.8.45-1.6l.1-.7V36.8q0-1.7-1.6-2.8-.5-.4-1.1-.65-.25-.15-.5-.2-1.6-.2-1.95-.2l-.25-1q-.35-1.5-3.05-1.9-1.25-.2-2.5-.1z"/>
  <path fill="#732660" d="M193.15434723 70.77619781v29.34977189h83.52333984V70.7761978h-83.52333984z"/>
  <g transform="translate(201.35 72.75)">
    <clipPath id="f">
      <path fill="#FFF" d="M-8.2-2h83.4v31H-8.2z"/>
    </clipPath>
    <text clip-path="url(#f)" writing-mode="lr">
      <tspan x="14.05" y="19.2" baseline-shift="0%" font-family="Griffy" font-size="20" fill="#FFA406">Rock</tspan>
    </text>
  </g>
  <path stroke="#D87D2E" stroke-width="5" stroke-linejoin="round" stroke-linecap="round" fill="none" d="M2.5 2.5h88.8v122.45H2.5V2.5z" transform="matrix(1 0 0 .81642 188 .45)"/>
  <path fill="#FFF" fill-opacity=".04705882" d="M190.9 76.42776566q1.60253906-.24381026 3.15-.57149506l36-30.65662766q.43046875-1.01941068.85-2.08187484 1.00800781-.17205446 2-.36738968l46-39.18823242h-87.6l-.4 72.86561966z"/>
  <path fill="url(#a)" d="M91.3 2.3H2.5v100.45h88.8V2.3z" transform="translate(282)"/>
  <path fill="url(#d)" d="M91.3 2.3H2.5v100.45h88.8V2.3z" transform="translate(282)"/>
  <path fill="#521B44" d="M332.7 29.95q0-.55-.1-.8-.1-.3-.5-.55-.55-.4-1.1-.45-.8-.2-2.7-.2-2 0-2.7.2-.55.05-.95.45-.25.25-.3.65-.1.15-.1.3l-1.6.15q-1.8.35-2.75.65-1.35.55-1.9 2.55-.25.95-.35 1.8v2.1q-1.35.05-2.15 1.25-.45.55-.6 1.1v.25q-1.05 7.1 2.35 12.95 1.7 3 3.65 4.6V88.5h20.2V57.1q1.2-.45 2-2.85.3-.8.45-1.6l.1-.7V36.8q0-1.7-1.6-2.8-.5-.4-1.1-.65-.25-.15-.5-.2-1.6-.2-1.95-.2l-.25-1q-.35-1.5-3.05-1.9-1.25-.2-2.5-.1z"/>
  <path fill="#F90" d="M331.35 30.05q-1.25-.2-2.5-.1 0-.55-.1-.8-.1-.3-.5-.55-.55-.4-1.1-.45-.8-.2-2.7-.2-2 0-2.7.2-.55.05-.95.45-.25.25-.3.65-.1.15-.1.3l-1.6.15q-1.8.35-2.75.65-1.35.55-1.9 2.55-.25.95-.35 1.8v2.1q-1.35.05-2.15 1.25-.45.55-.6 1.1v.25q-1.05 7.1 2.35 12.95 1.7 3 3.65 4.6V88.5h20.2V57.1q1.2-.45 2-2.85.3-.8.45-1.6l.1-.7V36.8q0-1.7-1.6-2.8-.5-.4-1.1-.65-.25-.15-.5-.2-1.6-.2-1.95-.2l-.25-1q-.35-1.5-3.05-1.9z"/>
  <path fill="#732660" d="M287.15434723 70.77619781v29.34977189h83.52333984V70.7761978h-83.52333984z"/>
  <g transform="translate(295.35 72.75)">
    <clipPath id="g">
      <path fill="#FFF" d="M-8.2-2h83.4v31H-8.2z"/>
    </clipPath>
    <text clip-path="url(#g)" writing-mode="lr">
      <tspan x="14.05" y="19.2" baseline-shift="0%" font-family="Griffy" font-size="20" fill="#FFA406">Rock</tspan>
    </text>
  </g>
  <path stroke="#D87D2E" stroke-width="5" stroke-linejoin="round" stroke-linecap="round" fill="none" d="M2.5 2.5h88.8v122.45H2.5V2.5z" transform="matrix(1 0 0 .81642 282 .45)"/>
  <path fill="#FFF" fill-opacity=".04705882" d="M284.9 76.42776566q1.60253906-.24381026 3.15-.57149506l36-30.65662766q.43046875-1.01941068.85-2.08187484 1.00800781-.17205446 2-.36738968l46-39.18823242h-87.6l-.4 72.86561966z"/>
  <path fill="url(#a)" d="M91.3 2.3H2.5v100.45h88.8V2.3z" transform="translate(376)"/>
  <path fill="#521B44" d="M429.8006836 19.43671722q-1.2851349-.1835907-2.29488373.59666977-1.05564652.7343628-1.23923722 2.01949768l-1.74411163 11.88749772h-.1835907l-.50487442-13.99879075q-.04589767-1.2392372-.96385116-2.11129303-.9179535-.87205581-2.20308838-.87205581l-.45897675.04589767q-1.28513489.04589768-2.11129303.96385117-.87205582.96385116-.82615814 2.24898605l.50487442 13.67750702q-.27538605 0-.5507721.04589768l-3.16693954-10.6482605q-.32128372-1.23923722-1.46872559-1.83590699-1.10154419-.64256744-2.3407814-.27538604l-.41307907.13769302q-1.23923721.3671814-1.83590698 1.46872559-.59666977 1.14744186-.22948838 2.3407814l3.9930977 13.539814q.04589767.13769302.09179534.22948837l1.14744186 5.783107-3.62591629-2.57026978q-.96385116-.64256745-2.11129303-.50487442-1.19333953.22948837-1.83590698 1.19333954l-1.37693023 1.88180465q-.64256745 1.00974884-.45897675 2.20308838.1835907 1.14744187 1.10154419 1.7900093l10.6482605 7.52721864.13769302.68846512V85.8506523h18.49676285V57.07281036q1.14744186-.45897674 1.88180466-2.66206512.22948837-.68846512.41307907-1.46872559l.09179535-.64256744V40.73323822q.09179535-.22948837.1835907-.50487442l2.66206512-9.45492096q.3671814-1.23923721-.22948837-2.3407814-.64256745-1.14744187-1.88180466-1.46872559-1.19333954-.3671814-2.3407814.27538605-1.1015442.59666977-1.46872559 1.83590698l-1.46872559 5.2323349-.64256744-.09179535h-.04589767l1.65231628-11.19903259q.22948837-1.23923721-.5507721-2.29488373-.78026046-1.00974884-2.01949768-1.19333954l-.41307907-.09179535z"/>
  <path fill="#732660" d="M381.15434723 70.77619781v29.34977189h83.52333984V70.7761978h-83.52333984z"/>
  <g transform="translate(389.35 72.75)">
    <clipPath id="h">
      <path fill="#FFF" d="M-8.2-2h83.4v31H-8.2z"/>
    </clipPath>
    <text clip-path="url(#h)" writing-mode="lr">
      <tspan x="8.95" y="19.2" baseline-shift="0%" font-family="Griffy" font-size="20" fill="#FFA406">Paper</tspan>
    </text>
  </g>
  <path stroke="#D87D2E" stroke-width="5" stroke-linejoin="round" stroke-linecap="round" fill="none" d="M2.5 2.5h88.8v122.45H2.5V2.5z" transform="matrix(1 0 0 .81642 376 .45)"/>
  <path fill="#FFF" fill-opacity=".04705882" d="M378.9 76.42776566q1.60253906-.24381026 3.15-.57149506l36-30.65662766q.43046875-1.01941068.85-2.08187484 1.00800781-.17205446 2-.36738968l46-39.18823242h-87.6l-.4 72.86561966z"/>
  <path fill="url(#a)" d="M91.3 2.3H2.5v100.45h88.8V2.3z" transform="translate(470)"/>
  <g>
    <path fill="url(#d)" d="M91.3 102.75V2.3H2.5v100.45h88.8z" transform="translate(470)"/>
  </g>
  <g>
    <path fill="#521B44" d="M523.8006836 19.43671722q-1.2851349-.1835907-2.29488373.59666977-1.05564652.7343628-1.23923722 2.01949768l-1.74411163 11.88749772h-.1835907l-.50487442-13.99879075q-.04589767-1.2392372-.96385116-2.11129303-.9179535-.87205581-2.20308838-.87205581l-.45897675.04589767q-1.28513489.04589768-2.11129303.96385117-.87205582.96385116-.82615814 2.24898605l.50487442 13.67750702q-.27538605 0-.5507721.04589768l-3.16693954-10.6482605q-.32128372-1.23923722-1.46872559-1.83590699-1.10154419-.64256744-2.3407814-.27538604l-.41307907.13769302q-1.23923721.3671814-1.83590698 1.46872559-.59666977 1.14744186-.22948838 2.3407814l3.9930977 13.539814q.04589767.13769302.09179534.22948837l1.14744186 5.783107-3.62591629-2.57026978q-.96385116-.64256745-2.11129303-.50487442-1.19333953.22948837-1.83590698 1.19333954l-1.37693023 1.88180465q-.64256745 1.00974884-.45897675 2.20308838.1835907 1.14744187 1.10154419 1.7900093l10.6482605 7.52721864.13769302.68846512V85.8506523h18.49676285V57.07281036q1.14744186-.45897674 1.88180466-2.66206512.22948837-.68846512.41307907-1.46872559l.09179535-.64256744V40.73323822q.09179535-.22948837.1835907-.50487442l2.66206512-9.45492096q.3671814-1.23923721-.22948837-2.3407814-.64256745-1.14744187-1.88180466-1.46872559-1.19333954-.3671814-2.3407814.27538605-1.1015442.59666977-1.46872559 1.83590698l-1.46872559 5.2323349-.64256744-.09179535h-.04589767l1.65231628-11.19903259q.22948837-1.23923721-.5507721-2.29488373-.78026046-1.00974884-2.01949768-1.19333954l-.41307907-.09179535z"/>
  </g>
  <g>
    <path fill="#F90" d="M520.65 19.55l-.4-.1q-1.3-.2-2.3.6-1.05.7-1.25 2l-1.75 11.9h-.15l-.5-14q-.05-1.25-1-2.1-.9-.9-2.2-.9l-.45.05q-1.3.05-2.1.95-.9 1-.85 2.25l.55 13.7q-.3 0-.6.05L504.5 23.3q-.3-1.25-1.45-1.85-1.1-.65-2.35-.25l-.4.1q-1.25.4-1.85 1.5-.6 1.15-.25 2.35l4 13.5q.05.15.1.25l1.15 5.8-3.6-2.6q-1-.65-2.15-.5-1.2.25-1.8 1.2l-1.4 1.9q-.65 1-.45 2.2.2 1.15 1.1 1.75l10.65 7.55.15.7v28.95h18.5v-28.8q1.1-.45 1.85-2.65.25-.7.4-1.45l.1-.65V40.75l.2-.5 2.65-9.5q.4-1.2-.2-2.3-.65-1.15-1.9-1.5-1.2-.35-2.35.3-1.1.6-1.45 1.85l-1.5 5.2-.6-.1h-.05l1.65-11.2q.2-1.2-.55-2.3-.8-1-2.05-1.15z"/>
  </g>
  <g>
    <path fill="#732660" d="M475.15434723 70.77619781v29.34977189h83.52333984V70.7761978h-83.52333984z"/>
  </g>
  <g>
    <g transform="translate(483.35 72.75)">
      <clipPath id="i">
        <path fill="#FFF" d="M-8.2-2h83.4v31H-8.2z"/>
      </clipPath>
      <text clip-path="url(#i)" writing-mode="lr">
        <tspan x="8.95" y="19.2" baseline-shift="0%" font-family="Griffy" font-size="20" fill="#FFA406">Paper</tspan>
      </text>
    </g>
  </g>
  <g>
    <path stroke="#D87D2E" stroke-width="5" stroke-linejoin="round" stroke-linecap="round" fill="none" d="M2.5 2.5h88.8v122.45H2.5V2.5z" transform="matrix(1 0 0 .81642 470 .45)"/>
    <path fill="#FFF" fill-opacity=".04705882" d="M472.9 76.42776566q1.60253906-.24381026 3.15-.57149506l36-30.65662766q.43046875-1.01941068.85-2.08187484 1.00800781-.17205446 2-.36738968l46-39.18823242h-87.6l-.4 72.86561966z"/>
  </g>
</svg>
