<svg xmlns="http://www.w3.org/2000/svg" preserveAspectRatio="none" width="46px" height="17px">
  <path fill="#666" d="M45.45 6.3q0-2-1.45-3.45-1.5-1.6-3.65-1.6-.05.05-.1.05-1.85.1-3.25 1.4-.85.75-1.2 1.8l-25.5.15Q9.9 3.6 9.15 2.9H9.1Q7.65 1.45 5.6 1.45q-2-.2-3.6 1.45l-.05.05Q.6 4.35.55 6.25q0 .15-.05.35.15 1.1.6 2-.45 1-.5 2.3 0 .05-.05.2.25 1.75 1.5 3.2 1.4 1.45 3.45 1.55l.05.05q2.1-.05 3.55-1.4.1-.1.15-.2.65-.8 1-1.75l25.6.05q.33925781.82402344 1.1 1.65.02382812.02636719.05.05 1.38574219 1.49921875 3.45 1.45h.1q1.95-.05 3.45-1.4.05-.1.05-.15 1.3-1.4 1.35-3.35.1-1.3-.55-2.4.5-.95.6-2.15z"/>
  <path fill="#E6E6E6" d="M3.07100296 4.1196312q-.95051956.8894043-.99171066 2.19246292.1483612 1.41044616 1.02716827 2.26021957-.95051956.8894043-.98111343 2.29320908.12716675 1.20895385 1.01657104 2.15947342.8894043.95051956 2.19246292.99171066 1.3481331-.0144806 2.29865265-.90388489.8564148-1.05776215.8419342-2.40589523l28.52684022.05516052.10074615-.01059723q-.12469864 1.23544693.87075043 2.22574234.8894043.95051956 2.20970154.91350174 1.34813308-.01448059 2.29865265-.90388489.86701202-.95701599.85253143-2.30514908.06902695-1.28052139-.97149658-2.2151451.89484787-.93447877.98111343-2.29320908.02395248-1.2248497-.88798904-2.14753342-.97291184-1.01813126-2.32104493-1.00365066-1.26462554.08209228-2.2151451.97149658-.95051957.8894043-.93603898 2.23753738l-28.43273544.11319733.01194-.128582Q8.48070145 4.9511856 7.60189438 4.1014122q-.96761322-.96775818-2.3157463-.95327759-1.2805214-.06902694-2.21514512.97149659z"/>
</svg>
