<svg xmlns="http://www.w3.org/2000/svg" preserveAspectRatio="none" viewBox="0 0 50 100">
  <defs>
    <filter id="a" x="-20%" y="-20%" width="140%" height="140%" color-interpolation-filters="sRGB">
      <feColorMatrix in="SourceGraphic" values="0 0 0 0 0.9725490196078431 0 0 0 0 0.9764705882352941 0 0 0 0 0.9764705882352941 0 0 0 1 0" result="result1"/>
    </filter>
  </defs>
  <path fill="#333" fill-opacity=".2" d="M30.25 78.35q-.1-.05-.25 0-.2-.05-.4 0-.65.15-1.2.4-.25.1-.5.05-.1 0-.55-.1-.35-.05-.65-.25-.4-.25-.6-.35-.75-.3-2.05.5-1.15.75-1.6 1.6h.05l-.1.1q-1 1.5-.7 2.9.15.8 1.15 2.45.9 1.45 1.6 4.15.05.8.1 1.8.5 8.4.65 18.2h3.3q.1-3.75.2-8.25.15-6.35.45-11.75.55-3.1 1.75-4.6l.1-.1q.55-.85.7-2.15.25-1.35 0-2.65-.1-.55-.35-1.05-.3-.55-.6-.75-.25-.1-.5-.15M15.7 27.9q0-.1-.4-.4-.4-.3-.75-.7-.2-.3-.45-.3-.2-.05-.45.1-.55.2-.35.7.15.45.25.7.1.4.5.45.15-.05.3-.05.2 0 .35-.05.35-.15.65-.25.35-.05.35-.2m1.85 2.8q.35 0 .55-.25.2-.25-.25-.5t-.8-.4q-.45-.55-.55-1.05-.9-.25-1.45.1-.05.1-.1.15-.4.3-.15.45.1.05.25.15.05 0 .15.1.3.35.6.75.2.85.4.95.25.05.55-.15.35-.25.8-.3m-.05.55q-.6.25-.1.95.5.75 2.05 1.65 1.55.8 2.05.4.2-.1.25-.3.1-.05.1-.1.05-.2.05-.3 0-.3-.95-.6-.9-.3-1.15-.7-.3-.45-.3-.65-.05-.25-.3-.5-.3-.2-.65-.15-.5 0-1.05.3m5.4 4.9q-.75 0-.75.85 0 2.35 1.2 4.25.4.65.6 1.5.25 1.05.3 2.1.15 2.35.25 4.8.1 2.25.05 4.4.35 7.55-1.25 17.75l-.2.75q-.6 2-1.05 3.45-.45 1.4 0 1.85.7-.35 1.35-.8.8-.45 1.7-.7 1.1.15 2.5.55 1.35-.25 2.6 0l.8.2q.2-.05.45-.1.35-.5.15-1-.45-1-.75-2.05-.75-2.65-1-5.45-.3-2.85-.65-5.6-.4-3.2-.4-6.35 0-2.2.15-4.45.25-3.3.55-6.75.15-1.7.85-3.3.6-1.35 1.25-2.7.15-.65.2-1.3.05-.2.05-.35-.75-.2-1.65.05-1.1.25-2.25.4-1.4-.25-2.6-.9-1.3-.65-2.45-1.1m9-5l-.25-.55q-1.35-2.45-9.35-1.1l-.5.85q0 .15-.1.25v.05q-.3.75.2 1.9Q23 35 26.75 35.9q4.65.65 5.25-2.55l-.1-2.2m-2.4-7.85q.3-.7.1-.95-.2-.35-.6-.3-.45-.05-1.05.2-.55.3-.4 1.2.05.35.05.95-.05.8-.2 1.25v.4q-.15.45-.3.85-.15.45-.15.65t.1.5q.15.25 1.25.15 1.05-.05.75-1.1-.05-.9-.05-1.55v-.05q0-.45.05-.75.15-.8.45-1.45m-3.7-1.85q-.25-.35-.75-.3-.55 0-1.2.35-.65.3-.2 1.3.15.4.25 1.1.15.95.1 1.45v.35q0 .55-.1 1-.05.55 0 .75 0 .2.25.55.2.3 1.45.15 1.2-.1.7-1.25-.35-1.05-.45-1.75v-.05q-.1-.5-.1-.85 0-.95.15-1.7.2-.8-.1-1.1m-4.05 1.65q.1-.7-.25-.95-.35-.35-.85-.3-.65 0-1.35.4-.6.35.05 1.3.25.3.5.95.35 1.25.65 1.7.25.45.05 1.25-.2.75.25.95 3.9 0 2.15-1.25-.9-1.6-1.05-2.45-.2-.85-.15-1.6m-4.5-5.25q.25.7.5 1.05.25.35.4.8.1.45-.05.95-.25.55.2.85.4.25 2.15-.1 1.7-.3.7-1.05-.95-.7-1.25-1.55-.15-1.35-.35-1.5-.25-.2-1.4-.1-1.05.05-.9.65m1.1-3.7q-.15-.05-.3-.05-.15-.05-.75.05-.6.05-.55.45 0 .45.1.7.09648437.28925781.1.6-.03554688.37226563 0 .55.15.35.35.5.35.15 1.4-.1 1.1-.3.65-.7-.4-.4-.55-.5-.05-.15-.15-.5-.05-.35-.1-.65-.05-.25-.2-.35m-2.05-.7q.05.55.5.45.4-.1.95-.15.65-.05.35-.6-.3-.55-.45-.75-.15-.25-.6-.3-.75.05-.75.45-.05.35 0 .9M32.5 25.9q.35-.6.8-1.1.5-.5.35-.75-.1-.2-.55-.25-.45 0-1.15.15t-.75.9q0 .3-.15.75-.3.65-.5 1-.1.15-.2.25-.2.3-.5.65-.25.3-.3.45-.05.15 0 .4.1.25 1.2.25 1.1-.05 1.1-.75.15-.75.4-1.25.05-.35.25-.7z"/>
  <path fill="#080808" d="M168.05-235.5q-.65 2 .65 6.05 1.2 3.95 1.95 8.95.3 2.05.45 4.9v.2q.2 4.1.05 9.9-.65 6.4 3.45 6.25 4.05-.2 4.55-2.1.5-1.9.4-3.1-.15-1.15-.75-3.75-.65-2.6-1.25-5.35-.15-.8-.3-1.85-.05-.1-.05-.2-.45-2.85-.85-7.9-.3-3.85-.05-6.1.5-5.9-1.85-7.2-2.4-1.25-4.2-.85-1.6.2-2.2 2.15z" filter="url(#a)" transform="matrix(-.29643 .04123 .04726 .17784 83.75 54.6)"/>
  <path fill="#080808" d="M13.1 16.45q.1-1-.25-1.35-.35-.45-.85-.35-.65 0-1.35.5-.6.5.05 1.8.25.45.5 1.35.35 1.7.65 2.35.25.6.05 1.7-.2 1.05.25 1.35 3.9-.05 2.15-1.75-.9-2.2-1.05-3.4-.2-1.2-.15-2.2z" filter="url(#a)" transform="matrix(1 0 0 .72357 5.65 9.4)"/>
  <path fill="#080808" d="M168.05-235.5q-.65 2 .65 6.05 1.2 3.95 1.95 8.95.3 2.05.45 4.9v.2q.2 4.1.05 9.9-.65 6.4 3.45 6.25 4.05-.2 4.55-2.1.5-1.9.4-3.1-.15-1.15-.75-3.75-.65-2.6-1.25-5.35-.15-.8-.3-1.85-.05-.1-.05-.2-.45-2.85-.85-7.9-.3-3.85-.05-6.1.5-5.9-1.85-7.2-2.4-1.25-4.2-.85-1.6.2-2.2 2.15z" filter="url(#a)" transform="matrix(-.25607 .02638 .00966 .15828 71.9 53.35)"/>
  <path fill="#080808" d="M168.05-235.5q-.65 2 .65 6.05 1.2 3.95 1.95 8.95.3 2.05.45 4.9v.2q.2 4.1.05 9.9-.65 6.4 3.45 6.25 4.05-.2 4.55-2.1.5-1.9.4-3.1-.15-1.15-.75-3.75-.65-2.6-1.25-5.35-.15-.8-.3-1.85-.05-.1-.05-.2-.45-2.85-.85-7.9-.3-3.85-.05-6.1.5-5.9-1.85-7.2-2.4-1.25-4.2-.85-1.6.2-2.2 2.15z" filter="url(#a)" transform="matrix(-.27394 .00424 -.031 .1237 69.4 50.7)"/>
  <path fill="#080808" d="M12.75 24.8l-.5.85q0 .15-.1.25v.05q-.3.75.2 1.9 1.1 2.45 4.85 3.35 4.65.65 5.25-2.55l-.1-2.2-.25-.55q-1.35-2.45-9.35-1.1z" filter="url(#a)" transform="translate(6.55 2.9)"/>
  <path fill="#080808" d="M213.6-251.3q-1 .4-1.7 2.3-1.25 3.35-2.6 5.5-1.35 2.1-1.3 2.95.05.85 1.45 1.3 1.35.45 2.65.95.7.3 1.5.25.6-.05 1.25-.3 1.45-.55 1.75-3.2.2-1.85.55-4.9.35-3.35-1.85-4.6-.95-.55-1.7-.25z" filter="url(#a)" transform="matrix(-.24818 .02948 .02092 .14505 69.35 54.85)"/>
  <path fill="#080808" d="M213.6-236.6q-.2-.25-.45-.5-2.45-2.3-5.95.3-.1 3.35-1.65 7.7-1.2 1.3-2.85 3.4-1.7 2.05-.75 3.6.95 1.55 2.45 1.15 1.9.3 3.35 1.4 1.4 1.05 2.2.3.8-.7 1.15-6.5.85-3.2 1.8-5.5.4-.55.7-.9.6-.75.85-1.05.95-1.45-.85-3.4z" filter="url(#a)" transform="matrix(-.24559 .02917 .0207 .14355 69.3 54.65)"/>
  <path fill="#080808" d="M195.35-203.85q-3.55 2.85-3.45 4.9-.05 1 .4 2.1.15.45.4.9l.05.05q.5.85 1.25 1.75 2.2 2.5 7.95-4.85 5.7-7.3 7.25-13 1.5-5.65-.95-6.95-2.5-1.3-4.4-1.2-1.6 0-2.5 1.9-.95 1.9-.85 3.55.05 1.65-.75 4.85-.85 3.1-4.4 6z" filter="url(#a)" transform="matrix(-.24564 .02917 .02011 .13956 70.05 53.9)"/>
  <path fill="#080808" d="M192.1-262.15q-3.45-.6-4.1.2-.65.8-.9 8.2-.7 4.9-3.55 8.65-2.85 3.7 2.45 5.85 5.3 2.15 6.6.6 1.25-1.6.45-4.65-.7-2.55-.35-5 .35-2.5 1.1-4.5.65-2 1.2-5.4.5-3.4-2.9-3.95z" filter="url(#a)" transform="matrix(-.3287 -.0073 .01135 .18214 81.3 64.55)"/>
  <path fill="#080808" d="M190.75-275.15q-.4.4-.4 1.65-.05 1.2 0 2.85.05 1.65-.15 2.25-.3.55-1.4 2.7-1.1 2.1 2.3 2.75 3.4.65 4.2-.1.7-.8.8-2.4.05-1.3-.55-3.75l.4 1.35q-.35-1.3-.15-2.65.2-1.4 0-3.3t-1.95-1.95q-1.8-.05-2.25.1-.45.1-.85.5z" filter="url(#a)" transform="matrix(-.32733 .031 .0393 .21712 88.6 66.2)"/>
  <path fill="#080808" d="M192.1-283.8q-.35 1.1-.95 4.3-.6 3.2 1.25 3.2 1.8.05 3.15.4 1.3.3 1.15-2.75-.15-3.05-.4-5.1t-2.65-1.9q-1.25.7-1.55 1.85m3.05-4.55h.05q-.0484375-.0484375-.05-.1v.1z" filter="url(#a)" transform="matrix(-.32733 .031 .0325 .1796 86.75 55.6)"/>
  <g>
    <path fill="#F8F9F9" d="M18.7 81.4q.1453125.82050781 1.1 2.4.93242187 1.48886719 1.6 4.2h.05q.05.8.1 1.8.51816406 8.40136719.6 18.2h3.35q.090625-3.76601562.2-8.25.15-6.35.45-11.75h-.05q.62167969-3.09707031 1.8-4.6l.1-.1q.55-.85.7-2.15.25-1.35 0-2.65-.1-.55-.35-1.05-.3-.55-.6-.75-.25-.1-.5-.15-.1-.05-.25 0-.2-.05-.4 0-.65.15-1.2.4-.25.1-.5.05-.1 0-.55-.1-.35-.05-.65-.25-.4-.25-.6-.35-.75-.3-2.05.5-1.15.75-1.6 1.6h.05l-.1.1q-1 1.5-.7 2.9z"/>
  </g>
  <g>
    <path fill="#F8F9F9" d="M19.9 34.35q-.75 0-.75.85 0 2.35 1.2 4.25.4.65.6 1.5.25 1.05.3 2.1.15 2.35.25 4.8.1 2.25.05 4.4.36777344 7.53496094-1.3 17.75l-.2.7q-.540625 2.05527344-1 3.45-.453125 1.44824219 0 1.9.7-.35 1.35-.8.8-.45 1.7-.7 1.1.15 2.5.55 1.35-.25 2.6 0l.8.2q.2-.05.45-.1.35-.5.15-1-.45-1-.75-2.05-.75-2.65-1-5.45-.3-2.85-.65-5.6-.4-3.2-.4-6.35 0-2.2.15-4.45.25-3.3.55-6.75.15-1.7.85-3.3.6-1.35 1.25-2.7.15-.65.2-1.3.05-.2.05-.35-.75-.2-1.65.05-1.1.25-2.25.4-1.4-.25-2.6-.9-1.3-.65-2.45-1.1z"/>
  </g>
</svg>
