<svg xmlns="http://www.w3.org/2000/svg" preserveAspectRatio="none" viewBox="0 0 50 100">
  <defs>
    <filter id="a" x="-20%" y="-20%" width="140%" height="140%" color-interpolation-filters="sRGB">
      <feColorMatrix in="SourceGraphic" values="0 0 0 0 0.9725490196078431 0 0 0 0 0.9764705882352941 0 0 0 0 0.9764705882352941 0 0 0 1 0" result="result1"/>
    </filter>
  </defs>
  <path fill="#333" fill-opacity=".2" d="M30.4 85.7q.55-.85.7-2.15.25-1.35 0-2.65-.1-.55-.35-1.05-.3-.55-.6-.75-.25-.1-.5-.15-.1-.05-.25 0-.2-.05-.4 0-.65.15-1.2.4-.25.1-.5.05-.1 0-.55-.1-.35-.05-.65-.25-.4-.25-.6-.35-.75-.3-2.05.5-1.15.75-1.6 1.6h.05l-.1.1q-1 1.5-.7 2.9.15.8 1.15 2.45.9 1.45 1.6 4.15.05.8.1 1.8.5 8.4.65 18.2h3.3q.1-3.75.2-8.25.15-6.35.45-11.75.55-3.1 1.75-4.6l.1-.1m-9.75-50.4q.15-.1.1-.3.15-.35-.6-1.1-.75-.7-.85-1.25-.1-.6-.05-.9.1-.3-.05-.65-.15-.45-.55-.55-.45-.1-1.1-.05-.6.1-.45 1.15.15 1.1 1.3 2.7 1.1 1.6 1.7 1.35.25-.1.35-.25h.05l.15-.15m10.6 3q-.75-.2-1.65.05-1.1.25-2.25.4-1.4-.25-2.6-.9-1.3-.65-2.45-1.1-.75 0-.75.85 0 2.35 1.2 4.25.4.65.6 1.5.25 1.05.3 2.1.15 2.35.25 4.8.1 2.25.05 4.4.35 7.55-1.25 17.75l-.2.75q-.6 2-1.05 3.45-.45 1.4 0 1.85.7-.35 1.35-.8.8-.45 1.7-.7 1.1.15 2.5.55 1.35-.25 2.6 0l.8.2q.2-.05.45-.1.35-.5.15-1-.45-1-.75-2.05-.75-2.65-1-5.45-.3-2.85-.65-5.6-.4-3.2-.4-6.35 0-2.2.15-4.45.25-3.3.55-6.75.15-1.7.85-3.3.6-1.35 1.25-2.7.15-.65.2-1.3.05-.2.05-.35m.25-4l-.1-2.2-.25-.55q-1.35-2.45-9.35-1.1l-.5.85q0 .15-.1.25v.05q-.3.75.2 1.9 1.1 2.45 4.85 3.35 4.65.65 5.25-2.55m.3-7.25q0-.55.15-1 .25-.95.7-1.7.4-.8.2-1.15-.1-.4-.55-.4-.5-.05-1.15.2-.7.25-.6 1.35 0 .45-.1 1.15-.2 1-.35 1.55-.1.2-.15.35-.2.55-.45 1.05-.15.5-.25.7 0 .2.05.6.15.35 1.25.4 1.15-.05 1.05-1.2 0-1.1.2-1.9m-4-5.95q-.55.4-.4 1.7.05.5.05 1.35-.05 1.15-.2 1.8v.55q-.15.65-.3 1.25-.15.65-.15.9 0 .3.1.75.15.35 1.25.2 1.05-.1.75-1.6-.05-1.25-.05-2.2v-.05q0-.65.05-1.1.15-1.15.45-2.05.3-1 .1-1.35-.2-.5-.6-.45-.45-.05-1.05.3m-8.05 5.3q-.05-.05-.15-.1-.5-.3-.65.05l-.15.3q-.05.05-.15.2-.3.4-.85.85-1 .45-1.1.7-.05.25.25.5t.55.7q.05.35.45.45.3.15.55-.4.3-.55.4-.95.7-.65 1.3-.9.2-1.05-.45-1.4m1.7-3.85q.1-1-.25-1.35-.35-.45-.85-.35-.65 0-1.35.5-.6.5.05 1.8.25.4.5 1.3.35 1.7.65 2.35.25.55.05 1.65-.2 1.05.25 1.35 3.9-.05 2.15-1.75-.04628906-.11074219-.1-.25.07949219.00292969.15-.05.55-.2.45-.7-.15-.4-.25-.65-.1-.4-.5-.5-.15.05-.3.05-.11132813-.02773437-.25 0-.18398438-.72167969-.25-1.25-.2-1.2-.15-2.15m3.8-2.55q-.3-.5-.75-.45-.6 0-1.2.4-.65.45-.15 1.9.2.6.3 1.55.2 1.3.2 2.05v.5q0 .75-.05 1.4-.05.75.05 1 0 .3.25.8.25.45 1.5.3 1.2-.2.6-1.75-.35-1.45-.5-2.5v-.05q-.15-.7-.2-1.3 0-1.25.1-2.3.15-1.1-.15-1.55z"/>
  <path fill="#F8F9F9" d="M18.7 81.4q.1453125.82050781 1.1 2.4.93242187 1.48886719 1.6 4.2h.05q.05.8.1 1.8.51816406 8.40136719.6 18.2h3.35q.090625-3.76601562.2-8.25.15-6.35.45-11.75h-.05q.62167969-3.09707031 1.8-4.6l.1-.1q.55-.85.7-2.15.25-1.35 0-2.65-.1-.55-.35-1.05-.3-.55-.6-.75-.25-.1-.5-.15-.1-.05-.25 0-.2-.05-.4 0-.65.15-1.2.4-.25.1-.5.05-.1 0-.55-.1-.35-.05-.65-.25-.4-.25-.6-.35-.75-.3-2.05.5-1.15.75-1.6 1.6h.05l-.1.1q-1 1.5-.7 2.9z"/>
  <path fill="#080808" d="M168.05-235.5q-.65 2 .65 6.05 1.2 3.95 1.95 8.95.3 2.05.45 4.9v.2q.2 4.1.05 9.9-.65 6.4 3.45 6.25 4.05-.2 4.55-2.1.5-1.9.4-3.1-.15-1.15-.75-3.75-.65-2.6-1.25-5.35-.15-.8-.3-1.85-.05-.1-.05-.2-.45-2.85-.85-7.9-.3-3.85-.05-6.1.5-5.9-1.85-7.2-2.4-1.25-4.2-.85-1.6.2-2.2 2.15z" filter="url(#a)" transform="matrix(-.29643 .04846 .05707 .25253 86.1 68.9)"/>
  <path fill="#080808" d="M13.1 16.45q.1-1-.25-1.35-.35-.45-.85-.35-.65 0-1.35.5-.6.5.05 1.8.25.45.5 1.35.35 1.7.65 2.35.25.6.05 1.7-.2 1.05.25 1.35 3.9-.05 2.15-1.75-.9-2.2-1.05-3.4-.2-1.2-.15-2.2z" filter="url(#a)" transform="matrix(1 0 0 .987 5.95 3.9)"/>
  <path fill="#080808" d="M20.55 13.5q.3-.7.1-.95-.2-.35-.6-.3-.45-.05-1.05.2-.55.3-.4 1.2.05.35.05.95-.05.8-.2 1.25v.4q-.15.45-.3.85-.15.45-.15.65t.1.5q.15.25 1.25.15 1.05-.05.75-1.1-.05-.9-.05-1.55v-.05q0-.45.05-.75.15-.8.45-1.45z" filter="url(#a)" transform="matrix(1 0 0 1.4289 6.4 .9)"/>
  <path fill="#080808" d="M168.05-235.5q-.65 2 .65 6.05 1.2 3.95 1.95 8.95.3 2.05.45 4.9v.2q.2 4.1.05 9.9-.65 6.4 3.45 6.25 4.05-.2 4.55-2.1.5-1.9.4-3.1-.15-1.15-.75-3.75-.65-2.6-1.25-5.35-.15-.8-.3-1.85-.05-.1-.05-.2-.45-2.85-.85-7.9-.3-3.85-.05-6.1.5-5.9-1.85-7.2-2.4-1.25-4.2-.85-1.6.2-2.2 2.15z" filter="url(#a)" transform="matrix(-.27394 .00424 -.01451 .19005 73.1 64.85)"/>
  <path fill="#080808" d="M12.75 24.8l-.5.85q0 .15-.1.25v.05q-.3.75.2 1.9 1.1 2.45 4.85 3.35 4.65.65 5.25-2.55l-.1-2.2-.25-.55q-1.35-2.45-9.35-1.1z" filter="url(#a)" transform="translate(6.65 3.25)"/>
  <path fill="#080808" d="M213.6-251.3q-1 .4-1.7 2.3-1.25 3.35-2.6 5.5-1.35 2.1-1.3 2.95.05.85 1.45 1.3 1.35.45 2.65.95.7.3 1.5.25.6-.05 1.25-.3 1.45-.55 1.75-3.2.2-1.85.55-4.9.35-3.35-1.85-4.6-.95-.55-1.7-.25z" filter="url(#a)" transform="matrix(.24904 -.02039 -.0156 -.14568 -37.2 -6.8)"/>
  <path fill="#080808" d="M213.6-236.6q-.2-.25-.45-.5-2.45-2.3-5.95.3-.1 3.35-1.65 7.7-1.2 1.3-2.85 3.4-1.7 2.05-.75 3.6.95 1.55 2.45 1.15 1.9.3 3.35 1.4 1.4 1.05 2.2.3.8-.7 1.15-6.5.85-3.2 1.8-5.5.4-.55.7-.9.6-.75.85-1.05.95-1.45-.85-3.4z" filter="url(#a)" transform="matrix(-.08302 -.23294 -.1854 .07133 -8.9 90.55)"/>
  <path fill="#080808" d="M195.35-203.85q-3.55 2.85-3.45 4.9-.05 1 .4 2.1.15.45.4.9l.05.05q.5.85 1.25 1.75 2.2 2.5 7.95-4.85 5.7-7.3 7.25-13 1.5-5.65-.95-6.95-2.5-1.3-4.4-1.2-1.6 0-2.5 1.9-.95 1.9-.85 3.55.05 1.65-.75 4.85-.85 3.1-4.4 6z" filter="url(#a)" transform="matrix(-.23854 -.06343 -.035 .17162 57.2 78.9)"/>
  <g>
    <path fill="#F8F9F9" d="M19.9 34.35q-.75 0-.75.85 0 2.35 1.2 4.25.4.65.6 1.5.25 1.05.3 2.1.15 2.35.25 4.8.1 2.25.05 4.4.36777344 7.53496094-1.3 17.75l-.2.7q-.540625 2.05527344-1 3.45-.453125 1.44824219 0 1.9.7-.35 1.35-.8.8-.45 1.7-.7 1.1.15 2.5.55 1.35-.25 2.6 0l.8.2q.2-.05.45-.1.35-.5.15-1-.45-1-.75-2.05-.75-2.65-1-5.45-.3-2.85-.65-5.6-.4-3.2-.4-6.35 0-2.2.15-4.45.25-3.3.55-6.75.15-1.7.85-3.3.6-1.35 1.25-2.7.15-.65.2-1.3.05-.2.05-.35-.75-.2-1.65.05-1.1.25-2.25.4-1.4-.25-2.6-.9-1.3-.65-2.45-1.1z"/>
  </g>
</svg>
