<svg xmlns="http://www.w3.org/2000/svg" preserveAspectRatio="none" viewBox="0 0 50 100">
  <defs>
    <filter id="a" x="-20%" y="-20%" width="140%" height="140%" color-interpolation-filters="sRGB">
      <feColorMatrix in="SourceGraphic" values="0 0 0 0 0.9725490196078431 0 0 0 0 0.9764705882352941 0 0 0 0 0.9764705882352941 0 0 0 1 0" result="result1"/>
    </filter>
  </defs>
  <path fill="#333" fill-opacity=".2" d="M31 85.7q.55-.85.7-2.15.25-1.35 0-2.65-.1-.55-.35-1.05-.3-.55-.6-.75-.25-.1-.5-.15-.1-.05-.25 0-.2-.05-.4 0-.65.15-1.2.4-.25.1-.5.05-.1 0-.55-.1-.35-.05-.65-.25-.4-.25-.6-.35-.75-.3-2.05.5-1.15.75-1.6 1.6h.05l-.1.1q-1 1.5-.7 2.9.15.8 1.15 2.45.9 1.45 1.6 4.15.05.8.1 1.8.5 8.4.65 18.2h3.3q.1-3.75.2-8.25.15-6.35.45-11.75.55-3.1 1.75-4.6l.1-.1m.8-47.05q.05-.2.05-.35-.75-.2-1.65.05-1.1.25-2.25.4-1.4-.25-2.6-.9-1.3-.65-2.45-1.1-.75 0-.75.85 0 2.35 1.2 4.25.4.65.6 1.5.25 1.05.3 2.1.15 2.35.25 4.8.1 2.25.05 4.4.35 7.55-1.25 17.75l-.2.75q-.6 2-1.05 3.45-.45 1.4 0 1.85.7-.35 1.35-.8.8-.45 1.7-.7 1.1.15 2.5.55 1.35-.25 2.6 0l.8.2q.2-.05.45-.1.35-.5.15-1-.45-1-.75-2.05-.75-2.65-1-5.45-.3-2.85-.65-5.6-.4-3.2-.4-6.35 0-2.2.15-4.45.25-3.3.55-6.75.15-1.7.85-3.3.6-1.35 1.25-2.7.15-.65.2-1.3m.25-4.55l-.1-2.2-.25-.55q-1.35-2.45-9.35-1.1l-.5.85q0 .15-.1.25v.05q-.3.75.2 1.9 1.1 2.45 4.85 3.35 4.65.65 5.25-2.55m-12.8-3.75q-.5-.1-1.1 0-.65.05-.5 1.1.15 1.1 1.3 2.7 1.1 1.6 1.75 1.35.2-.1.3-.25h.05l.15-.15q.15-.1.15-.3.1-.35-.65-1.1-.75-.7-.85-1.25-.1-.6 0-.9.05-.3-.1-.65-.15-.45-.5-.55m-1.7-16.05q-.6.05-.55.45 0 .45.1.7.09648437.28925781.1.6-.03554688.37226563 0 .55.15.35.35.5.35.15 1.4-.1 1.1-.3.65-.7-.4-.4-.55-.5-.05-.15-.15-.5-.05-.35-.1-.65-.05-.25-.2-.35-.15-.05-.3-.05-.15-.05-.75.05m-.25-2.05q-.75.05-.75.45-.05.35 0 .9t.5.45q.4-.1.95-.15.65-.05.35-.6-.3-.55-.45-.75-.15-.25-.6-.3m3.4 9.3q1.7-.3.7-1.05-.95-.7-1.25-1.55-.15-1.35-.35-1.5-.25-.2-1.4-.1-1.05.05-.9.65.25.7.5 1.05.25.35.4.8.1.45-.05.95-.25.55.2.85.4.25 2.15-.1m9.4 5.15l-.05.05q-.1.15-.15.3-.3.5-.5.9-.25.4-.35.6-.1.2 0 .55.1.3 1.2.4 1.1.1 1.15-1 .15-.95.35-1.65v-.05q.15-.5.25-.85.35-.8.85-1.45.5-.65.4-1-.1-.35-.5-.4-.5-.1-1.2.1-.7.15-.8 1.15.05.4-.2 1.05-.25.8-.45 1.3m-.5-3.3q.35-.85.2-1.2-.2-.4-.6-.4-.45-.05-1.05.2-.6.3-.5 1.4 0 .45-.05 1.2-.15 1-.35 1.55v.5q-.2.55-.4 1-.2.55-.2.8-.05.25.05.6.1.3 1.2.3 1.05.05.9-1.3 0-1.15.1-1.95v-.05q0-.55.1-.95.25-.9.6-1.7m-7.7.05q.1-.9-.25-1.2-.35-.35-.85-.3-.65 0-1.35.45-.6.45.05 1.55.25.4.5 1.2.14023438.58105469.25 1-.02480469-.01230469-.1-.05-.5-.3-.65.05l-.15.3q-.05.05-.15.2-.3.4-.85.85-1 .45-1.1.7-.05.25.25.5t.55.7q.05.35.45.45.3.15.55-.4.3-.55.4-.95.7-.65 1.3-.9v-.05q.08945313.4375-.05 1.1-.2.9.25 1.2 3.9-.05 2.15-1.55-.16347656-.34511719-.3-.7.0234375.04472656.05.05.2.05.4-.1.55-.2.45-.7-.15-.4-.25-.65-.1-.4-.5-.5-.15.05-.3.05-.2-.05-.4.05-.05117187.01699219-.1 0-.06816406-.22714844-.1-.45-.2-1.05-.15-1.9m2.5-2.35q-.7.35-.45 1.65.15.5.15 1.4 0 1.1-.1 1.75v.05q-.05.25-.05.4-.15.65-.3 1.2-.1.6-.15.85 0 .3.2.7.15.45 1.45.4 1.2.05.85-1.4-.1-1.3-.15-2.2v-.05-1.1q.15-1.15.4-2.05.3-.9.1-1.35-.25-.45-.7-.45-.6-.1-1.25.2m2.05-2.85q.35-1.15.1-1.35-.3-.2-1.3-.35-1-.05-.9.5.15.5 0 1.3-.15.75-.25.95-.2.15-.25.5 0 .35.1.5.2.15 1.65.4 1.5.25 1.1-.4-.4-.6-.3-1.85l.05-.2m.6-6.85q-1.1-.7-1.3-.05-.15.6-.25 1.05-.05.45.35.6.45.1 1.05.15.6.05.45-.55-.15-.6-.15-1l-.15-.2m-2.25 2.3q-.15.45 0 .95l.1.45-.15.4q-.05.1-.2.3-.05.15.05.25.15.2 1.25.35 1.15.15 1.15-.15-.05-.25-.1-.7-.1-.4.2-.7.25-.4.25-.7-.1-.35-.25-.45-.2-.15-.35-.2-.2-.05-.95-.1-.8-.1-1 .3z"/>
  <path fill="#F8F9F9" d="M18.7 81.4q.1453125.82050781 1.1 2.4.93242187 1.48886719 1.6 4.2h.05q.05.8.1 1.8.51816406 8.40136719.6 18.2h3.35q.090625-3.76601562.2-8.25.15-6.35.45-11.75h-.05q.62167969-3.09707031 1.8-4.6l.1-.1q.55-.85.7-2.15.25-1.35 0-2.65-.1-.55-.35-1.05-.3-.55-.6-.75-.25-.1-.5-.15-.1-.05-.25 0-.2-.05-.4 0-.65.15-1.2.4-.25.1-.5.05-.1 0-.55-.1-.35-.05-.65-.25-.4-.25-.6-.35-.75-.3-2.05.5-1.15.75-1.6 1.6h.05l-.1.1q-1 1.5-.7 2.9z"/>
  <path fill="#080808" d="M168.05-235.5q-.65 2 .65 6.05 1.2 3.95 1.95 8.95.3 2.05.45 4.9v.2q.2 4.1.05 9.9-.65 6.4 3.45 6.25 4.05-.2 4.55-2.1.5-1.9.4-3.1-.15-1.15-.75-3.75-.65-2.6-1.25-5.35-.15-.8-.3-1.85-.05-.1-.05-.2-.45-2.85-.85-7.9-.3-3.85-.05-6.1.5-5.9-1.85-7.2-2.4-1.25-4.2-.85-1.6.2-2.2 2.15z" filter="url(#a)" transform="matrix(-.3002 .00955 .0207 .22423 78.65 70.15)"/>
  <path fill="#080808" d="M13.1 16.45q.1-1-.25-1.35-.35-.45-.85-.35-.65 0-1.35.5-.6.5.05 1.8.25.45.5 1.35.35 1.7.65 2.35.25.6.05 1.7-.2 1.05.25 1.35 3.9-.05 2.15-1.75-.9-2.2-1.05-3.4-.2-1.2-.15-2.2z" filter="url(#a)" transform="matrix(1 0 0 .86876 5.8 6.75)"/>
  <path fill="#080808" d="M20.55 13.5q.3-.7.1-.95-.2-.35-.6-.3-.45-.05-1.05.2-.55.3-.4 1.2.05.35.05.95-.05.8-.2 1.25v.4q-.15.45-.3.85-.15.45-.15.65t.1.5q.15.25 1.25.15 1.05-.05.75-1.1-.05-.9-.05-1.55v-.05q0-.45.05-.75.15-.8.45-1.45z" filter="url(#a)" transform="matrix(.99695 .07806 -.09674 1.23578 7.4 2.7)"/>
  <path fill="#080808" d="M24.25 12.15q-.5-.1-1.2.1-.7.15-.8 1.15.05.4-.2 1.05-.25.8-.45 1.3l-.05.05q-.1.15-.15.3-.3.5-.5.9-.25.4-.35.6-.1.2 0 .55.1.3 1.2.4 1.1.1 1.15-1 .15-.95.35-1.65v-.05q.15-.5.25-.85.35-.8.85-1.45.5-.65.4-1-.1-.35-.5-.4z" filter="url(#a)" transform="translate(5.5 8.55)"/>
  <path fill="#080808" d="M12.75 24.8l-.5.85q0 .15-.1.25v.05q-.3.75.2 1.9 1.1 2.45 4.85 3.35 4.65.65 5.25-2.55l-.1-2.2-.25-.55q-1.35-2.45-9.35-1.1z" filter="url(#a)" transform="translate(6.6 3.05)"/>
  <path fill="#080808" d="M213.6-251.3q-1 .4-1.7 2.3-1.25 3.35-2.6 5.5-1.35 2.1-1.3 2.95.05.85 1.45 1.3 1.35.45 2.65.95.7.3 1.5.25.6-.05 1.25-.3 1.45-.55 1.75-3.2.2-1.85.55-4.9.35-3.35-1.85-4.6-.95-.55-1.7-.25z" filter="url(#a)" transform="matrix(.24904 -.02039 -.0156 -.14568 -37.25 -7)"/>
  <path fill="#080808" d="M213.6-236.6q-.2-.25-.45-.5-2.45-2.3-5.95.3-.1 3.35-1.65 7.7-1.2 1.3-2.85 3.4-1.7 2.05-.75 3.6.95 1.55 2.45 1.15 1.9.3 3.35 1.4 1.4 1.05 2.2.3.8-.7 1.15-6.5.85-3.2 1.8-5.5.4-.55.7-.9.6-.75.85-1.05.95-1.45-.85-3.4z" filter="url(#a)" transform="matrix(-.08302 -.23294 -.1854 .07133 -8.95 90.35)"/>
  <path fill="#080808" d="M195.35-203.85q-3.55 2.85-3.45 4.9-.05 1 .4 2.1.15.45.4.9l.05.05q.5.85 1.25 1.75 2.2 2.5 7.95-4.85 5.7-7.3 7.25-13 1.5-5.65-.95-6.95-2.5-1.3-4.4-1.2-1.6 0-2.5 1.9-.95 1.9-.85 3.55.05 1.65-.75 4.85-.85 3.1-4.4 6z" filter="url(#a)" transform="matrix(-.23853 -.06343 -.035 .1716 57.15 78.7)"/>
  <path fill="#080808" d="M170.8-263.65q-.95.9-.35 8.8l.05 1.25q-.25 8.4-1.7 11.75-1.45 3.3 3.1 3.35 4.55 0 5.1-.65.55-.7.5-2.9-.05-2.1-.5-3.45-.15-1.35-.3-6.5-.15-5.1.5-8.45.6-3.35-2.45-3.75-3.05-.4-3.95.55z" filter="url(#a)" transform="matrix(-.32506 -.05624 -.02097 .15227 73.5 64.25)"/>
  <path fill="#080808" d="M16.2 5.45q-.15-.55.05-1.05.2-.55.1-1-.15-.45-.3-.55-.25-.15-.4-.15-.2-.05-1 .1-.75.1-.85.75-.1.6.15 1.25.2.55.2.6l-.05.55q-.05.2-.15.45 0 .25.1.35.2.25 1.35.1 1.1-.15 1.05-.5-.1-.35-.25-.9z" filter="url(#a)" transform="matrix(.97818 .20775 -.15031 .70778 8.85 5.95)"/>
  <path fill="#080808" d="M152.25-284.5q-.0484375-.0484375-.05-.1v.1h.05m-2.55 4.3q.4 2.05.75 5.3.35 3.2 2.15 2.75 1.75-.45 3-1 1.15-.6.35-3.1-.85-2.5-2.2-5.8t-3.95.55q-.1 1.1-.1 1.3z" filter="url(#a)" transform="matrix(-.31764 .00906 .0762 .18604 93.1 60)"/>
  <path fill="#080808" d="M192.1-262.15q-3.45-.6-4.1.2-.65.8-.9 8.2-.7 4.9-3.55 8.65-2.85 3.7 2.45 5.85 5.3 2.15 6.6.6 1.25-1.6.45-4.65-.7-2.55-.35-5 .35-2.5 1.1-4.5.65-2 1.2-5.4.5-3.4-2.9-3.95z" filter="url(#a)" transform="matrix(-.3287 -.0073 .01135 .18214 81.55 64.1)"/>
  <path fill="#080808" d="M190.75-275.15q-.4.4-.4 1.65-.05 1.2 0 2.85.05 1.65-.15 2.25-.3.55-1.4 2.7-1.1 2.1 2.3 2.75 3.4.65 4.2-.1.7-.8.8-2.4.05-1.3-.55-3.75l.4 1.35q-.35-1.3-.15-2.65.2-1.4 0-3.3t-1.95-1.95q-1.8-.05-2.25.1-.45.1-.85.5z" filter="url(#a)" transform="matrix(-.32733 .031 .0393 .21712 88.85 65.75)"/>
  <path fill="#080808" d="M192.1-283.8q-.35 1.1-.95 4.3-.6 3.2 1.25 3.2 1.8.05 3.15.4 1.3.3 1.15-2.75-.15-3.05-.4-5.1t-2.65-1.9q-1.25.7-1.55 1.85m3.05-4.55h.05q-.0484375-.0484375-.05-.1v.1z" filter="url(#a)" transform="matrix(-.32733 .031 .0325 .1796 87 55.15)"/>
  <g>
    <path fill="#F8F9F9" d="M19.9 34.35q-.75 0-.75.85 0 2.35 1.2 4.25.4.65.6 1.5.25 1.05.3 2.1.15 2.35.25 4.8.1 2.25.05 4.4.36777344 7.53496094-1.3 17.75l-.2.7q-.540625 2.05527344-1 3.45-.453125 1.44824219 0 1.9.7-.35 1.35-.8.8-.45 1.7-.7 1.1.15 2.5.55 1.35-.25 2.6 0l.8.2q.2-.05.45-.1.35-.5.15-1-.45-1-.75-2.05-.75-2.65-1-5.45-.3-2.85-.65-5.6-.4-3.2-.4-6.35 0-2.2.15-4.45.25-3.3.55-6.75.15-1.7.85-3.3.6-1.35 1.25-2.7.15-.65.2-1.3.05-.2.05-.35-.75-.2-1.65.05-1.1.25-2.25.4-1.4-.25-2.6-.9-1.3-.65-2.45-1.1z"/>
  </g>
</svg>
