<svg xmlns="http://www.w3.org/2000/svg" preserveAspectRatio="none" viewBox="0 0 50 100">
  <path fill="#333" fill-opacity=".2" d="M37.65 25.5q0-.25-.05-.45-.1-.65-.65-1.35-1.3-.8-2.85-.2-.05-.1-.05-.15-.35-1.1-1.55-1.4h-.15q-.2-.1-.45-.1-.15-.05-.3-.05-.6-.05-.95.05-.05-.25-.15-.4-2.85-1.15-5.3 0l-.25.55q0-.1.05-.15h-.05q-.04003906-.03007813-.1-.05-.13007813-.10996094-.25-.15h.1l-.6-2.4q-.3-1-1.05-1.1-.12578125-.21992188-.35-.35-.1328125-.03144531-.3-.05.05-.05.1-.05.14140625-.03535156.25-.1.05605469-.02070313.1-.05.25-.25.2-.85-.15-.95-.7-2-.6-1.05-1.45-.9-.85.1-1.05.2-1.05.55-1.4.9l-.45.7q-.15.5-.15.95 0 .45.7 2.45.06679688.21152344.1.4.14726562.31757812.25.55.13476563.21542969.25.35l-.1.1q.6 2.95.85 3.8.10175781.3734375.3.35.0875.03027344.2-.05.15-.15.3-.4.17226562-.30136719.5-.6-.03183594.06386719-.05.1l-.1.1q-.04199219.29375-.1.6.00800781.04375 0 .1-.17460937.26191406-.35.55-.02460938.05566406-.05.1l-.1.1-.05.05q.15.65.3 1.15-.2 2.3.05 4.5-.07949219-.01992188-.15-.05-.10957031-.03964844-.2-.1-.05 0-.1.05v-.05q.19179688-.45683594-.1-.7-.6-.45-2.05-.8-1.5-.35-2.4.25-.95.6-1.2 1.25-.05.15-.1.25-.15.45-.2.9l-.05.85q.1.3.25.6.05.1.15.25.2.35 1.85 1.7.79472656.63574219 1.4.65.10234375.02890625.2 0 .05039063.01054688.1 0-.07851563.10488281-.1.2-.0296875.35722656.45.8 2.1 1.5 2.95 2.05.2.15.5.25t.65.2q-.04609375.16152344 0 .4-.03925781.06191406-.1.1-.59082031.97089844 0 1.75v-.05l.05.05q-.05.128125-.05.25.02363281.61386719.05.95-.09179688.16191406-.15.3v-.05q-.14316406.35605469-.15.7-.0515625.43945313.2.8.08378906.12207031.15.2.04960937.26484375.05.55-.01425781.00859375-.05.05-.04707031.04082031-.05.1.00292969.05898438.05.1.01679688.03925781-.05.1-.63496094 1.2328125.15 2 .04726562.0515625.1.1v.65q-.08964844.20195312-.15.4-.12773437.12851562-.25.25-.68828125.834375-.2 1.7.04804688.08105469.1.1h.05v.45l.15.8q-.03242187.11054688-.1.15-.5859375 1.30097656.25 2-.04003906.25976563-.1.5l-.2 1q-.09921875.24804688-.15.45V57q-.00390625.025 0 .05.05527344.1640625.15.3v2.15q-.0828125.24121094-.1.45v.35q.02265625.24433594.1.45l.05 1.7q-.06503906.18769531-.1.35v.65q.02285156.20898438.1.4l.05 1.45q-.10351562.21699219-.15.4v.65q-.00136719.07753906.05.2.05742187.0890625.1.15v1.65q-.03007812.10488281-.1.15-.69960938.89707031 0 1.85.06328125.0453125.1.05l.05 1.1q-.08652344.15019531-.15.3v1.5q.00292969.05898437.05.1.04941406.05.1.1v1.05q-.01894531.01425781-.05.05-.04707031.04082031-.05.1v.4q-.46640625.99550781 0 1.65.07089844.05820312.1.1l.05 1.15v.55q-.07246094.11328125-.15.2.00449219.06054687 0 .1v1.35q.00292969.05898437.05.1l.1.1v1.15q-.03203125.08359375-.1.15-.48300781.92421875 0 1.6v-.05q.06757813.11796875.1.2l.05.9q-.09277344.16367187-.15.3v1.45q-.00390625.05566406 0 .1.08535156.071875.15.15v1.4q-.03144531.10605469-.1.15-.58339844.9 0 1.75.06210938.08203125.1.1h.05v.75q-.1 0-.2-.05v.5q-.64394531 1.25195312.1 1.95.06699219.09121094.1.15v1.05q-.13242187.0125-.15.15-.72695312 1.29609375.1 2.1.04121094.04433594.1.1v1.2h-.05q-.03867187.01835937-.1.05-.8515625 1.45097656.1 2.25.03476562.03554687.05.05v1.3q-.03027344.10195312-.1.15-.79589844 1.17519531.05 2.05.04023438.04648437.1.05v.7q-.06953125.11601562-.15.2-.79394531 1.17246094.1 2.1.03183594.03652344.05.05v.6q-.03847656.01796875-.1.05-.79453125 1.33398437.05 2.15.05.05273437.1.1v.3l.05-.05h.05q.05585938.03613281.05.05.04726562.08027344.1.1.0640625.01132812.1-.05.08046875.00292969.1-.05.00429687-.02519531 0-.05h5.5q3.7.4 6.75.25.20722656-.34550781.3-15.5.07929687.01074219.1-.05.08222656-.01171875.1-.1.0109375-.02929688-.05-.1-.01171875-.03203125-.1-.05-.00039063-.00527344-.05 0 .02460937-.07988281 0-.15.09335938.01054687.15-.05.04550781-.01308594.05-.1.01074219-.04316406-.05-.1-.01308594-.0453125-.1-.05h-.05q.07089844-6.55859375.1-15.75V56.45q-.13105469-.0328125-.25-.05v-.05q.01113281-.02871094-.05-.1-.01132812-.03183594-.1-.05v-.15q.05390625.00371094.1-.05.04550781-.01289063.05-.1.01054687-.04316406-.05-.1.00839844-.01992188-.05-.05.35585938.06542969.4-.2 0-.17363281.05-.75.03691406-.41855469.1-1.05.15-1.55.1-3.1-.02871094-.63476563-.25-1L37 48.8q.03652344-.03007813.05-.1.20371094.15976562.4.3.65.25 1.2-.1.65-.2.9-.9.3-.55 0-1.25-.2-.6-.85-.8-.7-.35-1.3-.1-.6.3-.85.9-.3.7-.05 1.25.05.2.15.4l-1.05.9q-.05429687-.02890625-.1-.05v-.5q.2-.05.2-.2-.05-.3 0-1.85 0-.55.05-1.1.04609375-.92128906.1-1.8-.00390625-.07519531 0-.15v-.15q.05-1.25.1-2.65 0-.11523438-.05-.25-.03632813-.22207031-.25-.4v-.05q.65820313-.41132813 1.05-.95.15-.2.25-.4 0-.05.5-1.85.35-1.25.2-3.8 0-.4-.05-.8 0-1.35-.1-2.7-.1-.8-.15-1.4v-.2l.3-.9v.15q.2-.2 0-1.8M22.7 40.2q.04257812.11601562.1.25v.9q-.03183594.0265625-.05.05-.40546875-.5484375-.05-1.2m0 5.9q.02714844.22109375.05.45h.05v.8q-.40605469-.49296875-.1-1.25m-.35 4.25q-.08496094-.34042969.05-.7-.03320312.32988281-.05.65v.05m.45 3.35v.3q-.53828125-.48691406-.2-1.35l.2 1.05m-.15 41.15q-.06660156.03339844-.1.1-.02382812.05 0 .1.03339844.06679687.1.1l.05.85q-.45351563-.5609375-.05-1.45v.3m.05 4.75q-.47402344-.58144531 0-1.5v1.5m.1 9.45q-.43164063-.54140625-.05-1.4l.05 1.4m-.05-2.85q-.43125-.63964844 0-1.4v1.4m0-3.05q-.4296875-.56660156-.05-1.3l.05 1.3z"/>
  <path fill="#FAC974" d="M27.6 17.8q-.6-.05-.95.05-.05-.25-.15-.4-2.85-1.15-5.3 0l-.25.55q0-.1.05-.15h-.05q-.2-.15-.35-.2h.1l-.6-2.4q-.3-1-1.05-1.1-.2-.35-.65-.4.05-.05.1-.05.2-.05.35-.15.25-.25.2-.85-.15-.95-.7-2-.6-1.05-1.45-.9-.85.1-1.05.2-1.05.55-1.4.9l-.45.7q-.15.5-.15.95 0 .45.7 2.45.3.95.6 1.3l-.1.1q.6 2.95.85 3.8.15.55.5.3.15-.15.3-.4.2109375-.3375.55-.65l-.1.15-.1.1-.1.7q-.2.3-.4.65l-.15.15q.15.65.3 1.15-.2 2.3.05 4.5-.2-.05-.35-.15-.05 0-.1.05.2-.5-.1-.75-.6-.45-2.05-.8-1.5-.35-2.4.25-.95.6-1.2 1.25-.05.15-.1.25-.15.45-.2.9l-.05.85q.1.3.25.6.05.1.15.25.2.35 1.85 1.7 1 .8 1.7.65-.3.4.35 1 2.1 1.5 2.95 2.05.21269531.14179687.45.25h14.8q.13378906-.19335938.25-.4 0-.05.5-1.85.35-1.25.2-3.8 0-.4-.05-.8 0-1.35-.1-2.7-.1-.8-.15-1.4v-.2q0-.25-.1-.55-.05-.55-.1-.75 0-.05-.05-.1l-.05-.05q-.15-.35-.3-.65h.1q.6.45.8 1.2v.15q.2-.2 0-1.8 0-.25-.05-.45-.1-.65-.65-1.35-1.3-.8-2.85-.2-.05-.1-.05-.15-.35-1.1-1.55-1.4h-.15q-.2-.1-.45-.1-.14589844-.03066406-.3-.05z"/>
  <path fill="#855011" d="M32.85 21.95h-.1q.15.3.3.65l.05.05q.05.05.05.1.05.2.1.75.1.3.1.55l.3-.9q-.2-.75-.8-1.2zM21.81282425 33.93819351q-.2734871-.03416824-.49906616-.07905655.14037475-1.25207824.06874923-2.51393738.06110459.1579834.20406418.3930153.23801117.48078384.23342438 2.0839363.0135788.03510743-.00717163.11604233zM23.36282425 33.78819351q-.2734871-.03416824-.49906616-.07905655.14037475-1.25207824.06874923-2.51393738.06110459.1579834.20406418.3930153.23801117.48078384.23342438 2.0839363.0135788.03510743-.00717163.11604233zM24.86282425 33.38819351q-.2734871-.03416824-.49906616-.07905655.14037475-1.25207824.06874923-2.51393738.06110459.1579834.20406418.3930153.23801117.48078384.23342438 2.0839363.0135788.03510743-.00717163.11604233z"/>
  <path fill="#855011" d="M19.85 33q.45 0 1.2.05 1.45.05 5.05-.55.1 0 .25-.05-.5-.25-.95-.45-2.6.6-5.55 1zM30.6 22.55q2.14765625-.26308594 2.5.1-.04804688-.39199219-.25-.75-.06679688.04433594-.2 0-.6-.2-3.4.3-1.29394531.23105469-2.6.6-.21425781.15859375-.45.3 2.05410156-.31542969 4.4-.55z"/>
  <path fill="#855011" d="M28.56282425 23.73819351q-.2734871-.03416824-.49906616-.07905655.14037475-1.25207824.06874923-2.51393738.06110459.1579834.20406418.3930153.23801117.48078384.23342438 2.0839363.0135788.03510743-.00717163.11604233zM30.11282425 23.58819351q-.2734871-.03416824-.49906616-.07905655.14037475-1.25207824.06874923-2.51393738.06110459.1579834.20406418.3930153.23801117.48078384.23342438 2.0839363.0135788.03510743-.00717163.11604233zM31.61282425 23.18819351q-.2734871-.03416824-.49906616-.07905655.14037475-1.25207824.06874923-2.51393738.06110459.1579834.20406418.3930153.23801117.48078384.23342438 2.0839363.0135788.03510743-.00717163.11604233z"/>
  <path stroke="#900" stroke-width=".3" stroke-linejoin="round" stroke-linecap="round" fill="none" d="M13.85 31.95Q13.8 29 16.6 26.8M14.3 32.15q-.45-3 1.95-5.45"/>
  <path fill="#855011" d="M30.6 22.55q2.14765625-.26308594 2.5.1-.04804688-.39199219-.25-.75-.06679688.04433594-.2 0-.6-.2-3.4.3-1.29394531.23105469-2.6.6-.21425781.15859375-.45.3 2.05410156-.31542969 4.4-.55z"/>
  <path fill="#855011" d="M28.56282425 23.73819351q-.2734871-.03416824-.49906616-.07905655.14037475-1.25207824.06874923-2.51393738.06110459.1579834.20406418.3930153.23801117.48078384.23342438 2.0839363.0135788.03510743-.00717163.11604233zM30.11282425 23.58819351q-.2734871-.03416824-.49906616-.07905655.14037475-1.25207824.06874923-2.51393738.06110459.1579834.20406418.3930153.23801117.48078384.23342438 2.0839363.0135788.03510743-.00717163.11604233zM31.61282425 23.18819351q-.2734871-.03416824-.49906616-.07905655.14037475-1.25207824.06874923-2.51393738.06110459.1579834.20406418.3930153.23801117.48078384.23342438 2.0839363.0135788.03510743-.00717163.11604233z"/>
  <path stroke="#900" stroke-width=".3" stroke-linejoin="round" stroke-linecap="round" fill="none" d="M15.0077591 15.9012024q1.17717513-2.37345048 4.12792892-2.31368256M14.79090271 15.35210114q1.38993149-1.95576935 4.47920837-1.40996933" transform="matrix(1 0 0 1 .00143433 -.02454071)"/>
  <path stroke="#900" stroke-width=".3" stroke-linejoin="round" stroke-linecap="round" fill="none" d="M16.15 20.65q1.35-2.15 4.9-2.45M16.5 21.2q1-2.55 4.3-3.3"/>
  <path fill="#D9831C" d="M18.45 86.95q.09140625-.03652344.2-.05.19628906-.05.45-.05 1.3 0 4.05.45 1.85.3 3.1.7-1.25-.8-2.9-1.05-2.9-.45-4-.4-.45234375 0-.7-.05-.12402344-.01953125-.2-.05v.5M26.25 64q-1.25-.8-2.9-1.05-2.9-.45-4-.4-.65 0-.9-.1v.5q.25-.1.65-.1 1.3 0 4.05.45 1.85.3 3.1.7m5.25-12.25q0-.05-.05-.05-.5-.15-3.2-.2-.6 0-1.3.1 1.4.15 2.05.25.3.05 2.5.55v-.65m-7.8-5.45q1.25-.4 3.1-.7 2.75-.45 4.05-.45.4 0 .65.1v-.5q-.25.1-.9.1-1.1-.05-4 .4-1.65.25-2.9 1.05m-4.9-1.85l.4-.7q.65-.8 1.45-1.5l-1.85.3v1.9m.05-7.9q-.0484375-.0484375-.05-.1v.9q.5-.4 1.85-.75-.85-.05-1.75-.05h-.05z"/>
  <path fill="#855011" d="M18.8 50.05q.0015625-.0515625.05-.1l-.05-.25v.35m0 38.7q.0015625-.0515625.05-.1l-.05-.25v.35m0-19.75v.35q.0015625-.0515625.05-.1L18.8 69m11.6-33.35q.1046875.00234375.2.05-.05-.05-.1-.05h-.1z"/>
  <path fill="#FAC974" d="M18.8 36.45q.0015625.0515625.05.1h.05q.9 0 1.75.05-1.35.35-1.85.75-.3.25-.3.55.05 1.3.05 1.45-.04160156.12460937.1 2.25.05761719.43339844.1.95h.05l1.85-.3q-.8.7-1.45 1.5l-.4.7q-.4.9-.45 1.85v1.05l.45 2.35.05.25q-.0484375.0484375-.05.1-.15.35-.25.75l-.2 1 .1 10.65q.25.1.9.1 1.1-.05 4 .4 1.65.25 2.9 1.05-1.25-.4-3.1-.7-2.75-.45-4.05-.45-.4 0-.65.1l.1 11.05.1 12.5q.24765625.05.7.05 1.1-.05 4 .4 1.65.25 2.9 1.05-1.25-.4-3.1-.7-2.75-.45-4.05-.45-.25371094 0-.45.05l.15 18.85v.05l.05-.05h5.9q3.7.4 6.75.25.30800781-.50058594.35-32 .05-9.3953125.05-21.55-.2-.05-.4-.05-2.2-.5-2.5-.55-.65-.1-2.05-.25.7-.1 1.3-.1 2.7.05 3.2.2.05 0 .05.05.4.1.45-.2 0-.3.15-1.8.15-1.55.1-3.1-.05-1.1-.7-1.4-.25-.1-.65-.1-1.3 0-4.05.45-1.85.3-3.1.7 1.25-.8 2.9-1.05 2.9-.45 4-.4.65 0 .9-.1.2-.05.2-.2-.05-.3 0-1.85.01777344-.55332031.05-1.1.03574219-.98535156.1-1.95v-.15q.05-1.25.1-2.65 0-.4-.3-.65.63046875-.44492188 1.05-1H17.9q.33085938.12089844.7.2-.1.35.2 1.05m11.8-.75q-.0953125-.04765625-.2-.05h.1q.05 0 .1.05M18.8 69.35V69l.05.25q-.0484375.0484375-.05.1m.05 19.3q-.0484375.0484375-.05.1v-.35l.05.25z"/>
  <path stroke="#900" stroke-width=".299988" stroke-linejoin="round" stroke-linecap="round" fill="none" d="M18.74331512 93.70718536q-.98775024 1.5569519.23658905 2.34011078"/>
  <path stroke="#900" stroke-width=".3" stroke-linejoin="round" stroke-linecap="round" fill="none" d="M19 97.2q-1.2 1.4-.1 2.35M19 100.2q-1.2 1.4-.1 2.35"/>
  <path stroke="#900" stroke-width=".299994" stroke-linejoin="round" stroke-linecap="round" fill="none" d="M18.89522934 103.1714775q-1.02206726 1.53468934.18462295 2.34483262"/>
  <path stroke="#FFF" stroke-width=".5" stroke-linejoin="round" stroke-linecap="round" fill="none" d="M27.3 47.3l-1.15-3.05"/>
  <path fill="#900" d="M27 42.6q0-.65-.55-1.1-.5-.45-1.25-.4-.6.05-1.05.6-.5.55-.45 1.2.1.65.6 1.1.55.45 1.2.4.2 0 .4-.05.05 0 .15-.05.35-.2.65-.5.45-.55.3-1.2z"/>
  <path fill="#FFF" fill-opacity=".29803922" d="M25.1 41.85q-.4.1-.7.45-.3.35-.25.7.05.45.4.75.35.3.75.2.15.05.2-.05.05.05.15 0 .2-.05.35-.25.3-.35.25-.85 0-.35-.35-.65-.35-.3-.8-.3z"/>
  <path stroke="#FFF" stroke-width=".5" stroke-linejoin="round" stroke-linecap="round" fill="none" d="M28.64126587 45.96530151l.42850647-3.23130493"/>
  <path fill="#900" d="M30.59882202 41.68186035q.30728607-.5727768.0353653-1.22932587-.22786103-.63291168-.91239472-.94341278-.55235443-.23958892-1.2089035.03233185-.70060883.24828339-.96383514.84469757-.21916657.62005158.00869445 1.25296326.27192078.65654907.86833496.9197754.17623902.09454955.37611542.14503936.04405975.02363739.15581665.02685242.40296784-.01077729.8091507-.13331147.65654907-.27192077.83165588-.91560974z"/>
  <path fill="#FFF" fill-opacity=".29803922" d="M29.27911224 40.12274323q-.3997528-.10097962-.82957306.06561431-.42982025.16659394-.55122222.4986496-.16867676.42017517-.00208283.84999542.16659393.42982025.56634674.53079987.10854187.11497192.1998764.0504898.02042237.06769715.13217927.07091218.1998764.0504898.42660522-.05483704.42982025-.16659393.6221344-.63082886.16546173-.30841827-.0011322-.73823852-.16659394-.42982025-.56313172-.64255676z"/>
  <path stroke="#FFF" stroke-width=".499985" stroke-linejoin="round" stroke-linecap="round" fill="none" d="M30.29985352 46.62503052l2.55145416-2.0284317"/>
  <path fill="#900" d="M34.68225403 44.90066833q.61877746-.19897918.87879486-.86031494.27532349-.61373748-.00186615-1.3124054-.23127136-.5558731-.89260712-.8158905-.67664184-.30761566-1.28011322-.0610382-.58816528.29417572-.86348877.9079132-.2600174.66133576-.01343994 1.26480713.06122437.19039307.170047.36548005.01530609.04759826.09351654.1274887.2975357.2719635.67496185.46571656.66133576.2600174 1.23419495-.0817566z"/>
  <path fill="#FFF" fill-opacity=".29803922" d="M34.81459656 42.86234283q-.21764527-.35017395-.64266968-.5286209-.42502441-.17844697-.74290619-.02370606-.4130783.18535309-.59152527.6103775-.17844696.42502442.0391983.77519837-.00167999.15810089.10882264.17508697-.03229218.06290436.04591827.1427948.10882263.17508698.34513397.25665741.42502442.17844696.885701-.02221222.33318786-.10714264.51163482-.53216705.17844696-.42502442.04069214-.85340882z"/>
  <path stroke="#900" stroke-width=".3" stroke-linejoin="round" stroke-linecap="round" fill="none" d="M19 35.5q-1.2 1.4-.1 2.35M19 38.5q-1.2 1.4-.1 2.35"/>
  <path stroke="#900" stroke-width=".299994" stroke-linejoin="round" stroke-linecap="round" fill="none" d="M18.89522934 41.4714775q-1.02206726 1.53468934.18462295 2.34483262"/>
  <path stroke="#900" stroke-width=".299991" stroke-linejoin="round" stroke-linecap="round" fill="none" d="M19.03740387 44.67724075q-1.45080261 1.13796387-.5580864 2.28488465"/>
  <path stroke="#900" stroke-width=".299988" stroke-linejoin="round" stroke-linecap="round" fill="none" d="M18.74331512 48.05718536q-.98775024 1.5569519.23658905 2.34011078M18.74331512 51.40718536q-.98775024 1.5569519.23658905 2.34011078"/>
  <path stroke="#900" stroke-width=".3" stroke-linejoin="round" stroke-linecap="round" fill="none" d="M19.15 37.3q5.07460938-2.24941406 12.65-1.1M19.05 36.6q5.25-1.7 12.8.05"/>
  <path stroke="#900" stroke-width=".3" stroke-linejoin="round" stroke-linecap="round" fill="none" d="M18.86803589 53q5.08606262-2.25 12.74033508-1.1M18.76732178 52.3q5.28749084-1.7 12.89140625.05" transform="matrix(1 0 0 1 .03449707 0)"/>
  <path stroke="#900" stroke-width=".3" stroke-linejoin="round" stroke-linecap="round" fill="none" d="M18.874292 69q5.08575439-2.25 12.73956298-1.1M18.77358398 68.3q5.28717041-1.7 12.890625.05" transform="matrix(1 0 0 1 .04189453 0)"/>
  <path stroke="#900" stroke-width=".3" stroke-linejoin="round" stroke-linecap="round" fill="none" d="M18.8805481 91q5.08544616-2.25 12.73879089-1.1M18.7798462 90.3q5.28684997-1.7 12.88984374.05" transform="matrix(1 0 0 1 .049292 0)"/>
  <path stroke="#900" stroke-width=".3" stroke-linejoin="round" stroke-linecap="round" fill="none" d="M19 54.8q-1.2 1.4-.1 2.35M19 57.8q-1.2 1.4-.1 2.35"/>
  <path stroke="#900" stroke-width=".299994" stroke-linejoin="round" stroke-linecap="round" fill="none" d="M18.89522934 60.7714775q-1.02206726 1.53468934.18462295 2.34483262"/>
  <g>
    <path stroke="#900" stroke-width=".299991" stroke-linejoin="round" stroke-linecap="round" fill="none" d="M19.03740387 63.97724075q-1.45080261 1.13796387-.5580864 2.28488465"/>
  </g>
  <g>
    <path stroke="#900" stroke-width=".299988" stroke-linejoin="round" stroke-linecap="round" fill="none" d="M18.74331512 67.35718536q-.98775024 1.5569519.23658905 2.34011078"/>
  </g>
  <g>
    <path stroke="#900" stroke-width=".299988" stroke-linejoin="round" stroke-linecap="round" fill="none" d="M18.74331512 70.70718536q-.98775024 1.5569519.23658905 2.34011078"/>
  </g>
  <g>
    <path stroke="#900" stroke-width=".3" stroke-linejoin="round" stroke-linecap="round" fill="none" d="M19 74.2q-1.2 1.4-.1 2.35"/>
  </g>
  <g>
    <path stroke="#900" stroke-width=".3" stroke-linejoin="round" stroke-linecap="round" fill="none" d="M19 77.2q-1.2 1.4-.1 2.35"/>
  </g>
  <g>
    <path stroke="#900" stroke-width=".299994" stroke-linejoin="round" stroke-linecap="round" fill="none" d="M18.89522934 80.1714775q-1.02206726 1.53468934.18462295 2.34483262"/>
  </g>
  <g>
    <path stroke="#900" stroke-width=".299991" stroke-linejoin="round" stroke-linecap="round" fill="none" d="M19.23740387 83.37724075q-1.45080261 1.13796387-.5580864 2.28488465"/>
  </g>
  <g>
    <path stroke="#900" stroke-width=".299988" stroke-linejoin="round" stroke-linecap="round" fill="none" d="M18.74331512 86.75718536q-.98775024 1.5569519.23658905 2.34011078"/>
  </g>
  <g>
    <path stroke="#900" stroke-width=".299988" stroke-linejoin="round" stroke-linecap="round" fill="none" d="M18.74331512 90.10718536q-.98775024 1.5569519.23658905 2.34011078"/>
  </g>
</svg>
