<svg xmlns="http://www.w3.org/2000/svg" preserveAspectRatio="none" viewBox="0 0 50 100">
  <path fill="#333" fill-opacity=".2" d="M31.6 21.75q-.95-.05-1.35.1-.1-1.15-2.7-1-2.55.1-2.8 1.4-.65-.3-1.55 0-1.35.4-2.05 1.3l-.1.1q-.69335938 3.66523438-.3 7.05-.00957031-.01484375-.05-.05-.04101562-.04707031-.1-.05-.05917969.00292969-.1.05l-.05.05q-.01992188-.02988281-.05-.05-.05 0-.1.05v-.05q.19179688-.45683594-.1-.7-.6-.45-2.05-.8-1.5-.35-2.4.25-.95.6-1.2 1.25-.05.15-.1.25-.15.45-.2.9l-.05.85q.1.3.25.6.05.1.15.25.2.35 1.85 1.7.79472656.63574219 1.4.65h.05v.05q.00292969.05898438.05.1.04082031.046875.1.05-.0296875.35722656.45.8 2.1 1.5 2.95 2.05.26367188.17578125.6.3h-.1q.3.1.65.2-.01035156.03652344-.05.05.00664062.17148438.05.35-.04453125.07128906-.1.1-.59082031.97089844 0 1.75v-.05l.05.05q-.05.12832031-.05.25.02363281.61386719.05.95-.09179688.16191406-.15.3v-.05q-.36875.85820313.05 1.5.08378906.12207031.15.2.04960937.26484375.05.55-.01425781.00859375-.05.05-.04707031.04082031-.05.1.00292969.05898438.05.1.01679688.03925781-.05.1-.63496094 1.2328125.15 2 .04726562.0515625.1.1v.65q-.08964844.20195313-.15.4-.12773437.12851563-.25.25-.68828125.834375-.2 1.7.04804688.08105469.1.1h.05v.45l.15.8q-.03242187.11054688-.1.15-.5859375 1.30097656.25 2-.04003906.25976563-.1.5l-.2 1q-.09921875.24804688-.15.45V57q-.00390625.025 0 .05.05527344.1640625.15.3v2.15q-.0828125.24121094-.1.45v.35q.02265625.24433594.1.45l.05 1.7q-.06503906.18769531-.1.35v.65q.02285156.20996094.1.4l.05 1.4q-.103125.26601563-.15.45v.65q-.00136719.07753906.05.2.05742187.0890625.1.15v1.65q-.03007812.10488281-.1.15-.69960938.89707031 0 1.85.06328125.0453125.1.05l.05 1.1q-.08652344.15019531-.15.3v1.5q.00292969.05898437.05.1.04941406.05.1.1v1.05q-.01894531.01425781-.05.05-.04707031.04082031-.05.1v.4q-.46640625.99550781 0 1.65.07089844.05820312.1.1l.05 1.15v.55q-.07246094.11328125-.15.2.00449219.06054687 0 .1v1.35q.00292969.05898437.05.1l.1.1v1.15q-.03203125.08359375-.1.15-.48300781.92421875 0 1.6v-.05q.06757813.11796875.1.2l.05.9q-.09277344.16367187-.15.3v1.45q-.00390625.05566406 0 .1.08535156.071875.15.15v1.4q-.03144531.10605469-.1.15-.58339844.9 0 1.75.06210938.08203125.1.1h.05v.75q-.1 0-.2-.05v.5q-.64394531 1.25195312.1 1.95.06699219.09121094.1.15v1.8q-.06660156.03339844-.1.1-.02382812.05 0 .1.03339844.06679687.1.1l.05 1.05v1.45h-.05q-.03867187.01835937-.1.05-.8515625 1.45097656.1 2.25.03476562.03554687.05.05v1.3q-.03027344.10195312-.1.15-.79589844 1.17519531.05 2.05.04023438.04648437.1.05v.7q-.06953125.11601562-.15.2-.79394531 1.17246094.1 2.1.03183594.03652344.05.05v.6q-.03847656.01796875-.1.05-.79453125 1.33398437.05 2.15.05.05273437.1.1v.3l.05-.05h.05q.05585938.03613281.05.05.04726562.08027344.1.1.0640625.01132812.1-.05.08046875.00292969.1-.05.00429687-.02519531 0-.05h5.5q3.7.4 6.75.25.20722656-.34550781.3-15.5.07929687.01074219.1-.05.08222656-.01171875.1-.1.0109375-.02929688-.05-.1-.01171875-.03203125-.1-.05-.00039063-.00527344-.05 0 .02460937-.07988281 0-.15.09335937.01054687.15-.05.04550781-.01308594.05-.1.01074219-.04316406-.05-.1-.01308594-.0453125-.1-.05h-.05q.07089844-6.55859375.1-15.75V56.45q-.13105469-.0328125-.25-.05v-.05q.01113281-.02871094-.05-.1-.01132813-.03183594-.1-.05v-.15q.05390625.00371094.1-.05.04550781-.01289063.05-.1.01054687-.04316406-.05-.1.00839844-.01992188-.05-.05.35585938.06542969.4-.2 0-.3.15-1.8.15-1.55.1-3.1-.02871094-.63476563-.25-1L37 48.8q.03652344-.03007813.05-.1.20371094.15976562.4.3.65.25 1.2-.1.65-.2.9-.9.3-.55 0-1.25-.2-.6-.85-.8-.7-.35-1.3-.1-.6.3-.85.9-.3.7-.05 1.25.05.2.15.4l-1.1.9q-.00546875-.02949219-.05-.05v-.5q.2-.05.2-.2-.05-.3 0-1.85 0-.55.05-1.1.05-1 .1-1.95v-.15q.05-1.25.1-2.65v-.05q.03964844.00273437.05-.05.08203125-.01171875.1-.1.0109375-.02910156-.05-.1-.01191406-.03203125-.1-.05-.02695312-.01113281-.1-.05-.01699219-.05117188-.1-.15h.05q.0453125-.01269531.05-.1.01054688-.04296875-.05-.1v-.05q.54960938-.36835938.9-.85h-.05q.17363281-.21523438.3-.45 0-.05.5-1.85.35-1.25.2-3.8 0-.4-.05-.8 0-1.35-.1-2.7-.1-.8-.15-1.4V28l.3-.9v.15q.75-.9 1.1-2.8.05722656-.34394531 0-.65.02226562-.0625 0-.15.0015625-.07597656-.05-.2.0140625-.00800781 0-.05l.15-.65q.35-.05.5-.65.3-1.05.1-2-.25-1.05-.9-1.25-.65-.25-.8-.25-.9 0-1.3.05l-.5.3q-.35.25-.6.5-.15.15-.4.85v.05l-.05.1q-.1.3-.2.7-.2.6-.2.95v.15l.05.05q0 .1.05.15l-.05.2q-.05.05-.05.1-.2.25-.4.55l-.05.15q-.05-.1-.05-.15-.35-1.4-2.4-1.55M22.7 40.2q.04453125.12050781.1.25v.9q-.03183594.0265625-.05.05-.40292969-.5453125-.05-1.2m.05 6.35h.05v.8q-.40605469-.49296875-.1-1.25.02714844.22109375.05.45m-.4 3.75v.05q-.08496094-.34042969.05-.7-.03320312.32988281-.05.65m.45 3.4v.3q-.53925781-.48535156-.2-1.35l.2 1.05m-.1 44.4v1.5q-.47402344-.58144531 0-1.5m.1 10.95q-.43164063-.54140625-.05-1.4l.05 1.4m-.05-4.25v1.4q-.43125-.63964844 0-1.4m-.05-2.95l.05 1.3q-.4296875-.56660156-.05-1.3z"/>
  <path fill="#D9831C" d="M18.65 86.9q.19628906-.05.45-.05 1.3 0 4.05.45 1.85.3 3.1.7-1.25-.8-2.9-1.05-2.9-.45-4-.4-.45234375 0-.7-.05-.12402344-.01953125-.2-.05v.5q.09140625-.03652344.2-.05m4.5-23.6q1.85.3 3.1.7-1.25-.8-2.9-1.05-2.9-.45-4-.4-.65 0-.9-.1v.5q.25-.1.65-.1 1.3 0 4.05.45m8.35-10.9v-.65q0-.05-.05-.05-.5-.15-3.2-.2-.6 0-1.3.1 1.4.15 2.05.25.3.05 2.5.55m-7.8-6.1q1.25-.4 3.1-.7 2.75-.45 4.05-.45.4 0 .65.1v-.5q-.25.1-.9.1-1.1-.05-4 .4-1.65.25-2.9 1.05m-4.9-1.85l.4-.7q.65-.8 1.45-1.5l-1.85.3v1.9m.1-7.9h-.05q-.0484375-.0484375-.05-.1v.9q.5-.4 1.85-.75-.85-.05-1.75-.05z"/>
  <path fill="#855011" d="M18.8 50.05q.0015625-.0515625.05-.1l-.05-.25v.35m0 38.35v.35q.0015625-.0515625.05-.1l-.05-.25m.05-19.15L18.8 69v.35q.0015625-.0515625.05-.1m11.55-33.6q.1046875.00234375.2.05-.05-.05-.1-.05h-.1z"/>
  <path fill="#FAC974" d="M17.9 35.2q.33085938.12089844.7.2-.1.35.2 1.05.0015625.0515625.05.1h.05q.9 0 1.75.05-1.35.35-1.85.75-.3.25-.3.55.05 1.3.05 1.45-.04160156.12460937.1 2.25.05761719.43339844.1.95h.05l1.85-.3q-.8.7-1.45 1.5l-.4.7q-.4.9-.45 1.85v1.05l.45 2.35.05.25q-.0484375.0484375-.05.1-.15.35-.25.75l-.2 1 .1 10.65q.25.1.9.1 1.1-.05 4 .4 1.65.25 2.9 1.05-1.25-.4-3.1-.7-2.75-.45-4.05-.45-.4 0-.65.1l.1 11.05.1 12.5q.24765625.05.7.05 1.1-.05 4 .4 1.65.25 2.9 1.05-1.25-.4-3.1-.7-2.75-.45-4.05-.45-.25371094 0-.45.05l.15 18.85v.05l.05-.05h5.9q3.7.4 6.75.25.30800781-.50058594.35-32 .05-9.3953125.05-21.55-.2-.05-.4-.05-2.2-.5-2.5-.55-.65-.1-2.05-.25.7-.1 1.3-.1 2.7.05 3.2.2.05 0 .05.05.4.1.45-.2 0-.3.15-1.8.15-1.55.1-3.1-.05-1.1-.7-1.4-.25-.1-.65-.1-1.3 0-4.05.45-1.85.3-3.1.7 1.25-.8 2.9-1.05 2.9-.45 4-.4.65 0 .9-.1.2-.05.2-.2-.05-.3 0-1.85.01777344-.55332031.05-1.1.03574219-.98535156.1-1.95v-.15q.05-1.25.1-2.65 0-.4-.3-.65.63046875-.44492188 1.05-1H17.9m12.7.5q-.0953125-.04765625-.2-.05h.1q.05 0 .1.05M18.8 69l.05.25q-.0484375.0484375-.05.1V69m0 19.75v-.35l.05.25q-.0484375.0484375-.05.1z"/>
  <path stroke="#900" stroke-width=".299988" stroke-linejoin="round" stroke-linecap="round" fill="none" d="M18.74331512 93.70718536q-.98775024 1.5569519.23658905 2.34011078"/>
  <path stroke="#900" stroke-width=".3" stroke-linejoin="round" stroke-linecap="round" fill="none" d="M19 97.2q-1.2 1.4-.1 2.35M19 100.2q-1.2 1.4-.1 2.35"/>
  <path stroke="#900" stroke-width=".299994" stroke-linejoin="round" stroke-linecap="round" fill="none" d="M18.89522934 103.1714775q-1.02206726 1.53468934.18462295 2.34483262"/>
  <path stroke="#FFF" stroke-width=".5" stroke-linejoin="round" stroke-linecap="round" fill="none" d="M27.3 47.3l-1.15-3.05"/>
  <path fill="#900" d="M27 42.6q0-.65-.55-1.1-.5-.45-1.25-.4-.6.05-1.05.6-.5.55-.45 1.2.1.65.6 1.1.55.45 1.2.4.2 0 .4-.05.05 0 .15-.05.35-.2.65-.5.45-.55.3-1.2z"/>
  <path fill="#FFF" fill-opacity=".29803922" d="M25.1 41.85q-.4.1-.7.45-.3.35-.25.7.05.45.4.75.35.3.75.2.15.05.2-.05.05.05.15 0 .2-.05.35-.25.3-.35.25-.85 0-.35-.35-.65-.35-.3-.8-.3z"/>
  <path stroke="#FFF" stroke-width=".5" stroke-linejoin="round" stroke-linecap="round" fill="none" d="M28.64126587 45.96530151l.42850647-3.23130493"/>
  <path fill="#900" d="M30.59882202 41.68186035q.30728607-.5727768.0353653-1.22932587-.22786103-.63291168-.91239472-.94341278-.55235443-.23958892-1.2089035.03233185-.70060883.24828339-.96383514.84469757-.21916657.62005158.00869445 1.25296326.27192078.65654907.86833496.9197754.17623902.09454955.37611542.14503936.04405975.02363739.15581665.02685242.40296784-.01077729.8091507-.13331147.65654907-.27192077.83165588-.91560974z"/>
  <path fill="#FFF" fill-opacity=".29803922" d="M29.27911224 40.12274323q-.3997528-.10097962-.82957306.06561431-.42982025.16659394-.55122222.4986496-.16867676.42017517-.00208283.84999542.16659393.42982025.56634674.53079987.10854187.11497192.1998764.0504898.02042237.06769715.13217927.07091218.1998764.0504898.42660522-.05483704.42982025-.16659393.6221344-.63082886.16546173-.30841827-.0011322-.73823852-.16659394-.42982025-.56313172-.64255676z"/>
  <path stroke="#FFF" stroke-width=".499985" stroke-linejoin="round" stroke-linecap="round" fill="none" d="M30.29985352 46.62503052l2.55145416-2.0284317"/>
  <path fill="#900" d="M34.68225403 44.90066833q.61877746-.19897918.87879486-.86031494.27532349-.61373748-.00186615-1.3124054-.23127136-.5558731-.89260712-.8158905-.67664184-.30761566-1.28011322-.0610382-.58816528.29417572-.86348877.9079132-.2600174.66133576-.01343994 1.26480713.06122437.19039307.170047.36548005.01530609.04759826.09351654.1274887.2975357.2719635.67496185.46571656.66133576.2600174 1.23419495-.0817566z"/>
  <path fill="#FFF" fill-opacity=".29803922" d="M34.81459656 42.86234283q-.21764527-.35017395-.64266968-.5286209-.42502441-.17844697-.74290619-.02370606-.4130783.18535309-.59152527.6103775-.17844696.42502442.0391983.77519837-.00167999.15810089.10882264.17508697-.03229218.06290436.04591827.1427948.10882263.17508698.34513397.25665741.42502442.17844696.885701-.02221222.33318786-.10714264.51163482-.53216705.17844696-.42502442.04069214-.85340882z"/>
  <path stroke="#900" stroke-width=".3" stroke-linejoin="round" stroke-linecap="round" fill="none" d="M19 35.5q-1.2 1.4-.1 2.35M19 38.5q-1.2 1.4-.1 2.35"/>
  <path stroke="#900" stroke-width=".299994" stroke-linejoin="round" stroke-linecap="round" fill="none" d="M18.89522934 41.4714775q-1.02206726 1.53468934.18462295 2.34483262"/>
  <path stroke="#900" stroke-width=".299991" stroke-linejoin="round" stroke-linecap="round" fill="none" d="M19.03740387 44.67724075q-1.45080261 1.13796387-.5580864 2.28488465"/>
  <path stroke="#900" stroke-width=".299988" stroke-linejoin="round" stroke-linecap="round" fill="none" d="M18.74331512 48.05718536q-.98775024 1.5569519.23658905 2.34011078M18.74331512 51.40718536q-.98775024 1.5569519.23658905 2.34011078"/>
  <path stroke="#900" stroke-width=".3" stroke-linejoin="round" stroke-linecap="round" fill="none" d="M19.15 37.3q5.07460938-2.24941406 12.65-1.1M19.05 36.6q5.25-1.7 12.8.05"/>
  <path stroke="#900" stroke-width=".3" stroke-linejoin="round" stroke-linecap="round" fill="none" d="M18.86803589 53q5.08606262-2.25 12.74033508-1.1M18.76732178 52.3q5.28749084-1.7 12.89140625.05" transform="matrix(1 0 0 1 .03449707 0)"/>
  <path stroke="#900" stroke-width=".3" stroke-linejoin="round" stroke-linecap="round" fill="none" d="M18.874292 69q5.08575439-2.25 12.73956298-1.1M18.77358398 68.3q5.28717041-1.7 12.890625.05" transform="matrix(1 0 0 1 .04189453 0)"/>
  <path stroke="#900" stroke-width=".3" stroke-linejoin="round" stroke-linecap="round" fill="none" d="M18.8805481 91q5.08544616-2.25 12.73879089-1.1M18.7798462 90.3q5.28684997-1.7 12.88984374.05" transform="matrix(1 0 0 1 .049292 0)"/>
  <path stroke="#900" stroke-width=".3" stroke-linejoin="round" stroke-linecap="round" fill="none" d="M19 54.8q-1.2 1.4-.1 2.35M19 57.8q-1.2 1.4-.1 2.35"/>
  <path stroke="#900" stroke-width=".299994" stroke-linejoin="round" stroke-linecap="round" fill="none" d="M18.89522934 60.7714775q-1.02206726 1.53468934.18462295 2.34483262"/>
  <path stroke="#900" stroke-width=".299991" stroke-linejoin="round" stroke-linecap="round" fill="none" d="M19.03740387 63.97724075q-1.45080261 1.13796387-.5580864 2.28488465"/>
  <path stroke="#900" stroke-width=".299988" stroke-linejoin="round" stroke-linecap="round" fill="none" d="M18.74331512 67.35718536q-.98775024 1.5569519.23658905 2.34011078M18.74331512 70.70718536q-.98775024 1.5569519.23658905 2.34011078"/>
  <path stroke="#900" stroke-width=".3" stroke-linejoin="round" stroke-linecap="round" fill="none" d="M19 74.2q-1.2 1.4-.1 2.35M19 77.2q-1.2 1.4-.1 2.35"/>
  <path stroke="#900" stroke-width=".299994" stroke-linejoin="round" stroke-linecap="round" fill="none" d="M18.89522934 80.1714775q-1.02206726 1.53468934.18462295 2.34483262"/>
  <path stroke="#900" stroke-width=".299991" stroke-linejoin="round" stroke-linecap="round" fill="none" d="M19.23740387 83.37724075q-1.45080261 1.13796387-.5580864 2.28488465"/>
  <path stroke="#900" stroke-width=".299988" stroke-linejoin="round" stroke-linecap="round" fill="none" d="M18.74331512 86.75718536q-.98775024 1.5569519.23658905 2.34011078M18.74331512 90.10718536q-.98775024 1.5569519.23658905 2.34011078"/>
  <path fill="#855011" d="M18.8 49.65V50q.02421875-.01992188.05-.1l-.05-.25m-2.35-25.7q-.03730469-.02265625-.1-.05l.1.35q-.00800781-.15078125 0-.3m-.55-3.35q-.15078125.47128906-.3.55v.05q1.63710938-1.93007813 2.6-2.8-.17011719.10410156-.35.2-1.55.75-1.95 2m4.2-7.4v-.05q.00761719-.00351563 0-.05v.1m-5.3 2.65q1.23691406-.81230469 2.25-1.15.8171875-.27246094 1.3-.25l-.2-.6q-.17265625.20371094-.5.3-.9.2-2 1-.64101562.43710937-.85.7m17.75 2.25q-.75410156 0-1.05.05 1.53496094.05097656 2.45.55.52929688.27714844.7.7l.2-.6q-.2328125.06152344-.55-.15-.75-.55-1.75-.55m.15 3.75q.20917969.365625.35.8.27304688.91835938.3 1.4l.25-.95q-.171875-.78417969-.9-1.25m-2.1-3.4l-.1.25q.08203125-.1015625.15-.2l-.05-.05M22.95 16q1.18984375.08808594 1.8.45V16q-2.26757812-.4421875-3.15-.05-.53984375.20996094-.85.45.71914063-.50957031 2.2-.4m1.6-4.7q-.1375.15527344-.4.1-.95-.25-2.3.6.56328125-.21601563 1.25-.35.98417969-.22148438 1.5.15l-.05-.5m3.15 2.3q-.88652344 0-1.15.15 1.07363281.00976562 1.75.1.7.1 1.65.4.28632813.07949219.45.2l.05-.4q-.23320312.08339844-.6-.1-.95-.4-2.15-.35m2.65 22.05q.13691406.0203125.25.05-.06699219-.04042969-.15-.1-.02597656.03984375-.1.05z"/>
  <path fill="#D9831C" d="M20.65 42.25l-1.85.3v1.9l.4-.7q.63125-.79726563 1.45-1.5m0-5.7q-.82753906.015625-1.75 0h-.05q-.02617187-.05488281-.05-.1v.9q.50410156-.42246094 1.85-.8M31.5 51.7q-.02441406.00859375-.05 0-.5-.15-3.2-.2-.60390625-.02246094-1.3.1 1.37949219.134375 2.05.25.27617188.04609375 2.5.5v-.65m0-6.95q-.26875.1-.9.1-1.1-.05-4 .4-1.66621094.22597656-2.9 1.05 1.2734375-.40117187 3.1-.7 2.75-.45 4.05-.45.37792969-.01445312.65.1v-.5z"/>
  <path fill="#FAC974" d="M34.55 14.9q-.65-.25-.8-.25-.9 0-1.3.05l-.5.3q-.35.25-.6.5-.25.2-.65 1.7-.33867187 1.09140625-.1 1.25l.05.05q-.06796875.0984375-.15.2-.37460937.56523438-.7 1 .30117188-.8546875.5-1.65.4-1.85.5-2.7.03417969-.57949219-.4-.9-.16367187-.12050781-.45-.2-.95-.3-1.65-.4-.67636719-.09023437-1.75-.1.26347656-.15 1.15-.15 1.2-.05 2.15.35.36679687.18339844.6.1.42226563-.03710937.6-.6.25-1 0-2.15-.3-1.2-1.05-1.45t-.95-.3q-1.05 0-1.5.1l-.6.35q-.4.3-.6.65-.2.35-.55 2.2-.25195312 1.2953125-.05 1.5v.05q-.18789062.32890625-.55 2.4-.16542969-.18378906-.45-.35-.61015625-.36191406-1.8-.45-1.48085937-.10957031-2.2.4.31015625-.24003906.85-.45.88242187-.3921875 3.15.05.05410156.04023437.1.05.35-.8.3-2.8-.02539062-1.04121094-.55-1.45-.51582031-.37148438-1.5-.15-.68671875.13398437-1.25.35 1.35-.85 2.3-.6.2625.05527344.4-.1.4671875-.41816406.25-2.3-.65-.85-1.65-.95-2.45-.3-3.5 1.45-.05 2.1.25 3.1.10097656.33613281.2.5.00761719.04648437 0 .05v.05q-.4 2.4-.1 3.2.12382813.32988281.2.45l.05.3q-.08535156.26933594-.1.55-.01035156.19277344 0 .35-.31445312-.28945313-.65-.35l-.65-3q-.17753906-.17753906-.5-.25-.4828125-.02246094-1.3.25-1.01308594.33769531-2.25 1.15.20898438-.26289063.85-.7 1.1-.8 2-1 .32734375-.09628906.5-.3.33066406-.25820313.3-.75-.1-.8-.9-1.85-.85-1.05-1.7-.9-.85.1-1.05.2-1.05.55-1.4.9l-.45.7q-.15.5-.15.95 0 .45.7 2.45.31425781.94296875.55 1.3.5375 2.3546875 1 3.65.28027344.84101562.55.65.14921875-.07871094.3-.55.4-1.25 1.95-2 .17988281-.09589844.35-.2-.96289062.86992187-2.6 2.8-.04355469.08222656-.1.15.5 2.05.7 2.4.04335938.08671875.15.15.06269531.02734375.1.05-.00800781.14921875 0 .3v.05h-.05q.02382813.22988281.05.45.06328125 1.07246094.45 2.1-.04570312.0296875-.1 0-.20039063-.06132813-.4-.15-.05507812.01269531-.1 0 .22070313-.43769531-.1-.7-.6-.45-2.05-.8-1.5-.35-2.4.25-.95.6-1.2 1.25-.05488281.13183594-.1.25-.1609375.47089844-.2.9l-.05.85q.10195313.30566406.25.6.06992188.12167969.15.25.2.35 1.85 1.7.99921875.78730469 1.7.6-.321875.43496094.35 1.05 2.1 1.5 2.95 2.05.45195313.31074219 1.15.4-.11640625.38710937.2 1.1.02382813.04511719.05.1h.05q.92246094.015625 1.75 0-1.34589844.37753906-1.85.8-.32246094.25859375-.3.55.05 1.3.05 1.45-.05.15.2 3.2h.05l1.85-.3q-.81875.70273437-1.45 1.5l-.4.7q-.4.9-.45 1.85v1.05l.45 2.3.05.25q-.02578125.08007812-.05.1-.16386719.41191406-.25.8l-.2 1 .45 3.95v.05l.05-.05h5.85q3.58417969.38730469 6.8.25.6-1 .4-3.55-.20722656-.04375-.4-.1-2.22382812-.45390625-2.5-.5-.67050781-.115625-2.05-.25.69609375-.12246094 1.3-.1 2.7.05 3.2.2.02558594.00859375.05 0 .40292969.1328125.45-.15 0-.3.15-1.8.15-1.55.1-3.1-.03554688-1.09941406-.7-1.4-.27207031-.11445313-.65-.1-1.3 0-4.05.45-1.8265625.29882812-3.1.7 1.23378906-.82402344 2.9-1.05 2.9-.45 4-.4.63125 0 .9-.1.2-.07226563.2-.2-.05-.3 0-1.85t.15-3.05q.003125-.09550781 0-.2.06308594-1.19648438.1-2.6 0-.39492188-.3-.7.84628906-.53808594 1.25-1.4.06269531.01914062.55-1.8.48808594-1.82441406-.1-6.3l.1.55q.01757813-.14160156 0-.3-.190625-1.28613281-.1-2.65v-.2q-.02695312-.48164063-.3-1.4-.14082031-.434375-.35-.8.728125.46582031.9 1.25.03613281.109375.05.2.75-.9 1.1-2.8.12402344-.61992188-.1-1.1-.17070312-.42285156-.7-.7-.91503906-.49902344-2.45-.55.29589844-.05 1.05-.05 1 0 1.75.55.3171875.21152344.55.15.32695313-.07304688.5-.65.3-1.05.1-2-.25-1.05-.9-1.25M30.6 35.7q-.11308594-.0296875-.25-.05.07402344-.01015625.1-.05.08300781.05957031.15.1z"/>
  <path stroke="#FFF" stroke-width=".5" stroke-linejoin="round" stroke-linecap="round" fill="none" d="M27.3 47.3l-1.15-3.05"/>
  <path fill="#900" d="M27 42.6q0-.65-.55-1.1-.5-.45-1.25-.4-.6.05-1.05.6-.5.55-.45 1.2.1.65.6 1.1.55.45 1.2.4.2 0 .4-.05.05 0 .15-.05.35-.2.65-.5.45-.55.3-1.2z"/>
  <path fill="#FFF" fill-opacity=".29803922" d="M25.1 41.85q-.4.1-.7.45-.3.35-.25.7.05.45.4.75.35.3.75.2.15.05.2-.05.05.05.15 0 .2-.05.35-.25.3-.35.25-.85 0-.35-.35-.65-.35-.3-.8-.3z"/>
  <path stroke="#FFF" stroke-width=".5" stroke-linejoin="round" stroke-linecap="round" fill="none" d="M28.64126587 45.96530151l.42850647-3.23130493"/>
  <path fill="#900" d="M30.59882202 41.68186035q.30728607-.5727768.0353653-1.22932587-.22786103-.63291168-.91239472-.94341278-.55235443-.23958892-1.2089035.03233185-.70060883.24828339-.96383514.84469757-.21916657.62005158.00869445 1.25296326.27192078.65654907.86833496.9197754.17623902.09454955.37611542.14503936.04405975.02363739.15581665.02685242.40296784-.01077729.8091507-.13331147.65654907-.27192077.83165588-.91560974z"/>
  <path fill="#FFF" fill-opacity=".29803922" d="M29.27911224 40.12274323q-.3997528-.10097962-.82957306.06561431-.42982025.16659394-.55122222.4986496-.16867676.42017517-.00208283.84999542.16659393.42982025.56634674.53079987.10854187.11497192.1998764.0504898.02042237.06769715.13217927.07091218.1998764.0504898.42660522-.05483704.42982025-.16659393.6221344-.63082886.16546173-.30841827-.0011322-.73823852-.16659394-.42982025-.56313172-.64255676z"/>
  <path stroke="#FFF" stroke-width=".499985" stroke-linejoin="round" stroke-linecap="round" fill="none" d="M30.29985352 46.62503052l2.55145416-2.0284317"/>
  <path fill="#900" d="M34.68225403 44.90066833q.61877746-.19897918.87879486-.86031494.27532349-.61373748-.00186615-1.3124054-.23127136-.5558731-.89260712-.8158905-.67664184-.30761566-1.28011322-.0610382-.58816528.29417572-.86348877.9079132-.2600174.66133576-.01343994 1.26480713.06122437.19039307.170047.36548005.01530609.04759826.09351654.1274887.2975357.2719635.67496185.46571656.66133576.2600174 1.23419495-.0817566z"/>
  <path fill="#FFF" fill-opacity=".29803922" d="M34.81459656 42.86234283q-.21764527-.35017395-.64266968-.5286209-.42502441-.17844697-.74290619-.02370606-.4130783.18535309-.59152527.6103775-.17844696.42502442.0391983.77519837-.00167999.15810089.10882264.17508697-.03229218.06290436.04591827.1427948.10882263.17508698.34513397.25665741.42502442.17844696.885701-.02221222.33318786-.10714264.51163482-.53216705.17844696-.42502442.04069214-.85340882z"/>
  <path stroke="#900" stroke-width=".3" stroke-linejoin="round" stroke-linecap="round" fill="none" d="M19 35.5q-1.2 1.4-.1 2.35M19 38.5q-1.2 1.4-.1 2.35"/>
  <path stroke="#900" stroke-width=".299994" stroke-linejoin="round" stroke-linecap="round" fill="none" d="M18.89522934 41.4714775q-1.02206726 1.53468934.18462295 2.34483262"/>
  <path stroke="#900" stroke-width=".299991" stroke-linejoin="round" stroke-linecap="round" fill="none" d="M19.03740387 44.67724075q-1.45080261 1.13796387-.5580864 2.28488465"/>
  <path stroke="#900" stroke-width=".299988" stroke-linejoin="round" stroke-linecap="round" fill="none" d="M18.74331512 48.05718536q-.98775024 1.5569519.23658905 2.34011078M18.74331512 51.40718536q-.98775024 1.5569519.23658905 2.34011078"/>
  <path stroke="#900" stroke-width=".3" stroke-linejoin="round" stroke-linecap="round" fill="none" d="M19.15 37.3q5.07460938-2.24941406 12.65-1.1M19.05 36.6q5.25-1.7 12.8.05"/>
  <path stroke="#900" stroke-width=".3" stroke-linejoin="round" stroke-linecap="round" fill="none" d="M18.85552368 53q5.08667908-2.25 12.74187927-1.1M18.75479736 52.3q5.28813172-1.7 12.89296875.05" transform="matrix(1 0 0 1 .01970215 0)"/>
  <path fill="#855011" d="M21.81282425 33.93819351q-.2734871-.03416824-.49906616-.07905655.14037475-1.25207824.06874923-2.51393738.06110459.1579834.20406418.3930153.23801117.48078384.23342438 2.0839363.0135788.03510743-.00717163.11604233zM23.36282425 33.78819351q-.2734871-.03416824-.49906616-.07905655.14037475-1.25207824.06874923-2.51393738.06110459.1579834.20406418.3930153.23801117.48078384.23342438 2.0839363.0135788.03510743-.00717163.11604233zM24.86282425 33.38819351q-.2734871-.03416824-.49906616-.07905655.14037475-1.25207824.06874923-2.51393738.06110459.1579834.20406418.3930153.23801117.48078384.23342438 2.0839363.0135788.03510743-.00717163.11604233z"/>
  <path fill="#855011" d="M19.85 33q.45 0 1.2.05 1.45.05 5.05-.55.1 0 .25-.05-.5-.25-.95-.45-2.6.6-5.55 1zM30.6 22.55q2.14765625-.26308594 2.5.1-.04804688-.39199219-.25-.75-.06679688.04433594-.2 0-.6-.2-3.4.3-1.29394531.23105469-2.6.6-.21425781.15859375-.45.3 2.05410156-.31542969 4.4-.55z"/>
  <g>
    <path fill="#855011" d="M28.56282425 23.73819351q-.2734871-.03416824-.49906616-.07905655.14037475-1.25207824.06874923-2.51393738.06110459.1579834.20406418.3930153.23801117.48078384.23342438 2.0839363.0135788.03510743-.00717163.11604233z"/>
  </g>
  <g>
    <path fill="#855011" d="M30.11282425 23.58819351q-.2734871-.03416824-.49906616-.07905655.14037475-1.25207824.06874923-2.51393738.06110459.1579834.20406418.3930153.23801117.48078384.23342438 2.0839363.0135788.03510743-.00717163.11604233z"/>
  </g>
  <g>
    <path fill="#855011" d="M31.61282425 23.18819351q-.2734871-.03416824-.49906616-.07905655.14037475-1.25207824.06874923-2.51393738.06110459.1579834.20406418.3930153.23801117.48078384.23342438 2.0839363.0135788.03510743-.00717163.11604233z"/>
  </g>
  <g>
    <path stroke="#900" stroke-width=".3" stroke-linejoin="round" stroke-linecap="round" fill="none" d="M20.28048553 17.49406738q1.85344925-1.68708801 4.64279862-.82479858" transform="matrix(1 0 0 1 .00264969 -.0141571)"/>
  </g>
  <g>
    <path stroke="#900" stroke-width=".3" stroke-linejoin="round" stroke-linecap="round" fill="none" d="M20.24378357 16.96919556q1.92685318-1.27468872 4.69785156.03749084" transform="matrix(1 0 0 1 .00264969 -.0141571)"/>
  </g>
  <g>
    <path stroke="#900" stroke-width=".3" stroke-linejoin="round" stroke-linecap="round" fill="none" d="M20.23329315 13.49321747q1.39169693-2.56027374 4.3474556-1.96117935" transform="matrix(1 0 0 .99999 .0036766 -.0045433)"/>
  </g>
  <g>
    <path stroke="#900" stroke-width=".3" stroke-linejoin="round" stroke-linecap="round" fill="none" d="M20.06435852 12.8131424q1.56816788-2.03439103 4.61984558-.84291764" transform="matrix(1 0 0 .99999 .0036766 -.0045433)"/>
  </g>
  <g>
    <path stroke="#900" stroke-width=".3" stroke-linejoin="round" stroke-linecap="round" fill="none" d="M14.25 16.95q.64492188-1.64648437 2.075-2.2.76679688-.44921875 1.825-.65m-3.7 3.55q.56289063-2.08769531 1.875-2.9.86640625-.31269531 2.025-.35"/>
  </g>
  <g>
    <path stroke="#900" stroke-width=".3" stroke-linejoin="round" stroke-linecap="round" fill="none" d="M15.5 21.2q1.05-2.35 4.5-3.15"/>
  </g>
  <g>
    <path stroke="#900" stroke-width=".3" stroke-linejoin="round" stroke-linecap="round" fill="none" d="M15.8 21.9q.75-2.9 3.9-4.15"/>
  </g>
  <g>
    <path stroke="#900" stroke-width=".3" stroke-linejoin="round" stroke-linecap="round" fill="none" d="M30.68865509 19.49108276q2.07412567-1.25211105 4.2426857.15342865" transform="matrix(1 0 0 1 .01209564 -.02904968)"/>
  </g>
  <g>
    <path stroke="#900" stroke-width=".3" stroke-linejoin="round" stroke-linecap="round" fill="none" d="M30.80399017 18.97587738q2.0220131-.83817596 4.0486763.99876328" transform="matrix(1 0 0 1 .01209564 -.02904968)"/>
  </g>
  <g>
    <path stroke="#900" stroke-width=".3" stroke-linejoin="round" stroke-linecap="round" fill="none" d="M25.7819046 14.48130112q2.19131546-1.32981491 4.75717774-.23301316" transform="matrix(1 0 0 1 .00691376 -.00610657)"/>
  </g>
  <g>
    <path stroke="#900" stroke-width=".3" stroke-linejoin="round" stroke-linecap="round" fill="none" d="M25.85865479 13.99911575q2.17497253-.94598007 4.62591629.55856324" transform="matrix(1 0 0 1 .00691376 -.00610657)"/>
  </g>
  <g>
    <path stroke="#900" stroke-width=".3" stroke-linejoin="round" stroke-linecap="round" fill="none" d="M13.85 31.95Q13.8 29 16.6 26.8"/>
  </g>
  <g>
    <path stroke="#900" stroke-width=".3" stroke-linejoin="round" stroke-linecap="round" fill="none" d="M14.3 32.15q-.45-3 1.95-5.45"/>
  </g>
</svg>
