<svg xmlns="http://www.w3.org/2000/svg" preserveAspectRatio="none" viewBox="0 0 50 100">
  <path fill="#333" fill-opacity=".2" d="M37.65 25.6q.15-.15-.05-.7-.35-.85-2.55-1.05-.35-.05-.8.05-.05-.25-.15-.55-.4-1.35-2.15-1.5-.9-.1-1.2.15h-.05q0-.19140625-.05-.35.05292969-.01953125.05-.1.06132813-.0359375.05-.1-.01972656-.05273438-.1-.1-.08945312-.03339844-.2-.1.02480469.01191406.05 0 .06699219-.03359375.1-.1.02382813-.05019531 0-.1-.03339844-.06679688-.1-.1l-.05-.05q.50292969-.42773438.7-2.25.1-.75-.2-1.2v-.1H31q.08691406-.00449219.1-.05.06074219-.05664063.05-.15-.0046875-.03691406-.05-.1-.03066406.003125-.05-.05v-.15q.03789062-.02578125.05-.05.02382813-.04980469 0-.1v-.05l.05-.3q.3-.4.1-2.3-.65-.85-1.65-.95-2.45-.3-3.5 1.45-.03984375 1.67519531.05 2.45-.01328125.04414063-.05.05-.04609375.0640625-.05.1-.01015625.09453125 0 .15.0640625.04628906.1.05.06445313.00585937.1 0 .04511719.15742187.1.25l-.05.05q-.01015625.05546875 0 .1.00390625.08574219.05.1-.15292969.16621094-.3.35-.37851562 2.5546875-.3 3.15-.0296875.00722656-.05 0-.04609375.07714844-.05.15-.00996094.05742187 0 .1.07714844.04628906.15.05h.05l-.05.2q-.10097656.09140625-.2.15-.04628906.07714844-.05.15-.01015625.05722656 0 .1h.05q-.02246094.18535156-.05.35l-.2-.4q.06074219-.05664063.05-.15-.00449219-.03691406-.05-.1-.05664063-.01054688-.15 0-.02246094.00664062-.1 0-.04746094-.06132813-.15-.15.00703125-.00449219-.05-.05h-.05q-.0890625-.06679688-.2-.1h.1l-.6-2.4q-.3-1-1.05-1.1l-.05-.15q.13066406.05273438.25.05.05898438-.003125.1-.05.046875-.04101563.05-.1-.003125-.05917969-.05-.1-.04101562-.04707031-.1-.05-.03378906-.00117188-.1 0 .07070312-.01660156.1-.05.046875-.04101563.05-.1-.003125-.05917969-.05-.1-.04101563-.04707031-.1-.05h-.25q.19121094-.25664063.15-.75-.15-.95-.7-2-.6-1.05-1.45-.9-.85.1-1.05.2-1.05.55-1.4.9l-.45.7q-.15.5-.15.95 0 .45.7 2.45.03867187.12226562.05.2-.00039063.06816406-.05.1-.01035156.05644531 0 .1.00429688.08671875.05.1.05644531.06054687.1.05.09394531.14277344.15.25l-.05.05q-.01132812.08554687 0 .15.01914062.05253906.05.05.08535156.06113281.15.05.07695312.11484375.15.2l-.1.1q.6 2.95.85 3.8.06621094.24257812.15.3-.0109375.07148437 0 .1.01816406.08886719.05.1.07128906.0609375.1.05.08867188-.01835938.1-.1.0671875-.04199219.1-.1l.1.3h-.05q.00214844.05996094 0 .1-.04707031.04082031-.05.1.00292969.05898437.05.1l-.05.05q.3 1.3.55 1.95-1.2.25-1.35 1.25-.3 1.35-.4 2.5-.1 1.15.1 2.05.1.5.25.75 0 .6.3 1.45.35 1.05.95 1.95h.05l.1.2q0 .05.05.1.1.4.95 1.75v.05h-.05q.05273438.01757812.1 0 .26425781.41289062.5.65l-.05.05q-.59082031.97089844 0 1.75v-.05l.05.05q-.05.128125-.05.25.02363281.61386719.05.95-.09179688.16191406-.15.3v-.05q-.36875.85820312.05 1.5.08378906.12207031.15.2.04960937.26484375.05.55-.01425781.00859375-.05.05-.04707031.04082031-.05.1.00292969.05898437.05.1.01679688.03925781-.05.1-.63496094 1.2328125.15 2 .04726562.0515625.1.1v.65q-.08964844.20195312-.15.4-.12773437.12851562-.25.25-.68828125.834375-.2 1.7.04804688.08105469.1.1h.05v.45l.15.8q-.03242187.11054687-.1.15-.5859375 1.30097656.25 2-.04003906.25976562-.1.5l-.2 1q-.09921875.24804687-.15.45V57q-.00390625.025 0 .05.05527344.1640625.15.3v2.15q-.0828125.24121094-.1.45v.35q.02265625.24433594.1.45l.05 1.7q-.06503906.18769531-.1.35v.65q.02285156.20898437.1.4l.05 1.45q-.10351562.21699219-.15.4v.65q-.00136719.07753906.05.2.0578125.09003906.1.15v1.65q-.03007812.10488281-.1.15-.69960938.89707031 0 1.85.06328125.0453125.1.05l.05 1.1q-.08652344.15019531-.15.3v1.5q.00292969.05898437.05.1.04941406.05.1.1v1.05q-.01894531.01425781-.05.05-.04707031.04082031-.05.1v.4q-.46640625.99550781 0 1.65.07089844.05820312.1.1l.05 1.15v.55q-.07246094.11328125-.15.2.00449219.06054687 0 .1v1.35q.00292969.05898437.05.1l.1.1v1.15q-.03203125.08359375-.1.15-.48300781.92421875 0 1.6v-.05q.06757813.11796875.1.2l.05.9q-.09277344.16367187-.15.3v1.45q-.00390625.05566406 0 .1.08535156.071875.15.15v1.4q-.03144531.10605469-.1.15-.58339844.9 0 1.75.06210938.08203125.1.1h.05v.75q-.1 0-.2-.05v.5q-.64394531 1.25195312.1 1.95.06699219.09121094.1.15v1.05q-.13242187.0125-.15.15-.72695312 1.29609375.1 2.1.04121094.04433594.1.1v1.2h-.05q-.03867187.01835937-.1.05-.8515625 1.45097656.1 2.25.03476562.03554687.05.05v1.3q-.03027344.10195312-.1.15-.79589844 1.17519531.05 2.05.04023438.04648437.1.05v.7q-.06953125.11601562-.15.2-.79394531 1.17246094.1 2.1.03183594.03652344.05.05v.6q-.03847656.01796875-.1.05-.79453125 1.33398437.05 2.15.05.05273437.1.1v.3l.05-.05h.05q.05585938.03613281.05.05.04726562.08027344.1.1.0640625.01132812.1-.05.08046875.00292969.1-.05.00429687-.02519531 0-.05h5.5q3.7.4 6.75.25.20722656-.34550781.3-15.5.07929687.01074219.1-.05.08222656-.01171875.1-.1.0109375-.02929688-.05-.1-.01171875-.03203125-.1-.05-.00039063-.00527344-.05 0 .02460937-.07988281 0-.15.09335938.01054687.15-.05.04550781-.01308594.05-.1.01074219-.04316406-.05-.1-.01308594-.0453125-.1-.05h-.05q.07089844-6.55859375.1-15.75V56.45q-.13105469-.0328125-.25-.05v-.05q.01113281-.02871094-.05-.1-.01132812-.03183594-.1-.05v-.15q.05390625.00371094.1-.05.04550781-.01289063.05-.1.01054687-.04316406-.05-.1.00839844-.01992188-.05-.05.35585938.06542969.4-.2 0-.3.15-1.8.15-1.55.1-3.1-.02871094-.63476563-.25-1L37 48.8q.03652344-.03007813.05-.1.20371094.15976562.4.3.65.25 1.2-.1.65-.2.9-.9.3-.55 0-1.25-.2-.6-.85-.8-.7-.35-1.3-.1-.6.3-.85.9-.3.7-.05 1.25.05.2.15.4l-1.05.9q-.05429687-.02890625-.1-.05v-.5q.2-.05.2-.2-.05-.3 0-1.85 0-.55.05-1.1.05-1 .1-1.95v-.15q.05-1.25.1-2.65v-.05q.03964844.00273437.05-.05.08203125-.01171875.1-.1.0109375-.02910156-.05-.1-.01191406-.03203125-.1-.05-.02539063-.0109375-.1-.05.25664062-.16152344.5-.35l.05-.05.1-.1q.55-.5.9-1.1 0-.05.5-2.35.45-2.3.25-5.3.05-.65 0-1.5-.25-2.4-.35-2.9-.05-.15-.15-.2v-.65-.35M22.7 40.2q.04492188.12148437.1.25v.9q-.03183594.0265625-.05.05-.403125-.54550781-.05-1.2m.05 6.35h.05v.8q-.40605469-.49296875-.1-1.25.02714844.22109375.05.45m-.4 3.75v.05q-.08496094-.34042969.05-.7-.03320312.32988281-.05.65m.45 3.4v.3q-.53925781-.48535156-.2-1.35l.2 1.05m-.15 40.85v.3q-.06660156.03339844-.1.1-.02382812.05 0 .1.03339844.06679687.1.1l.05.85q-.45351563-.5609375-.05-1.45m.05 3.55v1.5q-.47402344-.58144531 0-1.5m.05 9.55l.05 1.4q-.43164063-.54140625-.05-1.4m0-2.85v1.4q-.43125-.63964844 0-1.4m-.05-2.95l.05 1.3q-.4296875-.56660156-.05-1.3z"/>
  <path fill="#855011" d="M27.35 22.85q-.2.1-.35.25.65-.15 1.3-.2 2.35-.25 3.9-.4 1.1-.15 1.45.1v-.65-.35q-.15.1-.35.1-.6-.05-3.4.5-1.3.25-2.55.65m-9 10.05q.45 0 1.2.05Q21 33 24.6 32.4q.1 0 .25-.05-.5-.25-.95-.45-2.6.6-5.55 1m-1.6-12.8q-.15.25-.3.4l.15.55q1.05-1.9 1.75-2.3l.65-.4q-1.7.85-2.25 1.75m1.8-6.4q-.05 0-.1.05.45.05.65.4l-.2-.6q-.15.1-.35.15m7.9 3.25h-.05q-1.95-.4-2.85-.05-.45.15-.75.35.6-.25 1.5-.3 1.5-.1 2.1.35l.05-.35M26.3 13q.45.1.65.45l.2-1.1q-.2.6-.75.65h-.1z"/>
  <path fill="#FAC974" d="M27.25 10.05q-.65-.85-1.65-.95-2.45-.3-3.5 1.45-.05 2.1.15 2.8.1.35.25.45-.25.15-.45.4-.4 2.7-.3 3.2 0 .15.1.2.05.1.2.05-.2.15-.3.4-.15.25-.2.55-.4-.8-.9-.95h.1l-.6-2.4q-.3-1-1.05-1.1-.2-.35-.65-.4.05-.05.1-.05.2-.05.35-.15.25-.25.2-.85-.15-.95-.7-2-.6-1.05-1.45-.9-.85.1-1.05.2-1.05.55-1.4.9l-.45.7q-.15.5-.15.95 0 .45.7 2.45.3.95.6 1.3l-.1.1q.6 2.95.85 3.8.15.55.5.3.15-.15.3-.4.55-.9 2.25-1.75l-.65.4q-.7.4-1.75 2.3l-.15.15q.3 1.3.55 1.95-1.2.25-1.35 1.25-.3 1.35-.4 2.5-.1 1.15.1 2.05.1.5.25.75 0 .6.3 1.45.35 1.05.95 1.95h.05q.15 0 .3-.05-.1.05-.15.15-.05.05 0 .2.1.4.95 1.75.4.6.75.95 6.95 5.15 13.6 0l.05-.05.1-.1q.55-.5.9-1.1 0-.05.5-2.35.45-2.3.25-5.3.05-.65 0-1.5-.25-2.4-.35-2.9-.05-.15-.15-.2-.35-.25-1.45-.1-1.55.15-3.9.4-.65.05-1.3.2.15-.15.35-.25 1.25-.4 2.55-.65 2.8-.55 3.4-.5.2 0 .35-.1.15-.15-.05-.7-.35-.85-2.55-1.05-.35-.05-.8.05-.05-.25-.15-.55-.4-1.35-2.15-1.5-.9-.1-1.2.15h-.05q0-.45-.3-.7-.6-.45-2.1-.35-.9.05-1.5.3.3-.2.75-.35.9-.35 2.85.05h.05q.5-.45.7-2.3.1-.75-.2-1.2-.2-.35-.65-.45h.1q.55-.05.75-.65.3-.4.1-2.3m-.7 8.75q.00078125-.10078125.05-.15v.05q-.0484375.0484375-.05.1m-7 14.15q-.75-.05-1.2-.05 2.95-.4 5.55-1 .45.2.95.45-.15.05-.25.05-3.6.6-5.05.55M31 35.75q-.09707031-.0484375-.15-.05h.05q.05 0 .1.05z"/>
  <path fill="#D9831C" d="M30.85 35.7q.05292969.0015625.15.05-.05-.05-.1-.05h-.05M26.6 18.65q-.04921875.04921875-.05.15.0015625-.0515625.05-.1v-.05M16.9 33.1l.1.2q0 .05.05.1-.05-.15 0-.2.05-.1.15-.15-.15.05-.3.05m4.85-15.05q.1-.25.3-.4-.15.05-.2-.05l-.1.45z"/>
  <path fill="#855011" d="M20.26282425 33.78819351q-.2734871-.03416824-.49906616-.07905655.14037475-1.25207824.06874923-2.51393738.06110459.1579834.20406418.3930153.23801117.48078384.23342438 2.0839363.0135788.03510743-.00717163.11604233zM21.81282425 33.63819351q-.2734871-.03416824-.49906616-.07905655.14037475-1.25207824.06874923-2.51393738.06110459.1579834.20406418.3930153.23801117.48078384.23342438 2.0839363.0135788.03510743-.00717163.11604233zM23.31282425 33.23819351q-.2734871-.03416824-.49906616-.07905655.14037475-1.25207824.06874923-2.51393738.06110459.1579834.20406418.3930153.23801117.48078384.23342438 2.0839363.0135788.03510743-.00717163.11604233zM29.56282425 23.73819351q-.2734871-.03416824-.49906616-.07905655.14037475-1.25207824.06874923-2.51393738.06110459.1579834.20406418.3930153.23801117.48078384.23342438 2.0839363.0135788.03510743-.00717163.11604233zM31.11282425 23.58819351q-.2734871-.03416824-.49906616-.07905655.14037475-1.25207824.06874923-2.51393738.06110459.1579834.20406418.3930153.23801117.48078384.23342438 2.0839363.0135788.03510743-.00717163.11604233zM32.61282425 23.18819351q-.2734871-.03416824-.49906616-.07905655.14037475-1.25207824.06874923-2.51393738.06110459.1579834.20406418.3930153.23801117.48078384.23342438 2.0839363.0135788.03510743-.00717163.11604233z"/>
  <path stroke="#900" stroke-width=".3" stroke-linejoin="round" stroke-linecap="round" fill="none" d="M21.83986969 18.19950562q1.8529869-2.24996567 4.64164047-1.09998322M21.80317688 17.4995163q1.92637253-1.69997406 4.69667969.04999923" transform="matrix(1 0 0 1 .0076477 -.00021667)"/>
  <path stroke="#900" stroke-width=".3" stroke-linejoin="round" stroke-linecap="round" fill="none" d="M22.34299774 13.84950562q1.8528328-2.24996567 4.64125443-1.09998322M22.30630798 13.1495163q1.92621231-1.69997406 4.69628907.04999923" transform="matrix(1 0 0 1 .01727982 -.00028305)"/>
  <path stroke="#900" stroke-width=".3" stroke-linejoin="round" stroke-linecap="round" fill="none" d="M15.06039276 15.89815521q1.17705536-2.37327041 4.12755966-2.31343918M14.84355011 15.34908447q1.38979721-1.95561142 4.47881699-1.4097763" transform="matrix(1 0 0 .99999 .00287094 -.00991135)"/>
  <path stroke="#900" stroke-width=".3" stroke-linejoin="round" stroke-linecap="round" fill="none" d="M16.2 20.65q1.35-2.15 4.9-2.45M16.55 21.2q1-2.55 4.3-3.3"/>
  <path fill="#D9831C" d="M18.65 86.9q.19628906-.05.45-.05 1.3 0 4.05.45 1.85.3 3.1.7-1.25-.8-2.9-1.05-2.9-.45-4-.4-.45234375 0-.7-.05-.12402344-.01953125-.2-.05v.5q.09140625-.03652344.2-.05m4.5-23.6q1.85.3 3.1.7-1.25-.8-2.9-1.05-2.9-.45-4-.4-.65 0-.9-.1v.5q.25-.1.65-.1 1.3 0 4.05.45m8.35-10.9v-.65q0-.05-.05-.05-.5-.15-3.2-.2-.6 0-1.3.1 1.4.15 2.05.25.3.05 2.5.55m-7.8-6.1q1.25-.4 3.1-.7 2.75-.45 4.05-.45.4 0 .65.1v-.5q-.25.1-.9.1-1.1-.05-4 .4-1.65.25-2.9 1.05m-4.9-1.85l.4-.7q.65-.8 1.45-1.5l-1.85.3v1.9m.1-7.9h-.05q-.0484375-.0484375-.05-.1v.9q.5-.4 1.85-.75-.85-.05-1.75-.05z"/>
  <path fill="#855011" d="M18.8 50.05q.0015625-.0515625.05-.1l-.05-.25v.35m0 38.35v.35q.0015625-.0515625.05-.1l-.05-.25m0-19.05q.0015625-.0515625.05-.1L18.8 69v.35m11.6-33.7q.1046875.00234375.2.05-.05-.05-.1-.05h-.1z"/>
  <path fill="#FAC974" d="M17.9 35.2q.33085938.12089844.7.2-.1.35.2 1.05.0015625.0515625.05.1h.05q.9 0 1.75.05-1.35.35-1.85.75-.3.25-.3.55.05 1.3.05 1.45-.04160156.12460937.1 2.25.05761719.43339844.1.95h.05l1.85-.3q-.8.7-1.45 1.5l-.4.7q-.4.9-.45 1.85v1.05l.45 2.35.05.25q-.0484375.0484375-.05.1-.15.35-.25.75l-.2 1 .1 10.65q.25.1.9.1 1.1-.05 4 .4 1.65.25 2.9 1.05-1.25-.4-3.1-.7-2.75-.45-4.05-.45-.4 0-.65.1l.1 11.05.1 12.5q.24765625.05.7.05 1.1-.05 4 .4 1.65.25 2.9 1.05-1.25-.4-3.1-.7-2.75-.45-4.05-.45-.25371094 0-.45.05l.15 18.85v.05l.05-.05h5.9q3.7.4 6.75.25.30800781-.50058594.35-32 .05-9.3953125.05-21.55-.2-.05-.4-.05-2.2-.5-2.5-.55-.65-.1-2.05-.25.7-.1 1.3-.1 2.7.05 3.2.2.05 0 .05.05.4.1.45-.2 0-.3.15-1.8.15-1.55.1-3.1-.05-1.1-.7-1.4-.25-.1-.65-.1-1.3 0-4.05.45-1.85.3-3.1.7 1.25-.8 2.9-1.05 2.9-.45 4-.4.65 0 .9-.1.2-.05.2-.2-.05-.3 0-1.85.01777344-.55332031.05-1.1.03574219-.98535156.1-1.95v-.15q.05-1.25.1-2.65 0-.4-.3-.65.63046875-.44492188 1.05-1H17.9m12.7.5q-.0953125-.04765625-.2-.05h.1q.05 0 .1.05M18.85 69.25q-.0484375.0484375-.05.1V69l.05.25m-.05 19.5v-.35l.05.25q-.0484375.0484375-.05.1z"/>
  <path stroke="#900" stroke-width=".299988" stroke-linejoin="round" stroke-linecap="round" fill="none" d="M18.74331512 93.70718536q-.98775024 1.5569519.23658905 2.34011078"/>
  <path stroke="#900" stroke-width=".3" stroke-linejoin="round" stroke-linecap="round" fill="none" d="M19 97.2q-1.2 1.4-.1 2.35M19 100.2q-1.2 1.4-.1 2.35"/>
  <path stroke="#900" stroke-width=".299994" stroke-linejoin="round" stroke-linecap="round" fill="none" d="M18.89522934 103.1714775q-1.02206726 1.53468934.18462295 2.34483262"/>
  <path stroke="#FFF" stroke-width=".5" stroke-linejoin="round" stroke-linecap="round" fill="none" d="M27.3 47.3l-1.15-3.05"/>
  <path fill="#900" d="M27 42.6q0-.65-.55-1.1-.5-.45-1.25-.4-.6.05-1.05.6-.5.55-.45 1.2.1.65.6 1.1.55.45 1.2.4.2 0 .4-.05.05 0 .15-.05.35-.2.65-.5.45-.55.3-1.2z"/>
  <path fill="#FFF" fill-opacity=".29803922" d="M25.1 41.85q-.4.1-.7.45-.3.35-.25.7.05.45.4.75.35.3.75.2.15.05.2-.05.05.05.15 0 .2-.05.35-.25.3-.35.25-.85 0-.35-.35-.65-.35-.3-.8-.3z"/>
  <path stroke="#FFF" stroke-width=".5" stroke-linejoin="round" stroke-linecap="round" fill="none" d="M28.64126587 45.96530151l.42850647-3.23130493"/>
  <path fill="#900" d="M30.59882202 41.68186035q.30728607-.5727768.0353653-1.22932587-.22786103-.63291168-.91239472-.94341278-.55235443-.23958892-1.2089035.03233185-.70060883.24828339-.96383514.84469757-.21916657.62005158.00869445 1.25296326.27192078.65654907.86833496.9197754.17623902.09454955.37611542.14503936.04405975.02363739.15581665.02685242.40296784-.01077729.8091507-.13331147.65654907-.27192077.83165588-.91560974z"/>
  <path fill="#FFF" fill-opacity=".29803922" d="M29.27911224 40.12274323q-.3997528-.10097962-.82957306.06561431-.42982025.16659394-.55122222.4986496-.16867676.42017517-.00208283.84999542.16659393.42982025.56634674.53079987.10854187.11497192.1998764.0504898.02042237.06769715.13217927.07091218.1998764.0504898.42660522-.05483704.42982025-.16659393.6221344-.63082886.16546173-.30841827-.0011322-.73823852-.16659394-.42982025-.56313172-.64255676z"/>
  <path stroke="#FFF" stroke-width=".499985" stroke-linejoin="round" stroke-linecap="round" fill="none" d="M30.29985352 46.62503052l2.55145416-2.0284317"/>
  <path fill="#900" d="M34.68225403 44.90066833q.61877746-.19897918.87879486-.86031494.27532349-.61373748-.00186615-1.3124054-.23127136-.5558731-.89260712-.8158905-.67664184-.30761566-1.28011322-.0610382-.58816528.29417572-.86348877.9079132-.2600174.66133576-.01343994 1.26480713.06122437.19039307.170047.36548005.01530609.04759826.09351654.1274887.2975357.2719635.67496185.46571656.66133576.2600174 1.23419495-.0817566z"/>
  <path fill="#FFF" fill-opacity=".29803922" d="M34.81459656 42.86234283q-.21764527-.35017395-.64266968-.5286209-.42502441-.17844697-.74290619-.02370606-.4130783.18535309-.59152527.6103775-.17844696.42502442.0391983.77519837-.00167999.15810089.10882264.17508697-.03229218.06290436.04591827.1427948.10882263.17508698.34513397.25665741.42502442.17844696.885701-.02221222.33318786-.10714264.51163482-.53216705.17844696-.42502442.04069214-.85340882z"/>
  <path stroke="#900" stroke-width=".3" stroke-linejoin="round" stroke-linecap="round" fill="none" d="M19 35.5q-1.2 1.4-.1 2.35M19 38.5q-1.2 1.4-.1 2.35"/>
  <path stroke="#900" stroke-width=".299994" stroke-linejoin="round" stroke-linecap="round" fill="none" d="M18.89522934 41.4714775q-1.02206726 1.53468934.18462295 2.34483262"/>
  <path stroke="#900" stroke-width=".299991" stroke-linejoin="round" stroke-linecap="round" fill="none" d="M19.03740387 44.67724075q-1.45080261 1.13796387-.5580864 2.28488465"/>
  <path stroke="#900" stroke-width=".299988" stroke-linejoin="round" stroke-linecap="round" fill="none" d="M18.74331512 48.05718536q-.98775024 1.5569519.23658905 2.34011078M18.74331512 51.40718536q-.98775024 1.5569519.23658905 2.34011078"/>
  <path stroke="#900" stroke-width=".3" stroke-linejoin="round" stroke-linecap="round" fill="none" d="M19.15 37.3q5.07460938-2.24941406 12.65-1.1M19.05 36.6q5.25-1.7 12.8.05"/>
  <path stroke="#900" stroke-width=".3" stroke-linejoin="round" stroke-linecap="round" fill="none" d="M18.86803589 53q5.08606262-2.25 12.74033508-1.1M18.76732178 52.3q5.28749084-1.7 12.89140625.05" transform="matrix(1 0 0 1 .03449707 0)"/>
  <path stroke="#900" stroke-width=".3" stroke-linejoin="round" stroke-linecap="round" fill="none" d="M18.874292 69q5.08575439-2.25 12.73956298-1.1M18.77358398 68.3q5.28717041-1.7 12.890625.05" transform="matrix(1 0 0 1 .04189453 0)"/>
  <path stroke="#900" stroke-width=".3" stroke-linejoin="round" stroke-linecap="round" fill="none" d="M18.8805481 91q5.08544616-2.25 12.73879089-1.1M18.7798462 90.3q5.28684997-1.7 12.88984374.05" transform="matrix(1 0 0 1 .049292 0)"/>
  <path stroke="#900" stroke-width=".3" stroke-linejoin="round" stroke-linecap="round" fill="none" d="M19 54.8q-1.2 1.4-.1 2.35M19 57.8q-1.2 1.4-.1 2.35"/>
  <g>
    <path stroke="#900" stroke-width=".299994" stroke-linejoin="round" stroke-linecap="round" fill="none" d="M18.89522934 60.7714775q-1.02206726 1.53468934.18462295 2.34483262"/>
  </g>
  <g>
    <path stroke="#900" stroke-width=".299991" stroke-linejoin="round" stroke-linecap="round" fill="none" d="M19.03740387 63.97724075q-1.45080261 1.13796387-.5580864 2.28488465"/>
  </g>
  <g>
    <path stroke="#900" stroke-width=".299988" stroke-linejoin="round" stroke-linecap="round" fill="none" d="M18.74331512 67.35718536q-.98775024 1.5569519.23658905 2.34011078"/>
  </g>
  <g>
    <path stroke="#900" stroke-width=".299988" stroke-linejoin="round" stroke-linecap="round" fill="none" d="M18.74331512 70.70718536q-.98775024 1.5569519.23658905 2.34011078"/>
  </g>
  <g>
    <path stroke="#900" stroke-width=".3" stroke-linejoin="round" stroke-linecap="round" fill="none" d="M19 74.2q-1.2 1.4-.1 2.35"/>
  </g>
  <g>
    <path stroke="#900" stroke-width=".3" stroke-linejoin="round" stroke-linecap="round" fill="none" d="M19 77.2q-1.2 1.4-.1 2.35"/>
  </g>
  <g>
    <path stroke="#900" stroke-width=".299994" stroke-linejoin="round" stroke-linecap="round" fill="none" d="M18.89522934 80.1714775q-1.02206726 1.53468934.18462295 2.34483262"/>
  </g>
  <g>
    <path stroke="#900" stroke-width=".299991" stroke-linejoin="round" stroke-linecap="round" fill="none" d="M19.23740387 83.37724075q-1.45080261 1.13796387-.5580864 2.28488465"/>
  </g>
  <g>
    <path stroke="#900" stroke-width=".299988" stroke-linejoin="round" stroke-linecap="round" fill="none" d="M18.74331512 86.75718536q-.98775024 1.5569519.23658905 2.34011078"/>
  </g>
  <g>
    <path stroke="#900" stroke-width=".299988" stroke-linejoin="round" stroke-linecap="round" fill="none" d="M18.74331512 90.10718536q-.98775024 1.5569519.23658905 2.34011078"/>
  </g>
</svg>
