<svg xmlns="http://www.w3.org/2000/svg" preserveAspectRatio="none" viewBox="0 0 50 100">
  <path fill="#333" fill-opacity=".2" d="M30.25 21.85q-.1-1.15-2.7-1-2.55.1-2.8 1.4-.65-.3-1.55 0-1.35.4-2.05 1.3l-.1.1q-.69335938 3.66523438-.3 7.05-.00957031-.01484375-.05-.05-.04101562-.04707031-.1-.05-.05917969.00292969-.1.05l-.05.05q-.01992188-.02988281-.05-.05-.05 0-.1.05v-.05q.19179688-.45683594-.1-.7-.6-.45-2.05-.8-1.5-.35-2.4.25-.95.6-1.2 1.25-.05.15-.1.25-.15.45-.2.9l-.05.85q.1.3.25.6.05.1.15.25.2.35 1.85 1.7.79472656.63574219 1.4.65h.05v.05q.00292969.05898438.05.1.04082031.046875.1.05-.0296875.35722656.45.8 2.1 1.5 2.95 2.05.26367188.17578125.6.3h-.1q.3.1.65.2-.01035156.03652344-.05.05.00664062.17148438.05.35-.04453125.07128906-.1.1-.59082031.97089844 0 1.75v-.05l.05.05q-.05.12832031-.05.25.02363281.61386719.05.95-.09179688.16191406-.15.3v-.05q-.36875.85820313.05 1.5.08378906.12207031.15.2.04960937.26484375.05.55-.01425781.00859375-.05.05-.04707031.04082031-.05.1.00292969.05898438.05.1.01679688.03925781-.05.1-.63496094 1.2328125.15 2 .04726562.0515625.1.1v.65q-.08964844.20195313-.15.4-.12773437.12851563-.25.25-.68828125.834375-.2 1.7.04804688.08105469.1.1h.05v.45l.15.8q-.03242187.11054688-.1.15-.5859375 1.30097656.25 2-.04003906.25976563-.1.5l-.2 1q-.09921875.24804688-.15.45V57q-.00390625.025 0 .05.05527344.1640625.15.3v2.15q-.0828125.24121094-.1.45v.35q.02265625.24433594.1.45l.05 1.7q-.06503906.18769531-.1.35v.65q.02285156.20996094.1.4l.05 1.4q-.103125.26601563-.15.45v.65q-.00136719.07753906.05.2.05742187.0890625.1.15v1.65q-.03007812.10488281-.1.15-.69960938.89707031 0 1.85.06328125.0453125.1.05l.05 1.1q-.08652344.15019531-.15.3v1.5q.00292969.05898437.05.1.04941406.05.1.1v1.05q-.01894531.01425781-.05.05-.04707031.04082031-.05.1v.4q-.46640625.99550781 0 1.65.07089844.05820312.1.1l.05 1.15v.55q-.07246094.11328125-.15.2.00449219.06054687 0 .1v1.35q.00292969.05898437.05.1l.1.1v1.15q-.03203125.08359375-.1.15-.48300781.92421875 0 1.6v-.05q.06757813.11796875.1.2l.05.9q-.09277344.16367187-.15.3v1.45q-.00390625.05566406 0 .1.08535156.071875.15.15v1.4q-.03144531.10605469-.1.15-.58339844.9 0 1.75.06210938.08203125.1.1h.05v.75q-.1 0-.2-.05v.5q-.64394531 1.25195312.1 1.95.06699219.09121094.1.15v1.8q-.06660156.03339844-.1.1-.02382812.05 0 .1.03339844.06679687.1.1l.05 1.05v1.45h-.05q-.03867187.01835937-.1.05-.8515625 1.45097656.1 2.25.03476562.03554687.05.05v1.3q-.03027344.10195312-.1.15-.79589844 1.17519531.05 2.05.04023438.04648437.1.05v.7q-.06953125.11601562-.15.2-.79394531 1.17246094.1 2.1.03183594.03652344.05.05v.6q-.03847656.01796875-.1.05-.79453125 1.33398437.05 2.15.05.05273437.1.1v.3l.05-.05h.05q.05585938.03613281.05.05.04726562.08027344.1.1.0640625.01132812.1-.05.08046875.00292969.1-.05.00429687-.02519531 0-.05h5.5q3.7.4 6.75.25.20722656-.34550781.3-15.5.07929687.01074219.1-.05.08222656-.01171875.1-.1.0109375-.02929688-.05-.1-.01171875-.03203125-.1-.05-.00039063-.00527344-.05 0 .02460937-.07988281 0-.15.09335937.01054687.15-.05.04550781-.01308594.05-.1.01074219-.04316406-.05-.1-.01308594-.0453125-.1-.05h-.05q.07089844-6.55859375.1-15.75V56.45q-.13105469-.0328125-.25-.05v-.05q.01113281-.02871094-.05-.1-.01132813-.03183594-.1-.05v-.15q.05390625.00371094.1-.05.04550781-.01289063.05-.1.01054687-.04316406-.05-.1.00839844-.01992188-.05-.05.35585938.06542969.4-.2 0-.3.15-1.8.15-1.55.1-3.1-.02871094-.63476563-.25-1L37 48.8q.03652344-.03007813.05-.1.20371094.15976562.4.3.65.25 1.2-.1.65-.2.9-.9.3-.55 0-1.25-.2-.6-.85-.8-.7-.35-1.3-.1-.6.3-.85.9-.3.7-.05 1.25.05.2.15.4l-1.1.9q-.00546875-.02949219-.05-.05v-.5q.2-.05.2-.2-.05-.3 0-1.85 0-.55.05-1.1.05-1 .1-1.95v-.15q.05-1.25.1-2.65v-.05q.03964844.00273437.05-.05.08203125-.01171875.1-.1.0109375-.02910156-.05-.1-.01191406-.03203125-.1-.05-.02695312-.01113281-.1-.05-.01699219-.05117188-.1-.15h.05q.0453125-.01269531.05-.1.01054688-.04296875-.05-.1v-.05q.54960938-.36835938.9-.85h-.05q.17363281-.21523438.3-.45 0-.05.5-1.85.35-1.25.2-3.8 0-.4-.05-.8 0-1.35-.1-2.7-.1-.8-.15-1.4V28l.3-.9v.15q.75-.9 1.1-2.8.05722656-.34394531 0-.65.02226562-.0625 0-.15.0015625-.07597656-.05-.2.0140625-.00800781 0-.05l.15-.65q.35-.05.5-.65.3-1.05.1-2-.25-1.05-.9-1.25-.65-.25-.8-.25-.9 0-1.3.05l-.5.3q-.35.25-.6.5-.15.15-.4.85v.05l-.05.1q-.1.3-.2.7-.2.6-.2.95v.15l.05.05q0 .1.05.15l-.05.2q-.05.05-.05.1-.2.25-.4.55l-.05.15q-.05-.1-.05-.15-.35-1.4-2.4-1.55-.95-.05-1.35.1M22.7 40.2q.04453125.12050781.1.25v.9q-.03183594.0265625-.05.05-.40292969-.5453125-.05-1.2m0 5.9q.02714844.22109375.05.45h.05v.8q-.40605469-.49296875-.1-1.25m-.35 4.25q-.08496094-.34042969.05-.7-.03320312.32988281-.05.65v.05m.45 3.35v.3q-.53925781-.48535156-.2-1.35l.2 1.05m-.1 45.9q-.47402344-.58144531 0-1.5v1.5m.05 8.05l.05 1.4q-.43164063-.54140625-.05-1.4m0-1.45q-.43125-.63964844 0-1.4v1.4m0-3.05q-.4296875-.56660156-.05-1.3l.05 1.3z"/>
  <path fill="#855011" d="M32.85 21.9h-.1q.15.3.3.65l.05.05q.05.05.05.1.05.2.1.75.1.3.1.55l.3-.9q-.2-.75-.8-1.2m-2.3-3.25l.1-.2h-.05l-.05.2m2-.6q-.75 0-1 .05 1.5.05 2.4.55.55.3.75.75l.15-.65q-.25.05-.55-.15-.75-.55-1.75-.55m-1.95 17.6q-.05-.05-.1-.05h-.1q.1046875.00234375.2.05z"/>
  <path fill="#FAC974" d="M17.15 19.55l-.1.1q-.7 3.7-.3 7.15-.2-.05-.35-.15-.05 0-.1.05.2-.5-.1-.75-.6-.45-2.05-.8-1.5-.35-2.4.25-.95.6-1.2 1.25-.05.15-.1.25-.15.45-.2.9l-.05.85q.1.3.25.6.05.1.15.25.2.35 1.85 1.7 1 .8 1.7.65-.3.4.35 1 2.1 1.5 2.95 2.05.45.3 1.15.45-.06035156.21132812 0 .55 6.7 4.55136719 13.35 0 .640625-.51113281 1-1.15 0-.05.5-1.85.35-1.25.2-3.8 0-.4-.05-.8 0-1.35-.1-2.7-.1-.8-.15-1.4V24q0-.25-.1-.55-.05-.55-.1-.75 0-.05-.05-.1l-.05-.05q-.15-.35-.3-.65h.1q.6.45.8 1.2v.15q.75-.9 1.1-2.8.1-.6-.05-1.05-.2-.45-.75-.75-.9-.5-2.4-.55.25-.05 1-.05 1 0 1.75.55.3.2.55.15.35-.05.5-.65.3-1.05.1-2-.25-1.05-.9-1.25-.65-.25-.8-.25-.9 0-1.3.05l-.5.3q-.35.25-.6.5-.15.15-.4.85v.05l-.05.1q-.1.3-.2.7-.2.6-.2.95v.15l.05.05q0 .1.05.15h.05l-.1.2q-.05.05-.05.1-.2.25-.4.55l-.05.15q-.05-.1-.05-.15-.35-1.4-2.4-1.55-.95-.05-1.35.1-.1-1.15-2.7-1-2.55.1-2.8 1.4-.65-.3-1.55 0-1.35.4-2.05 1.3M30.5 35.6q.05 0 .1.05-.0953125-.04765625-.2-.05h.1z"/>
  <path fill="#855011" d="M21.5865715 31.68821487q.23801117.48078385.23342438 2.08393631.0135788.03510743-.00717163.11604233-.2734871-.03416824-.49906616-.07905655.14037475-1.25207824.06874923-2.51393738.06110459.1579834.20406418.3930153zM23.1365715 31.53821487q.23801117.48078385.23342438 2.08393631.0135788.03510743-.00717163.11604233-.2734871-.03416824-.49906616-.07905655.14037475-1.25207824.06874923-2.51393738.06110459.1579834.20406418.3930153zM24.6365715 31.13821487q.23801117.48078385.23342438 2.08393631.0135788.03510743-.00717163.11604233-.2734871-.03416824-.49906616-.07905655.14037475-1.25207824.06874923-2.51393738.06110459.1579834.20406418.3930153z"/>
  <path fill="#855011" d="M21.05 33q1.45.05 5.05-.55.1 0 .25-.05-.5-.25-.95-.45-2.6.6-5.55 1 .45 0 1.2.05zM33.1 22.6q-.04804688-.39199219-.25-.75-.06679688.04433594-.2 0-.6-.2-3.4.3-1.29394531.23105469-2.6.6-.21425781.15859375-.45.3 2.05410156-.31542969 4.4-.55 2.14765625-.26308594 2.5.1z"/>
  <path fill="#855011" d="M28.3365715 21.48821487q.23801117.48078385.23342438 2.08393631.0135788.03510743-.00717163.11604233-.2734871-.03416824-.49906616-.07905655.14037475-1.25207824.06874923-2.51393738.06110459.1579834.20406418.3930153zM29.8865715 21.33821487q.23801117.48078385.23342438 2.08393631.0135788.03510743-.00717163.11604233-.2734871-.03416824-.49906616-.07905655.14037475-1.25207824.06874923-2.51393738.06110459.1579834.20406418.3930153zM31.3865715 20.93821487q.23801117.48078385.23342438 2.08393631.0135788.03510743-.00717163.11604233-.2734871-.03416824-.49906616-.07905655.14037475-1.25207824.06874923-2.51393738.06110459.1579834.20406418.3930153z"/>
  <path stroke="#900" stroke-width=".3" stroke-linejoin="round" stroke-linecap="round" fill="none" d="M30.75520325 19.43976135q2.0732605-1.25195617 4.24086456.15319367M30.87049866 18.92465515q2.02116241-.83810272 4.0469223.99836579" transform="matrix(1 0 0 1 .00776367 -.01744995)"/>
  <path stroke="#900" stroke-width=".3" stroke-linejoin="round" stroke-linecap="round" fill="none" d="M13.85 31.9q-.05-2.95 2.75-5.15M14.3 32.1q-.45-3 1.95-5.45"/>
  <path fill="#855011" d="M33.1 22.6q-.04804688-.39199219-.25-.75-.06679688.04433594-.2 0-.6-.2-3.4.3-1.29394531.23105469-2.6.6-.21425781.15859375-.45.3 2.05410156-.31542969 4.4-.55 2.14765625-.26308594 2.5.1z"/>
  <path fill="#855011" d="M28.3365715 21.48821487q.23801117.48078385.23342438 2.08393631.0135788.03510743-.00717163.11604233-.2734871-.03416824-.49906616-.07905655.14037475-1.25207824.06874923-2.51393738.06110459.1579834.20406418.3930153zM29.8865715 21.33821487q.23801117.48078385.23342438 2.08393631.0135788.03510743-.00717163.11604233-.2734871-.03416824-.49906616-.07905655.14037475-1.25207824.06874923-2.51393738.06110459.1579834.20406418.3930153zM31.3865715 20.93821487q.23801117.48078385.23342438 2.08393631.0135788.03510743-.00717163.11604233-.2734871-.03416824-.49906616-.07905655.14037475-1.25207824.06874923-2.51393738.06110459.1579834.20406418.3930153z"/>
  <path fill="#D9831C" d="M18.45 86.95q.09140625-.03652344.2-.05.19628906-.05.45-.05 1.3 0 4.05.45 1.85.3 3.1.7-1.25-.8-2.9-1.05-2.9-.45-4-.4-.45234375 0-.7-.05-.12402344-.01953125-.2-.05v.5M26.25 64q-1.25-.8-2.9-1.05-2.9-.45-4-.4-.65 0-.9-.1v.5q.25-.1.65-.1 1.3 0 4.05.45 1.85.3 3.1.7m5.25-12.25q0-.05-.05-.05-.5-.15-3.2-.2-.6 0-1.3.1 1.4.15 2.05.25.3.05 2.5.55v-.65m-7.8-5.45q1.25-.4 3.1-.7 2.75-.45 4.05-.45.4 0 .65.1v-.5q-.25.1-.9.1-1.1-.05-4 .4-1.65.25-2.9 1.05m-4.9-1.85l.4-.7q.65-.8 1.45-1.5l-1.85.3v1.9m.05-7.9q-.0484375-.0484375-.05-.1v.9q.5-.4 1.85-.75-.85-.05-1.75-.05h-.05z"/>
  <path fill="#855011" d="M18.8 50.05q.0015625-.0515625.05-.1l-.05-.25v.35m0 38.7q.0015625-.0515625.05-.1l-.05-.25v.35m.05-19.5L18.8 69v.35q.0015625-.0515625.05-.1m11.55-33.6q.1046875.00234375.2.05-.05-.05-.1-.05h-.1z"/>
  <path fill="#FAC974" d="M18.8 36.45q.0015625.0515625.05.1h.05q.9 0 1.75.05-1.35.35-1.85.75-.3.25-.3.55.05 1.3.05 1.45-.04160156.12460937.1 2.25.05761719.43339844.1.95h.05l1.85-.3q-.8.7-1.45 1.5l-.4.7q-.4.9-.45 1.85v1.05l.45 2.35.05.25q-.0484375.0484375-.05.1-.15.35-.25.75l-.2 1 .1 10.65q.25.1.9.1 1.1-.05 4 .4 1.65.25 2.9 1.05-1.25-.4-3.1-.7-2.75-.45-4.05-.45-.4 0-.65.1l.1 11.05.1 12.5q.24765625.05.7.05 1.1-.05 4 .4 1.65.25 2.9 1.05-1.25-.4-3.1-.7-2.75-.45-4.05-.45-.25371094 0-.45.05l.15 18.85v.05l.05-.05h5.9q3.7.4 6.75.25.30800781-.50058594.35-32 .05-9.3953125.05-21.55-.2-.05-.4-.05-2.2-.5-2.5-.55-.65-.1-2.05-.25.7-.1 1.3-.1 2.7.05 3.2.2.05 0 .05.05.4.1.45-.2 0-.3.15-1.8.15-1.55.1-3.1-.05-1.1-.7-1.4-.25-.1-.65-.1-1.3 0-4.05.45-1.85.3-3.1.7 1.25-.8 2.9-1.05 2.9-.45 4-.4.65 0 .9-.1.2-.05.2-.2-.05-.3 0-1.85.01777344-.55332031.05-1.1.03574219-.98535156.1-1.95v-.15q.05-1.25.1-2.65 0-.4-.3-.65.63046875-.44492188 1.05-1H17.9q.33085938.12089844.7.2-.1.35.2 1.05m11.8-.75q-.0953125-.04765625-.2-.05h.1q.05 0 .1.05M18.8 69l.05.25q-.0484375.0484375-.05.1V69m.05 19.65q-.0484375.0484375-.05.1v-.35l.05.25z"/>
  <path stroke="#900" stroke-width=".299988" stroke-linejoin="round" stroke-linecap="round" fill="none" d="M18.74331512 93.70718536q-.98775024 1.5569519.23658905 2.34011078"/>
  <path stroke="#900" stroke-width=".3" stroke-linejoin="round" stroke-linecap="round" fill="none" d="M19 97.2q-1.2 1.4-.1 2.35M19 100.2q-1.2 1.4-.1 2.35"/>
  <path stroke="#900" stroke-width=".299994" stroke-linejoin="round" stroke-linecap="round" fill="none" d="M18.89522934 103.1714775q-1.02206726 1.53468934.18462295 2.34483262"/>
  <path stroke="#FFF" stroke-width=".5" stroke-linejoin="round" stroke-linecap="round" fill="none" d="M27.3 47.3l-1.15-3.05"/>
  <path fill="#900" d="M27 42.6q0-.65-.55-1.1-.5-.45-1.25-.4-.6.05-1.05.6-.5.55-.45 1.2.1.65.6 1.1.55.45 1.2.4.2 0 .4-.05.05 0 .15-.05.35-.2.65-.5.45-.55.3-1.2z"/>
  <path fill="#FFF" fill-opacity=".29803922" d="M25.1 41.85q-.4.1-.7.45-.3.35-.25.7.05.45.4.75.35.3.75.2.15.05.2-.05.05.05.15 0 .2-.05.35-.25.3-.35.25-.85 0-.35-.35-.65-.35-.3-.8-.3z"/>
  <path stroke="#FFF" stroke-width=".5" stroke-linejoin="round" stroke-linecap="round" fill="none" d="M28.64126587 45.96530151l.42850647-3.23130493"/>
  <path fill="#900" d="M30.59882202 41.68186035q.30728607-.5727768.0353653-1.22932587-.22786103-.63291168-.91239472-.94341278-.55235443-.23958892-1.2089035.03233185-.70060883.24828339-.96383514.84469757-.21916657.62005158.00869445 1.25296326.27192078.65654907.86833496.9197754.17623902.09454955.37611542.14503936.04405975.02363739.15581665.02685242.40296784-.01077729.8091507-.13331147.65654907-.27192077.83165588-.91560974z"/>
  <path fill="#FFF" fill-opacity=".29803922" d="M29.27911224 40.12274323q-.3997528-.10097962-.82957306.06561431-.42982025.16659394-.55122222.4986496-.16867676.42017517-.00208283.84999542.16659393.42982025.56634674.53079987.10854187.11497192.1998764.0504898.02042237.06769715.13217927.07091218.1998764.0504898.42660522-.05483704.42982025-.16659393.6221344-.63082886.16546173-.30841827-.0011322-.73823852-.16659394-.42982025-.56313172-.64255676z"/>
  <path stroke="#FFF" stroke-width=".499985" stroke-linejoin="round" stroke-linecap="round" fill="none" d="M30.29985352 46.62503052l2.55145416-2.0284317"/>
  <path fill="#900" d="M34.68225403 44.90066833q.61877746-.19897918.87879486-.86031494.27532349-.61373748-.00186615-1.3124054-.23127136-.5558731-.89260712-.8158905-.67664184-.30761566-1.28011322-.0610382-.58816528.29417572-.86348877.9079132-.2600174.66133576-.01343994 1.26480713.06122437.19039307.170047.36548005.01530609.04759826.09351654.1274887.2975357.2719635.67496185.46571656.66133576.2600174 1.23419495-.0817566z"/>
  <path fill="#FFF" fill-opacity=".29803922" d="M34.81459656 42.86234283q-.21764527-.35017395-.64266968-.5286209-.42502441-.17844697-.74290619-.02370606-.4130783.18535309-.59152527.6103775-.17844696.42502442.0391983.77519837-.00167999.15810089.10882264.17508697-.03229218.06290436.04591827.1427948.10882263.17508698.34513397.25665741.42502442.17844696.885701-.02221222.33318786-.10714264.51163482-.53216705.17844696-.42502442.04069214-.85340882z"/>
  <path stroke="#900" stroke-width=".3" stroke-linejoin="round" stroke-linecap="round" fill="none" d="M19 35.5q-1.2 1.4-.1 2.35M19 38.5q-1.2 1.4-.1 2.35"/>
  <path stroke="#900" stroke-width=".299994" stroke-linejoin="round" stroke-linecap="round" fill="none" d="M18.89522934 41.4714775q-1.02206726 1.53468934.18462295 2.34483262"/>
  <path stroke="#900" stroke-width=".299991" stroke-linejoin="round" stroke-linecap="round" fill="none" d="M19.03740387 44.67724075q-1.45080261 1.13796387-.5580864 2.28488465"/>
  <path stroke="#900" stroke-width=".299988" stroke-linejoin="round" stroke-linecap="round" fill="none" d="M18.74331512 48.05718536q-.98775024 1.5569519.23658905 2.34011078M18.74331512 51.40718536q-.98775024 1.5569519.23658905 2.34011078"/>
  <path stroke="#900" stroke-width=".3" stroke-linejoin="round" stroke-linecap="round" fill="none" d="M19.15 37.3q5.07460938-2.24941406 12.65-1.1M19.05 36.6q5.25-1.7 12.8.05"/>
  <path stroke="#900" stroke-width=".3" stroke-linejoin="round" stroke-linecap="round" fill="none" d="M18.86803589 53q5.08606262-2.25 12.74033508-1.1M18.76732178 52.3q5.28749084-1.7 12.89140625.05" transform="matrix(1 0 0 1 .03449707 0)"/>
  <path stroke="#900" stroke-width=".3" stroke-linejoin="round" stroke-linecap="round" fill="none" d="M18.874292 69q5.08575439-2.25 12.73956298-1.1M18.77358398 68.3q5.28717041-1.7 12.890625.05" transform="matrix(1 0 0 1 .04189453 0)"/>
  <path stroke="#900" stroke-width=".3" stroke-linejoin="round" stroke-linecap="round" fill="none" d="M18.8805481 91q5.08544616-2.25 12.73879089-1.1M18.7798462 90.3q5.28684997-1.7 12.88984374.05" transform="matrix(1 0 0 1 .049292 0)"/>
  <path stroke="#900" stroke-width=".3" stroke-linejoin="round" stroke-linecap="round" fill="none" d="M19 54.8q-1.2 1.4-.1 2.35M19 57.8q-1.2 1.4-.1 2.35"/>
  <path stroke="#900" stroke-width=".299994" stroke-linejoin="round" stroke-linecap="round" fill="none" d="M18.89522934 60.7714775q-1.02206726 1.53468934.18462295 2.34483262"/>
  <g>
    <path stroke="#900" stroke-width=".299991" stroke-linejoin="round" stroke-linecap="round" fill="none" d="M19.03740387 63.97724075q-1.45080261 1.13796387-.5580864 2.28488465"/>
  </g>
  <g>
    <path stroke="#900" stroke-width=".299988" stroke-linejoin="round" stroke-linecap="round" fill="none" d="M18.74331512 67.35718536q-.98775024 1.5569519.23658905 2.34011078"/>
  </g>
  <g>
    <path stroke="#900" stroke-width=".299988" stroke-linejoin="round" stroke-linecap="round" fill="none" d="M18.74331512 70.70718536q-.98775024 1.5569519.23658905 2.34011078"/>
  </g>
  <g>
    <path stroke="#900" stroke-width=".3" stroke-linejoin="round" stroke-linecap="round" fill="none" d="M19 74.2q-1.2 1.4-.1 2.35"/>
  </g>
  <g>
    <path stroke="#900" stroke-width=".3" stroke-linejoin="round" stroke-linecap="round" fill="none" d="M19 77.2q-1.2 1.4-.1 2.35"/>
  </g>
  <g>
    <path stroke="#900" stroke-width=".299994" stroke-linejoin="round" stroke-linecap="round" fill="none" d="M18.89522934 80.1714775q-1.02206726 1.53468934.18462295 2.34483262"/>
  </g>
  <g>
    <path stroke="#900" stroke-width=".299991" stroke-linejoin="round" stroke-linecap="round" fill="none" d="M19.23740387 83.37724075q-1.45080261 1.13796387-.5580864 2.28488465"/>
  </g>
  <g>
    <path stroke="#900" stroke-width=".299988" stroke-linejoin="round" stroke-linecap="round" fill="none" d="M18.74331512 86.75718536q-.98775024 1.5569519.23658905 2.34011078"/>
  </g>
  <g>
    <path stroke="#900" stroke-width=".299988" stroke-linejoin="round" stroke-linecap="round" fill="none" d="M18.74331512 90.10718536q-.98775024 1.5569519.23658905 2.34011078"/>
  </g>
</svg>
