<svg xmlns="http://www.w3.org/2000/svg" preserveAspectRatio="none" viewBox="0 0 50 100">
  <path fill="#333" fill-opacity=".2" d="M42.7 23.95q-.2-.1-.45-.15-1.45-.1-1.8-.1l-.2-.65q-.3-.95-2.75-1.2-1.15-.1-2.3-.05 0-.35-.1-.5-.05-.2-.45-.35-.5-.25-1-.3-.7-.1-2.45-.1-1.8 0-2.45.1-.2 0-.35.1l-.6-6.15q-.6-1.5-2-1.4-1.45.05-2.85.25-1.4.15-1.95 1.1-.35.5-.35.95l1.85 11.05q.55 2.95.95 4.4l2.35.55h-2.35q.65 1.2.9 1.35-.15 2.2.05 7.25v64.85h18.4v-64.7q1.15-.35 1.85-1.85.25-.45.35-1l.15-.45V25.9q0-1-1.45-1.55-.4-.25-1-.4z"/>
  <path fill="#66AD34" d="M41.65 33.45V22.4q0-1-1.45-1.55-.4-.25-1-.4-.2-.1-.45-.15-1.45-.1-1.8-.1l-.2-.65q-.3-.95-2.75-1.2-1.15-.1-2.3-.05 0-.35-.1-.5-.05-.2-.45-.35-.5-.25-1-.3-.7-.1-2.45-.1-1.8 0-2.45.1-.5.05-.9.3-.2.15-.25.4-.1.1-.1.2l-.35 1.45V28h-3.7q.65 1.2.9 1.35-.15 2.2.05 7.25v64.85h18.4v-64.7q1.15-.35 1.85-1.85.25-.45.35-1l.15-.45z"/>
  <path fill="#66AD34" d="M22.3 9.7q-1.45.05-2.85.25-1.4.15-1.95 1.1-.35.5-.35.95L19 23.05q.55 2.95.95 4.4l3.6.85 1.95-8.25-.3.65-.9-9.6q-.6-1.5-2-1.4z"/>
  <path fill="#333" fill-opacity=".48627451" d="M23.16019135 10.90019531q-2.73075715-.45423889-5.1354248.87130738l.58464278 3.16262664q2.30638123-.67197876 5.1354248-.87130737l-.58464278-3.16262665z"/>
  <path fill="#66AD34" d="M23.55 20.05q-1.65.2-2.5.4-1.25.35-1.55 1.35-.1.3-.15.9-.15 1.1-.15 3.15-.05.55 0 1.15 0 .45.05.9L16 26.3q-1.65-.9-2.85-.8-1.2.1-1.7.9-.55.8-.95 1.6-.4.75-.2 1.55.15.8 1.1 1.25l10.2 4.95h2q3.27832031-7.353125 0-15.7h-.05z"/>
  <path fill="#333" fill-opacity=".48627451" d="M12.7 26.15q-1.65 1.5-1.85 3.65l2.6 1.2q.6-1.8 1.85-3.75l-2.6-1.1z"/>
  <path stroke="#333" stroke-opacity=".49803922" stroke-width=".5" stroke-linejoin="round" stroke-linecap="round" fill="none" d="M23.9 32.6l10.45-5.15M25.3 30.75l.8 1.7m.65-2.3l.8 1.7m.75-2.4l.8 1.7m.7-2.5l.8 1.7m.85-2.4l.8 1.7"/>
  <path fill="#0F5935" fill-opacity=".2" d="M37.05 46.55184784h-1.2q-.75 0-.75.53199615v2.62198105q0 .53199616.75.53199616h1.2q.7 0 .7-.53199616V47.083844q0-.53199615-.7-.53199615zM34.05 48.07183685h-1.2q-.75 0-.75.53199616v2.62198105q0 .53199615.75.53199615h1.2q.7 0 .7-.53199615V48.603833q0-.53199616-.7-.53199616zM37.05 50.50381927h-1.2q-.75 0-.75.53199616v2.62198105q0 .53199615.75.53199615h1.2q.7 0 .7-.53199615v-2.62198105q0-.53199616-.7-.53199616zM24.05 41.05184784h-1.2q-.75 0-.75.53199615v2.62198105q0 .53199616.75.53199616h1.2q.7 0 .7-.53199616V41.583844q0-.53199615-.7-.53199615zM24.05 45.07183685h-1.2q-.75 0-.75.53199616v2.62198105q0 .53199615.75.53199615h1.2q.7 0 .7-.53199615V45.603833q0-.53199616-.7-.53199616zM24.05 49.00381927h-1.2q-.75 0-.75.53199616v2.62198105q0 .53199615.75.53199615h1.2q.7 0 .7-.53199615v-2.62198105q0-.53199616-.7-.53199616zM37.05 79.55184784h-1.2q-.75 0-.75.53199615v2.62198105q0 .53199616.75.53199616h1.2q.7 0 .7-.53199616V80.083844q0-.53199615-.7-.53199615zM34.05 81.07183685h-1.2q-.75 0-.75.53199616v2.62198105q0 .53199615.75.53199615h1.2q.7 0 .7-.53199615V81.603833q0-.53199616-.7-.53199616zM37.05 83.50381927h-1.2q-.75 0-.75.53199616v2.62198105q0 .53199615.75.53199615h1.2q.7 0 .7-.53199615v-2.62198105q0-.53199616-.7-.53199616zM24.05 74.05184784h-1.2q-.75 0-.75.53199615v2.62198105q0 .53199616.75.53199616h1.2q.7 0 .7-.53199616V74.583844q0-.53199615-.7-.53199615zM24.05 78.07183685h-1.2q-.75 0-.75.53199616v2.62198105q0 .53199615.75.53199615h1.2q.7 0 .7-.53199615V78.603833q0-.53199616-.7-.53199616zM24.05 82.00381927h-1.2q-.75 0-.75.53199616v2.62198105q0 .53199615.75.53199615h1.2q.7 0 .7-.53199615v-2.62198105q0-.53199616-.7-.53199616z"/>
</svg>
