<svg xmlns="http://www.w3.org/2000/svg" preserveAspectRatio="none" viewBox="0 0 50 100">
  <path fill="#333" fill-opacity=".2" d="M41.5 16.9q.15-.85-.55-1.6-.8-.7-2.05-.8l-.45-.05q-1.9-.3-2.6.3-.75.55-.85 1.45l-1.3 6.05h-.65l-.1-7.85q-.05-1.1-1.1-1.4-1.05-.35-2.4-.25H29q-1.85.05-2.45.7-.6.65-.5 1.5l.4 7.3h-1.2l-2.4-6.2q-.4-.85-1.4-1-1.05-.2-3.85 1l.35-.1q-.65.25-1.1.8-.6.75-.25 1.6l3.9 9.05q-.62011719.23007813-1.1.65-.35.35-.5.7-.15878906.68847656-.25 1.35l-.3-.15q-1.65-.9-2.85-.8-1.2.1-1.7.9-.55.8-.95 1.6-.4.75-.2 1.55.15.8 1.1 1.25l8.8 4.25q.82988281.74355469 1.7 1.2l.05.25V60h.1v44.95h18.4v-64.7q1.15-.35 1.85-1.85.25-.45.35-1l.15-.45v-8.2q.02324219-.00976563.05-.05l2.65-6.5q.4-.85-.2-1.65-.6-.8-1.7-1.25-1.15-.45-2.2-.2-1.05.2-1.75 1.95l-1.1 2.65h-.45l-.2-.65q-.02011719-.06347656-.05-.15l1.3-6z"/>
  <path fill="#66AD34" d="M44.5 19.2q.4-.85-.2-1.65-.6-.8-1.7-1.25-1.15-.45-2.2-.2-1.05.2-1.75 1.95L37.2 21.6q-.35-.05-.7-.05l1.65-7.65q.15-.85-.55-1.6-.8-.7-2.05-.8l-.45-.05q-1.9-.3-2.6.3-.75.55-.85 1.45l-1.75 8.2h-.15l-.15-10q-.05-1.1-1.1-1.4-1.05-.35-2.4-.25h-.45q-1.85.05-2.45.7-.6.65-.5 1.5l.5 9.4q-.25 0-.45.05l-3.25-8.35q-.4-.85-1.4-1-1.05-.2-3.85 1l.35-.1q-.65.25-1.1.8-.6.75-.25 1.6l4 9.3q0 .1.05.2l1.2 3.8-3.5-1.7q-1.65-.9-2.85-.8-1.2.1-1.7.9-.55.8-.95 1.6-.4.75-.2 1.55.15.8 1.1 1.25l10.4 5.05.15.65V57H39.3V37.25q1.15-.3 1.9-1.8.2-.5.35-1l.15-.45v-8q.05-.15.15-.3l2.65-6.5z"/>
  <path fill="#333" fill-opacity=".48627451" d="M23.4021164 10.95677032l.06724243 3.2154419q2.38449707-.29135742 5.20863342-.03199768l-.06724243-3.2154419q-2.62179566-.88851928-5.20863343.03199768zM13.6810669 14.6805603l1.22807998 2.97258377q2.11682434-1.13587341 4.84300842-1.917807l-1.22807998-2.97258377q-2.76562958.1221817-4.84300843 1.917807zM32.61206207 12.18258362l-.66709594 3.06389236q2.32546386.26568909 4.94230651 1.15343933l.66709595-3.06389236q-2.282135-1.43827972-4.94230652-1.15343933zM40.04269867 16.43053894l-1.17872315 2.55527039q1.98745118.68411865 4.10981751 1.96986694l1.17872314-2.55527039q-1.72219848-1.70319213-4.1098175-1.96986694zM9.79750977 30.34223938l2.5811409 1.16520996q.62433166-1.8040039 1.84443664-3.71260376l-2.5811409-1.16520996q-1.647789 1.52750244-1.84443664 3.71260376z"/>
  <path fill="#66AD34" d="M20.85 35.6q.0296875.48515625.05 1v64.85h18.4v-64.7q.85195313-.259375 1.45-1.15h-19.9z"/>
  <path stroke="#333" stroke-opacity=".49803922" stroke-width=".5" stroke-linejoin="round" stroke-linecap="round" fill="none" d="M23.9 32.6l10.45-5.15M31.45 27.95l.8 1.7m-2.45-1l.8 1.7m-2.3-.9l.8 1.7m-2.35-1l.8 1.7m-2.25-1.1l.8 1.7"/>
  <path fill="#0F5935" fill-opacity=".2" d="M37.05 46.55184784h-1.2q-.75 0-.75.53199615v2.62198105q0 .53199616.75.53199616h1.2q.7 0 .7-.53199616V47.083844q0-.53199615-.7-.53199615zM34.05 48.07183685h-1.2q-.75 0-.75.53199616v2.62198105q0 .53199615.75.53199615h1.2q.7 0 .7-.53199615V48.603833q0-.53199616-.7-.53199616zM37.05 50.50381927h-1.2q-.75 0-.75.53199616v2.62198105q0 .53199615.75.53199615h1.2q.7 0 .7-.53199615v-2.62198105q0-.53199616-.7-.53199616zM24.05 41.05184784h-1.2q-.75 0-.75.53199615v2.62198105q0 .53199616.75.53199616h1.2q.7 0 .7-.53199616V41.583844q0-.53199615-.7-.53199615zM24.05 45.07183685h-1.2q-.75 0-.75.53199616v2.62198105q0 .53199615.75.53199615h1.2q.7 0 .7-.53199615V45.603833q0-.53199616-.7-.53199616zM24.05 49.00381927h-1.2q-.75 0-.75.53199616v2.62198105q0 .53199615.75.53199615h1.2q.7 0 .7-.53199615v-2.62198105q0-.53199616-.7-.53199616zM35.85 79.55184784q-.75 0-.75.53199615v2.62198105q0 .53199616.75.53199616h1.2q.7 0 .7-.53199616V80.083844q0-.53199615-.7-.53199615h-1.2zM32.85 81.07183685q-.75 0-.75.53199616v2.62198105q0 .53199615.75.53199615h1.2q.7 0 .7-.53199615V81.603833q0-.53199616-.7-.53199616h-1.2zM35.85 83.50381927q-.75 0-.75.53199616v2.62198105q0 .53199615.75.53199615h1.2q.7 0 .7-.53199615v-2.62198105q0-.53199616-.7-.53199616h-1.2zM22.85 74.05184784q-.75 0-.75.53199615v2.62198105q0 .53199616.75.53199616h1.2q.7 0 .7-.53199616V74.583844q0-.53199615-.7-.53199615h-1.2zM22.85 78.07183685q-.75 0-.75.53199616v2.62198105q0 .53199615.75.53199615h1.2q.7 0 .7-.53199615V78.603833q0-.53199616-.7-.53199616h-1.2zM22.85 82.00381927q-.75 0-.75.53199616v2.62198105q0 .53199615.75.53199615h1.2q.7 0 .7-.53199615v-2.62198105q0-.53199616-.7-.53199616h-1.2z"/>
</svg>
