<svg xmlns="http://www.w3.org/2000/svg" preserveAspectRatio="none" viewBox="0 0 50 100">
  <path fill="#333" fill-opacity=".2" d="M43.6 24.2q-.43964844-.15703125-.9-.25-.2-.1-.45-.15-1.45-.1-1.8-.1l-.2-.65q-.15625-.49492187-.9-.8H19.3l2.1 5q-1.2.1-2 .8-.35.35-.5.7-1.05 4.55 2.1 8.35 1.55 1.9 3.3 2.85V59.8h.1v45.15h18.4v-64.7q1.15-.35 1.85-1.85.25-.45.35-1l.15-.45V25.9q0-.42636719-.3-.8-.28710938-.53476563-1.25-.9z"/>
  <path fill="#66AD34" d="M41.6 34.05l.05-.45v-9.55q0-1.05-1.45-1.75-.4-.25-1-.4-.2-.1-.45-.15-1.45-.1-1.8-.1l-.2-.65q-.3-.95-2.75-1.2-1.15-.1-2.3-.05 0-.35-.1-.5-.05-.2-.45-.35-.5-.25-1-.3-.7-.1-2.45-.1-1.8 0-2.45.1-.5.05-.9.3-.2.15-.25.4-.1.1-.1.2l-1.45.1q-1.65.2-2.5.4-1.25.35-1.75 1.6-.2.6-.3 1.15v1.3q-1.25.05-1.95.8-.45.35-.6.7-1 4.55 2.2 8.3 1.5 1.9 3.3 2.9V56.6h18.4V36.85q1.1-.3 1.8-1.8.3-.5.45-1z"/>
  <path fill="#66AD34" d="M20.85 35.6q.0296875.48515625.05 1v64.85h18.4v-64.7q.85195313-.259375 1.45-1.15h-19.9z"/>
  <path stroke="#333" stroke-opacity=".49803922" stroke-width=".5" stroke-linejoin="round" stroke-linecap="round" fill="none" d="M23.9 32.6l10.45-5.15M25.3 30.75l.8 1.7m.65-2.3l.8 1.7m.75-2.4l.8 1.7m.7-2.5l.8 1.7m.85-2.4l.8 1.7"/>
  <path fill="#0F5935" fill-opacity=".2" d="M35.85 46.55184784q-.75 0-.75.53199615v2.62198105q0 .53199616.75.53199616h1.2q.7 0 .7-.53199616V47.083844q0-.53199615-.7-.53199615h-1.2zM32.85 48.07183685q-.75 0-.75.53199616v2.62198105q0 .53199615.75.53199615h1.2q.7 0 .7-.53199615V48.603833q0-.53199616-.7-.53199616h-1.2zM35.85 50.50381927q-.75 0-.75.53199616v2.62198105q0 .53199615.75.53199615h1.2q.7 0 .7-.53199615v-2.62198105q0-.53199616-.7-.53199616h-1.2zM22.85 41.05184784q-.75 0-.75.53199615v2.62198105q0 .53199616.75.53199616h1.2q.7 0 .7-.53199616V41.583844q0-.53199615-.7-.53199615h-1.2zM22.85 45.07183685q-.75 0-.75.53199616v2.62198105q0 .53199615.75.53199615h1.2q.7 0 .7-.53199615V45.603833q0-.53199616-.7-.53199616h-1.2zM22.85 49.00381927q-.75 0-.75.53199616v2.62198105q0 .53199615.75.53199615h1.2q.7 0 .7-.53199615v-2.62198105q0-.53199616-.7-.53199616h-1.2zM37.05 79.55184784h-1.2q-.75 0-.75.53199615v2.62198105q0 .53199616.75.53199616h1.2q.7 0 .7-.53199616V80.083844q0-.53199615-.7-.53199615zM34.05 81.07183685h-1.2q-.75 0-.75.53199616v2.62198105q0 .53199615.75.53199615h1.2q.7 0 .7-.53199615V81.603833q0-.53199616-.7-.53199616zM37.05 83.50381927h-1.2q-.75 0-.75.53199616v2.62198105q0 .53199615.75.53199615h1.2q.7 0 .7-.53199615v-2.62198105q0-.53199616-.7-.53199616zM24.05 74.05184784h-1.2q-.75 0-.75.53199615v2.62198105q0 .53199616.75.53199616h1.2q.7 0 .7-.53199616V74.583844q0-.53199615-.7-.53199615zM24.05 78.07183685h-1.2q-.75 0-.75.53199616v2.62198105q0 .53199615.75.53199615h1.2q.7 0 .7-.53199615V78.603833q0-.53199616-.7-.53199616zM24.05 82.00381927h-1.2q-.75 0-.75.53199616v2.62198105q0 .53199615.75.53199615h1.2q.7 0 .7-.53199615v-2.62198105q0-.53199616-.7-.53199616z"/>
</svg>
