<svg xmlns="http://www.w3.org/2000/svg" preserveAspectRatio="none" viewBox="0 0 50 100">
  <path fill="#333" fill-opacity=".2" d="M42.7 23.95q-.2-.1-.45-.15-1.45-.1-1.8-.1l-.2-.65q-.3-.95-2.75-1.2-.28867187-.02519531-.6-.05h-.25q-.14609375-.00605469-.3 0-.43242188-.01660156-.9 0-.11035156-.00605469-.25 0 0-.35-.1-.5-.05-.2-.45-.35l-.2-.1.95-6.6q0-1.15-.4-1.5-.4-.4-3-.6-2.6-.2-3.15.35-.6.5-.8 1.15l-.2 1.75-.05-.8q-.6-1.5-2-1.4-1.45.05-2.85.25-.12558594.01347656-.25 0-.55097656-.16640625-1.2.05-1.35.4-2.7.9-1.35.45-1.65 1.55-.2.55-.1 1l4.35 10.3q-1.2.1-2 .8-.35.35-.5.7-1.05 4.55 2.1 8.35 1.55 1.9 3.3 2.85V59.8h.1v45.15h18.4v-64.7q1.15-.35 1.85-1.85.25-.45.35-1l.15-.45V25.9q0-.42636719-.3-.8-.28710938-.53476563-1.25-.9-.43964844-.15703125-.9-.25z"/>
  <path fill="#66AD34" d="M41.65 34.2V23.15q0-1-1.45-1.55-.7-.25-1.45-.35-1.55 0-2.2.1-.3 0-.3.05L36 20.25q-.35-.95-2.75-1.05-1.2-.05-2.3.05L31.3 17h.05l.65-5.35q0-1.15-.4-1.5-.4-.4-3-.6-2.6-.2-3.15.35-.6.5-.8 1.15l-1 10.3-3.25-9.55q-.94628906-1.32949219-2.3-.95-1.35292969.43457031-2.7.9-1.34921875.50507813-1.65 1.6-.2.55-.1 1L18 24.65q-1.2.1-2 .8-.35.35-.5.7-1.05 4.55 2.1 8.35 1.55 1.9 3.3 2.85V57.2h18.4V37.5q1.15-.35 1.85-1.85.25-.45.35-1l.15-.45z"/>
  <path fill="#333" fill-opacity=".48627451" d="M25.68628235 10.9l-.32339325 3.2q2.40234985 0 5.174292.6l.32339324-3.2q-2.49474792-1.2-5.174292-.6zM14.4310669 13.7805603l1.22807998 2.97258377q2.11682434-1.13587341 4.84300842-1.917807l-1.22807998-2.97258377q-2.76562958.1221817-4.84300843 1.917807z"/>
  <path fill="#66AD34" d="M20.85 35.6q.0296875.48515625.05 1v64.85h18.4v-64.7q.85195313-.259375 1.45-1.15h-19.9z"/>
  <path stroke="#333" stroke-opacity=".49803922" stroke-width=".5" stroke-linejoin="round" stroke-linecap="round" fill="none" d="M23.9 32.6l10.45-5.15M31.45 27.95l.8 1.7m-2.45-1l.8 1.7m-2.3-.9l.8 1.7m-2.35-1l.8 1.7m-2.25-1.1l.8 1.7"/>
  <path fill="#0F5935" fill-opacity=".2" d="M37.05 46.55184784h-1.2q-.75 0-.75.53199615v2.62198105q0 .53199616.75.53199616h1.2q.7 0 .7-.53199616V47.083844q0-.53199615-.7-.53199615zM34.05 48.07183685h-1.2q-.75 0-.75.53199616v2.62198105q0 .53199615.75.53199615h1.2q.7 0 .7-.53199615V48.603833q0-.53199616-.7-.53199616zM37.05 50.50381927h-1.2q-.75 0-.75.53199616v2.62198105q0 .53199615.75.53199615h1.2q.7 0 .7-.53199615v-2.62198105q0-.53199616-.7-.53199616zM24.05 41.05184784h-1.2q-.75 0-.75.53199615v2.62198105q0 .53199616.75.53199616h1.2q.7 0 .7-.53199616V41.583844q0-.53199615-.7-.53199615zM24.05 45.07183685h-1.2q-.75 0-.75.53199616v2.62198105q0 .53199615.75.53199615h1.2q.7 0 .7-.53199615V45.603833q0-.53199616-.7-.53199616zM24.05 49.00381927h-1.2q-.75 0-.75.53199616v2.62198105q0 .53199615.75.53199615h1.2q.7 0 .7-.53199615v-2.62198105q0-.53199616-.7-.53199616zM35.85 79.55184784q-.75 0-.75.53199615v2.62198105q0 .53199616.75.53199616h1.2q.7 0 .7-.53199616V80.083844q0-.53199615-.7-.53199615h-1.2zM32.85 81.07183685q-.75 0-.75.53199616v2.62198105q0 .53199615.75.53199615h1.2q.7 0 .7-.53199615V81.603833q0-.53199616-.7-.53199616h-1.2zM35.85 83.50381927q-.75 0-.75.53199616v2.62198105q0 .53199615.75.53199615h1.2q.7 0 .7-.53199615v-2.62198105q0-.53199616-.7-.53199616h-1.2zM22.85 74.05184784q-.75 0-.75.53199615v2.62198105q0 .53199616.75.53199616h1.2q.7 0 .7-.53199616V74.583844q0-.53199615-.7-.53199615h-1.2zM22.85 78.07183685q-.75 0-.75.53199616v2.62198105q0 .53199615.75.53199615h1.2q.7 0 .7-.53199615V78.603833q0-.53199616-.7-.53199616h-1.2zM22.85 82.00381927q-.75 0-.75.53199616v2.62198105q0 .53199615.75.53199615h1.2q.7 0 .7-.53199615v-2.62198105q0-.53199616-.7-.53199616h-1.2z"/>
</svg>
