<svg xmlns="http://www.w3.org/2000/svg" preserveAspectRatio="none" viewBox="0 0 50 100">
  <path fill="#333" fill-opacity=".2" d="M40.9 23.7q-.06367187.01992188-.15 0-.68710937 2.4828125-1.35 4.95-.65 2.45-1.6 4.55v.5l-.4.25q.05.45-.35.9-.15.25-.25.6l-.4.25v.5q-.9 1.2-2.1 2.5-.15.2-.25.4-.3921875.19609375-.8.3v1.35H24.3V60h.1v44.95h18.4v-64.7q1.15-.35 1.85-1.85.25-.45.35-1l.15-.45v-8.2q.02324219-.00976563.05-.05l2.65-6.5q.4-.85-.2-1.65-.6-.8-1.7-1.25-1.15-.45-2.2-.2-1.05.2-1.75 1.95l-1.1 2.65z"/>
  <path fill="#66AD34" d="M44.35 18.95q.4-.85-.2-1.65-.6-.8-1.7-1.25-1.15-.45-2.2-.2-1.05.2-1.75 1.95l-1.45 3.55q-.07109375-.01015625-.15-.05v.3l-.3.3v-.05q-.3-.95-2.75-1.2-1.15-.1-2.3-.05 0-.35-.1-.5-.05-.2-.45-.35-.5-.25-1-.3-.7-.1-2.45-.1-1.8 0-2.45.1-.5.05-.9.3-.2.15-.25.4-.1.1-.1.2l-1.45.1q-1.65.2-2.5.4-1.25585937.34433594-1.55 1.3-.09375.35429688-.15.9-.14648437 1.140625-.2 3.2.01640625.553125 0 1.15.04804688.42714844.05.85l-3.2-1.55q-1.65-.9-2.85-.8-1.2.1-1.7.9-.55.8-.95 1.6-.4.75-.2 1.55.15.8 1.1 1.25l10.4 5.05.15.65v19.85h18.35V37q1.15-.3 1.9-1.8.2-.5.35-1l.15-.45v-8q.05-.15.15-.3l2.65-6.5z"/>
  <path fill="#333" fill-opacity=".48627451" d="M44.05251617 18.30040588q-1.72219848-1.70319213-4.1098175-1.96986694l-1.17872315 2.55527039q1.98745118.68411865 4.10981751 1.96986694l1.17872314-2.55527039zM11.54194641 26.52963562q-1.647789 1.52750244-1.84443664 3.71260376l2.5811409 1.16520996q.62433166-1.8040039 1.84443664-3.71260376l-2.5811409-1.16520996z"/>
  <path fill="#66AD34" d="M20.85 35.6q.0296875.48515625.05 1v64.85h18.4v-64.7q.85195313-.259375 1.45-1.15h-19.9z"/>
  <path stroke="#333" stroke-opacity=".49803922" stroke-width=".5" stroke-linejoin="round" stroke-linecap="round" fill="none" d="M23.9 32.6l10.45-5.15M25.3 30.75l.8 1.7m.65-2.3l.8 1.7m.75-2.4l.8 1.7m.7-2.5l.8 1.7m.85-2.4l.8 1.7"/>
  <path fill="#0F5935" fill-opacity=".2" d="M35.85 46.55184784q-.75 0-.75.53199615v2.62198105q0 .53199616.75.53199616h1.2q.7 0 .7-.53199616V47.083844q0-.53199615-.7-.53199615h-1.2zM32.85 48.07183685q-.75 0-.75.53199616v2.62198105q0 .53199615.75.53199615h1.2q.7 0 .7-.53199615V48.603833q0-.53199616-.7-.53199616h-1.2zM35.85 50.50381927q-.75 0-.75.53199616v2.62198105q0 .53199615.75.53199615h1.2q.7 0 .7-.53199615v-2.62198105q0-.53199616-.7-.53199616h-1.2zM22.85 41.05184784q-.75 0-.75.53199615v2.62198105q0 .53199616.75.53199616h1.2q.7 0 .7-.53199616V41.583844q0-.53199615-.7-.53199615h-1.2zM22.85 45.07183685q-.75 0-.75.53199616v2.62198105q0 .53199615.75.53199615h1.2q.7 0 .7-.53199615V45.603833q0-.53199616-.7-.53199616h-1.2zM22.85 49.00381927q-.75 0-.75.53199616v2.62198105q0 .53199615.75.53199615h1.2q.7 0 .7-.53199615v-2.62198105q0-.53199616-.7-.53199616h-1.2zM37.05 79.55184784h-1.2q-.75 0-.75.53199615v2.62198105q0 .53199616.75.53199616h1.2q.7 0 .7-.53199616V80.083844q0-.53199615-.7-.53199615zM34.05 81.07183685h-1.2q-.75 0-.75.53199616v2.62198105q0 .53199615.75.53199615h1.2q.7 0 .7-.53199615V81.603833q0-.53199616-.7-.53199616zM37.05 83.50381927h-1.2q-.75 0-.75.53199616v2.62198105q0 .53199615.75.53199615h1.2q.7 0 .7-.53199615v-2.62198105q0-.53199616-.7-.53199616zM24.05 74.05184784h-1.2q-.75 0-.75.53199615v2.62198105q0 .53199616.75.53199616h1.2q.7 0 .7-.53199616V74.583844q0-.53199615-.7-.53199615zM24.05 78.07183685h-1.2q-.75 0-.75.53199616v2.62198105q0 .53199615.75.53199615h1.2q.7 0 .7-.53199615V78.603833q0-.53199616-.7-.53199616zM24.05 82.00381927h-1.2q-.75 0-.75.53199616v2.62198105q0 .53199615.75.53199615h1.2q.7 0 .7-.53199615v-2.62198105q0-.53199616-.7-.53199616z"/>
</svg>
