<svg xmlns="http://www.w3.org/2000/svg" preserveAspectRatio="none" viewBox="0 0 50 100">
  <defs>
    <linearGradient id="a" gradientUnits="userSpaceOnUse" x1=".9875" y1="-.95" x2="1.7125" y2="1.95">
      <stop offset="0%" stop-color="#FDC480"/>
      <stop offset="100%" stop-color="#664F33"/>
    </linearGradient>
  </defs>
  <path fill="#FEB000" d="M27.3 18.1q-.5-.1-1.7-.1-1.25 0-1.7.1-.35.05-.6.3-.15.15-.2.4-.05.1-.05.2l-.35.05-2.4-6.95q-.25-.8-1.05-1.25-.75-.4-1.6-.15l-.25.1q-.85.2-1.3 1-.4.75-.15 1.6l2.75 9.3q0 .1.05.2l.2.95v2.45l-1.8-1.3q-.65-.45-1.45-.35-.75.15-1.2.75v.05q-.25.15-.45.4l-.95 1.3q-.45.7-.3 1.5.1.75.65 1.2.05 0 .1.05l7.2 5.05.1.65v69.85h12.7v-.4h.4V35.5q.15-.15.3-.35.6-.45 1-1.65.15-.5.25-1l.1-.45V27l-.35-.45V24.3q.05-.05.05-.15L33 23.6l.05-.4-1.15-2.45-.05-.25v-.1q-.1-.3-.4-.55-.5-.4-1.5-.55-.8-.1-1.6-.05 0-.35-.05-.5-.05-.2-.3-.35-.35-.25-.7-.3z"/>
  <path fill="#333" fill-opacity=".2" d="M31.15 19.9q-.1-.6-1.05-.65-1-.1-1.45-.1-.5-.05-1.9.35-.55.45-.75.85-.03046875.05332031-.05.1-.15488281-.29003906-.35-.6-.02285156.02714844-.05.05l-.2-.55q.43222656-1.4578125-1.25-4-.03691406.0625-.1.1v-.05q.05488281-.0484375.1-.1.25-1.55-1.5-2.7-2.1-.7-3.3 1.2-.35429687 1.50566406.2 2.6l1.85 6.15q.06757812 1.69785156.75 2.65.02929688.05839844.05.1v.05q.08007813 1.115625.2 2.3v1.05l-1.8-1.3q-.4390625-.30410156-.95-.35-1.10683594-1.14355469-3.25-.75-2.4 1.2-1.85 3.85.90546875 1.48164063 2.2 1.95.08007812.09277344.15.15.05 0 .1.05l3.5 2.45q-.02714844.02578125-.05.05l3.8 3.2q.02265625-.01582031.05-.05v.3q-.05.02792969-.1.05-.6 2.25 0 4.55-1.53808594 3.4234375-.05 6.8-1.88808594 3.87597656.05 8.1.05.01679687.1 0v.1l-.1-.05q-1.95 3.9 0 8.15.05.01679687.1 0v.1l-.1-.05q-1.95 3.9 0 8.15.05.01679687.1 0v.1q-.04980469-.025-.1-.05-1.95 3.9 0 8.15.05.01679687.1 0v.1l-.1-.05q-1.95 3.9 0 8.15.05.01679687.1 0v.1l-.1-.05q-1.95 3.9 0 8.15.05.01679687.1 0v.1l-.1-.05q-1.95 3.9 0 8.15.05.01679687.1 0v.9h4.05q1.62421875.16855469 3.3.05-.02285156.33085937-.05.65l.25-.05q.03574219-.29804688.05-.6.31210937-.02109375.6-.05h4.5v-.4h.4v-1.1q1.64980469-3.45253906 0-6.95v-1.25q1.64980469-3.45253906 0-6.95v-1.25q1.64980469-3.45253906 0-6.95v-1.25q1.64980469-3.45253906 0-6.95v-1.25q1.64980469-3.45253906 0-6.95v-1.25q1.64980469-3.45253906 0-6.95v-1.25q1.64980469-3.45253906 0-6.95v-1.3q.75-2.3328125 0-5.1v-2.1q.19980469-1.14101563 0-2.3v-1.5l.1-.1q.0984375-.11464844.2-.25v-.05q.6125-.43769531 1-1.6.07988281-.26660156.15-.55 1.40585937-4.36523438.25-11.9-.3-.7-1.3-1.25-.5-.25-1-.35-1.1 0-1.55.1h-.1q-.1 0-.1.05l-.15-1.15q-.25-.95-1.9-1.05-.6-.05-1.8.1z"/>
  <path fill="#FB8800" d="M33.65 55.4q-6.4234375 3.23261719-12.9 0-1.95078125 3.90703125 0 8.15 5.95 2 12.9 0 2.26074219-4.05 0-8.15z"/>
  <path fill="#FEB000" d="M30.35 19.5q-.8-.1-1.6-.05 0-.35-.05-.5-.05-.2-.3-.35-.35-.25-.7-.3-.5-.1-1.7-.1-1.24609375.00351562-2.2.15-.96171875.18945312-.7 2.15l.6 9h11.95v-5.75q0-1.05-1-1.75-.3-.25-.7-.4-.15-.1-.3-.15-1-.1-1.25-.1l-.15-.65q-.2-.95-1.9-1.2z"/>
  <path fill="#FB8800" d="M33.65 47.2q-6.4234375 3.23261719-12.9 0-1.95078125 3.90703125 0 8.15 5.95 2 12.9 0 2.26074219-4.05 0-8.15z"/>
  <path fill="#FB8800" d="M33.65 47.3q1.34667969-3.03554687 0-6.85-7.2 2.05-12.9 0-1.53984375 3.45 0 6.85 5.95 1.75 12.9 0zM22.6 17.9q-.20742188.41855469 0 .65l-3.85 4.1q.12460938 2.1734375.45 4.6.31328125 2.48828125-2.2 5.15l3.8 3.2q5.95-4.15 13.25-.2.65-.75.8-1.05 2.15-4.5.8-13.3-.3-.7-1.3-1.25-.5-.25-1-.35-1.1 0-1.55.1h-.1q-.1 0-.1.05l-.15-1.15q-.25-.95-1.9-1.05-.57578125-.03574219-1.85.05-.03945313-.56855469-1.05-.65-.95664062-.02753906-1.45-.1-.45078125-.0234375-1.85.4-.55644531.47304687-.75.8z"/>
  <path fill="#FB8800" d="M33.65 40.45q.8-2.3 0-4.55-6.09394531-2.97988281-12.9 0-.6 2.25 0 4.55 5.76855469.96855469 12.9 0z"/>
  <path fill="#965200" fill-opacity=".6" d="M27.65 56.55l.25-.05q1.76113281-13.00800781-.75-22.05 1.63554687 10.05.5 22.1zM31.05 35.1460556l.5-.33146362q2.6-9.2395485.2-13.17567902 1.7 4.10186234-.7 13.50714264zM23.35 34.40026245l.5.33146362q-2.3-9.4052803-.7-13.50714263-2.25 3.93613052.2 13.17567901zM26.65 34.69029312l.5-.33146362q2.6-9.2395485.2-13.17567902 1.7 4.10186234-.7 13.50714264z"/>
  <path fill="#FB8800" d="M19.2 10.2q-2.11992187-.71640625-3.3 1.2-.4 1.7.4 2.9 2.30703125 1.01425781 4.4-1.4.25-1.55-1.5-2.7z"/>
  <path fill="#FB8800" d="M20.7 12.95q-1.45 2.45-4.2 1.75.15 3.15 1.35 4.1 2.0484375.546875 3.55-.95 1.5515625-1.496875-.7-4.9z"/>
  <path fill="url(#a)" d="M.6 2.85q1.05-.85 2.5-.9Q3.25.6 2.2-.1.2.2.1 1.1 0 2 .6 2.85z" transform="translate(16.45 10.65)"/>
  <path fill="#FB8800" d="M22.2 17.45q-1.80859375 2.13808594-4.25 1.7-.15390625 2.9 1.15 4.1 1.84453125.1015625 3.3-1.5 1.51171875-1.6-.2-4.3zM12.93838577 23.94012833q-2.39607086 1.17258758-1.82213745 3.81920013 1.09246674 1.79887085 2.79376679 2.15425415 2.82139587-1.08374176 2.59848327-4.92039184-1.09464798-1.5432396-3.5701126-1.05306244z"/>
  <path fill="#FB8800" d="M16.5 24.8q.75 3.8-2.45 5.3 2.29238281 2.26542969 2.95 1.65.7046875-.56074219 1.35-1.6.69804688-1.04570312.6-2.8-.09980469-1.75078125-2.45-2.55z"/>
  <path fill="url(#a)" d="M.6 2.85q1.05-.85 2.5-.9Q3.25.6 2.2-.1.2.2.1 1.1 0 2 .6 2.85z" transform="matrix(.75743 -.65288 .65288 .75743 11 26.85)"/>
  <path fill="#FB8800" d="M33.65 71.8q-6.4234375 3.23261719-12.9 0-1.95078125 3.90703125 0 8.15 5.95 2 12.9 0 2.26074219-4.05 0-8.15z"/>
  <path fill="#FB8800" d="M33.65 63.6q-6.4234375 3.23261719-12.9 0-1.95078125 3.90703125 0 8.15 5.95 2 12.9 0 2.26074219-4.05 0-8.15zM33.65 88.2q-6.4234375 3.23261719-12.9 0-1.95078125 3.90703125 0 8.15 5.95 2 12.9 0 2.26074219-4.05 0-8.15z"/>
  <path fill="#FB8800" d="M33.65 80q-6.4234375 3.23261719-12.9 0-1.95078125 3.90703125 0 8.15 5.95 2 12.9 0 2.26074219-4.05 0-8.15zM33.65 96.4q-6.4234375 3.23261719-12.9 0-1.95078125 3.90703125 0 8.15 5.95 2 12.9 0 2.26074219-4.05 0-8.15z"/>
  <path fill="#965200" fill-opacity=".6" d="M27.85 81.5366623l.25-.05599519q1.76113281-14.56771431-.75-24.6938736 1.63554688 11.25503083.5 24.74986878zM28.15 106.1366623l.25-.05599519q1.75-14.55874633-.75-24.6938736 1.65 11.25503083.5 24.74986878z"/>
</svg>
