<svg xmlns="http://www.w3.org/2000/svg" preserveAspectRatio="none" viewBox="0 0 50 100">
  <defs>
    <linearGradient id="a" gradientUnits="userSpaceOnUse" x1=".9875" y1="-.95" x2="1.7125" y2="1.95">
      <stop offset="0%" stop-color="#FDC480"/>
      <stop offset="100%" stop-color="#664F33"/>
    </linearGradient>
  </defs>
  <path fill="#FEB000" d="M33.95 39h-.4v-3.05q.8-.35 1.3-1.85.01640625-.04941406 0-.1-7.26542969-3.03085937-15.65 0 .80839844 1.13378906 1.65 1.8v69.65h12.7v-.4h.4V39z"/>
  <path fill="#333" fill-opacity=".2" d="M39.5 20.5q-.05117188.02363281-.1.05l.05-.3q.70644531-.3796875.85-1.5.2-1.95-1.85-2.7-2.2-.35-2.85 2.45l-.1.35q-.68261719 1.58085937-.95 2.85-.11523438.00625-.25 0l-.05-.15h-.05l.05-.3q.06640625-.02207031.1-.05.2-.3.25-2.15l.55-3.65q.50175781-.58554688.45-1.7-.1-2.1-2.45-2.5-2.45.1-2.6 3.1.06660156.10273437.1.2l-.05.6q-.68398438 1.69707031-.45 2.95l-.05.45q-.03105469-.03007812-.05-.05-.20585938 1.13261719-.25 1.8l-.15 1.1q-.0328125.04667969-.1.05l-.15-4.05q.69921875-1.12949219-.15-3.45v-.45q.44199219-.64726562.2-1.75-.5-2.05-2.85-2.05-2.4.5-2 3.5.04609375.04921875.1.1v.65q-.49726563 1.69921875.15 3.85v.4q-.52851563 1.80546875.05 3.35-.084375.01152344-.2.05l-.1-.4q.21152344-.89355469-.65-2.15l-.1-.3q.37207031-1.10664062-.85-2.85l-.15-.4q.26757812-1.46054687-1.35-2.65-2.05-.8-3.35 1.05-.5 1.65.25 2.9.07207031.03691406.15.05l.1.35q-.05234375.01503906-.1 0 0 2.43300781 1 3.1l.1.3q.0171875 1.59570313.65 2.2l.1.3q-.03027344.01679688-.05 0-.05.9.85 3.45l.4 1.8q.03398437.05136719.05.1l.1.3q-.59238281-.92421875-2.25-1.5l-.15-.1q-.20429688-.14140625-.45-.25-1.07597656-.97167969-3.1-.6-2.4 1.2-1.85 3.85 1.1 1.8 2.8 2.15.10761719-.03964844.2-.1l.5.4q1.68105469 1.69199219 2.4 1.65l.45.3q2.32246094 2.37558594 3.05 3.2.04394531-.03066406.1-.05v.65q-.44492188 2.06113281.1 4.15-1.53808594 3.4234375-.05 6.8-1.88808594 3.87597656.05 8.1.05.01679687.1 0v.1l-.1-.05q-1.95 3.9 0 8.15.05.01679688.1 0v.1l-.1-.05q-1.95 3.9 0 8.15.05.01679687.1 0v.1l-.1-.05q-1.95 3.9 0 8.15.05.01679687.1 0v.1l-.1-.05q-1.95 3.9 0 8.15.05.01679687.1 0v.1l-.1-.05q-1.95 3.9 0 8.15.05.01679688.1 0v.1l-.1-.05q-1.95 3.9 0 8.15.05.01679687.1 0v.9H31q-.02011719.34921875-.05.7l.25-.05q.0390625-.32617188.05-.65h5.1v-.4h.4v-1.1q1.64980469-3.45253906 0-6.95v-1.25q1.64980469-3.45253906 0-6.95v-1.25q1.64980469-3.45253906 0-6.95v-1.25q1.64980469-3.45253906 0-6.95v-1.25q1.64980469-3.45253906 0-6.95v-1.25q1.64980469-3.45253906 0-6.95v-1.25q1.64980469-3.45253906 0-6.95v-1.3q.75-2.3328125 0-5.1v-2.1q.3-1.7125-.3-3.4.37070312-.20019531.65-.65.57050781-.55761719 1.2-2 .05-.15.15-.35 1-2.65.75-6.55-.25664063-3.07890625-1-3.65l.1-.3h.05q.25-.65.35-.9.4-.9.8-3z"/>
  <path fill="#FB8800" d="M33.65 55.4q-6.4234375 3.23261719-12.9 0-1.95078125 3.90703125 0 8.15 5.95 2 12.9 0 2.26074219-4.05 0-8.15z"/>
  <path fill="#FB8800" d="M33.65 47.2q-6.4234375 3.23261719-12.9 0-1.95078125 3.90703125 0 8.15 5.95 2 12.9 0 2.26074219-4.05 0-8.15z"/>
  <path fill="#FB8800" d="M33.65 47.3q1.34667969-3.03554687 0-6.85-7.2 2.05-12.9 0-1.53984375 3.45 0 6.85 5.95 1.75 12.9 0zM33.65 71.8q-6.4234375 3.23261719-12.9 0-1.95078125 3.90703125 0 8.15 5.95 2 12.9 0 2.26074219-4.05 0-8.15z"/>
  <path fill="#FB8800" d="M33.65 63.6q-6.4234375 3.23261719-12.9 0-1.95078125 3.90703125 0 8.15 5.95 2 12.9 0 2.26074219-4.05 0-8.15zM33.65 88.2q-6.4234375 3.23261719-12.9 0-1.95078125 3.90703125 0 8.15 5.95 2 12.9 0 2.26074219-4.05 0-8.15z"/>
  <path fill="#FB8800" d="M33.65 80q-6.4234375 3.23261719-12.9 0-1.95078125 3.90703125 0 8.15 5.95 2 12.9 0 2.26074219-4.05 0-8.15zM33.65 96.4q-6.4234375 3.23261719-12.9 0-1.95078125 3.90703125 0 8.15 5.95 2 12.9 0 2.26074219-4.05 0-8.15z"/>
  <path fill="#965200" fill-opacity=".6" d="M27.85 81.5366623l.25-.05599519q1.75-14.55874633-.75-24.6938736 1.65 11.25503083.5 24.74986878zM28.15 106.1366623l.25-.05599519q1.75-14.55874633-.75-24.6938736 1.65 11.25503083.5 24.74986878z"/>
  <path fill="#FEB000" d="M30.75 9.65l-.3-.05q-.85-.15-1.55.4-.7.5-.85 1.35l-1.2 8.2h-.1l-.35-9.6q-.05-.9-.7-1.5-.6-.55-1.5-.55h-.3q-.85.05-1.45.7-.6.65-.6 1.5l.35 9.4q-.15 0-.3.05l-2.2-7.35q-.25-.8-1.05-1.25-.75-.4-1.6-.15l-.25.1q-.85.2-1.3 1-.4.75-.15 1.6l2.75 9.3q0 .1.05.2l.8 3.8-2.4-1.7q-.65-.45-1.45-.35-.8.15-1.25.8l-.95 1.3q-.45.7-.3 1.5.1.8.75 1.25l7.2 5.05.1.65v2.25h12.7V35.4q.8-.3 1.3-1.8.15-.5.25-1l.1-.45v-8l.1-.3 1.85-6.5q.25-.85-.2-1.6-.4-.75-1.25-1t-1.6.2q-.8.4-1 1.25l-1 3.55q-.25-.05-.5-.05l1.15-7.65q.1-.85-.4-1.6-.55-.7-1.4-.8z"/>
  <path fill="#FB8800" d="M17.55 21q-.07070312.95761719.85 3.5l.4 1.8q2.17089844 3.24589844-1.45 6.05 2.45976563 2.5 3.2 3.35 5.95-4.15 12.85-.2.91269531.49277344 2.1-2.25.07441406-.17207031.15-.35 1.01777344-2.65644531.7-6.6-.28925781-4.15351562-1.5-3.75-1.21191406.45449219-2.3-.6-1.09785156-1.05546875-1.1-1.1.04492188.00703125.05-.5.05605469-.5078125-.05-.8-1.88242187.87949219-3.05.4-1.11796875-.42910156-1.35-.55-.19414062-.12636719-1 .4-.75117188.57441406-2.4.7-1.55917969-.48085937-1.8-.95-1.5875 1.9578125-2.8 1.85-1.16191406-.06015625-1.5-.4z"/>
  <path fill="#965200" fill-opacity=".6" d="M30.65 37.8l.5-.4q2.6-11.15.2-15.9 1.7 4.95-.7 16.3zM22.95 36.9l.5.4q-2.3-11.35-.7-16.3-2.25 4.75.2 15.9zM26.25 37.25l.5-.4q2.6-11.15.2-15.9 1.7 4.95-.7 16.3z"/>
  <path fill="#FB8800" d="M18.67524033 10.8009636q-2.06091767-.8078476-3.35773316 1.02743682-.48752899 1.67699585.24923248 2.9168274 2.24510804 1.11780547 4.46661683-1.17018433.32995987-1.5349678-1.35811615-2.7740799z"/>
  <path fill="#FB8800" d="M20.05 13.65q-1.6 2.35-4.3 1.5.00546875 3.2046875 1.75 3.3 1.73320313.13554688 3.05-1.1 1.37226563-1.18085938-.5-3.7zM26.35577164 11.59645844q-1.8320984 1.93219757-4.41012497.18899917-.61697388 1.87332.20607147 4.2529358 1.82210312 1.0885414 3.69835968.06768722 1.86565933-1.06971817.50569382-4.5096222z"/>
  <path fill="#FB8800" d="M26.65493088 9.6866005q-.486557-2.06469727-2.84495163-2.05376816-2.42503205.4988266-2.00292664 3.52310028 1.45403137 1.5461258 3.38108216 1.09200592 1.95335311-.49664078 1.4667961-2.56133805zM32.3 13.6q-2.35 1.7-4.45-.65-.83925781 2.03691406-.4 3.5 1.36855469 1.17519531 2.55 1.05 1.24023438-.08105469 1.7-.55.50800781-.46152344.6-3.35z"/>
  <path fill="#FB8800" d="M32.79070435 11.70456543q-.130188-2.11724854-2.4564209-2.50552368-2.4744629.08131103-2.57015991 3.13339233 1.17145385 1.76985474 3.14755249 1.64834595 2.0092163-.15896607 1.87902832-2.2762146zM36.7 18.5q-2.50273437 1.13261719-4-1.65-.95 2.2-1.05 3.85 1.30585938 1.77304688 2.55 1.7.93574219-.00722656 1.35-.05.23300781-.60527344.35-.85.41191406-.8890625.8-3z"/>
  <path fill="#FB8800" d="M37.47539368 16.76519012q.24513244-1.93849182-1.79361725-2.68867492-2.25340271-.35060425-2.8632248 2.39521637.7567978 1.80259247 2.56605683 2.03138275 1.84565277.20056763 2.09078522-1.7379242zM31.8 17.05q-2.35 1.7-4.55-.6-.38574219 2.19667969-.05 2.65 1.62988281 1.05 2.85.7 1.22050781-.34199219 1.45-.65.271875-.26699219.3-2.1zM26.5 15.9q-1.85 1.95-4.4.2-.6 1.85.05 3.45 2.015625 1.128125 3 .55t1.6-.75q.25-1.2-.25-3.45z"/>
  <path fill="#FB8800" d="M21.15 17q-1.6 2.35-4.3 1.5-.00058594 2.75585938 1.8 2.6 1.85078125-.15859375 2.75-1.25.94824219-1.08984375-.25-2.85zM12.98838577 24.29012833q-2.39607086 1.17258758-1.82213745 3.81920013 1.09246674 1.79887085 2.79376679 2.15425415 2.82139587-1.08374176 2.59848327-4.92039184-1.09464798-1.5432396-3.5701126-1.05306244z"/>
  <path fill="#FB8800" d="M16.65 25.2q.85 3.8-2.25 5.05 2.24609375 2.38183594 2.9 1.8.7078125-.5359375 1.4-1.6.70097656-1.06210938.55-2.75-.16191406-1.68867188-2.6-2.5z"/>
  <path fill="url(#a)" d="M.6 2.85q1.05-.85 2.5-.9Q3.25.6 2.2-.1.2.2.1 1.1 0 2 .6 2.85z" transform="matrix(.75743 -.65288 .65288 .75743 11.05 27.2)"/>
  <path fill="url(#a)" d="M.6 2.85q1.05-.85 2.5-.9Q3.25.6 2.2-.1.2.2.1 1.1 0 2 .6 2.85z" transform="matrix(.99265 .12074 -.12074 .99265 16.05 11.1)"/>
  <path fill="url(#a)" d="M.6 2.85q1.05-.85 2.5-.9Q3.25.6 2.2-.1.2.2.1 1.1 0 2 .6 2.85z" transform="matrix(.91777 .397 -.397 .91777 23.25 7.85)"/>
  <path fill="url(#a)" d="M.6 2.85q1.05-.85 2.5-.9Q3.25.6 2.2-.1.2.2.1 1.1 0 2 .6 2.85z" transform="matrix(.82031 .57182 -.57182 .82031 29.85 9.3)"/>
  <path fill="url(#a)" d="M.6 2.85q1.05-.85 2.5-.9Q3.25.6 2.2-.1.2.2.1 1.1 0 2 .6 2.85z" transform="matrix(.54056 .6341 -.6341 .54056 35.3 14.3)"/>
  <path fill="#FB8800" d="M33.65 40.45q.8-2.3 0-4.55-6.09394531-2.97988281-12.9 0-.6 2.25 0 4.55 5.76855469.96855469 12.9 0z"/>
  <path fill="#965200" fill-opacity=".6" d="M27.65 56.55l.25-.05q1.76113281-13.00800781-.75-22.05 1.63554687 10.05.5 22.1z"/>
</svg>
