<svg xmlns="http://www.w3.org/2000/svg" preserveAspectRatio="none" viewBox="0 0 50 100">
  <path fill="#FEB000" d="M34.85 34.1q.01640625-.04941406 0-.1-7.26542969-3.03085937-15.65 0 .80839844 1.13378906 1.65 1.8v69.65h12.7v-.4h.4V39h-.4v-3.05q.8-.35 1.3-1.85z"/>
  <path fill="#333" fill-opacity=".2" d="M26.75 19.8q-.6.4-.45.85l-2.3.25q-1.8.55-1.9 2.1l.05 2.25q-.65-.05-1.2.4-.6.4-.75 1.3-.2.9-.25 3-.1 2.05 1.85 5.5.75 1.35 2.1 2.9.07011719-.04882813.15-.1.02011719.02714844.05.05v.05q-.04980469.02792969-.1.05-.6 2.25 0 4.55-1.53808594 3.4234375-.05 6.8-1.88808594 3.87597656.05 8.1.05.01679687.1 0v.1l-.1-.05q-1.95 3.9 0 8.15.05.01679688.1 0v.1l-.1-.05q-1.95 3.9 0 8.15.05.01679687.1 0v.1l-.1-.05q-1.95 3.9 0 8.15.05.01679687.1 0v.1l-.1-.05q-1.95 3.9 0 8.15.05.01679687.1 0v.1l-.1-.05q-1.95 3.9 0 8.15.05.01679688.1 0v.1l-.1-.05q-1.95 3.9 0 8.15.05.01679687.1 0v.9h7.35q-.02011719.34921875-.05.7l.25-.05q.0390625-.32597656.05-.65h5.1v-.4h.4v-1.1q1.64980469-3.45253906 0-6.95v-1.25q1.64980469-3.45253906 0-6.95v-1.25q1.64980469-3.45253906 0-6.95v-1.25q1.64980469-3.45253906 0-6.95v-1.25q1.64980469-3.45253906 0-6.95v-1.25q1.64980469-3.45253906 0-6.95v-1.25q1.64980469-3.45253906 0-6.95V49q.75-2.3328125 0-5.1v-2.1q.3-1.7125-.3-3.4.51582031-.27773438.9-1.05.1015625-.153125.15-.25 2.15-4.5.8-13.3 0-.55-.55-.85-.6-.35-1.25-.4-.7-.05-1.3 0-.65.05-.6-.15.2-1.1-.2-1.6-.55-.55-2.05-.55-1.25-.05-1.35.35-.1-.9-1.1-.85-1.75-.3-3.6.05z"/>
  <path fill="#FB8800" d="M20.75 55.4q-1.95078125 3.90703125 0 8.15 5.95 2 12.9 0 2.26074219-4.05 0-8.15-6.4234375 3.23261719-12.9 0z"/>
  <path fill="#FB8800" d="M20.75 47.2q-1.95078125 3.90703125 0 8.15 5.95 2 12.9 0 2.26074219-4.05 0-8.15-6.4234375 3.23261719-12.9 0z"/>
  <path fill="#FB8800" d="M33.65 47.3q1.34667969-3.03554687 0-6.85-7.2 2.05-12.9 0-1.53984375 3.45 0 6.85 5.95 1.75 12.9 0zM20.75 71.8q-1.95078125 3.90703125 0 8.15 5.95 2 12.9 0 2.26074219-4.05 0-8.15-6.4234375 3.23261719-12.9 0z"/>
  <path fill="#FB8800" d="M20.75 63.6q-1.95078125 3.90703125 0 8.15 5.95 2 12.9 0 2.26074219-4.05 0-8.15-6.4234375 3.23261719-12.9 0zM20.75 88.2q-1.95078125 3.90703125 0 8.15 5.95 2 12.9 0 2.26074219-4.05 0-8.15-6.4234375 3.23261719-12.9 0z"/>
  <path fill="#FB8800" d="M20.75 80q-1.95078125 3.90703125 0 8.15 5.95 2 12.9 0 2.26074219-4.05 0-8.15-6.4234375 3.23261719-12.9 0zM20.75 96.4q-1.95078125 3.90703125 0 8.15 5.95 2 12.9 0 2.26074219-4.05 0-8.15-6.4234375 3.23261719-12.9 0z"/>
  <path fill="#965200" fill-opacity=".6" d="M27.85 81.5366623l.25-.05599519q1.75-14.55874633-.75-24.6938736 1.65 11.25503083.5 24.74986878zM28.15 106.1366623l.25-.05599519q1.75-14.55874633-.75-24.6938736 1.65 11.25503083.5 24.74986878z"/>
  <path fill="#FB8800" d="M31.6 18.3q-.54785156-.54902344-2.1-.6-1.19277344.00273437-1.35.35-.04140625-.84257813-1.05-.85-1.73554688-.24511719-3.65.1-.55097656.4-.45.85l-2.25.25q-1.77675781.55371094-1.9 2.1l.05 2.25q-.65332031-.05449219-1.25.35-.54355469.45859375-.75 1.35-.16035156.88652344-.25 2.95-.04550781 2.109375 1.9 5.55.75 1.35 2.1 2.9 5.95-4.15 13.25-.2.65-.75.8-1.05 2.15-4.5.8-13.3-.00117187-.56289062-.6-.9-.54121094-.2921875-1.25-.35-.65878906-.05449219-1.3 0-.60859375.06503906-.55-.15.18847656-1.08847656-.2-1.6z"/>
  <path fill="#965200" fill-opacity=".6" d="M30.75 37.95l.5-.4q2.6-11.15.2-15.9 1.7 4.95-.7 16.3zM23.05 37.05l.5.4q-2.3-11.35-.7-16.3-2.25 4.75.2 15.9zM26.35 37.4l.5-.4q2.6-11.15.2-15.9 1.7 4.95-.7 16.3z"/>
  <path fill="#FB8800" d="M33.65 40.45q.8-2.3 0-4.55-6.09394531-2.97988281-12.9 0-.6 2.25 0 4.55 5.76855469.96855469 12.9 0z"/>
  <path fill="#965200" fill-opacity=".6" d="M27.65 56.55l.25-.05q1.76113281-13.00800781-.75-22.05 1.63554687 10.05.5 22.1z"/>
</svg>
