<svg xmlns="http://www.w3.org/2000/svg" preserveAspectRatio="none" viewBox="0 0 50 100">
  <defs>
    <linearGradient id="a" gradientUnits="userSpaceOnUse" x1=".9875" y1="-.95" x2="1.7125" y2="1.95">
      <stop offset="0%" stop-color="#FDC480"/>
      <stop offset="100%" stop-color="#664F33"/>
    </linearGradient>
  </defs>
  <path fill="#FEB000" d="M28.6 10.1q-.35-.8-1.55-.95-1.2-.15-1.85.55-.35.35-.45.7l-2 9.95-3-9.3q-.25-.45-.95-.7-.9-.3-1.85.05-.85.3-1.05 1.4-.15.55-.05 1l3 10.3q-.85.1-1.4.8-.25.35-.35.7-.7 4.55 1.45 8.35 1.1 1.9 2.3 2.85v69.65h12.7v-.4h.4V39h-.4v-3.05q.8-.35 1.3-1.85.15-.45.25-1l.1-.45V21.6q0-1-1-1.55-.5-.25-1-.35-1.1 0-1.55.1h-.1q-.1 0-.1.05l-.15-1.15q-.25-.95-1.9-1.05-.85-.05-1.6.05l1-6.55q0-.7-.2-1.05z"/>
  <path fill="#333" fill-opacity=".2" d="M32.65 13.9q0-2.15-2.35-2.65-2.45 0-2.7 3.1.13125.21875.25.4l-.05.4q-.07734375-.07382813-.15-.15-1 1.7-.7 4.2l-.05.35q-.35703125.7953125-.55 1.4l-.25.25q-.21992188-.61679687-.65-1.3-.05429688.06484375-.1.1l-.15-.4q.56796875-1.47832031-1.2-4.15-.04003906.06777344-.1.1v-.05q.04511719-.03730469.1-.1.25-1.55-1.5-2.7-2.1-.7-3.3 1.2-.4 1.7.4 2.9.10625.04609375.2.05l.1.35q-.0484375.01308594-.1 0 .14550781 3.05722656 1.25 4.05l.15.4q-.13535156 2.75683594 1.05 3.95-.77949219.1375-1.3.8-.25.35-.35.7-.7 4.55 1.45 8.35.75 1.35 2.1 2.9.07050781-.04921875.15-.1.02070312.02675781.05.05v.05q-.05.02792969-.1.05-.6 2.25 0 4.55-1.53808594 3.4234375-.05 6.8-1.88808594 3.87597656.05 8.1.05.01679687.1 0v.1l-.1-.05q-1.95 3.9 0 8.15.05.01679688.1 0v.1l-.1-.05q-1.95 3.9 0 8.15.05.01679687.1 0v.1l-.1-.05q-1.95 3.9 0 8.15.05.01679687.1 0v.1l-.1-.05q-1.95 3.9 0 8.15.05.01679687.1 0v.1l-.1-.05q-1.95 3.9 0 8.15.05.01679688.1 0v.1l-.1-.05q-1.95 3.9 0 8.15.05.01679687.1 0v.9h4.05q1.61660156.16894531 3.3.05-.02285156.33085938-.05.65l.25-.05q.03574219-.29804687.05-.6.31210937-.02109375.6-.05h4.5v-.4h.4v-1.1q1.64980469-3.45253906 0-6.95v-1.25q1.64980469-3.45253906 0-6.95v-1.25q1.64980469-3.45253906 0-6.95v-1.25q1.64980469-3.45253906 0-6.95v-1.25q1.64980469-3.45253906 0-6.95v-1.25q1.64980469-3.45253906 0-6.95v-1.25q1.64980469-3.45253906 0-6.95V49q.75-2.3328125 0-5.1v-2.1q.3-1.7125-.3-3.4.51582031-.27773438.9-1.05.1015625-.153125.15-.25 2.15-4.5.8-13.3-.28125-.65625-1.2-1.2-.0375-.0125-.1-.05-.5-.25-1-.35-1.1 0-1.55.1h-.1q-.1 0-.1.05l-.15-1.15q-.25-.95-1.9-1.05-.73984375-.04355469-1.4 0 .00351563-.20410156 0-.45-.07207031.08105469-.15.15l.05-.3q1.05292969-1.04511719.6-3.8h-.05l.05-.1q.67949219-.50761719.65-1.75z"/>
  <path fill="#FB8800" d="M31.45 19.85l-.15-1.15q-.25-.95-1.9-1.05-.85-.05-1.6.05l-4.65.55-2.1 1.7-.45-.15-1.75 3.3q-.85.1-1.4.8-.25.35-.35.7-.7 4.55 1.45 8.35.75 1.35 2.1 2.9 5.96679687-4.13691406 13.25-.2.65253906-.74394531.75-1.1 2.21777344-4.47207031.85-13.25-.3-.7-1.3-1.25-.5-.25-1-.35-1.1 0-1.55.1h-.1q-.1 0-.1.05z"/>
  <path fill="#965200" fill-opacity=".6" d="M30.75 37.95l.5-.4q2.6-11.15.2-15.9 1.7 4.95-.7 16.3zM23.05 37.05l.5.4q-2.3-11.35-.7-16.3-2.25 4.75.2 15.9zM26.35 37.4l.5-.4q2.6-11.15.2-15.9 1.7 4.95-.7 16.3z"/>
  <path fill="#FB8800" d="M21.95 17.4q-1.80859375 2.13808594-4.25 1.7-.15390625 2.9 1.15 4.1 1.84453125.1015625 3.3-1.5 1.51171875-1.6-.2-4.3zM19 10.2q-2.11992188-.71640625-3.3 1.2-.4 1.7.4 2.9 2.30703125 1.01425781 4.4-1.4.25-1.55-1.5-2.7z"/>
  <path fill="#FB8800" d="M20.5 12.95q-1.45 2.45-4.2 1.75.15 3.15 1.35 4.1 2.0484375.546875 3.55-.95 1.5515625-1.496875-.7-4.9zM28 17.2q-1.58886719 1.78554688-4.55-.2-1.2953125 2.65488281-.2 3.7.57714844.93964844 2.7.45T28 17.2z"/>
  <path fill="#FB8800" d="M28.5 13.25q-2.19511719 1.47675781-4.35-.75-1.01015625 1.72363281-.7 4.2 1.55 1.44414062 3.6.8 2.05-.58242188 1.45-4.25z"/>
  <path fill="#FB8800" d="M29.15287933 11.39494095q-.03787994-2.12093353-2.34502792-2.61013031-2.47568512-.02650452-2.70418167 3.01855087 1.09329605 1.81920242 3.07283401 1.78384781 2.01425553-.07133484 1.97637558-2.19226837z"/>
  <path fill="url(#a)" d="M.6 2.85q1.05-.85 2.5-.9Q3.25.6 2.2-.1.2.2.1 1.1 0 2 .6 2.85z" transform="translate(16.25 10.65)"/>
  <path fill="url(#a)" d="M.6 2.85q1.05-.85 2.5-.9Q3.25.6 2.2-.1.2.2.1 1.1 0 2 .6 2.85z" transform="rotate(34.68929734 -.83297173 46.5595176)"/>
  <path fill="#FB8800" d="M33.65 55.4q-6.4234375 3.23261719-12.9 0-1.95078125 3.90703125 0 8.15 5.95 2 12.9 0 2.26074219-4.05 0-8.15z"/>
  <path fill="#FB8800" d="M33.65 47.2q-6.4234375 3.23261719-12.9 0-1.95078125 3.90703125 0 8.15 5.95 2 12.9 0 2.26074219-4.05 0-8.15z"/>
  <path fill="#FB8800" d="M33.65 47.3q1.34667969-3.03554687 0-6.85-7.2 2.05-12.9 0-1.53984375 3.45 0 6.85 5.95 1.75 12.9 0z"/>
  <path fill="#FB8800" d="M33.65 40.45q.8-2.3 0-4.55-6.09394531-2.97988281-12.9 0-.6 2.25 0 4.55 5.76855469.96855469 12.9 0z"/>
  <path fill="#965200" fill-opacity=".6" d="M27.65 56.55l.25-.05q1.76113281-13.00800781-.75-22.05 1.63554687 10.05.5 22.1z"/>
  <path fill="#FB8800" d="M33.65 71.8q-6.4234375 3.23261719-12.9 0-1.95078125 3.90703125 0 8.15 5.95 2 12.9 0 2.26074219-4.05 0-8.15z"/>
  <path fill="#FB8800" d="M33.65 63.6q-6.4234375 3.23261719-12.9 0-1.95078125 3.90703125 0 8.15 5.95 2 12.9 0 2.26074219-4.05 0-8.15zM33.65 88.2q-6.4234375 3.23261719-12.9 0-1.95078125 3.90703125 0 8.15 5.95 2 12.9 0 2.26074219-4.05 0-8.15z"/>
  <path fill="#FB8800" d="M33.65 80q-6.4234375 3.23261719-12.9 0-1.95078125 3.90703125 0 8.15 5.95 2 12.9 0 2.26074219-4.05 0-8.15zM33.65 96.4q-6.4234375 3.23261719-12.9 0-1.95078125 3.90703125 0 8.15 5.95 2 12.9 0 2.26074219-4.05 0-8.15z"/>
  <path fill="#965200" fill-opacity=".6" d="M27.85 81.5366623l.25-.05599519q1.75-14.55874633-.75-24.6938736 1.65 11.25503083.5 24.74986878zM28.15 106.1366623l.25-.05599519q1.75-14.55874633-.75-24.6938736 1.65 11.25503083.5 24.74986878z"/>
</svg>
