<svg xmlns="http://www.w3.org/2000/svg" preserveAspectRatio="none" viewBox="0 0 50 100">
  <defs>
    <linearGradient id="a" gradientUnits="userSpaceOnUse" x1=".9875" y1="-.95" x2="1.7125" y2="1.95">
      <stop offset="0%" stop-color="#FDC480"/>
      <stop offset="100%" stop-color="#664F33"/>
    </linearGradient>
  </defs>
  <path fill="#FEB000" d="M33.95 39h-.4v-3.05q.8-.35 1.3-1.85.01640625-.04941406 0-.1-7.26542969-3.03085937-15.65 0 .80839844 1.13378906 1.65 1.8v69.65h12.7v-.4h.4V39z"/>
  <path fill="#333" fill-opacity=".2" d="M40.4 18.55q.2-1.95-1.85-2.7-2.2-.35-2.85 2.45.05019531.11738281.1.2v.05l-.1.3q-.04355469-.09472656-.1-.2-.93574219 2.16699219-1.05 3.8-.1234375-.34941406-.5-.6v-.05l-.1-.05q-.40507813-.22460938-1.05-.35-.95605469-.33886719-1.65-.2l-.25-.35v-.05q-.03984375-.15917969-.2-.3l-.05-.05-.1-.05q-.32148438-.203125-.65-.25-.14101562-.028125-.35-.05l-.45-.15q-1.55-.25-3.25.35l-.25.7q-.1-.05-.9.1-.81992187.10253906-1.55.35-.13144531.06054688-.25.1-.12363281.0515625-.25.1-.06796875.05898438-.15.1-.5.25-.8 1.2l-.05.25q-.0546875.38320313-.1.7v4.15q-.01992188.43867188-.05.9l-.1-.05q-.43886719-1.24335937-2.45-1.9.02910156.13046875.05.25-.07207031-.02480469-.15-.05v-.05q-1.1-1.55-3.55-1.1-2.4 1.2-1.85 3.85 1.1 1.8 2.8 2.15l4 2.8q2.03496094 2.04628906 2.7 2.8.03125-.021875.05-.05.13027344.10839844.25.2v.05q-.05.02792969-.1.05-.6 2.25 0 4.55-1.53808594 3.4234375-.05 6.8-1.88808594 3.87597656.05 8.1.05.01679687.1 0v.1l-.1-.05q-1.95 3.9 0 8.15.05.01679687.1 0v.1l-.1-.05q-1.95 3.9 0 8.15.05.01679687.1 0v.1l-.1-.05q-1.95 3.9 0 8.15.05.01679687.1 0v.1l-.1-.05q-1.95 3.9 0 8.15.05.01679687.1 0v.1l-.1-.05q-1.95 3.9 0 8.15.05.01679687.1 0v.1l-.1-.05q-1.95 3.9 0 8.15.05.01679687.1 0v.9h7.35q-.02011719.34921875-.05.7l.25-.05q.0390625-.32617188.05-.65h5.1v-.4h.4v-1.1q1.64980469-3.45253906 0-6.95v-1.25q1.64980469-3.45253906 0-6.95v-1.25q1.64980469-3.45253906 0-6.95v-1.25q1.64980469-3.45253906 0-6.95v-1.25q1.64980469-3.45253906 0-6.95v-1.25q1.64980469-3.45253906 0-6.95v-1.25q1.64980469-3.45253906 0-6.95v-1.3q.75-2.3328125 0-5.1v-2.1q.27324219-1.55917969-.2-3.1v-.35q.15722656-.11601563.3-.3.44199219-.28535156.75-1.05.35058594-.49921875.7-1.3.05-.15.15-.35 1-2.65 1.05-6.65.0375-2.99550781-.8-3.55l1.35-4.75q.52890625-.40605469.65-1.35m-5.85 3.95q.05058594.06796875.1.1l-.05.1-.05-.1v-.1z"/>
  <path fill="#FB8800" d="M20.75 55.4q-1.95078125 3.90703125 0 8.15 5.95 2 12.9 0 2.26074219-4.05 0-8.15-6.4234375 3.23261719-12.9 0z"/>
  <path fill="#FB8800" d="M20.75 47.2q-1.95078125 3.90703125 0 8.15 5.95 2 12.9 0 2.26074219-4.05 0-8.15-6.4234375 3.23261719-12.9 0z"/>
  <path fill="#FEB000" d="M34.3 15.3q-.8.4-1 1.25l-1.2 4.25-.05-.25v-.1q-.3-.85-1.9-1.1-.8-.1-1.6-.05 0-.35-.05-.5-.05-.2-.3-.35-.35-.25-.7-.3-.5-.1-1.7-.1-1.25 0-1.7.1-.35.05-.6.3-.15.15-.2.4-.05.1-.05.2l-1 .1q-1.15.2-1.75.4-.6.25-.9.9-.15.25-.25.6-.05.05-.05.1-.1.4-.15.75V27l-2.2-1.55q-.65-.45-1.45-.35-.8.15-1.25.8l-.95 1.3q-.45.7-.3 1.5.1.8.75 1.25l7.2 5.05.1.65v1.75h12.7v-1.65q.8-.3 1.3-1.8.15-.5.25-1l.1-.45v-3.25h.05v-4.9q.05-.05.05-.15l1.85-6.5q.25-.85-.2-1.6-.4-.75-1.25-1t-1.6.2z"/>
  <path fill="#FB8800" d="M23.2 19q-.096875-.02988281-.9.05-1.225.18984375-2.2.65-.48691406.29003906-.8 1.25l-.15 2.25q.12304688 1.43671875-.05 3.75.846875 3.09707031-1.75 5.35 2.45 2.5 3.2 3.35 5.95-4.15 12.85-.2.9.5 2.1-2.25.05-.15.15-.35 1.00117188-2.64101563 1.05-6.65.04980469-4.01757813-1.4-3.65-1.44511719.42246094-2.55-1.05-.22578125-.29863281-.6-.65l-.6-1.05-1-.35q-1.0515625-.38789063-1.8-.25l-.5-.75-1.6-.5q-1.50546875-.23515625-3.2.35l-.25.7z"/>
  <path fill="#965200" fill-opacity=".6" d="M31.25 35.1960556l.5-.33146362q2.6-9.2395485.2-13.17567902 1.7 4.10186234-.7 13.50714264zM23.55 34.45026245l.5.33146362q-2.3-9.4052803-.7-13.50714263-2.25 3.93613052.2 13.17567901zM26.85 34.74029312l.5-.33146362q2.6-9.2395485.2-13.17567902 1.7 4.10186234-.7 13.50714264z"/>
  <path fill="#FB8800" d="M37.1 18.3q-2.50273438 1.13261719-4-1.65-.95 2.2-1.05 3.85 1.30585937 1.77304688 2.55 1.7.93574219-.00722656 1.35-.05.23300781-.60527344.35-.85.41191406-.8890625.8-3z"/>
  <path fill="#FB8800" d="M37.87539368 16.56519012q.24513244-1.93849182-1.79361725-2.68867492-2.25340271-.35060425-2.8632248 2.39521637.7567978 1.80259247 2.56605683 2.03138275 1.84565277.20056763 2.09078522-1.7379242zM12.88838577 24.09012833q-2.39607086 1.17258758-1.82213745 3.81920013 1.09246674 1.79887085 2.79376679 2.15425415 2.82139587-1.08374176 2.59848327-4.92039184-1.09464798-1.5432396-3.5701126-1.05306244z"/>
  <path fill="#FB8800" d="M16.55 25q.85 3.8-2.25 5.05 2.24609375 2.38183594 2.9 1.8.7078125-.5359375 1.4-1.6.70097656-1.06210937.55-2.75-.16191406-1.68867187-2.6-2.5z"/>
  <path fill="url(#a)" d="M.6 2.85q1.05-.85 2.5-.9Q3.25.6 2.2-.1.2.2.1 1.1 0 2 .6 2.85z" transform="matrix(.75743 -.65288 .65288 .75743 10.9 27.3)"/>
  <path fill="url(#a)" d="M.6 2.85q1.05-.85 2.5-.9Q3.25.6 2.2-.1.2.2.1 1.1 0 2 .6 2.85z" transform="matrix(.54056 .6341 -.6341 .54056 35.65 14.25)"/>
  <path fill="#FB8800" d="M33.65 47.3q1.34667969-3.03554687 0-6.85-7.2 2.05-12.9 0-1.53984375 3.45 0 6.85 5.95 1.75 12.9 0zM20.75 71.8q-1.95078125 3.90703125 0 8.15 5.95 2 12.9 0 2.26074219-4.05 0-8.15-6.4234375 3.23261719-12.9 0z"/>
  <path fill="#FB8800" d="M20.75 63.6q-1.95078125 3.90703125 0 8.15 5.95 2 12.9 0 2.26074219-4.05 0-8.15-6.4234375 3.23261719-12.9 0zM20.75 88.2q-1.95078125 3.90703125 0 8.15 5.95 2 12.9 0 2.26074219-4.05 0-8.15-6.4234375 3.23261719-12.9 0z"/>
  <path fill="#FB8800" d="M20.75 80q-1.95078125 3.90703125 0 8.15 5.95 2 12.9 0 2.26074219-4.05 0-8.15-6.4234375 3.23261719-12.9 0zM20.75 96.4q-1.95078125 3.90703125 0 8.15 5.95 2 12.9 0 2.26074219-4.05 0-8.15-6.4234375 3.23261719-12.9 0z"/>
  <path fill="#965200" fill-opacity=".6" d="M27.85 81.5366623l.25-.05599519q1.75-14.55874633-.75-24.6938736 1.65 11.25503083.5 24.74986878zM28.15 106.1366623l.25-.05599519q1.75-14.55874633-.75-24.6938736 1.65 11.25503083.5 24.74986878z"/>
  <path fill="#FB8800" d="M33.65 40.45q.8-2.3 0-4.55-6.09394531-2.97988281-12.9 0-.6 2.25 0 4.55 5.76855469.96855469 12.9 0z"/>
  <path fill="#965200" fill-opacity=".6" d="M27.65 56.55l.25-.05q1.76113281-13.00800781-.75-22.05 1.63554687 10.05.5 22.1z"/>
</svg>
